G04 ================== begin FILE IDENTIFICATION RECORD ==================*
G04 Layout Name:  BeagleBadge_V1.0_260728.brd*
G04 Film Name:    BMSK*
G04 File Format:  Gerber RS274X*
G04 File Origin:  Cadence Allegro 17.4-S035*
G04 Origin Date:  Wed Aug 26 15:41:08 2026*
G04 *
G04 Layer:  PIN/SOLDERMASK_BOTTOM*
G04 Layer:  PACKAGE GEOMETRY/SOLDERMASK_BOTTOM*
G04 Layer:  DRAWING FORMAT/TITLE_BLOCK*
G04 Layer:  DRAWING FORMAT/TB_BMSK*
G04 Layer:  BOARD GEOMETRY/OUTLINE*
G04 Layer:  BOARD GEOMETRY/SOLDERMASK_BOTTOM*
G04 *
G04 Offset:    (0.0000 0.0000)*
G04 Mirror:    No*
G04 Mode:      Positive*
G04 Rotation:  0*
G04 FullContactRelief:  No*
G04 UndefLineWidth:     6.0000*
G04 ================== end FILE IDENTIFICATION RECORD ====================*
%FSLAX25Y25*MOIN*%
%IR0*IPPOS*OFA0.00000B0.00000*MIA0B0*SFA1.00000B1.00000*%
%AMMACRO25*
4,1,44,.019685,.005906,
.019685,-.005906,
.019476,-.008298,
.018854,-.010618,
.017839,-.012795,
.016461,-.014763,
.014763,-.016461,
.012795,-.017839,
.010618,-.018854,
.008298,-.019476,
.005906,-.019685,
.005906,-.019685,
-.005906,-.019685,
-.008298,-.019476,
-.010618,-.018854,
-.012795,-.017839,
-.014763,-.016461,
-.016461,-.014763,
-.017839,-.012795,
-.018854,-.010618,
-.019476,-.008298,
-.019685,-.005906,
-.019685,-.005906,
-.019685,.005906,
-.019476,.008298,
-.018854,.010618,
-.017839,.012795,
-.016461,.014763,
-.014763,.016461,
-.012795,.017839,
-.010618,.018854,
-.008298,.019476,
-.005906,.019685,
-.005906,.019685,
.005906,.019685,
.008298,.019476,
.010618,.018854,
.012795,.017839,
.014763,.016461,
.016461,.014763,
.017839,.012795,
.018854,.010618,
.019476,.008298,
.019685,.005906,
.019685,.005906,
0.0*
%
%ADD25MACRO25*%
%AMMACRO10*
4,1,40,-.026968,-.015532,
-.026968,.015532,
-.026909,.016215,
-.026731,.016878,
-.026441,.0175,
-.026047,.018062,
-.025562,.018547,
-.025,.018941,
-.024378,.019231,
-.023715,.019409,
-.023032,.019468,
.023032,.019468,
.023715,.019409,
.024378,.019231,
.025,.018941,
.025562,.018547,
.026047,.018062,
.026441,.0175,
.026731,.016878,
.026909,.016215,
.026968,.015532,
.026968,-.015532,
.026909,-.016215,
.026731,-.016878,
.026441,-.0175,
.026047,-.018062,
.025562,-.018547,
.025,-.018941,
.024378,-.019231,
.023715,-.019409,
.023032,-.019468,
-.023032,-.019468,
-.023715,-.019409,
-.024378,-.019231,
-.025,-.018941,
-.025562,-.018547,
-.026047,-.018062,
-.026441,-.0175,
-.026731,-.016878,
-.026909,-.016215,
-.026968,-.015532,
0.0*
%
%ADD10MACRO10*%
%AMMACRO14*
4,1,40,-.015532,.026968,
.015532,.026968,
.016215,.026909,
.016878,.026731,
.0175,.026441,
.018062,.026047,
.018547,.025562,
.018941,.025,
.019231,.024378,
.019409,.023715,
.019468,.023032,
.019468,-.023032,
.019409,-.023715,
.019231,-.024378,
.018941,-.025,
.018547,-.025562,
.018062,-.026047,
.0175,-.026441,
.016878,-.026731,
.016215,-.026909,
.015532,-.026968,
-.015532,-.026968,
-.016215,-.026909,
-.016878,-.026731,
-.0175,-.026441,
-.018062,-.026047,
-.018547,-.025562,
-.018941,-.025,
-.019231,-.024378,
-.019409,-.023715,
-.019468,-.023032,
-.019468,.023032,
-.019409,.023715,
-.019231,.024378,
-.018941,.025,
-.018547,.025562,
-.018062,.026047,
-.0175,.026441,
-.016878,.026731,
-.016215,.026909,
-.015532,.026968,
0.0*
%
%ADD14MACRO14*%
%AMMACRO29*
4,1,44,-.014764,-.009842,
-.014764,.009842,
-.014704,.010526,
-.014526,.011189,
-.014236,.011811,
-.013843,.012373,
-.013357,.012858,
-.012795,.013252,
-.012173,.013542,
-.011511,.01372,
-.010827,.01378,
-.010827,.01378,
.010827,.01378,
.01151,.01372,
.012173,.013542,
.012795,.013252,
.013357,.012858,
.013843,.012373,
.014236,.011811,
.014526,.011189,
.014704,.010526,
.014764,.009843,
.014764,.009842,
.014764,-.009842,
.014704,-.010526,
.014526,-.011189,
.014236,-.011811,
.013843,-.012373,
.013357,-.012858,
.012795,-.013252,
.012173,-.013542,
.011511,-.01372,
.010827,-.01378,
.010827,-.01378,
-.010827,-.01378,
-.01151,-.01372,
-.012173,-.013542,
-.012795,-.013252,
-.013357,-.012858,
-.013843,-.012373,
-.014236,-.011811,
-.014526,-.011189,
-.014704,-.010526,
-.014764,-.009843,
-.014764,-.009842,
0.0*
%
%ADD29MACRO29*%
%ADD26C,.035433*%
%ADD19C,.055118*%
%ADD15C,.03937*%
%ADD23C,.022835*%
%ADD31C,.07874*%
%ADD18C,.027559*%
%ADD28C,.066929*%
%AMMACRO32*
4,1,44,-.031496,.001968,
-.031496,-.001968,
-.031257,-.004703,
-.030546,-.007355,
-.029386,-.009843,
-.027812,-.012091,
-.025871,-.014032,
-.023622,-.015607,
-.021134,-.016767,
-.018483,-.017477,
-.015748,-.017717,
-.015748,-.017716,
.015748,-.017716,
.018483,-.017477,
.021134,-.016767,
.023622,-.015607,
.025871,-.014032,
.027812,-.012091,
.029386,-.009843,
.030546,-.007355,
.031257,-.004703,
.031496,-.001969,
.031496,-.001968,
.031496,.001968,
.031257,.004703,
.030546,.007355,
.029386,.009843,
.027812,.012091,
.025871,.014032,
.023622,.015607,
.021134,.016767,
.018483,.017477,
.015748,.017717,
.015748,.017716,
-.015748,.017716,
-.018483,.017477,
-.021134,.016767,
-.023622,.015607,
-.025871,.014032,
-.027812,.012091,
-.029386,.009843,
-.030546,.007355,
-.031257,.004703,
-.031496,.001969,
-.031496,.001968,
0.0*
%
%ADD32MACRO32*%
%ADD27R,.066929X.066929*%
%AMMACRO21*
4,1,44,-.019685,-.005906,
-.019685,.005906,
-.019476,.008298,
-.018854,.010618,
-.017839,.012795,
-.016461,.014763,
-.014763,.016461,
-.012795,.017839,
-.010618,.018854,
-.008298,.019476,
-.005906,.019685,
-.005906,.019685,
.005906,.019685,
.008298,.019476,
.010618,.018854,
.012795,.017839,
.014763,.016461,
.016461,.014763,
.017839,.012795,
.018854,.010618,
.019476,.008298,
.019685,.005906,
.019685,.005906,
.019685,-.005906,
.019476,-.008298,
.018854,-.010618,
.017839,-.012795,
.016461,-.014763,
.014763,-.016461,
.012795,-.017839,
.010618,-.018854,
.008298,-.019476,
.005906,-.019685,
.005906,-.019685,
-.005906,-.019685,
-.008298,-.019476,
-.010618,-.018854,
-.012795,-.017839,
-.014763,-.016461,
-.016461,-.014763,
-.017839,-.012795,
-.018854,-.010618,
-.019476,-.008298,
-.019685,-.005906,
-.019685,-.005906,
0.0*
%
%ADD21MACRO21*%
%AMMACRO20*
4,1,44,-.005906,.019685,
.005906,.019685,
.008298,.019476,
.010618,.018854,
.012795,.017839,
.014763,.016461,
.016461,.014763,
.017839,.012795,
.018854,.010618,
.019476,.008298,
.019685,.005906,
.019685,.005906,
.019685,-.005906,
.019476,-.008298,
.018854,-.010618,
.017839,-.012795,
.016461,-.014763,
.014763,-.016461,
.012795,-.017839,
.010618,-.018854,
.008298,-.019476,
.005906,-.019685,
.005906,-.019685,
-.005906,-.019685,
-.008298,-.019476,
-.010618,-.018854,
-.012795,-.017839,
-.014763,-.016461,
-.016461,-.014763,
-.017839,-.012795,
-.018854,-.010618,
-.019476,-.008298,
-.019685,-.005906,
-.019685,-.005906,
-.019685,.005906,
-.019476,.008298,
-.018854,.010618,
-.017839,.012795,
-.016461,.014763,
-.014763,.016461,
-.012795,.017839,
-.010618,.018854,
-.008298,.019476,
-.005906,.019685,
-.005906,.019685,
0.0*
%
%ADD20MACRO20*%
%AMMACRO16*
4,1,40,.026968,.015532,
.026968,-.015532,
.026909,-.016215,
.026731,-.016878,
.026441,-.0175,
.026047,-.018062,
.025562,-.018547,
.025,-.018941,
.024378,-.019231,
.023715,-.019409,
.023032,-.019468,
-.023032,-.019468,
-.023715,-.019409,
-.024378,-.019231,
-.025,-.018941,
-.025562,-.018547,
-.026047,-.018062,
-.026441,-.0175,
-.026731,-.016878,
-.026909,-.016215,
-.026968,-.015532,
-.026968,.015532,
-.026909,.016215,
-.026731,.016878,
-.026441,.0175,
-.026047,.018062,
-.025562,.018547,
-.025,.018941,
-.024378,.019231,
-.023715,.019409,
-.023032,.019468,
.023032,.019468,
.023715,.019409,
.024378,.019231,
.025,.018941,
.025562,.018547,
.026047,.018062,
.026441,.0175,
.026731,.016878,
.026909,.016215,
.026968,.015532,
0.0*
%
%ADD16MACRO16*%
%AMMACRO13*
4,1,40,.015532,-.026968,
-.015532,-.026968,
-.016215,-.026909,
-.016878,-.026731,
-.0175,-.026441,
-.018062,-.026047,
-.018547,-.025562,
-.018941,-.025,
-.019231,-.024378,
-.019409,-.023715,
-.019468,-.023032,
-.019468,.023032,
-.019409,.023715,
-.019231,.024378,
-.018941,.025,
-.018547,.025562,
-.018062,.026047,
-.0175,.026441,
-.016878,.026731,
-.016215,.026909,
-.015532,.026968,
.015532,.026968,
.016215,.026909,
.016878,.026731,
.0175,.026441,
.018062,.026047,
.018547,.025562,
.018941,.025,
.019231,.024378,
.019409,.023715,
.019468,.023032,
.019468,-.023032,
.019409,-.023715,
.019231,-.024378,
.018941,-.025,
.018547,-.025562,
.018062,-.026047,
.0175,-.026441,
.016878,-.026731,
.016215,-.026909,
.015532,-.026968,
0.0*
%
%ADD13MACRO13*%
%AMMACRO11*
4,1,44,.020879,.037582,
.037582,.020879,
.038465,.019828,
.039151,.018639,
.03962,.017349,
.039859,.015998,
.039859,.014625,
.03962,.013273,
.039151,.011984,
.038465,.010795,
.037583,.009744,
.037582,.009744,
-.009744,-.037582,
-.010795,-.038465,
-.011984,-.039151,
-.013273,-.03962,
-.014625,-.039859,
-.015998,-.039859,
-.017349,-.03962,
-.018639,-.039151,
-.019828,-.038465,
-.020879,-.037583,
-.020879,-.037582,
-.037582,-.020879,
-.038465,-.019828,
-.039151,-.018639,
-.03962,-.017349,
-.039859,-.015998,
-.039859,-.014625,
-.03962,-.013273,
-.039151,-.011984,
-.038465,-.010795,
-.037583,-.009744,
-.037582,-.009744,
.009744,.037582,
.010795,.038465,
.011984,.039151,
.013273,.03962,
.014625,.039859,
.015998,.039859,
.017349,.03962,
.018639,.039151,
.019828,.038465,
.020879,.037583,
.020879,.037582,
0.0*
%
%ADD11MACRO11*%
%AMMACRO12*
4,1,44,.005568,.038974,
.038974,.005568,
.039857,.004516,
.040543,.003328,
.041012,.002038,
.041251,.000686,
.041251,-.000686,
.041012,-.002038,
.040543,-.003328,
.039857,-.004516,
.038974,-.005568,
.038974,-.005568,
.005568,-.038974,
.004516,-.039857,
.003328,-.040543,
.002038,-.041012,
.000686,-.041251,
-.000686,-.041251,
-.002038,-.041012,
-.003328,-.040543,
-.004516,-.039857,
-.005568,-.038974,
-.005568,-.038974,
-.038974,-.005568,
-.039857,-.004516,
-.040543,-.003328,
-.041012,-.002038,
-.041251,-.000686,
-.041251,.000686,
-.041012,.002038,
-.040543,.003328,
-.039857,.004516,
-.038974,.005568,
-.038974,.005568,
-.005568,.038974,
-.004516,.039857,
-.003328,.040543,
-.002038,.041012,
-.000686,.041251,
.000686,.041251,
.002038,.041012,
.003328,.040543,
.004516,.039857,
.005568,.038974,
.005568,.038974,
0.0*
%
%ADD12MACRO12*%
%ADD24C,.1509*%
%ADD22O,.051181X.090551*%
%AMMACRO30*
4,1,44,-.017716,-.015748,
-.017716,.015748,
-.017687,.01609,
-.017598,.016421,
-.017453,.016732,
-.017256,.017013,
-.017013,.017256,
-.016732,.017453,
-.016421,.017598,
-.01609,.017687,
-.015748,.017717,
-.015748,.017716,
.015748,.017716,
.01609,.017687,
.016421,.017598,
.016732,.017453,
.017013,.017256,
.017256,.017013,
.017453,.016732,
.017598,.016421,
.017687,.01609,
.017717,.015748,
.017716,.015748,
.017716,-.015748,
.017687,-.01609,
.017598,-.016421,
.017453,-.016732,
.017256,-.017013,
.017013,-.017256,
.016732,-.017453,
.016421,-.017598,
.01609,-.017687,
.015748,-.017717,
.015748,-.017716,
-.015748,-.017716,
-.01609,-.017687,
-.016421,-.017598,
-.016732,-.017453,
-.017013,-.017256,
-.017256,-.017013,
-.017453,-.016732,
-.017598,-.016421,
-.017687,-.01609,
-.017717,-.015748,
-.017716,-.015748,
0.0*
%
%ADD30MACRO30*%
%AMMACRO17*
4,1,40,.019095,-.051969,
-.019095,-.051969,
-.020462,-.051849,
-.021788,-.051494,
-.023031,-.050914,
-.024156,-.050126,
-.025126,-.049156,
-.025914,-.048032,
-.026494,-.046788,
-.026849,-.045462,
-.026968,-.044094,
-.026968,.044094,
-.026849,.045462,
-.026494,.046788,
-.025914,.048031,
-.025126,.049156,
-.024156,.050126,
-.023032,.050914,
-.021788,.051494,
-.020462,.051849,
-.019095,.051969,
.019095,.051969,
.020462,.051849,
.021788,.051494,
.023031,.050914,
.024156,.050126,
.025126,.049156,
.025914,.048031,
.026494,.046788,
.026849,.045462,
.026968,.044094,
.026968,-.044094,
.026849,-.045462,
.026494,-.046788,
.025914,-.048031,
.025126,-.049156,
.024156,-.050126,
.023032,-.050914,
.021788,-.051494,
.020462,-.051849,
.019095,-.051969,
0.0*
%
%ADD17MACRO17*%
%ADD33C,.02*%
%ADD34C,.005*%
%ADD35C,.006*%
G75*
%LPD*%
G75*
G54D10*
X136183Y382639D03*
Y389639D03*
Y430338D03*
Y437338D03*
G54D11*
X146540Y278589D03*
X150437Y274692D03*
X154334Y270794D03*
X164357Y296406D03*
X168254Y292508D03*
X172151Y288611D03*
G54D20*
X203996Y506672D03*
X270459Y473672D03*
X382800Y381400D03*
X379700Y547400D03*
X387348Y547561D03*
Y555498D03*
X420948Y481835D03*
X428848Y481935D03*
X462485Y447072D03*
X472422Y440772D03*
X487633Y491672D03*
G54D30*
X517200Y236447D03*
Y242353D03*
G54D12*
X148210Y294736D03*
X170481Y272464D03*
G54D21*
X210650Y312700D03*
X330387Y373648D03*
X338750D03*
X403200Y435400D03*
X403700Y444400D03*
X411901Y489456D03*
X448784Y426485D03*
G54D22*
X233054Y551339D03*
Y567875D03*
X266912Y551339D03*
Y567875D03*
G54D13*
X143561Y373800D03*
Y421218D03*
X150561Y373800D03*
Y421218D03*
X159061Y373800D03*
Y421218D03*
X166061Y373800D03*
Y421218D03*
G54D31*
X520681Y254050D03*
X520181Y264050D03*
X519681Y274050D03*
X520181Y284050D03*
X520681Y294050D03*
Y304050D03*
X521681Y314050D03*
X522559Y324050D03*
X521468Y334050D03*
X520575Y344050D03*
X522043Y354050D03*
X520575Y364050D03*
X522059Y374050D03*
X521181Y384050D03*
X521681Y394050D03*
X523681Y404050D03*
X523181Y414050D03*
X522681Y424050D03*
X523181Y434050D03*
X523681Y444050D03*
Y454050D03*
X524681Y464050D03*
X525559Y474050D03*
X524468Y484050D03*
X523575Y494050D03*
X525043Y504050D03*
X523575Y514050D03*
X525059Y524050D03*
X524181Y534050D03*
X524681Y544050D03*
G54D32*
X555528Y274881D03*
Y279881D03*
Y289881D03*
Y284881D03*
Y294881D03*
Y304881D03*
Y299881D03*
Y309881D03*
G54D23*
X238664Y553505D03*
X261302D03*
G54D14*
X144061Y398347D03*
Y445717D03*
X151061Y398347D03*
Y445717D03*
X159561Y398347D03*
Y445717D03*
X166561Y398347D03*
Y445717D03*
G54D33*
G01X139000Y485500D02*
X131000D01*
G01Y501000D02*
X139000D01*
Y495000D01*
G54D24*
X268021Y346704D03*
X314872Y481758D03*
X464479D03*
X480227Y316404D03*
G54D15*
X154056Y288889D03*
G54D34*
G01X132840Y219900D02*
X553960D01*
G03X559960Y225900I0J6000D01*
G01Y572200D01*
G03X553960Y578200I-6000J0D01*
G01X132840D01*
G03X126840Y572200I0J-6000D01*
G01Y225900D01*
G03X132840Y219900I6000J0D01*
G01X184008Y363645D02*
X189851D01*
G03X191851Y365645I0J2000D01*
G01Y432512D01*
G03X189851Y434512I-2000J0D01*
G01X184008D01*
G03X182008Y432512I0J-2000D01*
G01Y365645D01*
G03X184008Y363645I2000J0D01*
G01X503067Y415517D02*
X497949D01*
G01D02*
Y412761D01*
G01D02*
X503067D01*
G01X497949Y446226D02*
Y448982D01*
G01D02*
X503067D01*
G01Y446226D02*
X497949D01*
G01X503067Y412761D02*
Y415517D01*
G01Y448982D02*
Y446226D01*
G01X552020Y238700D02*
G03I-10750J0D01*
G01X551980Y559480D02*
G03I-10750J0D01*
G01X541499Y345846D02*
G03Y339677I0J-3085D01*
G01Y345846D02*
G03Y339677I0J-3085D01*
G01X536618Y382678D02*
Y417922D01*
G02X538618Y419922I2000J0D01*
G01X544460D01*
G02X546460Y417922I0J-2000D01*
G01Y406500D01*
G03X548460Y404500I2000J0D01*
G01X549460D01*
G02X551460Y402500I0J-2000D01*
G01Y396500D01*
G02X549460Y394500I-2000J0D01*
G01X548460D01*
G03X546460Y392500I0J-2000D01*
G01Y382678D01*
G02X544460Y380678I-2000J0D01*
G01X538618D01*
G02X536618Y382678I0J2000D01*
G01X541499Y456083D02*
G03Y449913I0J-3085D01*
G01Y339677D02*
G03Y345846I0J3085D01*
G01Y449913D02*
G03Y456083I0J3085D01*
G54D16*
X155182Y389139D03*
Y382139D03*
Y429838D03*
Y436838D03*
X173517Y389139D03*
Y382139D03*
Y429838D03*
Y436838D03*
G54D25*
X282600Y482600D03*
X376172Y458352D03*
X381200Y352600D03*
X380400Y477100D03*
G54D35*
G01X497949Y415517D02*
X503067D01*
Y412761D01*
X497949D01*
Y415517D01*
G01D02*
X503067D01*
Y412761D01*
X497949D01*
Y415517D01*
G01Y448982D02*
X503067D01*
Y446226D01*
X497949D01*
Y448982D01*
G01D02*
X503067D01*
Y446226D01*
X497949D01*
Y448982D01*
G54D17*
X150846Y469844D03*
Y502356D03*
Y535044D03*
Y567556D03*
X167846Y469844D03*
Y502356D03*
Y535044D03*
Y567556D03*
G54D26*
X470189Y555128D03*
X501685D03*
G54D27*
X506800Y225011D03*
G54D18*
X164635Y278311D03*
X550981Y272381D03*
Y277381D03*
Y287381D03*
Y282381D03*
Y297381D03*
Y292381D03*
Y302381D03*
Y312381D03*
Y307381D03*
G54D28*
X516800Y225011D03*
G54D19*
X194117Y261632D03*
X213802D03*
G54D29*
X515528Y567206D03*
Y561694D03*
X519072Y567206D03*
Y561694D03*
M02*
