G04 ================== begin FILE IDENTIFICATION RECORD ==================*
G04 Layout Name:  BeagleBadge_V1.0_260728.brd*
G04 Film Name:    BPST*
G04 File Format:  Gerber RS274X*
G04 File Origin:  Cadence Allegro 17.4-S035*
G04 Origin Date:  Wed Aug 26 15:41:08 2026*
G04 *
G04 Layer:  PIN/PASTEMASK_BOTTOM*
G04 Layer:  PACKAGE GEOMETRY/PASTEMASK_BOTTOM*
G04 Layer:  DRAWING FORMAT/TITLE_BLOCK*
G04 Layer:  DRAWING FORMAT/TB_BPST*
G04 Layer:  BOARD GEOMETRY/OUTLINE*
G04 *
G04 Offset:    (0.0000 0.0000)*
G04 Mirror:    No*
G04 Mode:      Positive*
G04 Rotation:  0*
G04 FullContactRelief:  No*
G04 UndefLineWidth:     6.0000*
G04 ================== end FILE IDENTIFICATION RECORD ====================*
%FSLAX25Y25*MOIN*%
%IR0*IPPOS*OFA0.00000B0.00000*MIA0B0*SFA1.00000B1.00000*%
%AMMACRO18*
4,1,44,-.015748,-.01378,
-.015748,.01378,
-.015718,.014121,
-.015629,.014453,
-.015484,.014764,
-.015288,.015045,
-.015045,.015287,
-.014764,.015484,
-.014453,.015629,
-.014121,.015718,
-.01378,.015748,
-.01378,.015748,
.01378,.015748,
.014121,.015718,
.014453,.015629,
.014764,.015484,
.015045,.015288,
.015287,.015045,
.015484,.014764,
.015629,.014453,
.015718,.014121,
.015748,.01378,
.015748,.01378,
.015748,-.01378,
.015718,-.014121,
.015629,-.014453,
.015484,-.014764,
.015288,-.015045,
.015045,-.015287,
.014764,-.015484,
.014453,-.015629,
.014121,-.015718,
.01378,-.015748,
.01378,-.015748,
-.01378,-.015748,
-.014121,-.015718,
-.014453,-.015629,
-.014764,-.015484,
-.015045,-.015288,
-.015287,-.015045,
-.015484,-.014764,
-.015629,-.014453,
-.015718,-.014121,
-.015748,-.01378,
-.015748,-.01378,
0.0*
%
%ADD18MACRO18*%
%AMMACRO15*
4,1,40,.025,.013563,
.025,-.013563,
.02494,-.014247,
.024763,-.01491,
.024473,-.015531,
.024079,-.016094,
.023594,-.016579,
.023032,-.016973,
.02241,-.017263,
.021747,-.01744,
.021063,-.0175,
-.021063,-.0175,
-.021747,-.01744,
-.02241,-.017263,
-.023031,-.016973,
-.023594,-.016579,
-.024079,-.016094,
-.024473,-.015532,
-.024763,-.01491,
-.02494,-.014247,
-.025,-.013563,
-.025,.013563,
-.02494,.014247,
-.024763,.01491,
-.024473,.015531,
-.024079,.016094,
-.023594,.016579,
-.023032,.016973,
-.02241,.017263,
-.021747,.01744,
-.021063,.0175,
.021063,.0175,
.021747,.01744,
.02241,.017263,
.023031,.016973,
.023594,.016579,
.024079,.016094,
.024473,.015532,
.024763,.01491,
.02494,.014247,
.025,.013563,
0.0*
%
%ADD15MACRO15*%
%AMMACRO13*
4,1,40,.013563,-.025,
-.013563,-.025,
-.014247,-.02494,
-.01491,-.024763,
-.015531,-.024473,
-.016094,-.024079,
-.016579,-.023594,
-.016973,-.023032,
-.017263,-.02241,
-.01744,-.021747,
-.0175,-.021063,
-.0175,.021063,
-.01744,.021747,
-.017263,.02241,
-.016973,.023031,
-.016579,.023594,
-.016094,.024079,
-.015532,.024473,
-.01491,.024763,
-.014247,.02494,
-.013563,.025,
.013563,.025,
.014247,.02494,
.01491,.024763,
.015532,.024473,
.016094,.024079,
.016579,.023594,
.016973,.023031,
.017263,.02241,
.01744,.021747,
.0175,.021063,
.0175,-.021063,
.01744,-.021747,
.017263,-.02241,
.016973,-.023031,
.016579,-.023594,
.016094,-.024079,
.015532,-.024473,
.01491,-.024763,
.014247,-.02494,
.013563,-.025,
0.0*
%
%ADD13MACRO13*%
%AMMACRO19*
4,1,42,-.029528,0.0,
-.029288,-.002735,
-.028578,-.005386,
-.027418,-.007874,
-.025843,-.010123,
-.023902,-.012064,
-.021654,-.013638,
-.019166,-.014798,
-.016514,-.015509,
-.01378,-.015748,
-.01378,-.015748,
.01378,-.015748,
.016514,-.015509,
.019166,-.014798,
.021654,-.013638,
.023902,-.012064,
.025843,-.010123,
.027418,-.007874,
.028578,-.005386,
.029288,-.002735,
.029528,0.0,
.029528,0.0,
.029288,.002735,
.028578,.005386,
.027418,.007874,
.025843,.010123,
.023902,.012064,
.021654,.013638,
.019166,.014798,
.016514,.015509,
.01378,.015748,
.01378,.015748,
-.01378,.015748,
-.016514,.015509,
-.019166,.014798,
-.021654,.013638,
-.023902,.012064,
-.025843,.010123,
-.027418,.007874,
-.028578,.005386,
-.029288,.002735,
-.029528,0.0,
-.029528,0.0,
0.0*
%
%ADD19MACRO19*%
%AMMACRO11*
4,1,44,.020879,.034798,
.034798,.020879,
.035681,.019828,
.036367,.018639,
.036837,.017349,
.037075,.015998,
.037075,.014625,
.036837,.013273,
.036367,.011984,
.035681,.010795,
.034799,.009744,
.034798,.009744,
-.009744,-.034798,
-.010795,-.035681,
-.011984,-.036367,
-.013273,-.036837,
-.014625,-.037075,
-.015998,-.037075,
-.017349,-.036837,
-.018639,-.036367,
-.019828,-.035681,
-.020879,-.034799,
-.020879,-.034798,
-.034798,-.020879,
-.035681,-.019828,
-.036367,-.018639,
-.036837,-.017349,
-.037075,-.015998,
-.037075,-.014625,
-.036837,-.013273,
-.036367,-.011984,
-.035681,-.010795,
-.034799,-.009744,
-.034798,-.009744,
.009744,.034798,
.010795,.035681,
.011984,.036367,
.013273,.036837,
.014625,.037075,
.015998,.037075,
.017349,.036837,
.018639,.036367,
.019828,.035681,
.020879,.034799,
.020879,.034798,
0.0*
%
%ADD11MACRO11*%
%AMMACRO12*
4,1,40,.005568,.036191,
.036191,.005568,
.037073,.004516,
.037759,.003328,
.038228,.002038,
.038467,.000686,
.038467,-.000686,
.038228,-.002038,
.037759,-.003328,
.037073,-.004516,
.036191,-.005568,
.005568,-.036191,
.004516,-.037073,
.003328,-.037759,
.002038,-.038228,
.000686,-.038467,
-.000686,-.038467,
-.002038,-.038228,
-.003328,-.037759,
-.004516,-.037073,
-.005568,-.036191,
-.036191,-.005568,
-.037073,-.004516,
-.037759,-.003328,
-.038228,-.002038,
-.038467,-.000686,
-.038467,.000686,
-.038228,.002038,
-.037759,.003328,
-.037073,.004516,
-.036191,.005568,
-.005568,.036191,
-.004516,.037073,
-.003328,.037759,
-.002038,.038228,
-.000686,.038467,
.000686,.038467,
.002038,.038228,
.003328,.037759,
.004516,.037073,
.005568,.036191,
0.0*
%
%ADD12MACRO12*%
%AMMACRO16*
4,1,40,.017126,-.05,
-.017126,-.05,
-.018493,-.04988,
-.019819,-.049525,
-.021063,-.048945,
-.022187,-.048158,
-.023158,-.047187,
-.023945,-.046063,
-.024525,-.044819,
-.02488,-.043493,
-.025,-.042126,
-.025,.042126,
-.02488,.043493,
-.024525,.044819,
-.023945,.046063,
-.023158,.047187,
-.022187,.048158,
-.021063,.048945,
-.019819,.049525,
-.018493,.04988,
-.017126,.05,
.017126,.05,
.018493,.04988,
.019819,.049525,
.021063,.048945,
.022187,.048158,
.023158,.047187,
.023945,.046063,
.024525,.044819,
.02488,.043493,
.025,.042126,
.025,-.042126,
.02488,-.043493,
.024525,-.044819,
.023945,-.046063,
.023158,-.047187,
.022187,-.048158,
.021063,-.048945,
.019819,-.049525,
.018493,-.04988,
.017126,-.05,
0.0*
%
%ADD16MACRO16*%
%AMMACRO10*
4,1,40,-.025,-.013563,
-.025,.013563,
-.02494,.014247,
-.024763,.01491,
-.024473,.015531,
-.024079,.016094,
-.023594,.016579,
-.023032,.016973,
-.02241,.017263,
-.021747,.01744,
-.021063,.0175,
.021063,.0175,
.021747,.01744,
.02241,.017263,
.023031,.016973,
.023594,.016579,
.024079,.016094,
.024473,.015532,
.024763,.01491,
.02494,.014247,
.025,.013563,
.025,-.013563,
.02494,-.014247,
.024763,-.01491,
.024473,-.015531,
.024079,-.016094,
.023594,-.016579,
.023032,-.016973,
.02241,-.017263,
.021747,-.01744,
.021063,-.0175,
-.021063,-.0175,
-.021747,-.01744,
-.02241,-.017263,
-.023031,-.016973,
-.023594,-.016579,
-.024079,-.016094,
-.024473,-.015532,
-.024763,-.01491,
-.02494,-.014247,
-.025,-.013563,
0.0*
%
%ADD10MACRO10*%
%AMMACRO14*
4,1,40,-.013563,.025,
.013563,.025,
.014247,.02494,
.01491,.024763,
.015532,.024473,
.016094,.024079,
.016579,.023594,
.016973,.023031,
.017263,.02241,
.01744,.021747,
.0175,.021063,
.0175,-.021063,
.01744,-.021747,
.017263,-.02241,
.016973,-.023031,
.016579,-.023594,
.016094,-.024079,
.015532,-.024473,
.01491,-.024763,
.014247,-.02494,
.013563,-.025,
-.013563,-.025,
-.014247,-.02494,
-.01491,-.024763,
-.015531,-.024473,
-.016094,-.024079,
-.016579,-.023594,
-.016973,-.023032,
-.017263,-.02241,
-.01744,-.021747,
-.0175,-.021063,
-.0175,.021063,
-.01744,.021747,
-.017263,.02241,
-.016973,.023031,
-.016579,.023594,
-.016094,.024079,
-.015532,.024473,
-.01491,.024763,
-.014247,.02494,
-.013563,.025,
0.0*
%
%ADD14MACRO14*%
%AMMACRO17*
4,1,40,-.012795,-.007874,
-.012795,.007874,
-.012735,.008558,
-.012558,.009221,
-.012268,.009842,
-.011874,.010405,
-.011389,.01089,
-.010827,.011284,
-.010205,.011574,
-.009542,.011751,
-.008858,.011811,
.008858,.011811,
.009542,.011751,
.010205,.011574,
.010827,.011284,
.011389,.01089,
.011874,.010405,
.012268,.009842,
.012558,.009221,
.012735,.008558,
.012795,.007874,
.012795,-.007874,
.012735,-.008558,
.012558,-.009221,
.012268,-.009842,
.011874,-.010405,
.011389,-.01089,
.010827,-.011284,
.010205,-.011574,
.009542,-.011751,
.008858,-.011811,
-.008858,-.011811,
-.009542,-.011751,
-.010205,-.011574,
-.010827,-.011284,
-.011389,-.01089,
-.011874,-.010405,
-.012268,-.009843,
-.012558,-.009221,
-.012735,-.008558,
-.012795,-.007874,
0.0*
%
%ADD17MACRO17*%
%ADD20C,.02*%
%ADD21C,.005*%
%ADD22C,.006*%
G75*
%LPD*%
G75*
G54D10*
X136183Y382639D03*
Y389639D03*
Y430338D03*
Y437338D03*
G54D20*
G01X139000Y485500D02*
X131000D01*
G01Y501000D02*
X139000D01*
Y495000D01*
G54D11*
X146540Y278589D03*
X150437Y274692D03*
X154334Y270794D03*
X164357Y296406D03*
X168254Y292508D03*
X172151Y288611D03*
G54D21*
G01X132840Y219900D02*
X553960D01*
G03X559960Y225900I0J6000D01*
G01Y572200D01*
G03X553960Y578200I-6000J0D01*
G01X132840D01*
G03X126840Y572200I0J-6000D01*
G01Y225900D01*
G03X132840Y219900I6000J0D01*
G01X184008Y363645D02*
X189851D01*
G03X191851Y365645I0J2000D01*
G01Y432512D01*
G03X189851Y434512I-2000J0D01*
G01X184008D01*
G03X182008Y432512I0J-2000D01*
G01Y365645D01*
G03X184008Y363645I2000J0D01*
G01X503067Y415517D02*
X497949D01*
G01D02*
Y412761D01*
G01D02*
X503067D01*
G01X497949Y446226D02*
Y448982D01*
G01D02*
X503067D01*
G01Y446226D02*
X497949D01*
G01X503067Y412761D02*
Y415517D01*
G01Y448982D02*
Y446226D01*
G01X552020Y238700D02*
G03I-10750J0D01*
G01X551980Y559480D02*
G03I-10750J0D01*
G01X541499Y345846D02*
G03Y339677I0J-3085D01*
G01Y345846D02*
G03Y339677I0J-3085D01*
G01X536618Y382678D02*
Y417922D01*
G02X538618Y419922I2000J0D01*
G01X544460D01*
G02X546460Y417922I0J-2000D01*
G01Y406500D01*
G03X548460Y404500I2000J0D01*
G01X549460D01*
G02X551460Y402500I0J-2000D01*
G01Y396500D01*
G02X549460Y394500I-2000J0D01*
G01X548460D01*
G03X546460Y392500I0J-2000D01*
G01Y382678D01*
G02X544460Y380678I-2000J0D01*
G01X538618D01*
G02X536618Y382678I0J2000D01*
G01X541499Y456083D02*
G03Y449913I0J-3085D01*
G01Y339677D02*
G03Y345846I0J3085D01*
G01Y449913D02*
G03Y456083I0J3085D01*
G54D12*
X148210Y294736D03*
X170481Y272464D03*
G54D22*
G01X497949Y415517D02*
X503067D01*
Y412761D01*
X497949D01*
Y415517D01*
G01D02*
X503067D01*
Y412761D01*
X497949D01*
Y415517D01*
G01Y448982D02*
X503067D01*
Y446226D01*
X497949D01*
Y448982D01*
G01D02*
X503067D01*
Y446226D01*
X497949D01*
Y448982D01*
G54D13*
X143561Y373800D03*
Y421218D03*
X150561Y373800D03*
Y421218D03*
X159061Y373800D03*
Y421218D03*
X166061Y373800D03*
Y421218D03*
G54D14*
X144061Y398347D03*
Y445717D03*
X151061Y398347D03*
Y445717D03*
X159561Y398347D03*
Y445717D03*
X166561Y398347D03*
Y445717D03*
G54D15*
X155182Y389139D03*
Y382139D03*
Y429838D03*
Y436838D03*
X173517Y389139D03*
Y382139D03*
Y429838D03*
Y436838D03*
G54D16*
X150846Y469844D03*
Y502356D03*
Y535044D03*
Y567556D03*
X167846Y469844D03*
Y502356D03*
Y535044D03*
Y567556D03*
G54D17*
X515528Y567206D03*
Y561694D03*
X519072Y567206D03*
Y561694D03*
G54D18*
X517200Y236447D03*
Y242353D03*
G54D19*
X555528Y274881D03*
Y279881D03*
Y289881D03*
Y284881D03*
Y294881D03*
Y304881D03*
Y299881D03*
Y309881D03*
M02*
