G04 ================== begin FILE IDENTIFICATION RECORD ==================*
G04 Layout Name:  BeagleBadge_V1.0_260728.brd*
G04 Film Name:    L2_GND1*
G04 File Format:  Gerber RS274X*
G04 File Origin:  Cadence Allegro 17.4-S035*
G04 Origin Date:  Wed Aug 26 15:41:08 2026*
G04 *
G04 Layer:  VIA CLASS/L2-GND1*
G04 Layer:  PIN/L2-GND1*
G04 Layer:  ETCH/L2-GND1*
G04 Layer:  DRAWING FORMAT/TITLE_BLOCK*
G04 Layer:  DRAWING FORMAT/TB_L05*
G04 Layer:  BOARD GEOMETRY/OUTLINE*
G04 *
G04 Offset:    (0.0000 0.0000)*
G04 Mirror:    No*
G04 Mode:      Positive*
G04 Rotation:  0*
G04 FullContactRelief:  No*
G04 UndefLineWidth:     6.0000*
G04 ================== end FILE IDENTIFICATION RECORD ====================*
%FSLAX25Y25*MOIN*%
%IR0*IPPOS*OFA0.00000B0.00000*MIA0B0*SFA1.00000B1.00000*%
%ADD18C,.02*%
%ADD17C,.016*%
%ADD10C,.018*%
%ADD19C,.035433*%
%ADD13C,.055118*%
%ADD21C,.074803*%
%ADD11C,.03937*%
%ADD15C,.022835*%
%ADD20C,.062992*%
%ADD12C,.027559*%
%ADD16C,.2283*%
%ADD14O,.047244X.086614*%
%ADD22C,.012*%
%ADD23C,.005*%
%ADD24C,.006*%
%ADD25C,.026*%
%ADD33C,.080843*%
%ADD31C,.050607*%
%ADD29C,.055434*%
%ADD28C,.055434*%
%ADD30C,.058646*%
%ADD32C,.079528*%
%ADD26R,.071181X.047559*%
%ADD27R,.118426X.728662*%
G75*
%LPD*%
G75*
G36*
G01X264700Y545800D02*
X270900D01*
X271800Y546700D01*
Y559600D01*
X273900Y561700D01*
X295000D01*
X302500Y569200D01*
X437900D01*
X444900Y562200D01*
Y513000D01*
X446700Y511200D01*
X452200D01*
X453400Y510000D01*
Y506300D01*
X455100Y504600D01*
X459900D01*
X462200Y506900D01*
Y567200D01*
X465900Y570900D01*
X504900D01*
X506900Y568900D01*
Y522800D01*
X508150Y521550D01*
Y507250D01*
X511900Y503500D01*
X520131D01*
X520156Y503329D01*
G03X522784Y499656I4887J721D01*
G02X522674Y498907I-183J-356D01*
G03X518635Y494050I900J-4857D01*
G03X522310Y489274I4940J0D01*
G02X522377Y488525I-102J-387D01*
G03X519528Y484050I2092J-4475D01*
G03X523323Y479244I4940J0D01*
G02X523404Y478495I-93J-389D01*
G03X520619Y474050I2155J-4446D01*
G03X523472Y469572I4940J0D01*
G02X523407Y468823I-169J-363D01*
G03X519741Y464050I1274J-4773D01*
G03X522555Y459591I4940J0D01*
G02X522480Y458842I-172J-361D01*
G03X518741Y454050I1201J-4792D01*
G03X521946Y449424I4940J0D01*
G02Y448675I-140J-375D01*
G03X518741Y444050I1735J-4625D01*
G03X521732Y439510I4940J0D01*
G02X521695Y438761I-158J-368D01*
G03X518241Y434050I1486J-4711D01*
G03X521232Y429510I4940J0D01*
G02X521195Y428761I-158J-368D01*
G03Y419338I1486J-4711D01*
G02X521232Y418589I-120J-381D01*
G03X518241Y414050I1949J-4540D01*
G03X521695Y409338I4940J0D01*
G02X521732Y408589I-120J-381D01*
G03X518741Y404050I1949J-4540D01*
G03X523681Y399110I4940J0D01*
G03X526659Y400108I0J4940D01*
G02X527300Y399789I241J-319D01*
G01Y376304D01*
G02X526537Y376135I-400J0D01*
G03X523333Y378823I-4478J-2085D01*
G02X523267Y379572I103J386D01*
G03X526121Y384050I-2086J4478D01*
G03X516241I-4940J0D01*
G03X519907Y379277I4940J0D01*
G02X519972Y378528I-103J-386D01*
G03X517119Y374050I2086J-4478D01*
G03X519796Y369658I4940J0D01*
G02X519685Y368909I-183J-356D01*
G03X515635Y364050I890J-4859D01*
G03X519674Y359192I4940J0D01*
G02X519784Y358443I-73J-393D01*
G03Y349656I2259J-4394D01*
G02X519674Y348907I-183J-356D01*
G03X515635Y344050I900J-4857D01*
G03X519310Y339274I4940J0D01*
G02X519377Y338525I-102J-387D01*
G03X516528Y334050I2092J-4475D01*
G03X520323Y329244I4940J0D01*
G02X520404Y328495I-93J-389D01*
G03X517619Y324050I2155J-4446D01*
G03X520472Y319572I4940J0D01*
G02X520407Y318823I-169J-363D01*
G03X516741Y314050I1274J-4773D01*
G03X519555Y309591I4940J0D01*
G02X519480Y308842I-172J-361D01*
G03X515741Y304050I1201J-4792D01*
G03X518946Y299424I4940J0D01*
G02Y298675I-140J-375D01*
G03X515741Y294050I1735J-4625D01*
G03X518732Y289510I4940J0D01*
G02X518695Y288761I-158J-368D01*
G03X515241Y284050I1486J-4711D01*
G03X518232Y279510I4940J0D01*
G02X518195Y278761I-158J-368D01*
G03Y269338I1486J-4711D01*
G02X518232Y268589I-120J-381D01*
G03X515241Y264050I1949J-4540D01*
G03X518695Y259338I4940J0D01*
G02X518732Y258589I-120J-381D01*
G03X515741Y254050I1949J-4540D01*
G03X525621I4940J0D01*
G03X522167Y258761I-4940J0D01*
G02X522130Y259510I120J381D01*
G03X525121Y264050I-1949J4540D01*
G03X521667Y268761I-4940J0D01*
G02X521630Y269510I120J381D01*
G03Y278589I-1949J4540D01*
G02X521667Y279338I158J368D01*
G03X525121Y284050I-1486J4711D01*
G03X522130Y288589I-4940J0D01*
G02X522167Y289338I158J368D01*
G03X525621Y294050I-1486J4711D01*
G03X522416Y298675I-4940J0D01*
G02Y299424I140J375D01*
G03X525621Y304050I-1735J4625D01*
G03X522807Y308509I-4940J0D01*
G02X522882Y309258I172J361D01*
G03X526621Y314050I-1201J4792D01*
G03X523767Y318528I-4940J0D01*
G02X523833Y319277I169J363D01*
G03X526575Y321173I-1274J4773D01*
G02X527300Y320940I325J-233D01*
G01Y227300D01*
X521200Y221200D01*
X520105D01*
G02X519827Y221887I0J400D01*
G03X521150Y225011I-3027J3123D01*
G03X512450I-4350J0D01*
G03X513773Y221887I4350J0D01*
G02X513495Y221200I-278J-287D01*
G01X510105D01*
G02X509827Y221887I0J400D01*
G03X511150Y225011I-3027J3123D01*
G03X502450I-4350J0D01*
G03X503773Y221887I4350J0D01*
G02X503495Y221200I-278J-287D01*
G01X154500D01*
X145700Y230000D01*
X135100D01*
X132200Y232900D01*
Y402267D01*
G02X132788Y402620I400J0D01*
G03X133400Y402467I612J1147D01*
G03Y405067I0J1300D01*
G03X132788Y404915I0J-1300D01*
G02X132200Y405267I-188J353D01*
G01Y405817D01*
G02X132788Y406170I400J0D01*
G03X133400Y406017I612J1147D01*
G03Y408617I0J1300D01*
G03X132788Y408464I0J-1300D01*
G02X132200Y408817I-188J353D01*
G01Y482700D01*
X132700Y483200D01*
X140100D01*
X141500Y484600D01*
Y502300D01*
X140000Y503800D01*
X132800D01*
X132200Y504400D01*
Y566600D01*
X136400Y570800D01*
X154348D01*
G02X154736Y570306I0J-400D01*
G03X154700Y570000I1264J-306D01*
G03X157300I1300J0D01*
G03X157264Y570306I-1300J0D01*
G02X157652Y570800I389J94D01*
G01X195500D01*
X207100Y559200D01*
X226200D01*
X227900Y557500D01*
Y547400D01*
X229700Y545600D01*
X234600D01*
X236700Y547700D01*
Y551726D01*
G02X237364Y552027I400J0D01*
G03X240119Y554831I1300J1478D01*
G02X240415Y555500I296J269D01*
G01X259551D01*
G02X259847Y554831I0J-400D01*
G03X262630Y552052I1455J-1326D01*
G02X263300Y551756I270J-295D01*
G01Y547200D01*
X264700Y545800D01*
G37*
G36*
G01X232600Y577000D02*
X512700D01*
X513400Y576300D01*
Y575000D01*
X512700Y574300D01*
X288300D01*
X287000Y573000D01*
Y568900D01*
X285400Y567300D01*
X270000D01*
X269100Y566400D01*
Y548700D01*
X268200Y547800D01*
X265900D01*
X265300Y548400D01*
Y554428D01*
X264700Y555028D01*
Y559000D01*
X260700Y563000D01*
X237000D01*
X235000Y561000D01*
Y554128D01*
X234700Y553828D01*
Y548528D01*
X233972Y547800D01*
X232100D01*
X230800Y549100D01*
Y575200D01*
X232600Y577000D01*
G37*
G36*
G01X522944Y349192D02*
G03X526536Y351996I-900J4857D01*
G02X527300Y351830I364J-166D01*
G01Y327160D01*
G02X526575Y326927I-400J0D01*
G03X523705Y328855I-4016J-2877D01*
G02X523623Y329604I93J389D01*
G03X526409Y334050I-2155J4446D01*
G03X522733Y338825I-4940J0D01*
G02X522666Y339574I102J387D01*
G03X525515Y344050I-2092J4475D01*
G03X522834Y348443I-4940J0D01*
G02X522944Y349192I183J356D01*
G37*
%LPC*%
G75*
G36*
G01X258682Y541379D02*
G02X258300Y542300I918J921D01*
G02X260900I1300J0D01*
G02X260441Y541309I-1300J0D01*
G03X260418Y540721I259J-305D01*
G02X260800Y539800I-918J-921D01*
G02X260374Y538838I-1300J0D01*
G03X260398Y538226I269J-296D01*
G02X260900Y537200I-798J-1026D01*
G02X258300I-1300J0D01*
G02X258726Y538162I1300J0D01*
G03X258702Y538774I-269J296D01*
G02X258200Y539800I798J1026D01*
G02X258659Y540791I1300J0D01*
G03X258682Y541379I-259J305D01*
G37*
G36*
G01X200154Y537686D02*
G02X200000Y538300I1146J614D01*
G02X201300Y537000I1300J0D01*
G02X201222Y537002I0J1300D01*
G03X200846Y536414I-24J-399D01*
G02X201000Y535800I-1146J-614D01*
G02X199700Y537100I-1300J0D01*
G02X199778Y537098I0J-1300D01*
G03X200154Y537686I24J399D01*
G37*
G36*
G01X409402Y521403D02*
G02X408800Y522500I698J1097D01*
G02X411400I1300J0D01*
G02X410874Y521456I-1300J0D01*
G03X410898Y520797I238J-321D01*
G02X411500Y519700I-698J-1097D01*
G02X408900I-1300J0D01*
G02X409426Y520744I1300J0D01*
G03X409402Y521403I-238J321D01*
G37*
G36*
G01X406900Y515036D02*
G02X406891Y515191I1291J155D01*
G02X409491I1300J0D01*
G02X409488Y515111I-1300J0D01*
G03X409938Y514690I399J-25D01*
G02X410100Y514700I162J-1290D01*
G02X408800Y513400I0J-1300D01*
G02X408802Y513480I1300J0D01*
G03X408353Y513901I-399J25D01*
G02X408191Y513891I-162J1290D01*
G02X408036Y513900I0J1300D01*
G03X407591Y513455I-48J-397D01*
G02X407600Y513300I-1291J-155D01*
G02X406300Y514600I-1300J0D01*
G02X406455Y514591I0J-1300D01*
G03X406900Y515036I48J397D01*
G37*
G36*
G01X390673Y510897D02*
G02X390200Y511900I827J1003D01*
G02X392800I1300J0D01*
G02X392250Y510838I-1300J0D01*
G03X392227Y510203I231J-327D01*
G02X392700Y509200I-827J-1003D01*
G02X390100I-1300J0D01*
G02X390650Y510262I1300J0D01*
G03X390673Y510897I-231J327D01*
G37*
G36*
G01X414338Y506681D02*
G02X413700Y507800I662J1119D01*
G02X416300I1300J0D01*
G02X415892Y506854I-1300J0D01*
G03X415962Y506219I274J-291D01*
G02X416600Y505100I-662J-1119D01*
G02X414000I-1300J0D01*
G02X414408Y506046I1300J0D01*
G03X414338Y506681I-274J291D01*
G37*
G36*
G01X273015Y504544D02*
G02X272810Y505245I1095J701D01*
G02X275410I1300J0D01*
G02X274815Y504153I-1300J0D01*
G03X274695Y503601I217J-336D01*
G02X274822Y503344I-1095J-701D01*
G03X275516Y503238I376J137D01*
G02X276550Y503750I1034J-788D01*
G02Y501150I0J-1300D01*
G02X275328Y502006I0J1300D01*
G03X274634Y502112I-376J-137D01*
G02X273600Y501600I-1034J788D01*
G02X272300Y502900I0J1300D01*
G02X272895Y503992I1300J0D01*
G03X273015Y504544I-217J336D01*
G37*
G36*
G01X248563Y503529D02*
G02X248000Y504600I737J1071D01*
G02X250600I1300J0D01*
G02X250037Y503529I-1300J0D01*
G03Y502871I227J-329D01*
G02X250600Y501800I-737J-1071D01*
G02X248000I-1300J0D01*
G02X248563Y502871I1300J0D01*
G03Y503529I-227J329D01*
G37*
G36*
G01X406306Y499738D02*
G02X407300Y500200I994J-838D01*
G02X408447Y499512I0J-1300D01*
G03X409153I353J188D01*
G02X410300Y500200I1147J-612D01*
G02Y497600I0J-1300D01*
G02X409153Y498288I0J1300D01*
G03X408447I-353J-188D01*
G02X407300Y497600I-1147J612D01*
G02X406306Y498062I0J1300D01*
G03X405694I-306J-258D01*
G02X404700Y497600I-994J838D01*
G02Y500200I0J1300D01*
G02X405694Y499738I0J-1300D01*
G03X406306I306J258D01*
G37*
G36*
G01X285212Y497988D02*
G02X285000Y498700I1088J712D01*
G02X287600I1300J0D01*
G02X286547Y497424I-1300J0D01*
G03X286288Y496812I76J-393D01*
G02X286500Y496100I-1088J-712D01*
G02X283900I-1300J0D01*
G02X284953Y497376I1300J0D01*
G03X285212Y497988I-76J393D01*
G37*
G36*
G01X454407Y496264D02*
G02X454400Y496400I1293J136D01*
G02X455700Y495100I1300J0D01*
G02X455311Y495160I0J1300D01*
G03X454793Y494736I-120J-382D01*
G02X454800Y494600I-1293J-136D01*
G02X453500Y495900I-1300J0D01*
G02X453889Y495840I0J-1300D01*
G03X454407Y496264I120J382D01*
G37*
G36*
G01X153205Y493182D02*
G02X153200Y493300I1295J118D01*
G02X154500Y494600I1300J0D01*
G02X155799Y493337I0J-1300D01*
G03X156364Y492984I400J12D01*
G02X156900Y493100I536J-1184D01*
G02Y490500I0J-1300D01*
G02X155601Y491763I0J1300D01*
G03X155036Y492116I-400J-12D01*
G02X154500Y492000I-536J1184D01*
G02X153959Y492118I0J1300D01*
G03X153395Y491718I-166J-364D01*
G02X153400Y491600I-1295J-118D01*
G02X152100Y492900I-1300J0D01*
G02X152641Y492782I0J-1300D01*
G03X153205Y493182I166J364D01*
G37*
G36*
G01X453547Y468888D02*
G02X452400Y468200I-1147J612D01*
G02Y470800I0J1300D01*
G02X453547Y470112I0J-1300D01*
G03X454253I353J188D01*
G02X455400Y470800I1147J-612D01*
G02Y468200I0J-1300D01*
G02X454253Y468888I0J1300D01*
G03X453547I-353J-188D01*
G37*
G36*
G01X173807Y462488D02*
G02X173653Y463100I1147J612D01*
G02X176253I1300J0D01*
G02X174989Y461800I-1300J0D01*
G03X174647Y461212I11J-400D01*
G02X174800Y460600I-1147J-612D01*
G02X172200I-1300J0D01*
G02X173465Y461900I1300J0D01*
G03X173807Y462488I-11J400D01*
G37*
G36*
G01X222642Y457334D02*
G02X222540Y457840I1197J506D01*
G02X223840Y456540I1300J0D01*
G02X223630Y456557I0J1300D01*
G03X223197Y456006I-64J-395D01*
G02X223300Y455500I-1197J-506D01*
G02X222000Y456800I-1300J0D01*
G02X222210Y456783I0J-1300D01*
G03X222642Y457334I64J395D01*
G37*
G36*
G01X174021Y451291D02*
G02X173400Y452400I679J1109D01*
G02X176000I1300J0D01*
G02X175379Y451291I-1300J0D01*
G03Y450609I209J-341D01*
G02X176000Y449500I-679J-1109D01*
G02X173400I-1300J0D01*
G02X174021Y450609I1300J0D01*
G03Y451291I-209J341D01*
G37*
G36*
G01X134931Y450943D02*
G02X134840Y450940I-91J1297D01*
G02X136140Y452240I0J1300D01*
G02X136095Y451900I-1300J0D01*
G03X136509Y451397I386J-105D01*
G02X136600Y451400I91J-1297D01*
G02X135300Y450100I0J-1300D01*
G02X135345Y450440I1300J0D01*
G03X134931Y450943I-386J105D01*
G37*
G36*
G01X159799Y450915D02*
G02X159600Y450900I-199J1285D01*
G02X160900Y452200I0J1300D01*
G02X160778Y451649I-1300J0D01*
G03X161201Y451085I362J-169D01*
G02X161400Y451100I199J-1285D01*
G02X160100Y449800I0J-1300D01*
G02X160222Y450351I1300J0D01*
G03X159799Y450915I-362J169D01*
G37*
G36*
G01X371208Y440751D02*
G02X371200Y440900I1291J149D01*
G02X372500Y439600I1300J0D01*
G02X372407Y439603I0J1300D01*
G03X371982Y439159I-29J-399D01*
G02X371990Y439010I-1291J-149D01*
G02X369390I-1300J0D01*
G02X369399Y439164I1300J0D01*
G03X368954Y439609I-397J48D01*
G02X368800Y439600I-154J1291D01*
G02X370100Y440900I0J1300D01*
G02X370091Y440746I-1300J0D01*
G03X370536Y440301I397J-48D01*
G02X370690Y440310I154J-1291D01*
G02X370783Y440307I0J-1300D01*
G03X371208Y440751I29J399D01*
G37*
G36*
G01X241685Y436715D02*
G02X241100Y437800I715J1085D01*
G02X243700I1300J0D01*
G02X243039Y436668I-1300J0D01*
G03X243015Y435985I197J-348D01*
G02X243600Y434900I-715J-1085D01*
G02X241000I-1300J0D01*
G02X241661Y436032I1300J0D01*
G03X241685Y436715I-197J348D01*
G37*
G36*
G01X277536Y407207D02*
G02X277400Y407200I-136J1293D01*
G02X278700Y408500I0J1300D01*
G02X278640Y408111I-1300J0D01*
G03X279064Y407593I382J-120D01*
G02X279200Y407600I136J-1293D01*
G02X280309Y406979I0J-1300D01*
G03X280991I341J209D01*
G02X282100Y407600I1109J-679D01*
G02X283400Y406300I0J-1300D01*
G02X282779Y405191I-1300J0D01*
G03Y404509I209J-341D01*
G02X283400Y403400I-679J-1109D01*
G02X280800I-1300J0D01*
G02X281421Y404509I1300J0D01*
G03Y405191I-209J341D01*
G02X280991Y405621I679J1109D01*
G03X280309I-341J-209D01*
G02X279200Y405000I-1109J679D01*
G02X277900Y406300I0J1300D01*
G02X277960Y406689I1300J0D01*
G03X277536Y407207I-382J120D01*
G37*
G36*
G01X270598Y408115D02*
G02X270540Y408500I1242J385D01*
G02X273140I1300J0D01*
G02X273056Y408040I-1300J0D01*
G03X273447Y407499I374J-142D01*
G02X273500Y407500I53J-1299D01*
G02X274749Y406559I0J-1300D01*
G03X275255Y406289I384J111D01*
G02X275650Y406350I395J-1239D01*
G02X276950Y405050I0J-1300D01*
G02X276551Y404113I-1300J0D01*
G03X276610Y403489I277J-288D01*
G02X277200Y402400I-710J-1089D01*
G02X274600I-1300J0D01*
G02X274999Y403337I1300J0D01*
G03X274940Y403961I-277J288D01*
G02X274401Y404691I710J1089D01*
G03X273895Y404961I-384J-111D01*
G02X273500Y404900I-395J1239D01*
G02X272200Y406200I0J1300D01*
G02X272284Y406660I1300J0D01*
G03X271893Y407201I-374J142D01*
G02X271840Y407200I-53J1299D01*
G02X271751Y407203I0J1300D01*
G03X271342Y406685I-27J-399D01*
G02X271400Y406300I-1242J-385D01*
G02X268800I-1300J0D01*
G02X268844Y406637I1300J0D01*
G03X268454Y407140I-386J104D01*
G02X268440Y407140I-13J1300D01*
G02X269740Y408440I0J1300D01*
G02X269696Y408103I-1300J0D01*
G03X270086Y407600I386J-104D01*
G02X270100Y407600I13J-1300D01*
G02X270189Y407597I0J-1300D01*
G03X270598Y408115I27J399D01*
G37*
G36*
G01X164649Y405145D02*
G02X164600Y405500I1251J355D01*
G02X165900Y404200I1300J0D01*
G02X165545Y404250I0J1300D01*
G03X165050Y403755I-109J-385D01*
G02X165100Y403400I-1251J-355D01*
G02X163800Y404700I-1300J0D01*
G02X164155Y404650I0J-1300D01*
G03X164649Y405145I109J385D01*
G37*
G36*
G01X212103Y404114D02*
G02X212100Y404200I1297J86D01*
G02X213400Y402900I1300J0D01*
G02X213244Y402909I0J1300D01*
G03X212797Y402486I-48J-397D01*
G02X212800Y402400I-1297J-86D01*
G02X211500Y403700I-1300J0D01*
G02X211656Y403691I0J-1300D01*
G03X212103Y404114I48J397D01*
G37*
G36*
G01X512214Y400207D02*
G02X512200Y400400I1286J193D01*
G02X513500Y399100I1300J0D01*
G02X513180Y399140I0J1300D01*
G03X512686Y398693I-99J-388D01*
G02X512700Y398500I-1286J-193D01*
G02X511400Y399800I-1300J0D01*
G02X511720Y399760I0J-1300D01*
G03X512214Y400207I99J388D01*
G37*
G36*
G01X346759Y384914D02*
G02X346700Y385300I1241J386D01*
G02X349300I1300J0D01*
G02X348094Y384003I-1300J0D01*
G03X347741Y383486I29J-399D01*
G02X347800Y383100I-1241J-386D01*
G02X345200I-1300J0D01*
G02X346406Y384397I1300J0D01*
G03X346759Y384914I-29J399D01*
G37*
G36*
G01X348458Y377623D02*
G02X348200Y378400I1042J777D01*
G02X350800I1300J0D01*
G02X349715Y377118I-1300J0D01*
G03X349409Y376577I66J-394D01*
G02X349500Y376100I-1209J-477D01*
G02X348200Y374800I-1300J0D01*
G02X346902Y376026I0J1300D01*
G03X346479Y376402I-399J-23D01*
G02X346400Y376400I-79J1298D01*
G02Y379000I0J1300D01*
G02X347698Y377774I0J-1300D01*
G03X348458Y377623I399J23D01*
G37*
G36*
G01X334418Y371992D02*
G02X333400Y371500I-1018J808D01*
G02Y374100I0J1300D01*
G02X334523Y373455I0J-1300D01*
G03X335182Y373408I345J202D01*
G02X336200Y373900I1018J-808D01*
G02Y371300I0J-1300D01*
G02X335077Y371945I0J1300D01*
G03X334418Y371992I-345J-202D01*
G37*
G36*
G01X362438Y371789D02*
G02X362400Y372100I1262J311D01*
G02X363700Y370800I1300J0D01*
G02X363586Y370805I0J1300D01*
G03X363162Y370311I-35J-398D01*
G02X363200Y370000I-1262J-311D01*
G02X360600I-1300J0D01*
G02X360637Y370306I1300J0D01*
G03X360237Y370800I-389J94D01*
G02X360200Y370800I-37J1299D01*
G02X360086Y370805I0J1300D01*
G03X359662Y370311I-35J-398D01*
G02X359700Y370000I-1262J-311D01*
G02X357100I-1300J0D01*
G02X357138Y370311I1300J0D01*
G03X356714Y370805I-388J96D01*
G02X356600Y370800I-114J1295D01*
G02X356563Y370800I0J1300D01*
G03X356163Y370306I-11J-400D01*
G02X356200Y370000I-1263J-306D01*
G02X354900Y371300I-1300J0D01*
G02X354937Y371300I0J-1300D01*
G03X355337Y371794I11J400D01*
G02X355300Y372100I1263J306D01*
G02X357900I1300J0D01*
G02X357862Y371789I-1300J0D01*
G03X358286Y371295I388J-96D01*
G02X358400Y371300I114J-1295D01*
G02X358514Y371295I0J-1300D01*
G03X358938Y371789I35J398D01*
G02X358900Y372100I1262J311D01*
G02X361500I1300J0D01*
G02X361463Y371794I-1300J0D01*
G03X361863Y371300I389J-94D01*
G02X361900Y371300I37J-1299D01*
G02X362014Y371295I0J-1300D01*
G03X362438Y371789I35J398D01*
G37*
G36*
G01X330192Y369182D02*
G02X329700Y370200I808J1018D01*
G02X332300I1300J0D01*
G02X331655Y369077I-1300J0D01*
G03X331608Y368418I202J-345D01*
G02X332100Y367400I-808J-1018D01*
G02X329500I-1300J0D01*
G02X330145Y368523I1300J0D01*
G03X330192Y369182I-202J345D01*
G37*
G36*
G01X478908Y366555D02*
G02X478500Y367500I892J945D01*
G02X481100I1300J0D01*
G02X480310Y366304I-1300J0D01*
G03X480192Y365645I157J-368D01*
G02X480600Y364700I-892J-945D01*
G02X480523Y364260I-1300J0D01*
G03X480782Y363743I376J-135D01*
G02X481700Y362500I-382J-1243D01*
G02X479100I-1300J0D01*
G02X479177Y362940I1300J0D01*
G03X478918Y363457I-376J135D01*
G02X478000Y364700I382J1243D01*
G02X478790Y365896I1300J0D01*
G03X478908Y366555I-157J368D01*
G37*
G36*
G01X440697Y365902D02*
G02X439600Y365300I-1097J698D01*
G02Y367900I0J1300D01*
G02X440644Y367374I0J-1300D01*
G03X441303Y367398I321J238D01*
G02X442400Y368000I1097J-698D01*
G02Y365400I0J-1300D01*
G02X441356Y365926I0J1300D01*
G03X440697Y365902I-321J-238D01*
G37*
G36*
G01X494319Y365519D02*
G02X495600Y366600I1281J-219D01*
G02Y364000I0J-1300D01*
G02X494970Y364163I0J1300D01*
G03X494381Y363881I-194J-350D01*
G02X493100Y362800I-1281J219D01*
G02Y365400I0J1300D01*
G02X493730Y365237I0J-1300D01*
G03X494319Y365519I194J350D01*
G37*
G36*
G01X497463Y360029D02*
G02X496900Y361100I737J1071D01*
G02X499500I1300J0D01*
G02X498937Y360029I-1300J0D01*
G03Y359371I227J-329D01*
G02X499500Y358300I-737J-1071D01*
G02X496900I-1300J0D01*
G02X497463Y359371I1300J0D01*
G03Y360029I-227J329D01*
G37*
G36*
G01X494246Y355086D02*
G02X493100Y354400I-1146J614D01*
G02Y357000I0J1300D01*
G02X494019Y356620I0J-1300D01*
G03X494654Y356714I283J283D01*
G02X495800Y357400I1146J-614D01*
G02Y354800I0J-1300D01*
G02X494881Y355180I0J1300D01*
G03X494246Y355086I-283J-283D01*
G37*
G36*
G01X398509Y353821D02*
G02X397400Y353200I-1109J679D01*
G02Y355800I0J1300D01*
G02X398509Y355179I0J-1300D01*
G03X399191I341J209D01*
G02X400300Y355800I1109J-679D01*
G02Y353200I0J-1300D01*
G02X399191Y353821I0J1300D01*
G03X398509I-341J-209D01*
G37*
G36*
G01X494399Y349461D02*
G02X493500Y349100I-899J939D01*
G02Y351700I0J1300D01*
G02X494589Y351110I0J-1300D01*
G03X495201Y351039I335J218D01*
G02X496100Y351400I899J-939D01*
G02Y348800I0J-1300D01*
G02X495011Y349390I0J1300D01*
G03X494399Y349461I-335J-218D01*
G37*
G36*
G01X509631Y347200D02*
G02X509000Y348315I669J1115D01*
G02X511600I1300J0D01*
G02X510969Y347200I-1300J0D01*
G03Y346515I206J-343D01*
G02X511600Y345400I-669J-1115D01*
G02X509000I-1300J0D01*
G02X509631Y346515I1300J0D01*
G03Y347200I-206J343D01*
G37*
G36*
G01X428461Y343168D02*
G02X427800Y344300I639J1132D01*
G02X430400I1300J0D01*
G02X429815Y343215I-1300J0D01*
G03X429839Y342532I220J-334D01*
G02X430500Y341400I-639J-1132D01*
G02X427900I-1300J0D01*
G02X428485Y342485I1300J0D01*
G03X428461Y343168I-220J334D01*
G37*
G36*
G01X482855Y340425D02*
G02X482600Y340400I-255J1275D01*
G02X483900Y341700I0J1300D01*
G02X483875Y341445I-1300J0D01*
G03X484345Y340975I392J-78D01*
G02X484600Y341000I255J-1275D01*
G02X483300Y339700I0J-1300D01*
G02X483325Y339955I1300J0D01*
G03X482855Y340425I-392J78D01*
G37*
G36*
G01X506358Y337401D02*
G02X506300Y337400I-58J1299D01*
G02X507600Y338700I0J1300D01*
G02X507542Y338316I-1300J0D01*
G03X507942Y337799I382J-118D01*
G02X508000Y337800I58J-1299D01*
G02Y335200I0J-1300D01*
G02X507902Y335204I0J1300D01*
G03X507479Y334733I-30J-399D01*
G02X507500Y334500I-1279J-233D01*
G02X506200Y335800I-1300J0D01*
G02X506298Y335796I0J-1300D01*
G03X506721Y336267I30J399D01*
G02X506700Y336500I1279J233D01*
G02X506758Y336884I1300J0D01*
G03X506358Y337401I-382J118D01*
G37*
G36*
G01X366404Y329945D02*
G02X365700Y331100I596J1155D01*
G02X368300I1300J0D01*
G02X367749Y330038I-1300J0D01*
G03X367796Y329355I231J-327D01*
G02X368500Y328200I-596J-1155D01*
G02X365900I-1300J0D01*
G02X366451Y329262I1300J0D01*
G03X366404Y329945I-231J327D01*
G37*
G36*
G01X339530Y321609D02*
G02X339072Y322600I841J991D01*
G02X341672I1300J0D01*
G02X341289Y321679I-1300J0D01*
G03X341313Y321091I282J-283D01*
G02X341772Y320100I-841J-991D01*
G02X341237Y319049I-1300J0D01*
G03X341231Y318407I235J-323D01*
G02X341744Y317372I-787J-1035D01*
G02X339144I-1300J0D01*
G02X339679Y318423I1300J0D01*
G03X339685Y319065I-235J323D01*
G02X339172Y320100I787J1035D01*
G02X339554Y321021I1300J0D01*
G03X339530Y321609I-282J283D01*
G37*
G36*
G01X301643Y306664D02*
G02X300572Y306100I-1071J736D01*
G02Y308700I0J1300D01*
G02X301646Y308132I0J-1300D01*
G03X302306Y308131I331J225D01*
G02X303378Y308694I1071J-736D01*
G02Y306094I0J-1300D01*
G02X302303Y306662I0J1300D01*
G03X301643Y306664I-331J-225D01*
G37*
G36*
G01X322058Y302179D02*
G02X322057Y302237I1299J58D01*
G02X323357Y300937I1300J0D01*
G02X323033Y300978I0J1300D01*
G03X322533Y300573I-100J-387D01*
G02X322535Y300515I-1299J-58D01*
G02X321235Y299215I-1300J0D01*
G02X320408Y299511I0J1300D01*
G03X319883Y299497I-254J-309D01*
G02X319003Y299153I-881J956D01*
G02Y301753I0J1300D01*
G02X319829Y301457I0J-1300D01*
G03X320354Y301471I254J309D01*
G02X321235Y301815I881J-956D01*
G02X321559Y301774I0J-1300D01*
G03X322058Y302179I100J387D01*
G37*
G36*
G01X327314Y299218D02*
G02X327100Y299200I-214J1282D01*
G02X328400Y300500I0J1300D01*
G02X328342Y300115I-1300J0D01*
G03X328789Y299602I382J-118D01*
G02X329003Y299620I214J-1282D01*
G02X327703Y298320I0J-1300D01*
G02X327761Y298705I1300J0D01*
G03X327314Y299218I-382J118D01*
G37*
G36*
G01X242523Y298800D02*
G02X242500Y298800I-23J1300D01*
G02X243800Y300100I0J1300D01*
G02X243777Y299854I-1300J0D01*
G03X244177Y299379I393J-76D01*
G02X244200Y299379I23J-1300D01*
G02X242900Y298079I0J-1300D01*
G02X242923Y298325I1300J0D01*
G03X242523Y298800I-393J76D01*
G37*
G36*
G01X337891Y294143D02*
G02X337872Y294369I1280J225D01*
G02X339172Y293069I1300J0D01*
G02X338702Y293157I0J1300D01*
G03X338163Y292714I-145J-373D01*
G02X338183Y292489I-1280J-225D01*
G02X338118Y292084I-1300J0D01*
G03X338537Y291561I380J-125D01*
G02X338664Y291568I127J-1294D01*
G02Y288968I0J-1300D01*
G02X338655Y288968I-1J1300D01*
G03X338252Y288568I-3J-400D01*
G02X336952Y287270I-1300J2D01*
G02Y289870I0J1300D01*
G02X336961Y289870I1J-1300D01*
G03X337364Y290269I3J400D01*
G02X337429Y290673I1300J-2D01*
G03X337010Y291195I-380J125D01*
G02X336883Y291189I-127J1294D01*
G02Y293789I0J1300D01*
G02X337353Y293701I0J-1300D01*
G03X337891Y294143I145J373D01*
G37*
G36*
G01X317915Y291920D02*
G02X317583Y292789I967J869D01*
G02X318883Y294089I1300J0D01*
G02X319820Y293690I0J-1300D01*
G03X320349Y293648I288J277D01*
G02X321132Y293910I783J-1038D01*
G02X322247Y293277I0J-1300D01*
G03X322737Y293110I343J205D01*
G02X323215Y293201I477J-1209D01*
G02X323666Y293120I0J-1300D01*
G03X324152Y293298I139J375D01*
G02X325283Y293955I1130J-643D01*
G02X326108Y293659I0J-1300D01*
G03X326626Y293667I254J309D01*
G02X327483Y293989I856J-978D01*
G02X328783Y292689I0J-1300D01*
G02X328474Y291848I-1300J0D01*
G03Y291330I305J-259D01*
G02X328783Y290489I-991J-841D01*
G02X327483Y289189I-1300J0D01*
G02X326664Y289479I0J1300D01*
G03X326146Y289467I-252J-311D01*
G02X325283Y289139I-864J972D01*
G02X323991Y290290I0J1300D01*
G03X323505Y290634I-397J-46D01*
G02X323384Y290612I-290J1267D01*
G03X323036Y290229I52J-397D01*
G02X321737Y288971I-1299J43D01*
G02X320586Y289666I0J1300D01*
G03X319921Y289731I-354J-186D01*
G02X318908Y289246I-1012J816D01*
G02X317608Y290546I0J1300D01*
G02X317921Y291393I1300J0D01*
G03X317915Y291920I-304J260D01*
G37*
G36*
G01X353566Y292323D02*
G02X353548Y292538I1282J215D01*
G02X354848Y291238I1300J0D01*
G02X354323Y291349I0J1300D01*
G03X353767Y290917I-162J-366D01*
G02X353785Y290701I-1282J-215D01*
G02X352485Y292001I-1300J0D01*
G02X353010Y291890I0J-1300D01*
G03X353566Y292323I162J366D01*
G37*
G36*
G01X182916Y289606D02*
G02X184200Y290700I1284J-206D01*
G02Y288100I0J-1300D01*
G02X183381Y288391I0J1300D01*
G03X182734Y288144I-252J-311D01*
G02X181450Y287050I-1284J206D01*
G02Y289650I0J1300D01*
G02X182269Y289359I0J-1300D01*
G03X182916Y289606I252J311D01*
G37*
G36*
G01X331407Y288462D02*
G02X331392Y288658I1285J197D01*
G02X332692Y287358I1300J0D01*
G02X332459Y287379I0J1300D01*
G03X331992Y286925I-72J-394D01*
G02X332007Y286728I-1285J-197D01*
G02X330707Y288028I-1300J0D01*
G02X330940Y288008I0J-1300D01*
G03X331407Y288462I72J394D01*
G37*
G36*
G01X339390Y284553D02*
G02X339370Y284781I1280J228D01*
G02X340670Y283481I1300J0D01*
G02X340415Y283506I0J1300D01*
G03X339943Y283044I-79J-392D01*
G02X339963Y282816I-1280J-228D01*
G02X338663Y281516I-1300J0D01*
G02X338542Y281521I0J1300D01*
G03X338123Y281004I-37J-398D01*
G02X338183Y280615I-1241J-388D01*
G02X338106Y280176I-1300J0D01*
G03X338577Y279653I377J-135D01*
G02X338883Y279689I306J-1264D01*
G02X337583Y278389I0J-1300D01*
G02X337659Y278828I1300J0D01*
G03X337188Y279352I-377J135D01*
G02X336883Y279315I-306J1264D01*
G02X336555Y279357I0J1300D01*
G03X336060Y278903I-101J-387D01*
G02X336079Y278684I-1282J-218D01*
G02X333478I-1300J0D01*
G02X333500Y278921I1300J0D01*
G03X333100Y279394I-393J73D01*
G02X333078Y279394I-22J1300D01*
G02Y281994I0J1300D01*
G02X333259Y281981I0J-1300D01*
G03X333714Y282388I56J396D01*
G02X333714Y282420I1300J33D01*
G02X335014Y283720I1300J0D01*
G02X335157Y283712I0J-1300D01*
G03X335597Y284168I44J398D01*
G02X335584Y284357I1286J189D01*
G02X336884Y285657I1300J0D01*
G02X338178Y284477I0J-1300D01*
G03X338597Y284114I398J37D01*
G02X338663Y284116I66J-1298D01*
G02X338918Y284091I0J-1300D01*
G03X339390Y284553I79J392D01*
G37*
G36*
G01X351436Y281763D02*
G02X350524Y283004I388J1241D01*
G02X351824Y284304I1300J0D01*
G02X353031Y283488I0J-1300D01*
G03X353728Y283406I371J149D01*
G02X354790Y283955I1061J-751D01*
G02X356090Y282655I0J-1300D01*
G02X355775Y281808I-1300J0D01*
G03X355772Y281290I303J-261D01*
G02X356076Y280455I-997J-835D01*
G02X354776Y279155I-1300J0D01*
G02X354031Y279390I0J1300D01*
G03X353514Y279340I-229J-328D01*
G02X352581Y278945I-934J905D01*
G02X351281Y280245I0J1300D01*
G02X351614Y281114I1300J0D01*
G03X351436Y281763I-297J267D01*
G37*
G36*
G01X347821Y281716D02*
G02X347378Y282694I857J978D01*
G02X349978I1300J0D01*
G02X349768Y281986I-1300J0D01*
G03X349839Y281467I335J-218D01*
G02X350283Y280489I-857J-978D01*
G02X348983Y279189I-1300J0D01*
G02X347922Y279737I0J1300D01*
G03X347256Y279716I-326J-231D01*
G02X346150Y279100I-1106J684D01*
G02Y281700I0J1300D01*
G02X347210Y281152I0J-1300D01*
G03X347877Y281173I326J231D01*
G02X347893Y281198I1106J-684D01*
G03X347821Y281716I-335J218D01*
G37*
G36*
G01X285923Y282059D02*
G02X285900Y282300I1277J241D01*
G02X287200Y281000I1300J0D01*
G02X287024Y281012I0J1300D01*
G03X286577Y280541I-54J-396D01*
G02X286600Y280300I-1277J-241D01*
G02X285300Y279000I-1300J0D01*
G02X284044Y279966I0J1300D01*
G03X283550Y280248I-387J-103D01*
G02X283200Y280200I-350J1252D01*
G02Y282800I0J1300D01*
G02X284456Y281834I0J-1300D01*
G03X284950Y281552I387J103D01*
G02X285300Y281600I350J-1252D01*
G02X285476Y281588I0J-1300D01*
G03X285923Y282059I54J396D01*
G37*
G36*
G01X490050Y273238D02*
G02X489500Y274300I750J1062D01*
G02X492100I1300J0D01*
G02X491627Y273297I-1300J0D01*
G03X491650Y272662I254J-309D01*
G02X492200Y271600I-750J-1062D01*
G02X489600I-1300J0D01*
G02X490073Y272603I1300J0D01*
G03X490050Y273238I-254J309D01*
G37*
G36*
G01X270239Y268101D02*
G02X270200Y268100I-39J1299D01*
G02X271500Y269400I0J1300D01*
G02X271384Y268864I-1300J0D01*
G03X271761Y268299I364J-165D01*
G02X271800Y268300I39J-1299D01*
G02X273100Y267000I0J-1300D01*
G02X271867Y265702I-1300J0D01*
G03X271491Y265255I21J-399D01*
G02X271500Y265100I-1291J-155D01*
G02X268900I-1300J0D01*
G02X270133Y266398I1300J0D01*
G03X270509Y266845I-21J399D01*
G02X270500Y267000I1291J155D01*
G02X270616Y267536I1300J0D01*
G03X270239Y268101I-364J165D01*
G37*
G36*
G01X280047Y265320D02*
G02X278800Y266619I53J1299D01*
G02X281400I1300J0D01*
G02X281377Y266374I-1300J0D01*
G03X281753Y265899I393J-75D01*
G02X282703Y265427I-53J-1299D01*
G03X283338Y265450I309J254D01*
G02X284400Y266000I1062J-750D01*
G02X285485Y265415I0J-1300D01*
G03X286168Y265439I334J220D01*
G02X287300Y266100I1132J-639D01*
G02Y263500I0J-1300D01*
G02X286215Y264085I0J1300D01*
G03X285532Y264061I-334J-220D01*
G02X284400Y263400I-1132J639D01*
G02X283397Y263873I0J1300D01*
G03X282762Y263850I-309J-254D01*
G02X281700Y263300I-1062J750D01*
G02X280400Y264600I0J1300D01*
G02X280423Y264845I1300J0D01*
G03X280047Y265320I-393J75D01*
G37*
G36*
G01X362862Y266847D02*
G03X363403I271J295D01*
G02X364283Y267189I879J-957D01*
G02X365408Y266539I0J-1300D01*
G03X366043Y266461I346J200D01*
G02X366979Y266859I936J-902D01*
G02Y264259I0J-1300D01*
G02X365853Y264909I0J1300D01*
G03X365218Y264987I-346J-200D01*
G02X364283Y264589I-936J902D01*
G02X363403Y264932I0J1300D01*
G03X362862I-271J-295D01*
G02X361983Y264589I-879J957D01*
G02Y267189I0J1300D01*
G02X362862Y266847I0J-1300D01*
G37*
G36*
G01X374199Y260696D02*
G02X374100Y261194I1201J498D01*
G02X375400Y259894I1300J0D01*
G02X375270Y259901I0J1300D01*
G03X374861Y259349I-40J-398D01*
G02X374960Y258852I-1201J-498D01*
G02X373660Y260152I-1300J0D01*
G02X373790Y260145I0J-1300D01*
G03X374199Y260696I40J398D01*
G37*
G36*
G01X362037Y256482D02*
G02X361400Y257600I663J1118D01*
G02X364000I1300J0D01*
G02X363630Y256692I-1300J0D01*
G03X363713Y256068I286J-279D01*
G02X364350Y254950I-663J-1118D01*
G02X361750I-1300J0D01*
G02X362120Y255858I1300J0D01*
G03X362037Y256482I-286J279D01*
G37*
G36*
G01X311772Y251506D02*
G02X312750Y251950I978J-856D01*
G02X313635Y251602I0J-1300D01*
G03X314282Y251755I272J293D01*
G02X315500Y252600I1218J-455D01*
G02Y250000I0J-1300D01*
G02X314615Y250348I0J1300D01*
G03X313968Y250195I-272J-293D01*
G02X312750Y249350I-1218J455D01*
G02X311740Y249832I0J1300D01*
G03X311128Y249844I-311J-252D01*
G02X310150Y249400I-978J856D01*
G02Y252000I0J1300D01*
G02X311160Y251518I0J-1300D01*
G03X311772Y251506I311J252D01*
G37*
G36*
G01X237809Y243721D02*
G02X236700Y243100I-1109J679D01*
G02Y245700I0J1300D01*
G02X237809Y245079I0J-1300D01*
G03X238491I341J209D01*
G02X239600Y245700I1109J-679D01*
G02Y243100I0J-1300D01*
G02X238491Y243721I0J1300D01*
G03X237809I-341J-209D01*
G37*
G36*
G01X362091Y240142D02*
G02X361532Y241210I741J1068D01*
G02X364132I1300J0D01*
G02X363702Y240244I-1300J0D01*
G03X363741Y239618I268J-297D01*
G02X364300Y238550I-741J-1068D01*
G02X361700I-1300J0D01*
G02X362130Y239516I1300J0D01*
G03X362091Y240142I-268J297D01*
G37*
G36*
G01X322017Y238562D02*
G02X321500Y239600I783J1038D01*
G02X324100I1300J0D01*
G02X323545Y238535I-1300J0D01*
G03X323533Y237888I229J-328D01*
G02X324050Y236850I-783J-1038D01*
G02X321450I-1300J0D01*
G02X322005Y237915I1300J0D01*
G03X322017Y238562I-229J328D01*
G37*
G36*
G01X261057Y237080D02*
G02X260900Y237700I1143J620D01*
G02X263500I1300J0D01*
G02X262348Y236408I-1300J0D01*
G03X262043Y235820I46J-397D01*
G02X262200Y235200I-1143J-620D01*
G02X259600I-1300J0D01*
G02X260752Y236492I1300J0D01*
G03X261057Y237080I-46J397D01*
G37*
G36*
G01X239494Y544623D02*
G03Y544877I-155J127D01*
G02X239200Y545700I1006J823D01*
G02X241800I1300J0D01*
G02X241506Y544877I-1300J0D01*
G03Y544623I155J-127D01*
G02X241800Y543800I-1006J-823D01*
G02X241460Y542924I-1300J0D01*
G03X241447Y542671I148J-135D01*
G02X241700Y541900I-1047J-771D01*
G02X240400Y540600I-1300J0D01*
G02X239577Y540894I0J1300D01*
G03X239323I-127J-155D01*
G02X238500Y540600I-823J1006D01*
G02Y543200I0J1300D01*
G02X238741Y543177I0J-1300D01*
G03X239212Y543624I74J393D01*
G02X239200Y543800I1288J175D01*
G02X239494Y544623I1300J0D01*
G37*
G36*
G01X348144Y525519D02*
G03X347556I-294J-271D01*
G02X346600Y525100I-956J881D01*
G02Y527700I0J1300D01*
G02X347556Y527281I0J-1300D01*
G03X348144I294J271D01*
G02X349100Y527700I956J-881D01*
G02X350254Y526998I0J-1300D01*
G03X350843Y526857I355J184D01*
G02X351600Y527100I757J-1057D01*
G02Y524500I0J-1300D01*
G02X350446Y525202I0J1300D01*
G03X349857Y525343I-355J-184D01*
G02X349100Y525100I-757J1057D01*
G02X348144Y525519I0J1300D01*
G37*
G36*
G01X262623Y521106D02*
G03X262877I127J155D01*
G02X263700Y521400I823J-1006D01*
G02X264523Y521106I0J-1300D01*
G03X264777I127J155D01*
G02X265600Y521400I823J-1006D01*
G02X266900Y520100I0J-1300D01*
G02X266569Y519233I-1300J0D01*
G03Y518967I149J-133D01*
G02X266900Y518100I-969J-867D01*
G02X265600Y516800I-1300J0D01*
G02X264777Y517094I0J1300D01*
G03X264523I-127J-155D01*
G02X263700Y516800I-823J1006D01*
G02X262877Y517094I0J1300D01*
G03X262623I-127J-155D01*
G02X261800Y516800I-823J1006D01*
G02X260500Y518100I0J1300D01*
G02X260831Y518967I1300J0D01*
G03Y519233I-149J133D01*
G02X260500Y520100I969J867D01*
G02X261800Y521400I1300J0D01*
G02X262623Y521106I0J-1300D01*
G37*
G36*
G01X258626Y505298D02*
G03X259002Y505721I-23J399D01*
G02X259000Y505800I1298J79D01*
G02X261600I1300J0D01*
G02X260374Y504502I-1300J0D01*
G03X259998Y504079I23J-399D01*
G02X260000Y504000I-1298J-79D01*
G02X258941Y502723I-1300J0D01*
G03X258635Y502205I74J-393D01*
G02X258700Y501800I-1235J-405D01*
G02X256100I-1300J0D01*
G02X257159Y503077I1300J0D01*
G03X257465Y503595I-74J393D01*
G02X257400Y504000I1235J405D01*
G02X258626Y505298I1300J0D01*
G37*
G36*
G01X184122Y487836D02*
G03X183769Y488307I-393J73D01*
G02X182600Y489600I131J1293D01*
G02X185200I1300J0D01*
G02X185178Y489364I-1300J0D01*
G03X185531Y488893I393J-73D01*
G02X186700Y487600I-131J-1293D01*
G02X184100I-1300J0D01*
G02X184122Y487836I1300J0D01*
G37*
G36*
G01X410523Y487506D02*
G03X410777I127J155D01*
G02X411600Y487800I823J-1006D01*
G02X412423Y487506I0J-1300D01*
G03X412677I127J155D01*
G02X413500Y487800I823J-1006D01*
G02X414800Y486500I0J-1300D01*
G02X414506Y485677I-1300J0D01*
G03Y485423I155J-127D01*
G02X414800Y484600I-1006J-823D01*
G02X414547Y483829I-1300J0D01*
G03X414560Y483576I161J-119D01*
G02X414900Y482700I-960J-876D01*
G02X413600Y481400I-1300J0D01*
G02X412777Y481694I0J1300D01*
G03X412523I-127J-155D01*
G02X411700Y481400I-823J1006D01*
G02X410877Y481694I0J1300D01*
G03X410623I-127J-155D01*
G02X409800Y481400I-823J1006D01*
G02X408977Y481694I0J1300D01*
G03X408723I-127J-155D01*
G02X407900Y481400I-823J1006D01*
G02X406600Y482700I0J1300D01*
G02X406853Y483471I1300J0D01*
G03X406840Y483724I-161J119D01*
G02X406500Y484600I960J876D01*
G02X406794Y485423I1300J0D01*
G03Y485677I-155J127D01*
G02X406500Y486500I1006J823D01*
G02X407800Y487800I1300J0D01*
G02X408623Y487506I0J-1300D01*
G03X408877I127J155D01*
G02X409700Y487800I823J-1006D01*
G02X410523Y487506I0J-1300D01*
G37*
G36*
G01X379023Y486406D02*
G03X379277I127J155D01*
G02X380100Y486700I823J-1006D01*
G02X380923Y486406I0J-1300D01*
G03X381177I127J155D01*
G02X382000Y486700I823J-1006D01*
G02X383300Y485400I0J-1300D01*
G02X383006Y484577I-1300J0D01*
G03Y484323I155J-127D01*
G02X383300Y483500I-1006J-823D01*
G02X383006Y482677I-1300J0D01*
G03Y482423I155J-127D01*
G02X383300Y481600I-1006J-823D01*
G02X382000Y480300I-1300J0D01*
G02X381837Y480310I0J1300D01*
G03X381390Y479863I-50J-397D01*
G02X381400Y479700I-1290J-163D01*
G02X378800I-1300J0D01*
G02X379094Y480523I1300J0D01*
G03Y480777I-155J127D01*
G02X378800Y481600I1006J823D01*
G02X378810Y481763I1300J0D01*
G03X378363Y482210I-397J50D01*
G02X378200Y482200I-163J1290D01*
G02X377377Y482494I0J1300D01*
G03X377123I-127J-155D01*
G02X376300Y482200I-823J1006D01*
G02X375000Y483500I0J1300D01*
G02X375294Y484323I1300J0D01*
G03Y484577I-155J127D01*
G02X375000Y485400I1006J823D01*
G02X376300Y486700I1300J0D01*
G02X377123Y486406I0J-1300D01*
G03X377377I127J155D01*
G02X378200Y486700I823J-1006D01*
G02X379023Y486406I0J-1300D01*
G37*
G36*
G01X344194Y483023D02*
G03Y483277I-155J127D01*
G02X343900Y484100I1006J823D01*
G02X345200Y485400I1300J0D01*
G02X346023Y485106I0J-1300D01*
G03X346277I127J155D01*
G02X347100Y485400I823J-1006D01*
G02X348400Y484100I0J-1300D01*
G02X348106Y483277I-1300J0D01*
G03Y483023I155J-127D01*
G02X348400Y482200I-1006J-823D01*
G02X348106Y481377I-1300J0D01*
G03Y481123I155J-127D01*
G02X348400Y480300I-1006J-823D01*
G02X348106Y479477I-1300J0D01*
G03Y479223I155J-127D01*
G02X348400Y478400I-1006J-823D01*
G02X347100Y477100I-1300J0D01*
G02X346277Y477394I0J1300D01*
G03X346023I-127J-155D01*
G02X345200Y477100I-823J1006D01*
G02X343900Y478400I0J1300D01*
G02X344194Y479223I1300J0D01*
G03Y479477I-155J127D01*
G02X343900Y480300I1006J823D01*
G02X344194Y481123I1300J0D01*
G03Y481377I-155J127D01*
G02X343900Y482200I1006J823D01*
G02X344194Y483023I1300J0D01*
G37*
G36*
G01X389023Y484806D02*
G03X389277I127J155D01*
G02X390100Y485100I823J-1006D01*
G02X390923Y484806I0J-1300D01*
G03X391177I127J155D01*
G02X392000Y485100I823J-1006D01*
G02X393300Y483800I0J-1300D01*
G02X393006Y482977I-1300J0D01*
G03Y482723I155J-127D01*
G02X393300Y481900I-1006J-823D01*
G02X393006Y481077I-1300J0D01*
G03Y480823I155J-127D01*
G02X393300Y480000I-1006J-823D01*
G02X393280Y479771I-1300J0D01*
G03X393538Y479324I394J-70D01*
G02X394400Y478100I-438J-1224D01*
G02X393100Y476800I-1300J0D01*
G02X392277Y477094I0J1300D01*
G03X392023I-127J-155D01*
G02X391200Y476800I-823J1006D01*
G02X390377Y477094I0J1300D01*
G03X390123I-127J-155D01*
G02X389300Y476800I-823J1006D01*
G02X388000Y478100I0J1300D01*
G02X388020Y478329I1300J0D01*
G03X387762Y478776I-394J70D01*
G02X386900Y480000I438J1224D01*
G02X387194Y480823I1300J0D01*
G03Y481077I-155J127D01*
G02X386900Y481900I1006J823D01*
G02X387194Y482723I1300J0D01*
G03Y482977I-155J127D01*
G02X386900Y483800I1006J823D01*
G02X388200Y485100I1300J0D01*
G02X389023Y484806I0J-1300D01*
G37*
G36*
G01X151603Y476908D02*
G03X151345Y477449I-368J156D01*
G02X150400Y478700I355J1251D01*
G02X153000I1300J0D01*
G02X152897Y478192I-1300J0D01*
G03X153155Y477651I368J-156D01*
G02X154100Y476400I-355J-1251D01*
G02X151500I-1300J0D01*
G02X151603Y476908I1300J0D01*
G37*
G36*
G01X262553Y473171D02*
G03X262540Y473424I-161J119D01*
G02X262200Y474300I960J876D01*
G02X263500Y475600I1300J0D01*
G02X264367Y475269I0J-1300D01*
G03X264633I133J149D01*
G02X265500Y475600I867J-969D01*
G02X266800Y474300I0J-1300D01*
G02X266796Y474202I-1300J0D01*
G03X267267Y473779I399J-30D01*
G02X267500Y473800I233J-1279D01*
G02X268800Y472500I0J-1300D01*
G02X268506Y471677I-1300J0D01*
G03Y471423I155J-127D01*
G02X268800Y470600I-1006J-823D01*
G02X267500Y469300I-1300J0D01*
G02X266729Y469553I0J1300D01*
G03X266476Y469540I-119J-161D01*
G02X265600Y469200I-876J960D01*
G02X264733Y469531I0J1300D01*
G03X264467I-133J-149D01*
G02X263600Y469200I-867J969D01*
G02X262300Y470500I0J1300D01*
G02X262594Y471323I1300J0D01*
G03Y471577I-155J127D01*
G02X262300Y472400I1006J823D01*
G02X262553Y473171I1300J0D01*
G37*
G36*
G01X411831Y450967D02*
G03Y451233I-149J133D01*
G02X411500Y452100I969J867D01*
G02X412800Y453400I1300J0D01*
G02X413667Y453069I0J-1300D01*
G03X413933I133J149D01*
G02X414800Y453400I867J-969D01*
G02X416100Y452100I0J-1300D01*
G02X415769Y451233I-1300J0D01*
G03Y450967I149J-133D01*
G02X416100Y450100I-969J-867D01*
G02X414800Y448800I-1300J0D01*
G02X413933Y449131I0J1300D01*
G03X413667I-133J-149D01*
G02X412800Y448800I-867J969D01*
G02X411500Y450100I0J1300D01*
G02X411831Y450967I1300J0D01*
G37*
G36*
G01X487469Y444467D02*
G03X487727Y444459I134J149D01*
G02X488537Y444742I810J-1017D01*
G02X489312Y444485I0J-1300D01*
G03X489561Y444493I119J161D01*
G02X490400Y444800I839J-993D01*
G02X491700Y443500I0J-1300D01*
G02X491440Y442720I-1300J0D01*
G03X491480Y442440I160J-120D01*
G02X492000Y441400I-780J-1040D01*
G02X490700Y440100I-1300J0D01*
G02X489746Y440517I0J1300D01*
G03X489466Y440530I-147J-136D01*
G02X488600Y440200I-866J970D01*
G02X487690Y440572I0J1300D01*
G03X487410I-140J-143D01*
G02X486500Y440200I-910J928D01*
G02X485200Y441500I0J1300D01*
G02X485577Y442415I1300J0D01*
G03X485590Y442682I-142J141D01*
G02X485300Y443500I1010J818D01*
G02X486600Y444800I1300J0D01*
G02X487469Y444467I0J-1300D01*
G37*
G36*
G01X465823Y442506D02*
G03X466077I127J155D01*
G02X466900Y442800I823J-1006D01*
G02X467723Y442506I0J-1300D01*
G03X467977I127J155D01*
G02X468800Y442800I823J-1006D01*
G02X470100Y441500I0J-1300D01*
G02X469847Y440729I-1300J0D01*
G03X469860Y440476I161J-119D01*
G02X470200Y439600I-960J-876D01*
G02X468900Y438300I-1300J0D01*
G02X468077Y438594I0J1300D01*
G03X467823I-127J-155D01*
G02X467000Y438300I-823J1006D01*
G02X466177Y438594I0J1300D01*
G03X465923I-127J-155D01*
G02X465100Y438300I-823J1006D01*
G02X463800Y439600I0J1300D01*
G02X464053Y440371I1300J0D01*
G03X464040Y440624I-161J119D01*
G02X463700Y441500I960J876D01*
G02X465000Y442800I1300J0D01*
G02X465823Y442506I0J-1300D01*
G37*
G36*
G01X477623Y436006D02*
G03X477877I127J155D01*
G02X478700Y436300I823J-1006D01*
G02X479523Y436006I0J-1300D01*
G03X479777I127J155D01*
G02X480600Y436300I823J-1006D01*
G02X481900Y435000I0J-1300D01*
G02X481647Y434229I-1300J0D01*
G03X481660Y433976I161J-119D01*
G02X482000Y433100I-960J-876D01*
G02X480700Y431800I-1300J0D01*
G02X479877Y432094I0J1300D01*
G03X479623I-127J-155D01*
G02X478800Y431800I-823J1006D01*
G02X477977Y432094I0J1300D01*
G03X477723I-127J-155D01*
G02X476900Y431800I-823J1006D01*
G02X475600Y433100I0J1300D01*
G02X475853Y433871I1300J0D01*
G03X475840Y434124I-161J119D01*
G02X475500Y435000I960J876D01*
G02X476800Y436300I1300J0D01*
G02X477623Y436006I0J-1300D01*
G37*
G36*
G01X431277Y421194D02*
G03X431023I-127J-155D01*
G02X430200Y420900I-823J1006D01*
G02Y423500I0J1300D01*
G02X431023Y423206I0J-1300D01*
G03X431277I127J155D01*
G02X432100Y423500I823J-1006D01*
G02Y420900I0J-1300D01*
G02X431277Y421194I0J1300D01*
G37*
G36*
G01X250169Y418993D02*
G03X250522Y419464I-40J398D01*
G02X250500Y419700I1278J236D01*
G02X253100I1300J0D01*
G02X251931Y418407I-1300J0D01*
G03X251578Y417936I40J-398D01*
G02X251600Y417700I-1278J-236D01*
G02X249000I-1300J0D01*
G02X250169Y418993I1300J0D01*
G37*
G36*
G01X369262Y409700D02*
G02Y411500I938J900D01*
G02X368900Y412400I938J900D01*
G02X370200Y413700I1300J0D01*
G02X371023Y413406I0J-1300D01*
G03X371277I127J155D01*
G02X372100Y413700I823J-1006D01*
G02X373400Y412400I0J-1300D01*
G02X373038Y411500I-1300J0D01*
G02Y409700I-938J-900D01*
G02Y407900I-938J-900D01*
G02X373400Y407000I-938J-900D01*
G02X373106Y406177I-1300J0D01*
G03Y405923I155J-127D01*
G02X373400Y405100I-1006J-823D01*
G02X372100Y403800I-1300J0D01*
G02X371277Y404094I0J1300D01*
G03X371023I-127J-155D01*
G02X370200Y403800I-823J1006D01*
G02X368997Y404606I0J1300D01*
G03X368527Y404842I-370J-152D01*
G02X368200Y404800I-327J1258D01*
G02X367843Y404850I0J1300D01*
G03X367372Y404638I-110J-385D01*
G02X366200Y403900I-1172J562D01*
G02Y406500I0J1300D01*
G02X366557Y406450I0J-1300D01*
G03X367028Y406662I110J385D01*
G02X368200Y407400I1172J-562D01*
G02X368557Y407350I0J-1300D01*
G03X369028Y407562I110J385D01*
G02X369262Y407900I1172J-562D01*
G02Y409700I938J900D01*
G37*
G36*
G01X473549Y384745D02*
G03X473008Y385003I-385J-109D01*
G02X472500Y384900I-508J1197D01*
G02Y387500I0J1300D01*
G02X473751Y386555I0J-1300D01*
G03X474292Y386297I385J109D01*
G02X474800Y386400I508J-1197D01*
G02Y383800I0J-1300D01*
G02X473549Y384745I0J1300D01*
G37*
G36*
G01X161940Y382234D02*
G03X162317Y382698I-18J400D01*
G02X162300Y382905I1283J207D01*
G02X164900I1300J0D01*
G02X163660Y381606I-1300J0D01*
G03X163283Y381143I18J-400D01*
G02X163300Y380936I-1283J-207D01*
G02X160700I-1300J0D01*
G02X161940Y382234I1300J0D01*
G37*
G36*
G01X352208Y380257D02*
G03X351761Y380610I-398J-44D01*
G02X351600Y380600I-161J1290D01*
G02Y383200I0J1300D01*
G02X352892Y382043I0J-1300D01*
G03X353339Y381690I398J44D01*
G02X353500Y381700I161J-1290D01*
G02Y379100I0J-1300D01*
G02X352208Y380257I0J1300D01*
G37*
G36*
G01X143394Y380123D02*
G03Y380377I-155J127D01*
G02X143100Y381200I1006J823D01*
G02X145700I1300J0D01*
G02X145406Y380377I-1300J0D01*
G03Y380123I155J-127D01*
G02X145700Y379300I-1006J-823D01*
G02X143100I-1300J0D01*
G02X143394Y380123I1300J0D01*
G37*
G36*
G01X315639Y367322D02*
G03X315674Y367602I-124J157D01*
G02X315400Y368400I1026J798D01*
G02X318000I1300J0D01*
G02X317503Y367378I-1300J0D01*
G03X317469Y367098I124J-157D01*
G02X317743Y366300I-1026J-798D01*
G02X315142I-1300J0D01*
G02X315639Y367322I1300J0D01*
G37*
G36*
G01X460859Y361709D02*
G03X460341I-259J-305D01*
G02X459500Y361400I-841J991D01*
G02Y364000I0J1300D01*
G02X460341Y363691I0J-1300D01*
G03X460859I259J305D01*
G02X461700Y364000I841J-991D01*
G02Y361400I0J-1300D01*
G02X460859Y361709I0J1300D01*
G37*
G36*
G01X411137Y360273D02*
G03X411443Y360767I-81J392D01*
G02X411400Y361100I1257J333D01*
G02X414000I1300J0D01*
G02X412963Y359827I-1300J0D01*
G03X412657Y359333I81J-392D01*
G02X412700Y359000I-1257J-333D01*
G02X410100I-1300J0D01*
G02X411137Y360273I1300J0D01*
G37*
G36*
G01X316016Y356294D02*
G03X315546Y356623I-395J-63D01*
G02X315300Y356600I-246J1277D01*
G02Y359200I0J1300D01*
G02X316584Y358106I0J-1300D01*
G03X317054Y357777I395J63D01*
G02X317300Y357800I246J-1277D01*
G02Y355200I0J-1300D01*
G02X316016Y356294I0J1300D01*
G37*
G36*
G01X241479Y345818D02*
G03Y346382I-283J282D01*
G02X241100Y347300I921J918D01*
G02X243700I1300J0D01*
G02X243321Y346382I-1300J0D01*
G03Y345818I283J-282D01*
G02X243700Y344900I-921J-918D01*
G02X241100I-1300J0D01*
G02X241479Y345818I1300J0D01*
G37*
G36*
G01X362994Y344123D02*
G03Y344377I-155J127D01*
G02X362700Y345200I1006J823D01*
G02X364000Y346500I1300J0D01*
G02X364841Y346191I0J-1300D01*
G03X365359I259J305D01*
G02X366200Y346500I841J-991D01*
G02X367500Y345200I0J-1300D01*
G02X367206Y344377I-1300J0D01*
G03Y344123I155J-127D01*
G02X367500Y343300I-1006J-823D01*
G02X366200Y342000I-1300J0D01*
G02X365359Y342309I0J1300D01*
G03X364841I-259J-305D01*
G02X364000Y342000I-841J991D01*
G02X362700Y343300I0J1300D01*
G02X362994Y344123I1300J0D01*
G37*
G36*
G01X496458Y330078D02*
G03X495908Y330234I-351J-191D01*
G02X495261Y330062I-647J1128D01*
G02Y332662I0J1300D01*
G02X496403Y331983I0J-1300D01*
G03X496953Y331828I351J191D01*
G02X497600Y332000I647J-1128D01*
G02Y329400I0J-1300D01*
G02X496458Y330078I0J1300D01*
G37*
G36*
G01X167662Y330306D02*
G03X167121Y330282I-258J-306D01*
G02X166200Y329900I-921J918D01*
G02Y332500I0J1300D01*
G02X167038Y332194I0J-1300D01*
G03X167579Y332218I258J306D01*
G02X168500Y332600I921J-918D01*
G02Y330000I0J-1300D01*
G02X167662Y330306I0J1300D01*
G37*
G36*
G01X145777Y327794D02*
G03X145523I-127J-155D01*
G02X144700Y327500I-823J1006D01*
G02Y330100I0J1300D01*
G02X145523Y329806I0J-1300D01*
G03X145777I127J155D01*
G02X146600Y330100I823J-1006D01*
G02Y327500I0J-1300D01*
G02X145777Y327794I0J1300D01*
G37*
G36*
G01X167559Y325609D02*
G03X167041I-259J-305D01*
G02X166200Y325300I-841J991D01*
G02Y327900I0J1300D01*
G02X167041Y327591I0J-1300D01*
G03X167559I259J305D01*
G02X168400Y327900I841J-991D01*
G02Y325300I0J-1300D01*
G02X167559Y325609I0J1300D01*
G37*
G36*
G01X413485Y322477D02*
G03X413218Y322490I-141J-142D01*
G02X412400Y322200I-818J1010D01*
G02Y324800I0J1300D01*
G02X413315Y324423I0J-1300D01*
G03X413582Y324410I141J142D01*
G02X414400Y324700I818J-1010D01*
G02X415267Y324369I0J-1300D01*
G03X415533I133J149D01*
G02X416400Y324700I867J-969D01*
G02Y322100I0J-1300D01*
G02X415533Y322431I0J1300D01*
G03X415267I-133J-149D01*
G02X414400Y322100I-867J969D01*
G02X413485Y322477I0J1300D01*
G37*
G36*
G01X392606Y319946D02*
G03X392036Y319958I-291J-275D01*
G02X391130Y319590I-906J932D01*
G02Y322190I0J1300D01*
G02X392074Y321784I0J-1300D01*
G03X392644Y321772I291J275D01*
G02X393550Y322140I906J-932D01*
G02Y319540I0J-1300D01*
G02X392606Y319946I0J1300D01*
G37*
G36*
G01X333887Y318709D02*
G03X333906Y319318I-250J312D01*
G02X333478Y320282I872J964D01*
G02X336078I1300J0D01*
G02X335590Y319267I-1300J0D01*
G03X335572Y318658I250J-312D01*
G02X336000Y317694I-872J-964D01*
G02X333400I-1300J0D01*
G02X333887Y318709I1300J0D01*
G37*
G36*
G01X352835Y317855D02*
G03X352833Y318401I-293J272D01*
G02X352478Y319294I945J893D01*
G02X355078I1300J0D01*
G02X354731Y318410I-1300J0D01*
G03X354734Y317864I293J-272D01*
G02X355089Y316971I-945J-893D01*
G02X352489I-1300J0D01*
G02X352835Y317855I1300J0D01*
G37*
G36*
G01X231440Y317176D02*
G03X231453Y317429I-148J135D01*
G02X231200Y318200I1047J771D01*
G02X233800I1300J0D01*
G02X233460Y317324I-1300J0D01*
G03X233447Y317071I148J-135D01*
G02X233700Y316300I-1047J-771D01*
G02X231100I-1300J0D01*
G02X231440Y317176I1300J0D01*
G37*
G36*
G01X367311Y312786D02*
G03X367640Y313280I-58J396D01*
G02X367600Y313600I1260J320D01*
G02X370200I1300J0D01*
G02X369089Y312314I-1300J0D01*
G03X368760Y311820I58J-396D01*
G02X368800Y311500I-1260J-320D01*
G02X366200I-1300J0D01*
G02X367311Y312786I1300J0D01*
G37*
G36*
G01X333687Y311306D02*
G03Y311835I-300J264D01*
G02X333363Y312694I976J859D01*
G02X335963I1300J0D01*
G02X335638Y311835I-1300J0D01*
G03Y311306I300J-264D01*
G02X335963Y310447I-976J-859D01*
G02X333363I-1300J0D01*
G02X333687Y311306I1300J0D01*
G37*
G36*
G01X339781Y311330D02*
G03Y311848I-305J259D01*
G02X339473Y312689I991J841D01*
G02X342073I1300J0D01*
G02X341764Y311848I-1300J0D01*
G03Y311330I305J-259D01*
G02X342073Y310489I-991J-841D01*
G02X339473I-1300J0D01*
G02X339781Y311330I1300J0D01*
G37*
G36*
G01X351767Y310923D02*
G03Y311524I-264J300D01*
G02X351326Y312500I858J976D01*
G02X353926I1300J0D01*
G02X353484Y311524I-1300J0D01*
G03Y310923I264J-300D01*
G02X353926Y309946I-858J-977D01*
G02X351326I-1300J0D01*
G02X351767Y310923I1300J0D01*
G37*
G36*
G01X206333Y309331D02*
G03X206067I-133J-149D01*
G02X205200Y309000I-867J969D01*
G02Y311600I0J1300D01*
G02X206067Y311269I0J-1300D01*
G03X206333I133J149D01*
G02X207200Y311600I867J-969D01*
G02Y309000I0J-1300D01*
G02X206333Y309331I0J1300D01*
G37*
G36*
G01X309548Y306585D02*
G03X308995Y306573I-270J-295D01*
G02X308078Y306194I-918J921D01*
G02Y308794I0J1300D01*
G02X308956Y308452I0J-1300D01*
G03X309509Y308464I270J295D01*
G02X310427Y308843I918J-921D01*
G02Y306243I0J-1300D01*
G02X309548Y306585I0J1300D01*
G37*
G36*
G01X414538Y306000D02*
G03X415144Y305977I313J249D01*
G02X416099Y306394I954J-883D01*
G02X417037Y305993I0J-1300D01*
G03X417636Y306017I289J277D01*
G02X418642Y306493I1006J-824D01*
G02Y303893I0J-1300D01*
G02X417703Y304294I0J1300D01*
G03X417104Y304270I-289J-277D01*
G02X416099Y303794I-1006J824D01*
G02X415081Y304285I0J1300D01*
G03X414474Y304308I-313J-249D01*
G02X413520Y303891I-954J883D01*
G02Y306491I0J1300D01*
G02X414538Y306000I0J-1300D01*
G37*
G36*
G01X339812Y302998D02*
G03X339771Y303515I-324J234D01*
G02X339390Y304434I919J920D01*
G02X340690Y305734I1300J0D01*
G02X341557Y305402I0J-1300D01*
G03X342090Y305401I267J298D01*
G02X342955Y305730I864J-971D01*
G02X344255Y304430I0J-1300D01*
G02X344013Y303676I-1300J0D01*
G03X344057Y303160I326J-232D01*
G02X344442Y302237I-916J-923D01*
G02X343142Y300937I-1300J0D01*
G02X342272Y301271I0J1300D01*
G03X341736I-268J-297D01*
G02X340867Y300937I-870J966D01*
G02X339567Y302237I0J1300D01*
G02X339812Y302998I1300J0D01*
G37*
G36*
G01X329922Y302941D02*
G03X329875Y303458I-326J231D01*
G02X329483Y304389I908J931D01*
G02X330783Y305689I1300J0D01*
G02X331700Y305310I0J-1300D01*
G03X332265I282J283D01*
G02X333183Y305689I918J-921D01*
G02X334483Y304389I0J-1300D01*
G02X334123Y303492I-1300J0D01*
G03X334122Y302941I289J-276D01*
G02X334478Y302047I-944J-894D01*
G02X333178Y300747I-1300J0D01*
G02X332274Y301112I0J1300D01*
G03X331758Y301146I-278J-288D01*
G02X330983Y300889I-775J1044D01*
G02X329683Y302189I0J1300D01*
G02X329922Y302941I1300J0D01*
G37*
G36*
G01X349453Y300864D02*
G03X349470Y301381I-296J269D01*
G02X349189Y302189I1019J808D01*
G02X351789I1300J0D01*
G02X351451Y301315I-1300J0D01*
G03X351433Y300797I296J-269D01*
G02X351474Y300742I-1019J-808D01*
G03X351790Y300729I163J116D01*
G02X352783Y301189I993J-840D01*
G02X353238Y301107I0J-1300D01*
G03X353732Y301295I140J375D01*
G02X354883Y301989I1150J-606D01*
G02Y299389I0J-1300D01*
G02X354427Y299472I0J1300D01*
G03X353933Y299283I-140J-375D01*
G02X352783Y298589I-1150J606D01*
G02X351838Y298996I0J1300D01*
G03X351281Y299020I-291J-275D01*
G02X350415Y298689I-866J970D01*
G02X349115Y299989I0J1300D01*
G02X349453Y300864I1300J0D01*
G37*
G36*
G01X404254Y302899D02*
G03X404857I301J263D01*
G02X405836Y303343I979J-856D01*
G02X406814Y302899I0J-1300D01*
G03X407416I301J263D01*
G02X408395Y303343I978J-856D01*
G02Y300743I0J-1300D01*
G02X407416Y301187I0J1300D01*
G03X406814I-301J-263D01*
G02X405836Y300743I-978J856D01*
G02X404857Y301188I0J1300D01*
G03X404254I-301J-263D01*
G02X403276Y300743I-979J856D01*
G02X402297Y301187I0J1300D01*
G03X401695I-301J-263D01*
G02X400717Y300743I-978J856D01*
G02Y303343I0J1300D01*
G02X401695Y302899I0J-1300D01*
G03X402297I301J263D01*
G02X403276Y303343I978J-856D01*
G02X404254Y302899I0J-1300D01*
G37*
G36*
G01X456372Y299496D02*
G03X456349Y300014I-316J245D01*
G02X456000Y300900I951J886D01*
G02X457300Y302200I1300J0D01*
G02X458071Y301947I0J-1300D01*
G03X458324Y301960I119J161D01*
G02X459200Y302300I876J-960D01*
G02X460500Y301000I0J-1300D01*
G02X460471Y300727I-1300J0D01*
G03X460965Y300256I391J-84D01*
G02X461300Y300300I335J-1256D01*
G02Y297700I0J-1300D01*
G02X460529Y297953I0J1300D01*
G03X460276Y297940I-119J-161D01*
G02X459400Y297600I-876J960D01*
G02X459102Y297635I0J1300D01*
G03X458631Y297117I-92J-389D01*
G02X458700Y296700I-1231J-417D01*
G02X456100I-1300J0D01*
G02X456431Y297567I1300J0D01*
G03Y297833I-149J133D01*
G02X456100Y298700I969J867D01*
G02X456372Y299496I1300J0D01*
G37*
G36*
G01X481967Y301769D02*
G03X482233I133J149D01*
G02X483100Y302100I867J-969D01*
G02X483923Y301806I0J-1300D01*
G03X484177I127J155D01*
G02X485000Y302100I823J-1006D01*
G02X486300Y300800I0J-1300D01*
G02X485960Y299924I-1300J0D01*
G03X485947Y299671I148J-135D01*
G02X486200Y298900I-1047J-771D01*
G02X485547Y297772I-1300J0D01*
G03X485460Y297526I99J-174D01*
G02X485550Y297050I-1210J-476D01*
G02X482950I-1300J0D01*
G02X482960Y297208I1300J0D01*
G03X482666Y297644I-397J49D01*
G02X482133Y297931I334J1256D01*
G03X481867I-133J-149D01*
G02X481000Y297600I-867J969D01*
G02X479700Y298900I0J1300D01*
G02X480040Y299776I1300J0D01*
G03X480053Y300029I-148J135D01*
G02X479800Y300800I1047J771D01*
G02X481100Y302100I1300J0D01*
G02X481967Y301769I0J-1300D01*
G37*
G36*
G01X346051Y299308D02*
G03X346063Y299607I-126J155D01*
G02X345668Y300541I904J934D01*
G02X348268I1300J0D01*
G02X347907Y299642I-1300J0D01*
G03X347885Y299115I289J-276D01*
G02X348172Y298300I-1013J-815D01*
G02X346872Y297000I-1300J0D01*
G02X345881Y297459I0J1300D01*
G03X345331Y297516I-305J-259D01*
G02X344535Y297244I-796J1028D01*
G02Y299844I0J1300D01*
G02X345631Y299242I0J-1300D01*
G03X345943Y299210I169J107D01*
G02X346051Y299308I929J-910D01*
G37*
G36*
G01X362264Y299069D02*
G03X361676Y299041I-281J-285D01*
G02X360678Y298574I-998J833D01*
G02Y301174I0J1300D01*
G02X361591Y300799I0J-1300D01*
G03X362180Y300827I281J285D01*
G02X363178Y301294I998J-833D01*
G02X364169Y300835I0J-1300D01*
G03X364757Y300811I305J259D01*
G02X365679Y301194I921J-917D01*
G02Y298594I0J-1300D01*
G02X364687Y299053I0J1300D01*
G03X364099Y299077I-305J-259D01*
G02X363178Y298694I-921J917D01*
G02X362264Y299069I0J1300D01*
G37*
G36*
G01X397181Y298038D02*
G03X396579I-301J-264D01*
G02X395601Y297594I-978J856D01*
G02Y300194I0J1300D01*
G02X396579Y299750I0J-1300D01*
G03X397181I301J264D01*
G02X398159Y300194I978J-856D01*
G02X399137Y299750I0J-1300D01*
G03X399739Y299749I301J263D01*
G02X400718Y300193I978J-856D01*
G02Y297593I0J-1300D01*
G02X399739Y298037I0J1300D01*
G03X399137Y298038I-301J-263D01*
G02X398159Y297594I-978J856D01*
G02X397181Y298038I0J1300D01*
G37*
G36*
G01X334932Y297283D02*
G03X334403Y297436I-345J-202D01*
G02X333803Y297289I-600J1153D01*
G02Y299889I0J1300D01*
G02X334925Y299245I0J-1300D01*
G03X335455Y299092I345J202D01*
G02X336055Y299239I600J-1153D01*
G02Y296639I0J-1300D01*
G02X334932Y297283I0J1300D01*
G37*
G36*
G01X399741Y294890D02*
G03X399138Y294890I-302J-263D01*
G02X398158Y294444I-980J854D01*
G02Y297044I0J1300D01*
G02X399138Y296597I0J-1300D01*
G03X399742Y296597I302J263D01*
G02X400722Y297044I980J-854D01*
G02Y294443I0J-1300D01*
G02X399741Y294890I0J1300D01*
G37*
G36*
G01X409982Y291740D02*
G03X409378Y291740I-302J-263D01*
G02X408397Y291292I-982J852D01*
G02Y293892I0J1300D01*
G02X409377Y293446I0J-1300D01*
G03X409981Y293446I302J263D01*
G02X410963Y293894I982J-852D01*
G02Y291294I0J-1300D01*
G02X409982Y291740I0J1300D01*
G37*
G36*
G01X399143Y293454D02*
G03X399742Y293455I299J265D01*
G02X400717Y293894I975J-860D01*
G02X401699Y293446I0J-1300D01*
G03X402303I302J262D01*
G02X403286Y293894I982J-852D01*
G02Y291294I0J-1300D01*
G02X402303Y291742I0J1300D01*
G03X401699I-302J-262D01*
G02X400717Y291294I-982J852D01*
G02X399743Y291732I0J1300D01*
G03X399144Y291732I-299J-265D01*
G02X398170Y291292I-975J860D01*
G02Y293892I0J1300D01*
G02X399143Y293454I0J-1300D01*
G37*
G36*
G01X388902Y293451D02*
G03X389503Y293451I300J264D01*
G02X390481Y293894I977J-857D01*
G02X391459Y293450I0J-1300D01*
G03X392062I301J263D01*
G02X393041Y293894I979J-856D01*
G02Y291294I0J-1300D01*
G02X392062Y291739I0J1300D01*
G03X391459I-301J-263D01*
G02X390481Y291294I-979J856D01*
G02X389504Y291736I0J1300D01*
G03X388903Y291736I-300J-264D01*
G02X387926Y291293I-977J857D01*
G02Y293893I0J1300D01*
G02X388902Y293451I0J-1300D01*
G37*
G36*
G01X362514Y290946D02*
G03X363084Y290928I294J271D01*
G02X363983Y291289I899J-939D01*
G02X364899Y290911I0J-1300D01*
G03X365487Y290935I282J284D01*
G02X366478Y291394I991J-841D01*
G02Y288794I0J-1300D01*
G02X365561Y289172I0J1300D01*
G03X364974Y289148I-282J-284D01*
G02X363983Y288689I-991J841D01*
G02X363028Y289107I0J1300D01*
G03X362457Y289125I-294J-271D01*
G02X361559Y288764I-899J939D01*
G02Y291364I0J1300D01*
G02X362514Y290946I0J-1300D01*
G37*
G36*
G01X304602Y287635D02*
G03X304078Y287701I-300J-264D01*
G02X303350Y287478I-728J1077D01*
G02Y290078I0J1300D01*
G02X304325Y289638I0J-1300D01*
G03X304849Y289571I300J264D01*
G02X305578Y289794I728J-1077D01*
G02X306525Y289384I0J-1300D01*
G03X307092Y289368I292J274D01*
G02X307988Y289725I895J-943D01*
G02X308909Y289342I0J-1300D01*
G03X309476I284J282D01*
G02X310398Y289725I921J-917D01*
G02X311350Y289310I0J-1300D01*
G03X311936I293J272D01*
G02X312888Y289725I952J-885D01*
G02Y287125I0J-1300D01*
G02X311936Y287540I0J1300D01*
G03X311350I-293J-272D01*
G02X310398Y287125I-952J885D01*
G02X309476Y287508I0J1300D01*
G03X308909I-284J-282D01*
G02X307988Y287125I-921J917D01*
G02X307040Y287535I0J1300D01*
G03X306473Y287551I-292J-274D01*
G02X305578Y287194I-895J943D01*
G02X304602Y287635I0J1300D01*
G37*
G36*
G01X271179Y286904D02*
G03X271108Y287469I-314J247D01*
G02X270600Y288500I792J1031D01*
G02X273200I1300J0D01*
G02X272921Y287696I-1300J0D01*
G03X272992Y287131I314J-247D01*
G02X273500Y286100I-792J-1031D01*
G02X270900I-1300J0D01*
G02X271179Y286904I1300J0D01*
G37*
G36*
G01X319846Y283598D02*
G03X320380Y283562I287J278D01*
G02X321183Y283839I803J-1023D01*
G02X321997Y283552I0J-1300D01*
G03X322544Y283595I251J312D01*
G02X323507Y284021I962J-874D01*
G02X324807Y282721I0J-1300D01*
G02X324380Y281758I-1300J0D01*
G03X324393Y281451I134J-148D01*
G02X324448Y281407I-788J-1034D01*
G03X324750Y281458I130J152D01*
G02X325652Y282081I1121J-658D01*
G03X325984Y282479I-68J394D01*
G02X325984Y282492I1300J12D01*
G02X328584I1300J0D01*
G02X327504Y281210I-1300J0D01*
G03X327172Y280812I68J-394D01*
G02X327172Y280800I-1300J-12D01*
G02X325872Y279500I-1300J0D01*
G02X325165Y279709I0J1300D01*
G03X324632Y279619I-217J-336D01*
G02X323606Y279117I-1026J798D01*
G02X322718Y279467I0J1300D01*
G03X322148Y279443I-273J-292D01*
G02X321184Y279015I-964J872D01*
G02X320262Y279398I0J1300D01*
G03X319745Y279440I-284J-282D01*
G02X318985Y279195I-760J1055D01*
G02X317685Y280495I0J1300D01*
G02X317966Y281303I1300J0D01*
G03X317949Y281820I-313J249D01*
G02X317612Y282694I963J874D01*
G02X318912Y283994I1300J0D01*
G02X319846Y283598I0J-1300D01*
G37*
G36*
G01X388905Y280846D02*
G03X389510Y280847I302J262D01*
G02X390493Y281296I983J-851D01*
G02X391471Y280852I0J-1300D01*
G03X392073I301J263D01*
G02X393052Y281296I978J-856D01*
G02Y278696I0J-1300D01*
G02X392073Y279140I0J1300D01*
G03X391471I-301J-263D01*
G02X390493Y278696I-978J856D01*
G02X389511Y279144I0J1300D01*
G03X388907Y279143I-302J-262D01*
G02X387924Y278694I-983J851D01*
G02Y281294I0J1300D01*
G02X388905Y280846I0J-1300D01*
G37*
G36*
G01X406816Y280850D02*
G03X407419I301J263D01*
G02X409376I979J-856D01*
G03X409979I301J263D01*
G02X410958Y281294I979J-856D01*
G02Y278694I0J-1300D01*
G02X409979Y279139I0J1300D01*
G03X409376I-301J-263D01*
G02X407419I-979J856D01*
G03X406816I-301J-263D01*
G02X405838Y278694I-979J856D01*
G02Y281294I0J1300D01*
G02X406816Y280850I0J-1300D01*
G37*
G36*
G01X404858Y275985D02*
G03X404259Y275984I-300J-265D01*
G02X403284Y275544I-975J860D01*
G02Y278144I0J1300D01*
G02X404257Y277706I0J-1300D01*
G03X404857Y277706I300J265D01*
G02X405832Y278146I975J-860D01*
G02Y275546I0J-1300D01*
G02X404858Y275985I0J1300D01*
G37*
G36*
G01X349852Y275790D02*
G03X349296Y275832I-300J-265D01*
G02X348462Y275529I-834J997D01*
G02Y278129I0J1300D01*
G02X349435Y277690I0J-1300D01*
G03X349992Y277648I300J265D01*
G02X350826Y277951I834J-997D01*
G02Y275351I0J-1300D01*
G02X349852Y275790I0J1300D01*
G37*
G36*
G01X484333Y275431D02*
G03X484067I-133J-149D01*
G02X483200Y275100I-867J969D01*
G02Y277700I0J1300D01*
G02X484067Y277369I0J-1300D01*
G03X484333I133J149D01*
G02X485200Y277700I867J-969D01*
G02Y275100I0J-1300D01*
G02X484333Y275431I0J1300D01*
G37*
G36*
G01X457233Y275231D02*
G03X456967I-133J-149D01*
G02X456100Y274900I-867J969D01*
G02Y277500I0J1300D01*
G02X456967Y277169I0J-1300D01*
G03X457233I133J149D01*
G02X458100Y277500I867J-969D01*
G02Y274900I0J-1300D01*
G02X457233Y275231I0J1300D01*
G37*
G36*
G01X363330Y273980D02*
G03X362739I-296J-269D01*
G02X361778Y273555I-961J875D01*
G02Y276155I0J1300D01*
G02X362739Y275730I0J-1300D01*
G03X363330I296J269D01*
G02X364292Y276155I961J-875D01*
G02Y273555I0J-1300D01*
G02X363330Y273980I0J1300D01*
G37*
G36*
G01X325904Y273145D02*
G03X325894Y273683I-301J263D01*
G02X325539Y274576I945J893D01*
G02X326839Y275876I1300J0D01*
G02X327687Y275561I0J-1300D01*
G03X328214Y275565I261J303D01*
G02X329078Y275894I864J-971D01*
G02Y273294I0J-1300D01*
G02X328229Y273609I0J1300D01*
G03X327703Y273605I-261J-303D01*
G02X327699Y273601I-863J972D01*
G03X327705Y273296I132J-150D01*
G02X328183Y272289I-822J-1007D01*
G02X325583I-1300J0D01*
G02X325904Y273145I1300J0D01*
G37*
G36*
G01X338868Y275328D02*
G03X339386Y275351I245J316D01*
G02X340272Y275700I886J-951D01*
G02X341088Y275412I0J-1300D01*
G03X341621Y275439I251J311D01*
G02X342537Y275817I916J-922D01*
G02Y273217I0J-1300D01*
G02X341721Y273505I0J1300D01*
G03X341188Y273478I-251J-311D01*
G02X340272Y273100I-916J922D01*
G02X339475Y273372I0J1300D01*
G03X338958Y273349I-245J-316D01*
G02X338072Y273000I-886J951D01*
G02X337288Y273263I0J1300D01*
G03X336760Y273222I-241J-319D01*
G02X335827Y272827I-933J905D01*
G02Y275427I0J1300D01*
G02X336610Y275164I0J-1300D01*
G03X337138Y275205I241J319D01*
G02X338072Y275600I933J-905D01*
G02X338868Y275328I0J-1300D01*
G37*
G36*
G01X396580Y274549D02*
G03X397183I301J263D01*
G02X398163Y274994I980J-855D01*
G02X399137Y274554I0J-1300D01*
G03X399738Y274555I300J265D01*
G02X400714Y274996I976J-859D01*
G02Y272396I0J-1300D01*
G02X399739Y272836I0J1300D01*
G03X399139Y272835I-300J-265D01*
G02X398163Y272394I-976J859D01*
G02X397183Y272839I0J1300D01*
G03X396580I-301J-263D01*
G02X395601Y272394I-980J855D01*
G02Y274994I0J1300D01*
G02X396580Y274549I0J-1300D01*
G37*
G36*
G01X351748Y271937D02*
G03X351229Y271957I-271J-294D01*
G02X350425Y271678I-805J1021D01*
G02Y274278I0J1300D01*
G02X351305Y273935I0J-1300D01*
G03X351823Y273915I271J294D01*
G02X352628Y274194I805J-1021D01*
G02X353677Y273662I0J-1300D01*
G03X354184Y273543I323J236D01*
G02X354783Y273689I599J-1154D01*
G02Y271089I0J-1300D01*
G02X353733Y271621I0J1300D01*
G03X353226Y271740I-323J-236D01*
G02X352628Y271594I-599J1154D01*
G02X351748Y271937I0J1300D01*
G37*
G36*
G01X321853Y273782D02*
G03X322367Y273850I217J336D01*
G02X323331Y274278I964J-872D01*
G02X324631Y272978I0J-1300D01*
G02X324295Y272107I-1300J0D01*
G03X324284Y271583I297J-268D01*
G02X324584Y270754I-1001J-830D01*
G02X324130Y269766I-1300J0D01*
G03X324048Y269255I260J-304D01*
G02X324237Y268581I-1112J-674D01*
G02X321637I-1300J0D01*
G02X322091Y269568I1300J0D01*
G03X322172Y270079I-260J304D01*
G02X321984Y270754I1112J674D01*
G02X322004Y270982I1300J0D01*
G03X321502Y271438I-394J70D01*
G02X321150Y271389I-352J1251D01*
G02X320387Y271636I0J1300D01*
G03X319856Y271581I-235J-324D01*
G02X318892Y271153I-964J872D01*
G02Y273753I0J1300D01*
G02X319654Y273506I0J-1300D01*
G03X320186Y273561I235J324D01*
G02X321150Y273989I964J-872D01*
G02X321853Y273782I0J-1300D01*
G37*
G36*
G01X339845Y269379D02*
G03X339799Y269939I-307J257D01*
G02X339349Y270923I849J984D01*
G02X340649Y272223I1300J0D01*
G02X341543Y271867I0J-1300D01*
G03X342087Y271861I275J290D01*
G02X342963Y272200I875J-961D01*
G02X344263Y270900I0J-1300D01*
G02X343947Y270051I-1300J0D01*
G03X343965Y269508I303J-261D01*
G02X344341Y268594I-924J-914D01*
G02X343041Y267294I-1300J0D01*
G02X342222Y267584I0J1300D01*
G03X341705Y267573I-252J-311D01*
G02X340842Y267245I-863J972D01*
G02X339542Y268545I0J1300D01*
G02X339845Y269379I1300J0D01*
G37*
G36*
G01X329861Y269517D02*
G03X329918Y270042I-270J295D01*
G02X329683Y270789I1064J747D01*
G02X330983Y272089I1300J0D01*
G02X331825Y271779I0J-1300D01*
G03X332344Y271780I259J305D01*
G02X333189Y272092I845J-988D01*
G02X334489Y270792I0J-1300D01*
G02X334118Y269882I-1300J0D01*
G03X334094Y269348I286J-280D01*
G02X334390Y268523I-1005J-825D01*
G02X333090Y267223I-1300J0D01*
G02X332177Y267598I0J1300D01*
G03X331624Y267606I-281J-285D01*
G02X330739Y267259I-884J953D01*
G02X329439Y268559I0J1300D01*
G02X329861Y269517I1300J0D01*
G37*
G36*
G01X402299Y269690D02*
G03X401696I-301J-263D01*
G02X400718Y269245I-979J856D01*
G02Y271845I0J1300D01*
G02X401696Y271401I0J-1300D01*
G03X402299I301J263D01*
G02X403278Y271845I979J-856D01*
G02Y269245I0J-1300D01*
G02X402299Y269690I0J1300D01*
G37*
G36*
G01X325084Y261433D02*
G03X325060Y261974I-306J258D01*
G02X324678Y262895I918J921D01*
G02X327278I1300J0D01*
G02X326972Y262057I-1300J0D01*
G03X326995Y261516I306J-258D01*
G02X327378Y260595I-918J-921D01*
G02X327358Y260369I-1300J0D01*
G03X327681Y259906I394J-70D01*
G02X328752Y258626I-229J-1280D01*
G02X328406Y257743I-1300J0D01*
G03X328409Y257196I293J-272D01*
G02X328767Y256300I-942J-895D01*
G02X326167I-1300J0D01*
G02X326513Y257183I1300J0D01*
G03X326509Y257731I-293J272D01*
G02X326152Y258626I942J896D01*
G02X326171Y258852I1300J0D01*
G03X325848Y259315I-394J70D01*
G02X324778Y260595I229J1280D01*
G02X325084Y261433I1300J0D01*
G37*
G36*
G01X331720Y261374D02*
G03Y261915I-295J271D01*
G02X331378Y262794I957J879D01*
G02X333978I1300J0D01*
G02X333635Y261915I-1300J0D01*
G03Y261374I295J-271D01*
G02X333978Y260494I-957J-879D01*
G02X333515Y259500I-1300J0D01*
G03Y258888I258J-306D01*
G02X333978Y257894I-838J-994D01*
G02X331378I-1300J0D01*
G02X331840Y258888I1300J0D01*
G03Y259500I-258J306D01*
G02X331378Y260494I838J994D01*
G02X331720Y261374I1300J0D01*
G37*
G36*
G01X319239Y261298D02*
G03X319219Y261815I-315J247D01*
G02X318878Y262694I958J879D01*
G02X321478I1300J0D01*
G02X321200Y261891I-1300J0D01*
G03X321220Y261374I315J-247D01*
G02X321562Y260495I-958J-879D01*
G02X318962I-1300J0D01*
G02X319239Y261298I1300J0D01*
G37*
G36*
G01X338029Y260933D02*
G03X337981Y261501I-304J260D01*
G02X337514Y262499I833J998D01*
G02X340114I1300J0D01*
G02X339801Y261654I-1300J0D01*
G03X339849Y261087I304J-260D01*
G02X340317Y260088I-833J-998D01*
G02X337717I-1300J0D01*
G02X338029Y260933I1300J0D01*
G37*
G36*
G01X457431Y260567D02*
G03Y260833I-149J133D01*
G02X457100Y261700I969J867D01*
G02X459700I1300J0D01*
G02X459369Y260833I-1300J0D01*
G03Y260567I149J-133D01*
G02X459700Y259700I-969J-867D01*
G02X457100I-1300J0D01*
G02X457431Y260567I1300J0D01*
G37*
G36*
G01X482295Y259912D02*
G03X481754Y260124I-371J-150D01*
G02X481200Y260000I-554J1176D01*
G02Y262600I0J1300D01*
G02X482405Y261788I0J-1300D01*
G03X482946Y261576I371J150D01*
G02X483500Y261700I554J-1176D01*
G02Y259100I0J-1300D01*
G02X482295Y259912I0J1300D01*
G37*
G36*
G01X315100Y258051D02*
G03X315081Y258599I-301J264D01*
G02X314696Y259523I915J924D01*
G02X317296I1300J0D01*
G02X316973Y258666I-1300J0D01*
G03X316992Y258118I301J-264D01*
G02X317378Y257194I-915J-924D01*
G02X314778I-1300J0D01*
G02X315100Y258051I1300J0D01*
G37*
G36*
G01X238894Y258784D02*
G03X239223Y259254I-63J395D01*
G02X239200Y259500I1277J246D01*
G02X241800I1300J0D01*
G02X240706Y258216I-1300J0D01*
G03X240377Y257746I63J-395D01*
G02X240400Y257500I-1277J-246D01*
G02X237800I-1300J0D01*
G02X238894Y258784I1300J0D01*
G37*
G36*
G01X457529Y253153D02*
G03X457276Y253140I-119J-161D01*
G02X456400Y252800I-876J960D01*
G02Y255400I0J1300D01*
G02X457171Y255147I0J-1300D01*
G03X457424Y255160I119J161D01*
G02X458300Y255500I876J-960D01*
G02Y252900I0J-1300D01*
G02X457529Y253153I0J1300D01*
G37*
G36*
G01X481033Y245831D02*
G03X480767I-133J-149D01*
G02X479900Y245500I-867J969D01*
G02Y248100I0J1300D01*
G02X480767Y247769I0J-1300D01*
G03X481033I133J149D01*
G02X481900Y248100I867J-969D01*
G02Y245500I0J-1300D01*
G02X481033Y245831I0J1300D01*
G37*
G36*
G01X386607Y241496D02*
G03X386019Y241590I-336J-217D01*
G02X385200Y241300I-819J1010D01*
G02Y243900I0J1300D01*
G02X386293Y243304I0J-1300D01*
G03X386881Y243210I336J217D01*
G02X387700Y243500I819J-1010D01*
G02Y240900I0J-1300D01*
G02X386607Y241496I0J1300D01*
G37*
G36*
G01X246589Y237933D02*
G03X246722Y238160I-63J190D01*
G02X246700Y238400I1278J240D01*
G02X248000Y239700I1300J0D01*
G02X248915Y239323I0J-1300D01*
G03X249182Y239310I141J142D01*
G02X250000Y239600I818J-1010D01*
G02X251300Y238300I0J-1300D01*
G02X250411Y237067I-1300J0D01*
G03X250278Y236840I63J-190D01*
G02X250300Y236600I-1278J-240D01*
G02X249000Y235300I-1300J0D01*
G02X248085Y235677I0J1300D01*
G03X247818Y235690I-141J-142D01*
G02X247000Y235400I-818J1010D01*
G02X245700Y236700I0J1300D01*
G02X246589Y237933I1300J0D01*
G37*
G36*
G01X469323Y230406D02*
G03X469577I127J155D01*
G02X470400Y230700I823J-1006D01*
G02X471171Y230447I0J-1300D01*
G03X471424Y230460I119J161D01*
G02X472300Y230800I876J-960D01*
G02X473600Y229500I0J-1300D01*
G02X473306Y228677I-1300J0D01*
G03Y228423I155J-127D01*
G02X473600Y227600I-1006J-823D01*
G02X472300Y226300I-1300J0D01*
G02X471529Y226553I0J1300D01*
G03X471276Y226540I-119J-161D01*
G02X470400Y226200I-876J960D01*
G02X469577Y226494I0J1300D01*
G03X469323I-127J-155D01*
G02X468500Y226200I-823J1006D01*
G02X467633Y226531I0J1300D01*
G03X467367I-133J-149D01*
G02X466500Y226200I-867J969D01*
G02X465200Y227500I0J1300D01*
G02X465540Y228376I1300J0D01*
G03X465553Y228629I-148J135D01*
G02X465300Y229400I1047J771D01*
G02X466600Y230700I1300J0D01*
G02X467423Y230406I0J-1300D01*
G03X467677I127J155D01*
G02X468500Y230700I823J-1006D01*
G02X469323Y230406I0J-1300D01*
G37*
G54D25*
X495800Y562000D03*
X395500Y561900D03*
X340600Y562500D03*
X327900Y567400D03*
X146800Y567300D03*
X498400Y559400D03*
X401881Y558400D03*
X391200Y555500D03*
X224100Y556200D03*
X218318Y556082D03*
X187000Y555500D03*
X405621Y545279D03*
X391100Y547500D03*
X382700Y547400D03*
X259500Y545300D03*
X250967Y552233D03*
X247030Y552170D03*
X398041Y540741D03*
X297800Y538700D03*
X289200Y543700D03*
X234502Y540902D03*
X224000Y540400D03*
X227298Y540902D03*
X214600Y545100D03*
X159400Y544300D03*
X157481Y538800D03*
X499200Y533634D03*
X438100D03*
X437300Y529100D03*
X441200D03*
X402800Y533100D03*
X406700Y529600D03*
X402700Y536700D03*
X218600Y533900D03*
X219900Y529200D03*
X216000Y531800D03*
X207000Y529200D03*
X157400Y531300D03*
X146400Y532000D03*
X498000Y524600D03*
X430700Y522100D03*
X408000Y525600D03*
X346700Y522500D03*
X339600Y522400D03*
X326299Y526800D03*
X291700Y525800D03*
X287800D03*
X283500Y525900D03*
X286300Y521000D03*
X282000D03*
X278000Y520800D03*
X251489Y523700D03*
X248257D03*
X240364Y528236D03*
X233160Y524100D03*
X414967Y515467D03*
X414600Y518700D03*
X402700Y514357D03*
X395500Y519600D03*
Y515800D03*
X330000Y519600D03*
X331901Y513101D03*
X320400Y517400D03*
X314700Y518900D03*
X313150Y514950D03*
X307200Y518900D03*
X310900Y518800D03*
X303500Y518600D03*
X299800D03*
X295200Y518700D03*
X289900Y518800D03*
X288400Y515000D03*
X282000Y513200D03*
X243760Y517900D03*
X240435Y519865D03*
X226600Y517492D03*
X206900Y519800D03*
X494642Y507058D03*
X439200Y504200D03*
X404400Y509900D03*
X399100Y508400D03*
X395400Y512100D03*
X387100Y504500D03*
X372073Y506773D03*
X344600Y504800D03*
X313250Y511250D03*
X301600Y511261D03*
X288515Y512000D03*
X290550Y507650D03*
X279500Y509800D03*
X249200Y512100D03*
X252150Y508850D03*
X234700Y509800D03*
X510360Y498900D03*
X496100Y501500D03*
X474700Y497100D03*
X468700Y501600D03*
X447900Y504100D03*
X435300Y496700D03*
X430593Y504093D03*
X424043Y496443D03*
X391300Y499700D03*
Y503700D03*
X353500Y501029D03*
X320700Y498700D03*
X312888Y499012D03*
X290500Y503900D03*
X269300Y503600D03*
X255300Y496900D03*
X243760Y502900D03*
X236900Y497436D03*
X227408Y497300D03*
X203932Y503268D03*
X189154Y498246D03*
X163500Y501200D03*
X143500Y499900D03*
X516535Y495500D03*
X502528Y495372D03*
X487500Y495165D03*
X479100Y495372D03*
X341000Y489800D03*
X336500Y489200D03*
X333400Y491100D03*
X298900Y489200D03*
X279000Y489300D03*
X249100Y495000D03*
X243500Y487900D03*
X235019Y491419D03*
X219410Y488410D03*
X209300Y489800D03*
X169021Y489500D03*
X165379Y489600D03*
X160200Y491800D03*
X151800Y488567D03*
X507700Y487100D03*
X503000Y487300D03*
X498200D03*
X446800Y484400D03*
X446900Y487400D03*
X418398Y483098D03*
X349800Y485900D03*
X339900Y485500D03*
X298057Y481143D03*
X279400Y481700D03*
X270683Y485900D03*
X236700Y482200D03*
X182400Y483800D03*
X157840Y485960D03*
X155660Y483800D03*
X153900Y481100D03*
X507700Y476400D03*
X486091Y472391D03*
X342600Y472600D03*
X341800Y476800D03*
X301600Y478200D03*
X286400Y471600D03*
X256700Y475900D03*
X244000Y475600D03*
X227408Y476292D03*
X222800Y472200D03*
X206707Y471593D03*
X209900Y471700D03*
X192343Y473843D03*
X162200Y476600D03*
X496843Y470057D03*
X393500Y468500D03*
X385400D03*
X369599Y467099D03*
X346100Y465900D03*
X331900Y469800D03*
X334000Y465800D03*
X326000Y469900D03*
X322800Y465300D03*
X303200Y470600D03*
X265100Y466600D03*
X246200Y464300D03*
X183857Y466543D03*
X163700Y466214D03*
X160000Y463700D03*
Y468800D03*
X504814Y460514D03*
X482300Y462100D03*
X479700Y459900D03*
X475934D03*
X470064Y457836D03*
X460500Y456900D03*
X453300Y457600D03*
X439400Y455800D03*
X396960Y459740D03*
X391031Y457731D03*
X376100Y462000D03*
X363900Y460900D03*
X357950Y457450D03*
X332100Y459200D03*
X323668Y458568D03*
X295200Y461600D03*
X267200Y462400D03*
X246240Y460640D03*
X234500Y459800D03*
X226399Y460401D03*
X199137Y458363D03*
X141000Y460600D03*
X137500Y460900D03*
X481200Y448800D03*
X460400Y450600D03*
X447700Y447200D03*
X408800Y447400D03*
X400643Y451843D03*
X384200Y451500D03*
X363540Y454040D03*
X275600Y448300D03*
X244140Y450160D03*
X234500Y453600D03*
X225700Y450200D03*
X225600Y453800D03*
X182200Y452500D03*
X186000Y451700D03*
X166561Y449200D03*
X171000Y452400D03*
X156000Y452200D03*
X147500Y452400D03*
X152300Y452500D03*
X140900Y451600D03*
X460153Y441147D03*
X438762Y439000D03*
X406380Y443780D03*
X385300Y443100D03*
X378760Y440260D03*
X357950Y440900D03*
X332200Y439200D03*
X329900Y443800D03*
X309500Y443300D03*
X254903Y445002D03*
X242300Y441500D03*
X454682Y438182D03*
X426000Y431900D03*
X414900Y438100D03*
X402400Y432700D03*
X400475Y438225D03*
X388000Y438100D03*
X381700Y432000D03*
X352657Y435700D03*
X345522Y432054D03*
X348754D03*
X324800Y432871D03*
X323512Y436512D03*
X307541Y435759D03*
X245900Y433300D03*
X237700Y432200D03*
X227400Y432000D03*
X214900Y433300D03*
X220800Y437500D03*
X151738Y436838D03*
X509300Y425000D03*
X501200Y429000D03*
X480100Y426900D03*
X445700Y425400D03*
X343900Y427806D03*
Y424575D03*
X332100Y429300D03*
X246500Y428400D03*
X241900Y430200D03*
X233200Y426600D03*
X213700Y422400D03*
X209700Y424800D03*
X207900Y430200D03*
X159061Y425900D03*
X150561Y424961D03*
X151638Y429838D03*
X143561Y424961D03*
X472700Y418700D03*
X413189Y417964D03*
Y414732D03*
X381300Y416700D03*
X371600Y420800D03*
X354481Y419981D03*
X354400Y416200D03*
X291400Y414300D03*
X285600Y416200D03*
X246272Y415900D03*
X221100Y419700D03*
X207400Y415900D03*
X208000Y419200D03*
X161500Y417100D03*
X146875Y415578D03*
Y419128D03*
X490100Y407000D03*
X478000Y411100D03*
X480200Y408600D03*
X421795Y413395D03*
X377700Y409458D03*
X361800Y412200D03*
X354300Y408767D03*
X354500Y412300D03*
X296700Y410700D03*
Y407100D03*
X282100Y410800D03*
X241300Y411100D03*
X230300Y412900D03*
X157300Y406500D03*
X144200Y413222D03*
Y409673D03*
X421600Y402800D03*
X408500Y397800D03*
X403200Y397900D03*
X395200Y404400D03*
X397900Y398100D03*
X391968Y404400D03*
X388100Y398200D03*
X364481Y398681D03*
X354500Y403400D03*
X347200Y401343D03*
X338100Y399100D03*
X296700Y403800D03*
X261700Y400100D03*
X156200Y398300D03*
X156386Y401400D03*
X144300Y401900D03*
X483919Y390900D03*
X464500Y397418D03*
X421106Y392194D03*
X402100Y391100D03*
X382500Y397000D03*
X365400Y393100D03*
X354500Y389700D03*
X304500Y396600D03*
X305000Y392100D03*
X261000Y391000D03*
X242600Y394010D03*
X173517Y391800D03*
X162800Y392100D03*
Y395650D03*
X144950Y392750D03*
X478000Y388974D03*
X480119Y381881D03*
X472600Y381700D03*
X449768Y387100D03*
X446068D03*
X442268Y387132D03*
X438468Y387032D03*
X434768Y387168D03*
X386510Y383490D03*
X359500Y383000D03*
X328400Y385300D03*
X290000Y385200D03*
X293900Y383440D03*
X273700Y381800D03*
X254475D03*
X242600D03*
X229200Y384000D03*
X225400Y383900D03*
X223400Y381600D03*
X510000Y374600D03*
X506600Y375500D03*
X450400Y375400D03*
X429100Y375500D03*
X379978Y381100D03*
X371800Y380400D03*
X336300Y378400D03*
X324300Y374200D03*
X304400Y375700D03*
X311000Y376700D03*
X273743Y374457D03*
X269985D03*
X264043D03*
X254518D03*
X259243D03*
X248584D03*
X238843Y374543D03*
X242643Y374457D03*
X235019Y374481D03*
X231119Y374419D03*
X227343Y374557D03*
X223343Y374457D03*
X215300Y378200D03*
X217800Y373900D03*
X173517Y379183D03*
X508400Y366800D03*
X471500Y369500D03*
X405450Y366750D03*
X394657Y367657D03*
X395700Y372240D03*
X375500Y370000D03*
X336700Y368200D03*
X322900Y368800D03*
X211200Y367200D03*
X202300Y367600D03*
X510300Y362500D03*
X484100Y363800D03*
X453400D03*
X434757Y362443D03*
X411497Y364797D03*
X405450Y359150D03*
X401300Y359300D03*
X394857Y357043D03*
X372700Y364600D03*
X375900Y358000D03*
X368400Y358600D03*
X333300Y363000D03*
X333400Y357800D03*
X322800Y359300D03*
X313600Y360457D03*
Y364257D03*
X305300Y360200D03*
X234600Y361891D03*
Y358659D03*
X218200Y364500D03*
X211500Y363900D03*
X211700Y357100D03*
X144100Y356800D03*
X138800Y357400D03*
X482800Y351000D03*
X479400Y351100D03*
X444600Y356537D03*
X440700Y352000D03*
X431100Y352600D03*
X387500Y355200D03*
X389500Y351600D03*
X378428Y352072D03*
X358075Y354000D03*
X354900D03*
X321800Y355500D03*
X327300Y355400D03*
X240300Y353100D03*
X191119Y352319D03*
X146600Y351200D03*
X500100Y345700D03*
X488300Y341700D03*
X472232Y341568D03*
X464300Y341600D03*
X434600Y341000D03*
X411715Y346615D03*
X395044Y344000D03*
X352600Y345600D03*
X329200Y347900D03*
X309800Y342600D03*
X301000Y345400D03*
X233000Y346700D03*
X236800D03*
X227100D03*
X222731Y346631D03*
X216100Y346200D03*
X493100Y336900D03*
X491800Y332100D03*
X487800Y335700D03*
X490300Y338000D03*
X478200Y335700D03*
X464100Y337600D03*
X463900Y333968D03*
X432800D03*
X409176Y332400D03*
X396950Y338550D03*
X286900Y332200D03*
X218100Y339753D03*
X202900Y334466D03*
X198066D03*
X198100Y338266D03*
X186727Y336226D03*
X158900Y335200D03*
Y338400D03*
X508000Y331400D03*
X463900Y330200D03*
X462200Y325300D03*
X452368Y330300D03*
X444968Y330332D03*
X448600Y330300D03*
X435200Y324468D03*
X441132Y330268D03*
X434700Y328000D03*
X395124Y328576D03*
X387260Y329940D03*
X362898Y325200D03*
X352500Y325600D03*
X338800Y327800D03*
X245800Y330481D03*
X246800Y326800D03*
X230000Y331800D03*
X202900Y329500D03*
X192594Y328800D03*
X152779Y326521D03*
X381478Y316994D03*
X373478D03*
X359800Y316000D03*
X329100Y321700D03*
X326600Y317500D03*
X317200Y319400D03*
X318700Y322500D03*
X303632Y318600D03*
X307900D03*
X295882Y318382D03*
X299818D03*
X246800Y323100D03*
X235931Y316300D03*
X224269Y316369D03*
X228131Y316531D03*
X507500Y310300D03*
X507300Y314057D03*
X446500Y312244D03*
X426850Y308432D03*
X417200Y315300D03*
X413930Y312850D03*
X389378Y313694D03*
X381478Y310994D03*
X373478D03*
X367478Y308494D03*
X358473Y310489D03*
X328873Y309967D03*
X321767Y314194D03*
X316742Y313900D03*
X312900Y315400D03*
X312600Y312400D03*
X307250Y313150D03*
X309700Y311300D03*
X297400Y307900D03*
X301300Y314500D03*
X294300Y314400D03*
X294400Y308500D03*
X285300Y308200D03*
X272700Y310500D03*
X257500Y307900D03*
X241894Y314406D03*
X244000Y308400D03*
X220500Y308700D03*
X157600Y315000D03*
X507300Y302200D03*
Y306200D03*
X489800Y307000D03*
X446675Y303375D03*
X436403Y305204D03*
X431440Y305193D03*
X423760D03*
X408402Y305191D03*
X400718Y305193D03*
X395601Y302043D03*
X395600Y305193D03*
X390481Y302043D03*
X369978Y305894D03*
X372178Y300628D03*
X368278Y301694D03*
X354398Y304004D03*
X346979Y304206D03*
X312888Y300225D03*
X497900Y294900D03*
X492400Y294000D03*
X498400Y298250D03*
X444229Y292592D03*
X450375Y298775D03*
X441670Y295742D03*
X428875Y292592D03*
X431200Y295900D03*
X421200Y295744D03*
X413522D03*
X405835D03*
X408407Y298892D03*
X346402Y291390D03*
X339670Y298128D03*
X342783Y294900D03*
X334300Y294369D03*
X330654Y294647D03*
X319383Y296232D03*
X323106Y296268D03*
X296150Y293300D03*
X285700D03*
X271600Y293700D03*
X247900Y296300D03*
X225800Y291968D03*
Y295200D03*
X219581Y298000D03*
X186652Y292048D03*
X182900Y296200D03*
X138857Y298543D03*
X506400Y291000D03*
X446443Y286743D03*
X450151Y289351D03*
X436556Y283144D03*
X436552Y289442D03*
X441670D03*
X441674Y283144D03*
X431438D03*
X426320D03*
X428877Y289444D03*
X423759D03*
X403278D03*
X400724Y283144D03*
X390483D03*
X390482Y289444D03*
X368978Y285239D03*
X371678Y283194D03*
X366978Y282994D03*
X348689Y286483D03*
X320914Y286352D03*
X325083Y286589D03*
X282400Y287400D03*
X278900Y288500D03*
X268200Y288400D03*
X264700Y288500D03*
X246700Y289100D03*
X230000Y290900D03*
X228718Y285218D03*
X225800Y286100D03*
X162100Y290200D03*
X152600Y283000D03*
X146426Y290026D03*
X146900Y284100D03*
X139000Y287200D03*
X506900Y277700D03*
X506850Y281450D03*
X499300Y281300D03*
X446475Y279075D03*
X444237Y276844D03*
X428868Y276846D03*
X421200Y276844D03*
X398162D03*
X398165Y279994D03*
X363278Y278894D03*
X354478Y276494D03*
X343048Y278383D03*
X340856Y280650D03*
X330720Y278728D03*
X322872Y276400D03*
X319135Y276651D03*
X296200Y281311D03*
X281700Y276600D03*
X279700Y279600D03*
X272300D03*
X268300Y279900D03*
X264800Y279600D03*
X253900Y279300D03*
X246200Y279200D03*
X243300Y281700D03*
X226700Y278200D03*
X182900Y281500D03*
X157600Y277900D03*
X144421Y281679D03*
X497600Y267600D03*
X491600Y267500D03*
X452143Y274300D03*
X456399Y267500D03*
X446316Y269516D03*
X441678Y273694D03*
X428880Y267395D03*
X431427Y273696D03*
X418640Y267395D03*
X423763D03*
X413517Y273694D03*
X413518Y267395D03*
X408394Y273695D03*
X408398Y270545D03*
X408378Y266794D03*
X400718Y267395D03*
X395600Y270545D03*
X395599Y267395D03*
X390481Y270545D03*
X390480Y273694D03*
X381600Y273700D03*
X369939Y269654D03*
X371678Y266594D03*
X376400Y273800D03*
X364278Y269654D03*
X366778Y271694D03*
X354398Y268974D03*
X350979Y268587D03*
X346967Y268689D03*
X332118Y274594D03*
X319710Y268778D03*
X296672Y270400D03*
X280000Y273700D03*
X269700Y273800D03*
X145800Y270800D03*
X138600Y268600D03*
X508300Y258700D03*
X502600Y266400D03*
X505000Y260900D03*
X482900Y264933D03*
X461300Y266100D03*
X435178Y265460D03*
X433294Y258907D03*
X409400Y259200D03*
X381400Y262579D03*
X355999Y263014D03*
X351179Y262695D03*
X304200Y258900D03*
X297200Y265700D03*
X291664Y262764D03*
X247750Y258450D03*
X146300Y264600D03*
X494500Y251100D03*
X491250Y254550D03*
X468532Y252400D03*
X396100Y250200D03*
X384626Y254100D03*
X381194Y257494D03*
X363700Y250100D03*
X352972Y253700D03*
X356072Y252900D03*
X358500Y250600D03*
X357200Y256400D03*
X350872Y257300D03*
X333700Y252100D03*
X304221Y255679D03*
X309600Y256400D03*
X298700Y251700D03*
X281600Y254500D03*
X276600Y250300D03*
X273200D03*
X250700Y257500D03*
X252200Y252200D03*
X217900Y252000D03*
X146300Y255700D03*
X138781Y250419D03*
X510300Y243700D03*
X508800Y247100D03*
X491957Y249257D03*
X463100Y246000D03*
X427147Y245500D03*
X423497D03*
X411020D03*
X396200Y245700D03*
X399900Y242500D03*
X380336Y246600D03*
X374900Y247800D03*
X374700Y244700D03*
X351700Y243600D03*
X340900Y242000D03*
X327500Y250000D03*
X333200Y246900D03*
X327800Y245000D03*
X320000Y247700D03*
X318400Y244300D03*
X305571Y243529D03*
X305800Y249234D03*
X298887Y243687D03*
X294400Y243700D03*
X287200Y243300D03*
X284100Y243400D03*
X280300D03*
X272500D03*
X276000D03*
X262281Y244881D03*
X269781D03*
X147100Y244000D03*
X508900Y237700D03*
X514100Y239700D03*
X492797Y234097D03*
X484800Y238200D03*
Y234900D03*
X488200Y234800D03*
X479800Y238300D03*
X386100Y237600D03*
X382700Y238300D03*
X375100Y241100D03*
X368900Y236200D03*
X352900Y234100D03*
X353700Y241300D03*
X351900Y238800D03*
X345125Y241747D03*
X333000Y236700D03*
X305600Y238100D03*
X309200Y238300D03*
X299100Y238200D03*
X270250Y235350D03*
X275000Y237600D03*
X230500Y236800D03*
X223500Y236700D03*
X216300Y236800D03*
X206500Y236600D03*
X196300Y236800D03*
X186100Y236600D03*
X176300Y236800D03*
X146300Y237200D03*
X137800Y238600D03*
X503800Y233400D03*
X416500Y227800D03*
X362200Y226600D03*
X358500Y226200D03*
X355100D03*
X351900Y226400D03*
X344900Y231600D03*
X348800Y229100D03*
X336900Y225700D03*
X341100Y231600D03*
X333200Y229300D03*
X330800Y227300D03*
X285150Y230497D03*
X230200Y230500D03*
X223200Y230400D03*
X216000Y230500D03*
X206200Y230400D03*
X196000Y230500D03*
X185800Y230400D03*
X176000Y230500D03*
X333300Y225100D03*
X357900Y431000D03*
X354500D03*
G54D33*
X194117Y261632D03*
G54D31*
X164635Y278311D03*
G54D29*
X470189Y555128D03*
G54D28*
X501685D03*
G54D30*
X154056Y288889D03*
G54D32*
X213802Y261632D03*
G54D26*
X500508Y447604D03*
Y414139D03*
G54D27*
X186930Y399078D03*
%LPD*%
G75*
G54D10*
X137900Y222700D03*
X134600Y232900D03*
X138500Y236200D03*
X133200Y238500D03*
X134800Y236300D03*
X137800Y238600D03*
X138700Y244900D03*
X133300Y242000D03*
X138781Y250419D03*
X138400Y254200D03*
X138500Y264300D03*
X138600Y268600D03*
X138400Y271700D03*
Y279400D03*
Y275500D03*
X138857Y298543D03*
X138500Y291100D03*
X138300Y333800D03*
X138000Y347900D03*
X138800Y357400D03*
Y375300D03*
X138100Y377300D03*
X133300Y401000D03*
X133400Y403767D03*
X134200Y409800D03*
X133400Y407317D03*
X133600Y415400D03*
X133700Y424300D03*
X136600Y450100D03*
X134840Y452240D03*
X137500Y460900D03*
X138800Y469200D03*
X138100Y475900D03*
Y508900D03*
X138200Y513600D03*
X134600Y519900D03*
X138200Y526600D03*
X138300Y532800D03*
X138100Y546900D03*
X134600Y555700D03*
X138300Y563000D03*
X138400Y568900D03*
X146700Y222600D03*
X143500D03*
X140200D03*
X140400Y231800D03*
X140200Y226500D03*
X140100Y234300D03*
X146300Y237200D03*
Y255700D03*
Y264600D03*
X145800Y270800D03*
X144421Y281679D03*
X139000Y287200D03*
X146900Y284100D03*
X146426Y290026D03*
X138900Y302366D03*
X146600Y328800D03*
X144700D03*
X144800Y334100D03*
X145200Y341200D03*
X146600Y351200D03*
X144100Y356800D03*
X144400Y379300D03*
Y381200D03*
X144950Y392750D03*
X144300Y401900D03*
X145600Y407600D03*
X144200Y409673D03*
Y413222D03*
X147000Y421700D03*
X146875Y419128D03*
Y415578D03*
X143561Y424961D03*
X140900Y451600D03*
X141000Y460600D03*
X145700Y468800D03*
X144700Y474700D03*
X144100Y480000D03*
X143500Y499900D03*
X146400Y532000D03*
X146210Y535810D03*
X139600Y541300D03*
X146800Y567300D03*
X147100Y244000D03*
X152600Y283000D03*
X152400Y314700D03*
X152500Y318800D03*
X152779Y326521D03*
X152200Y336800D03*
X152300Y348300D03*
X152000Y369500D03*
X151900Y365400D03*
X148600Y413900D03*
X154500Y422000D03*
X151638Y429838D03*
X150561Y424961D03*
X151738Y436838D03*
X152300Y452500D03*
X147500Y452400D03*
X152800Y476400D03*
X151700Y478700D03*
X153900Y481100D03*
X152100Y491600D03*
X154500Y493300D03*
X151800Y488567D03*
X153668Y516400D03*
X153768Y553400D03*
X159200Y268000D03*
X160000Y275100D03*
X157600Y277900D03*
X162100Y290200D03*
X159100Y305300D03*
X157600Y315000D03*
X158900Y338400D03*
Y335200D03*
X159900Y347900D03*
X159700Y342900D03*
X162000Y380936D03*
X162900Y389700D03*
X156300Y395900D03*
X162800Y395650D03*
Y392100D03*
X163100Y398200D03*
X158900Y402600D03*
X156386Y401400D03*
X156200Y398300D03*
X162000Y408500D03*
X157300Y406500D03*
X159700Y415000D03*
X161500Y417100D03*
X159061Y425900D03*
X161400Y449800D03*
X159600Y452200D03*
X156000D03*
X160000Y468800D03*
Y463700D03*
X162200Y476600D03*
X155660Y483800D03*
X157840Y485960D03*
X160200Y491800D03*
X156900D03*
X155600Y497400D03*
X157300Y509100D03*
X157402Y524900D03*
X157400Y531300D03*
X157481Y538800D03*
X159400Y544300D03*
X159600Y562600D03*
X161700Y568700D03*
X156000Y570000D03*
X165500Y230500D03*
X165900Y236900D03*
X163800Y271800D03*
X170200Y317500D03*
X166200Y326600D03*
X168400D03*
X168500Y331300D03*
X166200Y331200D03*
X170700Y344700D03*
X170500Y376300D03*
X169100Y384700D03*
X163600Y382905D03*
X165900Y405500D03*
X163800Y403400D03*
X171000Y452400D03*
X166561Y449200D03*
X163700Y466214D03*
X167900Y477700D03*
X165379Y489600D03*
X169021Y489500D03*
X163500Y501200D03*
X166300Y512500D03*
X163700Y516900D03*
X168400Y528100D03*
X169200Y542800D03*
X164700Y547700D03*
X166100Y553100D03*
X171500Y566800D03*
X176000Y230500D03*
X176300Y236800D03*
X172700Y284500D03*
X173900Y317500D03*
X179500Y322900D03*
X178400Y336800D03*
X178100Y348900D03*
X178500Y362300D03*
X172300Y365100D03*
Y370500D03*
X173517Y379183D03*
Y391800D03*
X174700Y452400D03*
Y449500D03*
X174953Y463100D03*
X173500Y460600D03*
X176200Y469400D03*
X172100Y469500D03*
Y473600D03*
X176200Y473500D03*
Y477700D03*
X172100Y477800D03*
X175800Y489000D03*
X172400D03*
X178400Y497363D03*
X174300Y523200D03*
X178100Y528900D03*
X178900Y539600D03*
X174200Y552200D03*
X178600Y559600D03*
X185800Y230400D03*
X186100Y236600D03*
X186900Y264400D03*
X182900Y281500D03*
X186000Y282700D03*
X186900Y284500D03*
X184200Y289400D03*
X181450Y288350D03*
X182900Y296200D03*
X186652Y292048D03*
X186727Y336226D03*
X187900Y444200D03*
X181600Y439300D03*
X186000Y451700D03*
X182200Y452500D03*
X183901Y462901D03*
X183857Y466543D03*
X185500Y479500D03*
X182400Y483800D03*
X185400Y487600D03*
X183900Y489600D03*
X182000Y550900D03*
X187000Y555500D03*
X184100Y566800D03*
X196000Y230500D03*
X194900Y267700D03*
X192600Y294000D03*
X195100Y291600D03*
X192000Y315500D03*
X189700Y323600D03*
X192594Y328800D03*
X196236Y328600D03*
X193900Y324400D03*
X188479Y348579D03*
X191119Y352319D03*
X191600Y450500D03*
X192343Y473843D03*
X188701Y478101D03*
X189154Y498246D03*
X192796Y498304D03*
X189400Y527300D03*
X193400Y521100D03*
X194100Y532400D03*
X193100Y539500D03*
X196000Y551700D03*
X190100Y546500D03*
X189800Y559300D03*
X196000Y565900D03*
X196300Y236800D03*
X203700Y260100D03*
X198400Y291600D03*
X197700Y317000D03*
X202900Y329500D03*
X198100Y338266D03*
X198066Y334466D03*
X202900D03*
X202300Y367600D03*
X199137Y458363D03*
X196500Y460500D03*
X203932Y503268D03*
X199000Y527100D03*
X199700Y535800D03*
X201300Y538300D03*
X203400Y559400D03*
X206200Y230400D03*
X206500Y236600D03*
X206700Y266700D03*
X207500Y291700D03*
Y293600D03*
X207400Y299600D03*
X207200Y310300D03*
X205200D03*
X205300Y316800D03*
X211700Y357100D03*
X211500Y363900D03*
X211200Y367200D03*
X211500Y402400D03*
X208000Y419200D03*
X207400Y415900D03*
X207900Y430200D03*
X209700Y424800D03*
X209050Y435250D03*
X209900Y471700D03*
X206707Y471593D03*
X206228Y483772D03*
X209300Y489800D03*
X205800Y497378D03*
X206900Y519800D03*
X207000Y529200D03*
X205000Y550000D03*
X216000Y230500D03*
X216300Y236800D03*
X217900Y252000D03*
X216500Y267600D03*
X219200Y285600D03*
X219300Y290400D03*
X219581Y298000D03*
X220500Y308700D03*
X216800Y316500D03*
X217000Y324000D03*
X218100Y339753D03*
X216100Y346200D03*
X218200Y364500D03*
X220800Y365400D03*
X217800Y373900D03*
X215300Y378200D03*
X213400Y404200D03*
X213700Y422400D03*
X220800Y437500D03*
X214900Y433300D03*
X220559Y474200D03*
X216241Y491977D03*
X219410Y488410D03*
X216000Y531800D03*
X219900Y529200D03*
X218600Y533900D03*
X214600Y545100D03*
X213300Y549100D03*
X214300Y557100D03*
X218318Y556082D03*
X218300Y564900D03*
X223200Y230400D03*
X223500Y236700D03*
X226700Y278200D03*
X225800Y286100D03*
X228718Y285218D03*
X226700Y298600D03*
X225800Y295200D03*
Y291968D03*
X226900Y304300D03*
X228331Y321969D03*
X224300Y319000D03*
X228131Y316531D03*
X224269Y316369D03*
X225800Y332800D03*
X222731Y346631D03*
X227100Y346700D03*
X223200Y354500D03*
X227343Y367043D03*
X223343D03*
Y374457D03*
X227343Y374557D03*
X223400Y381600D03*
X225400Y383900D03*
X221100Y419700D03*
X227400Y432000D03*
X225600Y453800D03*
X225700Y450200D03*
X221600Y460400D03*
X226399Y460401D03*
X223840Y457840D03*
X222000Y455500D03*
X222800Y472200D03*
X227408Y476292D03*
X227400Y501551D03*
X227408Y497300D03*
X226600Y517492D03*
X228600Y545000D03*
X227298Y540902D03*
X224000Y540400D03*
X226700Y547800D03*
Y551900D03*
X224100Y556200D03*
Y564900D03*
X230200Y230500D03*
X236500Y237600D03*
X230500Y236800D03*
X236700Y244400D03*
X232299Y281001D03*
X230000Y290900D03*
X229500Y294400D03*
X231969Y308731D03*
X232400Y316300D03*
X232500Y318200D03*
X235931Y316300D03*
X230000Y331800D03*
X236205Y341505D03*
X236800Y346700D03*
X233000D03*
X232700Y356100D03*
X231200Y362900D03*
X234600Y358659D03*
Y361891D03*
X235019Y367043D03*
X231119Y374419D03*
X235019Y374481D03*
X229200Y384000D03*
X230300Y412900D03*
X233200Y426600D03*
X234100Y434000D03*
X234500Y453600D03*
Y459800D03*
X234800Y487700D03*
X236700Y482200D03*
X235019Y491419D03*
X236900Y497436D03*
X234700Y509800D03*
X232700Y516400D03*
X233160Y524100D03*
X235500Y544900D03*
X233600Y544500D03*
X231300Y544300D03*
X234502Y540902D03*
X232900Y574900D03*
X237400Y230500D03*
X242400Y237900D03*
X243600Y244000D03*
X239600Y244400D03*
X242200Y257700D03*
X239100Y257500D03*
X240500Y259500D03*
X243300Y278800D03*
Y281700D03*
X244200Y298079D03*
X242300Y302700D03*
X242500Y300100D03*
X243600Y312600D03*
X244000Y308400D03*
X241894Y314406D03*
X244500Y321600D03*
X242400Y344900D03*
Y347300D03*
X240300Y353100D03*
X238843Y367043D03*
X242643D03*
Y374457D03*
X238843Y374543D03*
X242600Y381800D03*
Y394010D03*
X241300Y411100D03*
X241900Y430200D03*
X242300Y434900D03*
X237700Y432200D03*
X242400Y437800D03*
X242300Y441500D03*
X244140Y450160D03*
X238900Y476600D03*
X244000Y475600D03*
X238719Y491981D03*
X243500Y487900D03*
X241800Y497300D03*
X243760Y502900D03*
X241300Y508400D03*
X240435Y519865D03*
X243760Y517900D03*
X240364Y528236D03*
X244077Y523985D03*
X245100Y537328D03*
X240500Y543800D03*
X240400Y541900D03*
X238500D03*
X237385Y545600D03*
X240500Y545700D03*
X240200Y575200D03*
X248800Y230400D03*
X248000Y238400D03*
X250000Y238300D03*
X249000Y236600D03*
X247000Y236700D03*
X252200Y252200D03*
X250700Y257500D03*
X247750Y258450D03*
X246200Y279200D03*
X246700Y289100D03*
X247900Y293700D03*
Y296300D03*
X246800Y323100D03*
Y326800D03*
X245800Y330481D03*
X248543Y367043D03*
X248584Y374457D03*
X251800Y419700D03*
X250300Y417700D03*
X246272Y415900D03*
X246500Y428400D03*
X245900Y433300D03*
X251791Y435700D03*
X246240Y460640D03*
X246200Y464300D03*
X246834Y475534D03*
X247100Y486500D03*
X249183Y490017D03*
X249100Y495000D03*
X249300Y501800D03*
X252150Y508850D03*
X249200Y512100D03*
X249300Y504600D03*
X251300Y517000D03*
X251500Y521200D03*
X248600D03*
X248257Y523700D03*
X251489D03*
X247030Y552170D03*
X250967Y552233D03*
X250200Y569200D03*
X249900Y564500D03*
X247600Y575300D03*
X256500Y230400D03*
X260900Y235200D03*
X253900Y279300D03*
X256300Y314800D03*
X257500Y307900D03*
X256300Y319900D03*
X254543Y367043D03*
X259243D03*
Y374457D03*
X254518D03*
X254475Y381800D03*
X261000Y391000D03*
X261700Y400100D03*
X254903Y445002D03*
X260800Y475500D03*
X256700Y475900D03*
X260800Y494700D03*
X255600Y489600D03*
X261000Y492000D03*
X255300Y496900D03*
X258700Y504000D03*
X257400Y501800D03*
X260300Y505800D03*
X257900Y512700D03*
X253700D03*
X258100Y518200D03*
X261800Y518100D03*
Y520100D03*
X258300Y521800D03*
X255200Y523800D03*
X258700Y525700D03*
X254800Y537200D03*
X259600D03*
X259500Y539800D03*
X259600Y542300D03*
X259500Y545300D03*
X255900Y575300D03*
X269900Y230500D03*
X262200Y237700D03*
X269781Y244881D03*
X262281D03*
X263200Y251200D03*
X269700Y273800D03*
X264800Y279600D03*
X268300Y279900D03*
X264700Y288500D03*
X268200Y288400D03*
X269800Y327800D03*
X264043Y367043D03*
X269943D03*
X264043Y374457D03*
X269985D03*
X268440Y408440D03*
X267200Y462400D03*
X267500Y470600D03*
X265600Y470500D03*
X263600D03*
X265100Y466600D03*
X267500Y472500D03*
X265600Y472400D03*
X263600D03*
X265500Y474300D03*
X263500D03*
X266300Y494700D03*
X268900Y491900D03*
X263500D03*
X266300Y492200D03*
X263600Y494700D03*
X268600Y494600D03*
X263500Y496900D03*
X268700D03*
X266300D03*
X269300Y503600D03*
X263700Y518100D03*
X265600D03*
X263700Y520100D03*
X265600D03*
X266000Y543200D03*
X265900Y540100D03*
X268800Y543200D03*
X265900Y537200D03*
X263600Y545500D03*
X265700Y575400D03*
X275000Y237600D03*
X270250Y235350D03*
X276000Y243400D03*
X272500D03*
X273200Y250300D03*
X276600D03*
X270200Y265100D03*
Y269400D03*
X271800Y267000D03*
X272300Y279600D03*
X272200Y286100D03*
X271900Y288500D03*
X275800Y297900D03*
X271600Y293700D03*
X273300Y314800D03*
X272700Y310500D03*
X273200Y328000D03*
X273743Y374457D03*
X273700Y381800D03*
X275900Y402400D03*
X275650Y405050D03*
X277400Y408500D03*
X273500Y406200D03*
X271840Y408500D03*
X270100Y406300D03*
X275600Y448300D03*
X278000Y471500D03*
Y473400D03*
Y475300D03*
X270683Y485900D03*
X270700Y494700D03*
Y496900D03*
X273600Y502900D03*
X276550Y502450D03*
X274110Y505245D03*
X277900Y525700D03*
Y523800D03*
X278000Y520800D03*
X271500Y543200D03*
X275400Y542100D03*
X272700Y537900D03*
X276000Y537800D03*
X273400Y552000D03*
X276200D03*
X273500Y548900D03*
X276300D03*
X273500Y545800D03*
X276300D03*
X276100Y555000D03*
X273300D03*
X275100Y575300D03*
X285150Y230497D03*
X282460Y231160D03*
X282300Y237700D03*
X280300Y243400D03*
X284100D03*
X281600Y254500D03*
X284400Y264700D03*
X281700Y264600D03*
X280000Y273700D03*
X280100Y266619D03*
X279700Y279600D03*
X283200Y281500D03*
X281700Y276600D03*
X285300Y280300D03*
X278900Y288500D03*
X282400Y287400D03*
X280800Y293900D03*
X285700Y293300D03*
X285300Y308200D03*
X282100Y403400D03*
Y406300D03*
Y410800D03*
X279200Y406300D03*
X285600Y416200D03*
X281600Y436900D03*
X286400Y471600D03*
X279400Y481700D03*
X279000Y489300D03*
X286300Y498700D03*
X285200Y496100D03*
X278615Y505900D03*
X279500Y509800D03*
X278600Y512500D03*
X282000Y515700D03*
Y513200D03*
Y521000D03*
X286300D03*
X283500Y525900D03*
X278700Y542000D03*
X285000D03*
X281900D03*
X279200Y537800D03*
X282100Y552000D03*
X284900D03*
X278900D03*
X282200Y548900D03*
X285000D03*
X279000D03*
X282000Y545800D03*
X285200D03*
X278800D03*
Y555000D03*
X284800D03*
X282000D03*
X279300Y560400D03*
X284200Y575600D03*
X287200Y243300D03*
X294400Y243700D03*
X287300Y264800D03*
X291664Y262764D03*
X291200Y270300D03*
X287200Y282300D03*
X291000Y281300D03*
X290200Y296200D03*
X294400Y308500D03*
X294300Y314400D03*
X289800Y308500D03*
X286900Y332200D03*
X293900Y383440D03*
X290000Y385200D03*
X291400Y414300D03*
X286500Y475900D03*
Y474000D03*
X286600Y481300D03*
X286500Y493200D03*
Y491300D03*
X290500Y503900D03*
X290550Y507650D03*
X288515Y512000D03*
X288400Y515000D03*
X289900Y518800D03*
X287800Y525800D03*
X291700D03*
X289200Y543700D03*
X287600Y552000D03*
X287800Y549200D03*
X288400Y546000D03*
X287500Y555000D03*
X287800Y560600D03*
X292300D03*
X293600Y575800D03*
X299100Y238200D03*
X302308D03*
X298887Y243687D03*
X302308Y244700D03*
X298700Y251700D03*
X301800Y252000D03*
X297200Y265700D03*
X296672Y270400D03*
X301800Y270600D03*
X296200Y281311D03*
X296150Y293300D03*
X301800Y293100D03*
X300572Y307400D03*
X301300Y314500D03*
X297400Y307900D03*
X299818Y318382D03*
X295882D03*
X297850Y322850D03*
Y316950D03*
X301000Y345400D03*
X296700Y403800D03*
Y407100D03*
Y410700D03*
X294891Y453400D03*
X295200Y461600D03*
X295400Y470700D03*
X301600Y478200D03*
X295400Y474500D03*
Y472600D03*
X298057Y481143D03*
X298900Y489200D03*
X301600Y511261D03*
Y515000D03*
X296500D03*
X295200Y518700D03*
X299800Y518600D03*
X301000Y544900D03*
X301700Y537800D03*
X297800Y538700D03*
X300800Y550200D03*
X296300Y560500D03*
X300800D03*
X300900Y555400D03*
Y565700D03*
X302800Y575800D03*
X309200Y238300D03*
X305600Y238100D03*
X305800Y249234D03*
X305571Y243529D03*
X308447Y247147D03*
X309600Y256400D03*
X304221Y255679D03*
X310150Y250700D03*
X304200Y258900D03*
X307988Y288425D03*
X310398D03*
X303350Y288778D03*
X305578Y288494D03*
X303378Y307394D03*
X309700Y311300D03*
X307250Y313150D03*
X308078Y307494D03*
X310427Y307543D03*
X307900Y318600D03*
X303632D03*
X305800Y316900D03*
X305600Y323600D03*
X309800Y342600D03*
X303900Y340500D03*
X303200Y348300D03*
X309400Y356500D03*
X305300Y360200D03*
X307800Y376200D03*
X311000Y376700D03*
X304400Y375700D03*
X305000Y385300D03*
X308700Y383100D03*
X305000Y392100D03*
X304500Y396600D03*
X305700Y402300D03*
X306500Y422700D03*
X307541Y435759D03*
X309500Y443300D03*
X307300Y459700D03*
X303200Y470600D03*
X303500Y518600D03*
X310900Y518800D03*
X307200Y518900D03*
X307600Y539200D03*
X307300Y544800D03*
X306900Y551500D03*
X306100Y556600D03*
X305900Y568000D03*
Y563400D03*
X311000Y575800D03*
X314792Y238008D03*
X318400Y244300D03*
X314248Y242400D03*
X312750Y250650D03*
X316078Y254594D03*
X315500Y251300D03*
X316078Y257194D03*
X315891Y261721D03*
X312872Y261700D03*
Y266100D03*
X315996Y259523D03*
X318892Y272453D03*
X318985Y280495D03*
X319135Y276651D03*
X318912Y282694D03*
X318908Y290546D03*
X312888Y288425D03*
X318883Y292789D03*
X319003Y300453D03*
X312888Y300225D03*
X312600Y312400D03*
X312763Y309791D03*
X312900Y315400D03*
X316742Y313900D03*
X318700Y322500D03*
X317200Y319400D03*
X317500Y327600D03*
X317300Y356500D03*
X315300Y357900D03*
X313600Y364257D03*
Y360457D03*
X316443Y366300D03*
X316700Y368400D03*
X314500Y402400D03*
X313500Y422700D03*
X316200Y435800D03*
X319100Y451800D03*
X312600Y502654D03*
X312888Y499012D03*
X313250Y511250D03*
X313150Y514950D03*
X317700Y520200D03*
X314700Y518900D03*
X312700Y544400D03*
X317300Y548600D03*
X312400Y550000D03*
X313100Y558700D03*
X317000Y554200D03*
X311200Y567900D03*
X316800Y568000D03*
Y563400D03*
X311200Y563300D03*
X318200Y575700D03*
X322800Y239600D03*
X322750Y236850D03*
X320000Y247700D03*
X323100Y243500D03*
X327452Y258626D03*
X326078Y260595D03*
X325978Y262895D03*
X320262Y260495D03*
X320178Y262694D03*
X326787Y268772D03*
X326883Y272289D03*
X319710Y268778D03*
X323284Y270754D03*
X321150Y272689D03*
X323331Y272978D03*
X322937Y268581D03*
X326839Y274576D03*
X327284Y282492D03*
X323606Y280417D03*
X322872Y276400D03*
X321184Y280315D03*
X325872Y280800D03*
X325283Y276339D03*
X323507Y282721D03*
X321183Y282539D03*
X325283Y290439D03*
X325083Y286589D03*
X321737Y290271D03*
X320914Y286352D03*
X323215Y291901D03*
X325283Y292655D03*
X323106Y296268D03*
X321132Y292610D03*
X319383Y296232D03*
X323357Y302237D03*
X323483Y299989D03*
X319420Y304206D03*
X321235Y300515D03*
X327100Y300500D03*
X323090Y309994D03*
X321767Y314194D03*
X326600Y317500D03*
X325250Y329150D03*
X320500Y338400D03*
X323019Y341100D03*
X327300Y355400D03*
X321800Y355500D03*
X322800Y359300D03*
X322900Y365000D03*
Y368800D03*
X324300Y374200D03*
X323512Y436512D03*
X324800Y432871D03*
X323668Y458568D03*
X322800Y465300D03*
X326000Y469900D03*
X320700Y498700D03*
X320400Y517400D03*
X322600Y526900D03*
X326299Y526800D03*
X322900Y558700D03*
X322800Y554400D03*
X322900Y563200D03*
Y567800D03*
X327300Y575800D03*
X327700Y225100D03*
X333300D03*
X330800Y227300D03*
X333200Y229300D03*
X333000Y236700D03*
X327800Y245000D03*
X333200Y246900D03*
X333000Y243400D03*
X327600Y242800D03*
X327500Y250000D03*
X333700Y252100D03*
X333100Y254600D03*
X327667Y253195D03*
X327467Y256300D03*
X332678Y257894D03*
Y260494D03*
Y262794D03*
X329078Y274594D03*
X333189Y270792D03*
X332118Y274594D03*
X330739Y268559D03*
X330983Y270789D03*
X333090Y268523D03*
X334778Y278684D03*
X335014Y282420D03*
X333078Y280694D03*
X330720Y278728D03*
X330707Y286728D03*
X332692Y288658D03*
X334909Y290680D03*
X335100Y286500D03*
X327483Y290489D03*
X330654Y294647D03*
X327483Y292689D03*
X333100Y292300D03*
X331378Y298094D03*
X329003Y298320D03*
X334300Y294369D03*
X333803Y298589D03*
X330783Y304389D03*
X330983Y302189D03*
X333183Y304389D03*
X333178Y302047D03*
X334698Y315194D03*
X334663Y310447D03*
Y312694D03*
X328873Y309967D03*
X334778Y320282D03*
X334700Y317694D03*
X329100Y321700D03*
X329200Y324300D03*
X329250Y329150D03*
X329200Y347900D03*
X333400Y357800D03*
X333300Y363000D03*
X333400Y372800D03*
X330800Y367400D03*
X331000Y370200D03*
X328400Y385300D03*
X335300Y385200D03*
X332100Y429300D03*
X329900Y443800D03*
X329400Y439300D03*
X332200Y439200D03*
X332000Y452200D03*
X332100Y459200D03*
X334000Y465800D03*
X331900Y469800D03*
X333400Y491100D03*
X331100Y517100D03*
X331901Y513101D03*
X330000Y519600D03*
X327900Y567400D03*
X341100Y231600D03*
X336900Y225700D03*
X341000Y237200D03*
X340900Y242000D03*
X343100Y244400D03*
X339172Y256300D03*
X338814Y262499D03*
X339017Y260088D03*
X343041Y268594D03*
X342537Y274517D03*
X342963Y270900D03*
X340272Y274400D03*
X340842Y268545D03*
X335827Y274127D03*
X338072Y274300D03*
X340649Y270923D03*
X338883Y278389D03*
X336883Y280615D03*
X340856Y280650D03*
X338663Y282816D03*
X343048Y278383D03*
X336884Y284357D03*
X340670Y284781D03*
X336952Y288570D03*
X338664Y290268D03*
X340566Y288463D03*
X339172Y294369D03*
X342783Y294900D03*
X336883Y292489D03*
X339670Y298128D03*
X336055Y297939D03*
X337055Y302094D03*
X343142Y302237D03*
X342955Y304430D03*
X340867Y302237D03*
X340690Y304434D03*
X340678Y314994D03*
X340773Y310489D03*
Y312689D03*
X340472Y320100D03*
X340444Y317372D03*
X340372Y322600D03*
X338800Y331000D03*
Y327800D03*
X336200Y372600D03*
X336700Y368200D03*
X336300Y378400D03*
X338100Y399100D03*
X341600Y418200D03*
X341400Y427800D03*
Y425100D03*
X342500Y432200D03*
X341800Y476800D03*
X342600Y472600D03*
X339900Y485500D03*
X336500Y489200D03*
X341000Y489800D03*
X342000Y509400D03*
X339600Y522400D03*
X340600Y562500D03*
X337300Y575700D03*
X348800Y229100D03*
X344900Y231600D03*
X351900Y226400D03*
X345125Y241747D03*
X345100Y237400D03*
X348900Y236000D03*
X351900Y238800D03*
X351700Y243600D03*
X350872Y257300D03*
X351178Y260194D03*
X351179Y262695D03*
X345600Y274300D03*
X350425Y272978D03*
X346967Y268689D03*
X350979Y268587D03*
X346150Y280400D03*
X348462Y276829D03*
X348983Y280489D03*
X350826Y276651D03*
X348678Y282694D03*
X348689Y286483D03*
X351824Y283004D03*
X346402Y291390D03*
X350372Y292220D03*
X346872Y298300D03*
X344535Y298544D03*
X350415Y299989D03*
X350928Y304444D03*
X346979Y304206D03*
X346968Y300541D03*
X350489Y302189D03*
X348200Y376100D03*
X349500Y378400D03*
X346400Y377700D03*
X348000Y385300D03*
X346500Y383100D03*
X351600Y381900D03*
X350100Y390000D03*
X347200Y401343D03*
X351400Y430100D03*
X343900Y424575D03*
Y427806D03*
X348754Y432054D03*
X345522D03*
X346100Y465900D03*
X349000Y475400D03*
X351200D03*
X345200Y478400D03*
X347100D03*
X345200Y480300D03*
X347100D03*
X345200Y484100D03*
Y482200D03*
X347100D03*
Y484100D03*
X349800Y485900D03*
X347400Y497400D03*
X345500Y509400D03*
X344600Y504800D03*
X346600Y526400D03*
X346700Y522500D03*
X349100Y526400D03*
X351600Y525800D03*
X347400Y534700D03*
X351700Y534600D03*
X347300Y539200D03*
X351600Y539100D03*
Y543500D03*
X347300Y543600D03*
X347400Y551000D03*
X351700Y550900D03*
Y555300D03*
X347400Y555400D03*
X347100Y567100D03*
X351150Y567250D03*
X351400Y562600D03*
X347100Y562700D03*
X346000Y576000D03*
X355100Y226200D03*
X358500D03*
X356300Y238800D03*
X353700Y241300D03*
X352900Y234100D03*
X357200Y256400D03*
X358500Y250600D03*
X356072Y252900D03*
X352972Y253700D03*
X355350Y259350D03*
X358537Y262994D03*
X355999Y263014D03*
X352628Y272894D03*
X354783Y272389D03*
X354398Y268974D03*
X352581Y280245D03*
X354478Y276494D03*
X354776Y280455D03*
X354790Y282655D03*
X352485Y290701D03*
X354848Y292538D03*
X354600Y296585D03*
X352783Y299889D03*
X354398Y304004D03*
X354883Y300689D03*
X352626Y312500D03*
Y309946D03*
X358578Y312894D03*
X354100Y314200D03*
X358473Y310489D03*
X354300Y322500D03*
X359800Y316000D03*
X353778Y319294D03*
X353789Y316971D03*
X352500Y325600D03*
X352750Y330650D03*
X358700Y335500D03*
X352478Y335178D03*
X352600Y345600D03*
X358800Y351700D03*
X353900Y351800D03*
X354900Y354000D03*
X358075D03*
X356600Y372100D03*
X354900Y370000D03*
X360200Y372100D03*
X358400Y370000D03*
X353500Y380400D03*
X359500Y383000D03*
X354500Y389700D03*
X354400Y397500D03*
X354500Y403400D03*
Y412300D03*
X354300Y408767D03*
X354400Y416200D03*
X354481Y419981D03*
X356256Y435700D03*
X352657D03*
X357900Y431000D03*
X354500D03*
X357950Y440900D03*
X356403Y461597D03*
X357950Y457450D03*
X355000Y475300D03*
X358300Y475400D03*
X353500Y501029D03*
X353800Y505700D03*
X353200Y575900D03*
X362200Y226600D03*
X363000Y238550D03*
X362832Y241210D03*
X368200Y241000D03*
X368050Y238550D03*
X363050Y254950D03*
X362700Y257600D03*
X366453Y253347D03*
X363700Y250100D03*
X364283Y265889D03*
X361983D03*
X366979Y265559D03*
X366778Y271694D03*
X364278Y269654D03*
X361712Y269728D03*
X363278Y278894D03*
X364292Y274855D03*
X361778D03*
X361036Y278975D03*
X366978Y282994D03*
X361559Y290064D03*
X363983Y289989D03*
X366478Y290094D03*
X361585Y285701D03*
X368278Y301694D03*
X360678Y299874D03*
X363178Y299994D03*
X365679Y299894D03*
X362369Y303718D03*
X360678Y309194D03*
X367478Y308494D03*
X367500Y311500D03*
X362898Y325200D03*
X367200Y328200D03*
X367000Y331100D03*
X362800Y330400D03*
X365800Y338800D03*
X363200Y335800D03*
X364000Y345200D03*
Y343300D03*
X366200Y345200D03*
Y343300D03*
X368400Y358600D03*
X361900Y370000D03*
X363700Y372100D03*
X365400Y393100D03*
X366200Y405200D03*
X364481Y398681D03*
X368200Y406100D03*
X361800Y412200D03*
X365350Y440650D03*
X365400Y448114D03*
X363540Y454040D03*
X363900Y460900D03*
X361425Y475500D03*
X365000Y473100D03*
X361700Y501100D03*
X368400Y508800D03*
X362300Y576000D03*
X368900Y236200D03*
X375100Y241100D03*
X374700Y244700D03*
X374900Y247800D03*
X373660Y258852D03*
X375400Y261194D03*
X376400Y273800D03*
X371678Y266594D03*
X369939Y269654D03*
X371678Y283194D03*
X368978Y285239D03*
X371700Y289900D03*
X372178Y300628D03*
X369978Y305894D03*
X373478Y310994D03*
X368900Y313600D03*
X373478Y316994D03*
X369900Y317100D03*
X372100Y327300D03*
X372152Y329248D03*
X372900Y335400D03*
X372600Y355106D03*
X375900Y358000D03*
X372700Y364600D03*
X368900Y372400D03*
X375500Y370000D03*
X371800Y380400D03*
X370200Y405100D03*
X372100D03*
X370200Y407000D03*
Y408800D03*
Y410600D03*
Y412400D03*
X372100Y407000D03*
Y410600D03*
Y412400D03*
Y408800D03*
X376500Y418806D03*
X371600Y420800D03*
X373000Y438300D03*
X370690Y439010D03*
X372500Y440900D03*
X368800D03*
X376100Y462000D03*
X369599Y467099D03*
X372600Y472500D03*
X368700Y475400D03*
X376300Y475500D03*
Y485400D03*
Y483500D03*
X376100Y508700D03*
X372073Y506773D03*
X372300Y575900D03*
X382700Y238300D03*
X380336Y246600D03*
X381194Y257494D03*
X384626Y254100D03*
X381400Y262579D03*
X377668Y260261D03*
X381600Y273700D03*
X377478Y266478D03*
X379078Y273594D03*
Y279700D03*
X381372Y289700D03*
X381478Y310994D03*
X377478Y313794D03*
Y308194D03*
X381478Y316994D03*
X378600Y329600D03*
X383300Y338500D03*
X379100Y336100D03*
X383200Y342800D03*
X378428Y352072D03*
X379978Y381100D03*
X377500Y383400D03*
X382500Y397000D03*
X377400Y406000D03*
X377700Y409458D03*
X381300Y416700D03*
X378400Y433600D03*
X381700Y432000D03*
X378760Y440260D03*
X384200Y451500D03*
X380200Y472400D03*
X382000Y481600D03*
Y483500D03*
Y485400D03*
X380100D03*
Y483500D03*
Y481600D03*
Y479700D03*
X378200Y483500D03*
Y485400D03*
X381857Y501300D03*
X379200Y538300D03*
X383500Y538200D03*
Y542600D03*
X379200Y542700D03*
X379300Y551600D03*
X383600Y551500D03*
X382700Y547400D03*
X383600Y555900D03*
X379300Y556000D03*
X383300Y567400D03*
X379400Y567445D03*
X383800Y562600D03*
X379500Y562700D03*
X380200Y576000D03*
X386100Y237600D03*
X387700Y242200D03*
X390300Y242600D03*
X385200D03*
X391600Y251200D03*
X390480Y273694D03*
X390481Y270545D03*
X387920Y273694D03*
X387924Y279994D03*
X390493Y279996D03*
X390482Y289444D03*
X390483Y283144D03*
X393034Y289444D03*
X387926Y292593D03*
X390481Y292594D03*
X384978Y298294D03*
X390481Y302043D03*
X389378Y313694D03*
X391130Y320890D03*
X387400Y326900D03*
X387260Y329940D03*
X389500Y351600D03*
X386046Y351546D03*
X387500Y355200D03*
X388200Y357800D03*
X387800Y367700D03*
X386510Y383490D03*
X392100Y383400D03*
X387550Y393150D03*
X389400Y404700D03*
X388100Y398200D03*
X391968Y404400D03*
X388000Y438100D03*
Y443100D03*
X385300D03*
X389781Y455081D03*
X391031Y457731D03*
X385400Y468500D03*
X389300Y478100D03*
X391200D03*
X387800Y474300D03*
X392000Y483800D03*
X390100D03*
Y481900D03*
X392000D03*
X388200D03*
Y483800D03*
Y480000D03*
X390100D03*
X392000D03*
X391300Y503700D03*
Y499700D03*
X387100Y504500D03*
X391500Y511900D03*
X391400Y509200D03*
X389600Y513700D03*
X391500Y535300D03*
X391100Y547500D03*
X391200Y555500D03*
X390600Y567400D03*
X387400Y575900D03*
X399900Y242500D03*
X396200Y245700D03*
X396100Y250200D03*
X393519Y266000D03*
X396778Y258894D03*
X400714Y273696D03*
X395599Y267395D03*
X395601Y273694D03*
X395600Y270545D03*
X398163Y273694D03*
X400718Y270545D03*
X398160D03*
X398158Y267295D03*
X400718Y267395D03*
X393052Y279996D03*
X398165Y279994D03*
X398162Y276844D03*
X395586Y279996D03*
X400724Y283144D03*
X400718Y289444D03*
X398160Y283144D03*
X393042D03*
X400722Y295743D03*
X395601Y298894D03*
X400717Y292594D03*
X400718Y298893D03*
X398170Y292592D03*
X393041Y292594D03*
X398159Y298894D03*
X398158Y295744D03*
X395600Y305193D03*
X400717Y302043D03*
X395601D03*
X398158D03*
X398159Y305193D03*
X393041D03*
X400718D03*
X398378Y313694D03*
X393550Y320840D03*
X395124Y328576D03*
X396950Y338550D03*
X395044Y344000D03*
X399600Y346615D03*
X397400Y354500D03*
X400300D03*
X397443Y357057D03*
X394857Y357043D03*
X395700Y372240D03*
X394657Y367657D03*
X397900Y393100D03*
X397600Y405000D03*
X397900Y398100D03*
X395200Y404400D03*
X396300Y413700D03*
X396200Y417800D03*
X396300Y421100D03*
X400475Y438225D03*
X400200Y443000D03*
X396700Y451700D03*
X400643Y451843D03*
X396960Y459740D03*
X393500Y468500D03*
X401200Y470300D03*
Y467200D03*
X393100Y478100D03*
X401200Y474400D03*
X398900Y478000D03*
X398100Y481800D03*
X399800Y490900D03*
X395400Y512100D03*
X399100Y508400D03*
X400700Y520000D03*
X395500Y515800D03*
Y519600D03*
X398041Y540741D03*
X395500Y561900D03*
X396500Y576000D03*
X409400Y259200D03*
X408378Y266794D03*
X408398Y270545D03*
X403278D03*
X408394Y273695D03*
X403989Y267106D03*
X403273Y273696D03*
X408398Y279994D03*
X403284Y276844D03*
X405832Y276846D03*
X405838Y279994D03*
X403278Y289444D03*
X405846D03*
X403278Y283144D03*
X408397Y292592D03*
X408407Y298892D03*
X405835Y295744D03*
X403286D03*
Y292594D03*
X408402Y305191D03*
X408395Y302043D03*
X405836D03*
X405843Y305191D03*
X403276Y302043D03*
X408850Y312850D03*
X409176Y332400D03*
X405570Y333500D03*
X401300Y359300D03*
X405450Y359150D03*
Y366750D03*
X404600Y394000D03*
X402100Y391100D03*
X403200Y397900D03*
X408500Y397800D03*
X406400Y413700D03*
X401500D03*
X401400Y417800D03*
X406300D03*
X406400Y421100D03*
X401500D03*
X402400Y432700D03*
X406380Y443780D03*
X408800Y447400D03*
X409400Y460500D03*
X407100Y468400D03*
X404700Y466200D03*
X402200Y477700D03*
X407800Y486500D03*
Y484600D03*
X407900Y482700D03*
X408000Y490200D03*
X403300Y488400D03*
X407300Y498900D03*
X404700D03*
X403600Y507122D03*
X404400Y509900D03*
X402700Y514357D03*
X408191Y515191D03*
X406300Y513300D03*
X408000Y525600D03*
X402700Y536700D03*
X406700Y529600D03*
X402800Y533100D03*
X404500Y542700D03*
X405621Y545279D03*
X401881Y558400D03*
X408400Y565100D03*
X406500Y575900D03*
X416500Y227800D03*
X411020Y245500D03*
X413518Y267395D03*
X413517Y273694D03*
X410958Y267395D03*
Y273694D03*
Y279994D03*
X413520D03*
X413522Y295744D03*
X410963Y292594D03*
X413522D03*
X413520Y305191D03*
X410961D03*
X413520Y302041D03*
X416099Y305094D03*
X416881Y312100D03*
X413930Y312850D03*
X417200Y315300D03*
X412400Y323500D03*
X414400Y323400D03*
X416400D03*
X411715Y346615D03*
X411497Y364797D03*
X412700Y361100D03*
X411400Y359000D03*
X413516Y392194D03*
X413189Y414732D03*
Y417964D03*
X410700Y414600D03*
X410600Y417400D03*
X414900Y438100D03*
X415000Y442900D03*
X412800Y452100D03*
Y450100D03*
X414800D03*
Y452100D03*
X409700Y486500D03*
X411600D03*
X413500D03*
Y484600D03*
X411600D03*
X409700D03*
X413600Y482700D03*
X411700D03*
X409800D03*
X410300Y498900D03*
X415300Y505100D03*
X415000Y507800D03*
X414600Y518700D03*
X414967Y515467D03*
X410100Y513400D03*
X410200Y519700D03*
X410100Y522500D03*
X410000Y549300D03*
X417300Y549400D03*
X414000Y553500D03*
X414200Y561700D03*
X415100Y575700D03*
X419300Y228000D03*
X423497Y245500D03*
X425600Y258900D03*
X423763Y267395D03*
X418640D03*
X421204D03*
X421200Y273694D03*
Y276844D03*
X418638Y276846D03*
X423759Y289444D03*
X421200Y295744D03*
Y292594D03*
Y298894D03*
X423760Y305193D03*
X418642D03*
X421200D03*
X423900Y312300D03*
X421106Y392194D03*
X425100Y401200D03*
X421600Y402800D03*
X421795Y413395D03*
X424300Y416500D03*
X423762Y470462D03*
X418398Y483098D03*
X424000Y488600D03*
X424043Y496443D03*
X422400Y504043D03*
Y507800D03*
X422579Y515479D03*
X418100Y534100D03*
X418000Y556400D03*
X422400Y575900D03*
X429300Y228000D03*
X427147Y245500D03*
X433294Y258907D03*
X431427Y273696D03*
X426322Y267395D03*
X431440D03*
X428880D03*
X428868Y276846D03*
X428877Y289444D03*
X426320Y283144D03*
X431438D03*
X433996Y283154D03*
X426320Y289444D03*
X428879Y283144D03*
X431200Y295900D03*
X433999Y292592D03*
X426315Y295742D03*
X428875Y292592D03*
X433999Y302041D03*
X426320Y305193D03*
X431440D03*
X426850Y308432D03*
X432800Y333968D03*
X429100Y344300D03*
X429200Y341400D03*
X431100Y352600D03*
X431000Y360900D03*
X429100Y375500D03*
X430200Y422200D03*
X432100D03*
X426000Y426500D03*
X428600D03*
X426000Y431900D03*
X428800Y478300D03*
X430593Y504093D03*
X430443Y507843D03*
X430700Y522100D03*
X427100Y545400D03*
X427600Y553700D03*
X427300Y561600D03*
X431500Y576000D03*
X439500Y227900D03*
X435178Y265460D03*
X438812D03*
X441678Y273694D03*
X436560Y270545D03*
X441674Y283144D03*
X441670Y289442D03*
X436552D03*
X436556Y283144D03*
X439111Y289442D03*
X439115Y283144D03*
X441670Y295742D03*
X436403Y305204D03*
X439117Y305193D03*
X435681Y311700D03*
X434700Y328000D03*
X434600Y330400D03*
X441132Y330268D03*
X435200Y324468D03*
X436100Y339000D03*
X440500Y345300D03*
X434600Y341000D03*
X439600Y356300D03*
X440700Y352000D03*
X434757Y362443D03*
X439600Y366600D03*
X439900Y374600D03*
X434768Y387168D03*
X438468Y387032D03*
Y395168D03*
X434768D03*
X439843Y409143D03*
X440100Y435600D03*
X438762Y439000D03*
X439400Y455800D03*
X437600Y479700D03*
X437700Y488580D03*
X439400Y496800D03*
X435300Y496700D03*
X439257Y507943D03*
X439200Y504200D03*
X441200Y529100D03*
X437300D03*
X438100Y533634D03*
X434800Y548900D03*
X437200Y561100D03*
X436200Y553800D03*
X441500Y575900D03*
X447300Y227600D03*
Y230700D03*
X450400Y265557D03*
X446316Y269516D03*
X444237Y273694D03*
Y276844D03*
X446475Y279075D03*
X450151Y289351D03*
X446443Y286743D03*
X444836Y289444D03*
X444233Y283144D03*
X450375Y298775D03*
X444229Y292592D03*
X445066Y297308D03*
X448700Y306700D03*
X444419Y305381D03*
X446675Y303375D03*
X446500Y312244D03*
X448600Y330300D03*
X444968Y330332D03*
X444600Y356537D03*
X443200Y352700D03*
X444700Y362500D03*
X442400Y366700D03*
X444600Y374700D03*
X450400Y375400D03*
X442268Y387132D03*
X446068Y387100D03*
X449768D03*
Y395132D03*
X445700Y425400D03*
X447700Y447200D03*
X446900Y487400D03*
X446800Y484400D03*
X447900Y504100D03*
X448700Y509900D03*
X443996Y514696D03*
X444500Y531000D03*
X447300Y531100D03*
X447800Y575500D03*
X453600Y227600D03*
X450500D03*
X453600Y230700D03*
X450500D03*
X457053Y245500D03*
X456400Y254100D03*
X458300Y254200D03*
X450757Y256057D03*
X458400Y261700D03*
Y259700D03*
X450557Y260957D03*
X456399Y267500D03*
X452757Y267800D03*
X452143Y274300D03*
X456100Y276200D03*
X458100D03*
X452143Y282257D03*
X456957Y283857D03*
X457400Y296700D03*
Y298700D03*
X457300Y300900D03*
X452368Y330300D03*
X453400Y363800D03*
Y372900D03*
X452600Y401300D03*
X453000Y405600D03*
X454200Y427600D03*
X453400Y429600D03*
X454682Y438182D03*
X452400Y450000D03*
X453300Y457600D03*
X455400Y469500D03*
X452400D03*
X453100Y491800D03*
X455900Y493800D03*
X453500Y494600D03*
X455700Y496400D03*
X455100Y575700D03*
X466600Y229400D03*
X466500Y227500D03*
X463100Y246000D03*
X461300Y266100D03*
X459400Y298900D03*
X461300Y299000D03*
X459200Y301000D03*
X462200Y325300D03*
X463900Y330200D03*
Y333968D03*
X464100Y337600D03*
X464300Y341600D03*
X459500Y362700D03*
X461700D03*
X464500Y397418D03*
X465000Y441500D03*
X465100Y439600D03*
X460153Y441147D03*
X459118Y448218D03*
X460400Y450600D03*
X460500Y456900D03*
X465200Y513700D03*
X464900Y537200D03*
Y542800D03*
Y548500D03*
X464200Y575800D03*
X468500Y229400D03*
Y227500D03*
X470400D03*
X472300Y229500D03*
X470400Y229400D03*
X472300Y227600D03*
X467200Y257400D03*
X470400D03*
X468532Y252400D03*
X470400Y261000D03*
X467200D03*
X473500D03*
Y264700D03*
X467200D03*
X470400D03*
X470501Y269700D03*
X470500Y273300D03*
X470600Y276800D03*
X470700Y280500D03*
Y284300D03*
X470600Y288500D03*
X471500Y345332D03*
X472232Y341568D03*
X472032Y352832D03*
X472119Y364119D03*
X471500Y369500D03*
X472500Y386200D03*
X474800Y385100D03*
X472600Y381700D03*
X472700Y418700D03*
X468800Y441500D03*
X466900D03*
X468900Y439600D03*
X467000D03*
X470064Y457836D03*
X472700Y495600D03*
X468700Y501600D03*
X472457Y501643D03*
X474700Y497100D03*
X469400Y510800D03*
X468700Y517500D03*
X474900Y537200D03*
Y542800D03*
Y548500D03*
X474800Y555200D03*
X474900Y562100D03*
X474200Y575700D03*
X479000Y241104D03*
X479800Y238300D03*
X481900Y246800D03*
X479900D03*
X482900Y264933D03*
X481200Y261300D03*
X483200Y276400D03*
X483000Y283300D03*
Y298900D03*
X481000D03*
X483100Y300800D03*
X481100D03*
X478200Y335700D03*
X482600Y341700D03*
X479400Y351100D03*
X482800Y351000D03*
X480400Y362500D03*
X479300Y364700D03*
X479800Y367500D03*
X477300Y382100D03*
X480119Y381881D03*
X478000Y388974D03*
X480200Y408600D03*
X478000Y411100D03*
X480100Y426900D03*
X476900Y433100D03*
X478800D03*
X480700D03*
X476800Y435000D03*
X478700D03*
X480600D03*
X481200Y448800D03*
X475934Y459900D03*
X479700D03*
X482300Y462100D03*
X479100Y495372D03*
X481160Y501643D03*
X488200Y234800D03*
X483600Y241000D03*
X490300Y240500D03*
X487700Y238800D03*
X484800Y234900D03*
Y238200D03*
X487700Y243800D03*
X491200Y243500D03*
X491250Y254550D03*
X483500Y260400D03*
X490900Y271600D03*
X490800Y274300D03*
X485200Y276400D03*
X484957Y285800D03*
X484900Y298900D03*
X484250Y297050D03*
X485000Y300800D03*
X489800Y307000D03*
X490300Y338000D03*
X484600Y339700D03*
X487800Y335700D03*
X488300Y341700D03*
X484032Y356200D03*
X484100Y363800D03*
X483919Y390900D03*
X490100Y407000D03*
X486300Y433400D03*
X486600Y443500D03*
X488600Y441500D03*
X490400Y443500D03*
X490700Y441400D03*
X486500Y441500D03*
X488537Y443442D03*
Y449000D03*
X484814Y448800D03*
X486091Y472391D03*
X489733Y472033D03*
X487500Y495165D03*
X485400Y501000D03*
X484900Y537200D03*
Y542800D03*
Y548500D03*
X484800Y555200D03*
X484900Y562100D03*
X483500Y575800D03*
X495900Y223300D03*
X499400Y226900D03*
X492797Y234097D03*
X497300Y240600D03*
X491957Y249257D03*
X494500Y251100D03*
X491600Y267500D03*
X497600Y267600D03*
X499300Y281300D03*
X496500Y279700D03*
X498400Y298250D03*
X491700Y297600D03*
X492400Y294000D03*
X497900Y294900D03*
X495261Y331362D03*
X497600Y330700D03*
X496963Y333054D03*
X491800Y332100D03*
X493100Y336900D03*
X494800Y344600D03*
X495800Y356100D03*
X498100Y354100D03*
X493100Y355700D03*
X496100Y350100D03*
X493500Y350400D03*
X493700Y361600D03*
X498200Y358300D03*
Y361100D03*
X493100Y364100D03*
X493600Y367700D03*
X495600Y365300D03*
X495800Y387000D03*
X495700Y393900D03*
X496300Y402200D03*
X496000Y420000D03*
X498800Y427400D03*
X494900Y436000D03*
X496843Y470057D03*
X499500Y484100D03*
X498200Y487300D03*
X492226Y501643D03*
X496100Y501500D03*
X495900Y509200D03*
X494642Y507058D03*
X498000Y524600D03*
X499200Y533634D03*
X494900Y537200D03*
X492100Y542800D03*
Y548400D03*
X492000Y555100D03*
X498400Y559400D03*
X492100Y562000D03*
X495800D03*
X493500Y575700D03*
X503800Y233400D03*
X506800Y251700D03*
X505000Y260900D03*
X506700Y264400D03*
X502600Y266400D03*
X506850Y281450D03*
X506900Y277700D03*
X507200Y286500D03*
X506400Y291000D03*
X507450Y298250D03*
X507300Y306200D03*
Y302200D03*
Y314057D03*
X507500Y310300D03*
X506200Y334500D03*
X506300Y338700D03*
X500100Y345700D03*
X506600Y375500D03*
X507200Y386700D03*
X507000Y394000D03*
X503400Y420000D03*
X501200Y429000D03*
X504814Y460514D03*
X507700Y476400D03*
X507397Y480097D03*
X505100Y484300D03*
X503000Y487300D03*
X507700Y487100D03*
X502528Y495372D03*
X500187Y501643D03*
X504000Y501700D03*
Y541400D03*
X501900Y549900D03*
X501000Y560600D03*
X504200Y564400D03*
X502000Y575700D03*
X514100Y239700D03*
X508900Y237700D03*
X508800Y247100D03*
X510300Y243700D03*
X508300Y258700D03*
X508000Y331400D03*
Y336500D03*
X510300Y348315D03*
Y345400D03*
Y362500D03*
X508400Y370100D03*
Y366800D03*
X510000Y374600D03*
X511400Y398500D03*
X513500Y400400D03*
X513800Y409200D03*
X511400Y420100D03*
X511600Y414900D03*
X509300Y425000D03*
X507900Y490900D03*
X510360Y498900D03*
X512000Y575600D03*
X517300Y231100D03*
X520000Y247100D03*
X516535Y495500D03*
X518600Y502500D03*
X518400Y498300D03*
X518750Y507000D03*
X519100Y551700D03*
X521700Y551500D03*
X519100Y554400D03*
X521700D03*
X524200Y554300D03*
X524800Y230800D03*
X524900Y240700D03*
X525100Y248100D03*
X525900Y330000D03*
X524300Y551400D03*
X526700D03*
Y554300D03*
X546100Y278400D03*
X546200Y274800D03*
Y282200D03*
X546400Y287000D03*
Y289900D03*
X545019Y294881D03*
X543000Y291900D03*
X546100Y302400D03*
X547209Y315309D03*
X547100Y307500D03*
G54D20*
X506800Y225011D03*
X516800D03*
G54D11*
X154056Y288889D03*
G54D12*
X164635Y278311D03*
X550981Y272381D03*
Y277381D03*
Y287381D03*
Y282381D03*
Y297381D03*
Y292381D03*
Y302381D03*
Y312381D03*
Y307381D03*
G54D21*
X520681Y254050D03*
X520181Y264050D03*
X519681Y274050D03*
X520181Y284050D03*
X520681Y294050D03*
Y304050D03*
X521681Y314050D03*
X522559Y324050D03*
X521468Y334050D03*
X520575Y344050D03*
X522043Y354050D03*
X520575Y364050D03*
X522059Y374050D03*
X521181Y384050D03*
X521681Y394050D03*
X523681Y404050D03*
X523181Y414050D03*
X522681Y424050D03*
X523181Y434050D03*
X523681Y444050D03*
Y454050D03*
X524681Y464050D03*
X525559Y474050D03*
X524468Y484050D03*
X523575Y494050D03*
X525043Y504050D03*
X523575Y514050D03*
X525059Y524050D03*
X524181Y534050D03*
X524681Y544050D03*
G54D22*
G01X518500Y329000D02*
X524900D01*
G01X517500Y339500D02*
X518138D01*
X518528Y339110D01*
G01D02*
X525610D01*
G01X517500Y349500D02*
X519606D01*
G01D02*
X519997Y349110D01*
X524890D01*
G01X524900Y329000D02*
X525900Y330000D01*
G01X525610Y339110D02*
X526000Y339500D01*
G01X524890Y349110D02*
X525500Y348500D01*
G54D13*
X194117Y261632D03*
X213802D03*
G54D23*
G01X132840Y219900D02*
X553960D01*
G03X559960Y225900I0J6000D01*
G01Y572200D01*
G03X553960Y578200I-6000J0D01*
G01X132840D01*
G03X126840Y572200I0J-6000D01*
G01Y225900D01*
G03X132840Y219900I6000J0D01*
G01X184008Y363645D02*
X189851D01*
G03X191851Y365645I0J2000D01*
G01Y432512D01*
G03X189851Y434512I-2000J0D01*
G01X184008D01*
G03X182008Y432512I0J-2000D01*
G01Y365645D01*
G03X184008Y363645I2000J0D01*
G01X503067Y415517D02*
X497949D01*
G01D02*
Y412761D01*
G01D02*
X503067D01*
G01X497949Y446226D02*
Y448982D01*
G01D02*
X503067D01*
G01Y446226D02*
X497949D01*
G01X503067Y412761D02*
Y415517D01*
G01Y448982D02*
Y446226D01*
G01X552020Y238700D02*
G03I-10750J0D01*
G01X551980Y559480D02*
G03I-10750J0D01*
G01X541499Y345846D02*
G03Y339677I0J-3085D01*
G01Y345846D02*
G03Y339677I0J-3085D01*
G01X536618Y382678D02*
Y417922D01*
G02X538618Y419922I2000J0D01*
G01X544460D01*
G02X546460Y417922I0J-2000D01*
G01Y406500D01*
G03X548460Y404500I2000J0D01*
G01X549460D01*
G02X551460Y402500I0J-2000D01*
G01Y396500D01*
G02X549460Y394500I-2000J0D01*
G01X548460D01*
G03X546460Y392500I0J-2000D01*
G01Y382678D01*
G02X544460Y380678I-2000J0D01*
G01X538618D01*
G02X536618Y382678I0J2000D01*
G01X541499Y456083D02*
G03Y449913I0J-3085D01*
G01Y339677D02*
G03Y345846I0J3085D01*
G01Y449913D02*
G03Y456083I0J3085D01*
G54D14*
X233054Y551339D03*
Y567875D03*
X266912Y551339D03*
Y567875D03*
G54D24*
G01X497949Y415517D02*
X503067D01*
Y412761D01*
X497949D01*
Y415517D01*
G01D02*
X503067D01*
Y412761D01*
X497949D01*
Y415517D01*
G01Y448982D02*
X503067D01*
Y446226D01*
X497949D01*
Y448982D01*
G01D02*
X503067D01*
Y446226D01*
X497949D01*
Y448982D01*
G54D15*
X238664Y553505D03*
X261302D03*
G54D16*
X268021Y346704D03*
X314872Y481758D03*
X464479D03*
X480227Y316404D03*
G54D17*
X276714Y228403D03*
X336800Y271000D03*
X474200Y446800D03*
X500864Y247678D03*
G54D18*
G01X139000Y485500D02*
X131000D01*
G01Y501000D02*
X139000D01*
Y495000D01*
X346915Y272715D03*
X346350Y282750D03*
G54D19*
X470189Y555128D03*
X501685D03*
M02*
