G04 ================== begin FILE IDENTIFICATION RECORD ==================*
G04 Layout Name:  BeagleBadge_V1.0_260728.brd*
G04 Film Name:    L5_PWR*
G04 File Format:  Gerber RS274X*
G04 File Origin:  Cadence Allegro 17.4-S035*
G04 Origin Date:  Wed Aug 26 15:41:08 2026*
G04 *
G04 Layer:  VIA CLASS/L5-PWR*
G04 Layer:  PIN/L5-PWR*
G04 Layer:  ETCH/L5-PWR*
G04 Layer:  DRAWING FORMAT/TITLE_BLOCK*
G04 Layer:  DRAWING FORMAT/TB_L04*
G04 Layer:  BOARD GEOMETRY/OUTLINE*
G04 *
G04 Offset:    (0.0000 0.0000)*
G04 Mirror:    No*
G04 Mode:      Positive*
G04 Rotation:  0*
G04 FullContactRelief:  No*
G04 UndefLineWidth:     6.0000*
G04 ================== end FILE IDENTIFICATION RECORD ====================*
%FSLAX25Y25*MOIN*%
%IR0*IPPOS*OFA0.00000B0.00000*MIA0B0*SFA1.00000B1.00000*%
%ADD18C,.02*%
%ADD17C,.016*%
%ADD10C,.018*%
%ADD19C,.035433*%
%ADD13C,.055118*%
%ADD21C,.074803*%
%ADD11C,.03937*%
%ADD15C,.022835*%
%ADD20C,.062992*%
%ADD12C,.027559*%
%ADD16C,.2283*%
%ADD14O,.047244X.086614*%
%ADD22C,.005*%
%ADD23C,.008*%
%ADD24C,.0045*%
%ADD25C,.006*%
%ADD28C,.024*%
%ADD27C,.026*%
%ADD32C,.055434*%
%ADD33C,.055434*%
%ADD26C,.058646*%
%ADD29C,.2523*%
%ADD31R,.071181X.047559*%
%ADD30R,.118426X.728662*%
G75*
%LPD*%
G75*
G36*
G01X231900Y222600D02*
X230500Y221200D01*
X137000D01*
X135700Y222500D01*
Y226300D01*
X136900Y227500D01*
X173600D01*
X174900Y228800D01*
Y242500D01*
X176400Y244000D01*
X230800D01*
X231900Y242900D01*
Y222600D01*
G37*
G36*
G01X286807Y548361D02*
G03X287800Y547900I993J839D01*
G03X289100Y549200I0J1300D01*
G02X289300Y549400I200J0D01*
G01X299775D01*
G03X300800Y548900I1025J800D01*
G03X302039Y549808I0J1300D01*
G01X302054Y549854D01*
X311118Y558918D01*
G02X311801Y558651I283J-283D01*
G03X313100Y557400I1299J49D01*
G03X314400Y558700I0J1300D01*
G03X313149Y559999I-1300J0D01*
G02X312882Y560682I15J400D01*
G01X315040Y562840D01*
G02X315671Y562756I283J-283D01*
G03X316800Y562100I1129J644D01*
G03X318100Y563400I0J1300D01*
G03X317444Y564529I-1300J0D01*
G02X317360Y565160I198J347D01*
G01X318700Y566500D01*
X322893D01*
G03X322900Y566500I7J1300D01*
G03X322907Y566500I-1J1300D01*
G01X326962D01*
G03X328838I938J900D01*
G01X345947D01*
G03X348253I1153J600D01*
G01X350088D01*
G03X352212I1062J750D01*
G01X378507D01*
G03X380293I893J945D01*
G01X382362D01*
G03X384238I938J900D01*
G01X389662D01*
G03X391538I938J900D01*
G01X407025D01*
G02X407349Y565865I0J-400D01*
G03X407100Y565100I1051J-765D01*
G03X409700I1300J0D01*
G03X409451Y565865I-1300J0D01*
G02X409775Y566500I323J235D01*
G01X435390D01*
X441795Y560095D01*
Y530789D01*
G02X441349Y530391I-400J0D01*
G03X441200Y530400I-149J-1291D01*
G03Y527800I0J-1300D01*
G03X441349Y527809I0J1300D01*
G02X441795Y527411I46J-397D01*
G01Y509205D01*
X446625Y504375D01*
X446612Y504276D01*
G03X446600Y504100I1288J-176D01*
G03X447900Y502800I1300J0D01*
G03X449198Y504024I0J1300D01*
G02X449597Y504400I399J-24D01*
G01X517600D01*
X517860Y504140D01*
G02X517818Y503538I-283J-283D01*
G03X517300Y502500I783J-1038D01*
G03X518600Y501200I1300J0D01*
G03X519638Y501718I0J1300D01*
G02X520240Y501760I319J-241D01*
G01X522502Y499498D01*
G02X522321Y498828I-283J-283D01*
G03X518635Y494050I1254J-4778D01*
G03X522310Y489274I4940J0D01*
G02X522377Y488525I-102J-387D01*
G03X519528Y484050I2092J-4475D01*
G03X523826Y479152I4940J0D01*
G01X524000Y479129D01*
Y478740D01*
X523868Y478692D01*
G03Y469408I1691J-4642D01*
G01X524000Y469360D01*
Y468946D01*
X523834Y468917D01*
G03X519741Y464050I847J-4867D01*
G03X522555Y459591I4940J0D01*
G02X522480Y458842I-172J-361D01*
G03X518741Y454050I1201J-4792D01*
G03X521946Y449424I4940J0D01*
G02Y448675I-140J-375D01*
G03X518741Y444050I1735J-4625D01*
G03X521732Y439510I4940J0D01*
G02X521695Y438761I-158J-368D01*
G03X518241Y434050I1486J-4711D01*
G03X521232Y429510I4940J0D01*
G02X521195Y428761I-158J-368D01*
G03Y419338I1486J-4711D01*
G02X521232Y418589I-120J-381D01*
G03X518241Y414050I1949J-4540D01*
G03X521695Y409338I4940J0D01*
G02X521732Y408589I-120J-381D01*
G03X518741Y404050I1949J-4540D01*
G03X521317Y399712I4940J0D01*
G02X521167Y398963I-191J-351D01*
G03X516741Y394050I514J-4913D01*
G03X519732Y389510I4940J0D01*
G02X519695Y388761I-158J-368D01*
G03X516241Y384050I1486J-4711D01*
G03X519907Y379277I4940J0D01*
G02X519972Y378528I-103J-386D01*
G03X517119Y374050I2086J-4478D01*
G03X519796Y369658I4940J0D01*
G02X519685Y368909I-183J-356D01*
G03X515635Y364050I890J-4859D01*
G03X516185Y361784I4940J0D01*
G02X515830Y361200I-355J-183D01*
G01X499506D01*
X499474Y361360D01*
G03X496926I-1274J-260D01*
G01X496894Y361200D01*
X495400D01*
G02X495000Y361600I0J400D01*
G03X494298Y362754I-1300J0D01*
G02X494157Y363343I184J355D01*
G03X494381Y363881I-1057J757D01*
G02X494970Y364163I394J-67D01*
G03X495600Y364000I630J1137D01*
G03Y366600I0J1300D01*
G03X494319Y365519I0J-1300D01*
G02X493730Y365237I-394J67D01*
G03X493100Y365400I-630J-1137D01*
G03X491800Y364100I0J-1300D01*
G03X492502Y362946I1300J0D01*
G02X492643Y362357I-184J-355D01*
G03X492400Y361600I1057J-757D01*
G02X492000Y361200I-400J0D01*
G01X481842D01*
G02X481503Y361812I0J400D01*
G03X481700Y362500I-1103J688D01*
G03X480782Y363743I-1300J0D01*
G02X480523Y364260I118J382D01*
G03X480600Y364700I-1223J440D01*
G03X480192Y365645I-1300J0D01*
G02X480310Y366304I275J291D01*
G03X481100Y367500I-510J1196D01*
G03X478500I-1300J0D01*
G03X478908Y366555I1300J0D01*
G02X478790Y365896I-275J-291D01*
G03X478000Y364700I510J-1196D01*
G03X478918Y363457I1300J0D01*
G02X479177Y362940I-118J-382D01*
G03X479100Y362500I1223J-440D01*
G03X479297Y361812I1300J0D01*
G02X478958Y361200I-339J-212D01*
G01X446142D01*
G02X445803Y361812I0J400D01*
G03X446000Y362500I-1103J688D01*
G03X443400I-1300J0D01*
G03X443597Y361812I1300J0D01*
G02X443258Y361200I-339J-212D01*
G01X433114D01*
X428900Y365414D01*
Y374000D01*
G02X429100Y374200I200J0D01*
G03Y376800I0J1300D01*
G02X428900Y377000I0J200D01*
G01Y412414D01*
X426997Y414317D01*
G02X427280Y415000I283J283D01*
G01X481014D01*
X483900Y417886D01*
Y435514D01*
X482114Y437300D01*
X474486D01*
X472886Y435700D01*
X441406D01*
X441374Y435860D01*
G03X438826I-1274J-260D01*
G01X438794Y435700D01*
X357568D01*
X357545Y435873D01*
G03X354968I-1288J-173D01*
G01X354944Y435700D01*
X353969D01*
X353946Y435873D01*
G03X351369I-1288J-173D01*
G01X351346Y435700D01*
X325162D01*
G02X324774Y436197I0J400D01*
G03X324812Y436512I-1261J315D01*
G03X322212I-1300J0D01*
G03X322251Y436197I1300J0D01*
G02X321863Y435700I-388J-97D01*
G01X317510D01*
X317497Y435887D01*
G03X314903I-1297J-87D01*
G01X314890Y435700D01*
X308853D01*
X308835Y435881D01*
G03X306247I-1294J-122D01*
G01X306230Y435700D01*
X283100D01*
G02X282747Y436288I0J400D01*
G03X282900Y436900I-1147J612D01*
G03X280300I-1300J0D01*
G03X280453Y436288I1300J0D01*
G02X280100Y435700I-353J-188D01*
G01X275014D01*
X263197Y447517D01*
G02X263480Y448200I283J283D01*
G01X274294D01*
X274326Y448040D01*
G03X276874I1274J260D01*
G01X276906Y448200D01*
X332214D01*
X350400Y466386D01*
Y473748D01*
G02X350894Y474136I400J0D01*
G03X351200Y474100I306J1264D01*
G03Y476700I0J1300D01*
G03X350894Y476664I0J-1300D01*
G02X350400Y477052I-94J389D01*
G01Y483914D01*
X350237Y484077D01*
G02X350351Y484722I283J283D01*
G03X351100Y485900I-551J1178D01*
G03X349800Y487200I-1300J0D01*
G03X348547Y486247I0J-1300D01*
G01X348506Y486100D01*
X341053D01*
G03X338747I-1153J-600D01*
G01X336586D01*
X327311Y476825D01*
G02X326654Y477251I-283J283D01*
G03X327487Y481758I-11782J4507D01*
G03X302257I-12615J0D01*
G03X302393Y479912I12615J0D01*
G02X301904Y479464I-396J-59D01*
G03X301600Y479500I-304J-1264D01*
G03Y476900I0J-1300D01*
G03X302495Y477257I0J1300D01*
G02X303143Y477115I275J-290D01*
G03X307917Y471234I11729J4644D01*
G02X307696Y470500I-221J-334D01*
G01X304510D01*
X304497Y470687D01*
G03X301903I-1297J-87D01*
G01X301890Y470500D01*
X296700D01*
Y470700D01*
G03X296406Y471523I-1300J0D01*
G02Y471777I155J127D01*
G03X296700Y472600I-1006J823D01*
G03X296406Y473423I-1300J0D01*
G02Y473677I155J127D01*
G03X296700Y474500I-1006J823D01*
G03X294100I-1300J0D01*
G03X294394Y473677I1300J0D01*
G02Y473423I-155J-127D01*
G03X294100Y472600I1006J-823D01*
G03X294394Y471777I1300J0D01*
G02Y471523I-155J-127D01*
G03X294100Y470700I1006J-823D01*
G01Y470500D01*
X279591D01*
G02X279216Y471041I0J400D01*
G03X279300Y471500I-1216J459D01*
G03X279006Y472323I-1300J0D01*
G02Y472577I155J127D01*
G03X279300Y473400I-1006J823D01*
G03X279006Y474223I-1300J0D01*
G02Y474477I155J127D01*
G03X279300Y475300I-1006J823D01*
G03X276700I-1300J0D01*
G03X276994Y474477I1300J0D01*
G02Y474223I-155J-127D01*
G03X276700Y473400I1006J-823D01*
G03X276994Y472577I1300J0D01*
G02Y472323I-155J-127D01*
G03X276700Y471500I1006J-823D01*
G03X276784Y471041I1300J0D01*
G02X276409Y470500I-374J-141D01*
G01X274014D01*
X268114Y476400D01*
X261738D01*
G03X260800Y476800I-938J-900D01*
G03X260341Y476716I0J-1300D01*
G02X259800Y477091I-141J374D01*
G01Y490500D01*
G02X260388Y490853I400J0D01*
G03X261000Y490700I612J1147D01*
G03X261921Y491082I0J1300D01*
G02X262509Y491059I283J-282D01*
G03X263500Y490600I991J841D01*
G03X264648Y491290I0J1300D01*
G02X265307Y491361I353J-188D01*
G03X266300Y490900I993J839D01*
G03X267199Y491261I0J1300D01*
G02X267811Y491190I277J-289D01*
G03X268900Y490600I1089J710D01*
G03X270200Y491900I0J1300D01*
G03X269562Y493019I-1300J0D01*
G02X269492Y493654I204J344D01*
G03X269554Y493717I-892J946D01*
G02X269834Y493730I147J-136D01*
G03X270700Y493400I866J970D01*
G03X272000Y494700I0J1300D01*
G03X271691Y495541I-1300J0D01*
G02Y496059I305J259D01*
G03X272000Y496900I-991J841D01*
G03X270700Y498200I-1300J0D01*
G03X269833Y497869I0J-1300D01*
G02X269567I-133J149D01*
G03X268700Y498200I-867J-969D01*
G03X267782Y497821I0J-1300D01*
G02X267218I-282J283D01*
G03X266300Y498200I-918J-921D01*
G03X265229Y497637I0J-1300D01*
G02X264571I-329J227D01*
G03X263997Y498101I-1071J-737D01*
G02X263868Y498753I153J370D01*
G01X267805Y502691D01*
G02X268373Y502688I283J-283D01*
G03X269300Y502300I927J912D01*
G03X270600Y503600I0J1300D01*
G03X269560Y504874I-1300J0D01*
G01X269400Y504906D01*
Y519614D01*
X267514Y521500D01*
X259997D01*
G02X259598Y521876I0J400D01*
G03X257002I-1298J-76D01*
G02X256603Y521500I-399J24D01*
G01X252773D01*
X252726Y521633D01*
G03X252377Y522160I-1226J-433D01*
G02X252374Y522748I270J295D01*
G03X252789Y523700I-885J952D01*
G03X250189I-1300J0D01*
G03X250612Y522740I1300J0D01*
G02X250615Y522152I-270J-295D01*
G03X250274Y521633I885J-952D01*
G01X250227Y521500D01*
X249873D01*
X249826Y521633D01*
G03X249332Y522274I-1226J-433D01*
G02X249252Y522862I225J331D01*
G03X249557Y523700I-994J838D01*
G03X246957I-1300J0D01*
G03X247525Y522626I1300J0D01*
G02X247606Y522038I-225J-331D01*
G03X247374Y521633I994J-838D01*
G01X247327Y521500D01*
X246086D01*
X243788Y519202D01*
X243710Y519199D01*
G03X242461Y517951I51J-1299D01*
G01X242458Y517873D01*
X240500Y515914D01*
Y509425D01*
G03Y507375I800J-1025D01*
G01Y477804D01*
G02X239818Y477521I-400J0D01*
G03X238900Y477900I-918J-921D01*
G03Y475300I0J-1300D01*
G03X239818Y475679I0J1300D01*
G02X240500Y475396I282J-283D01*
G01Y440886D01*
X241831Y439554D01*
G02X241749Y438925I-283J-283D01*
G03X241100Y437800I651J-1125D01*
G03X242400Y436500I1300J0D01*
G03X243525Y437149I0J1300D01*
G02X244154Y437231I346J-200D01*
G01X266386Y415000D01*
X285099D01*
X285133Y414987D01*
G03X285600Y414900I467J1213D01*
G03X286067Y414987I0J1300D01*
G01X286101Y415000D01*
X289727D01*
G02X290120Y414529I0J-400D01*
G03X290100Y414300I1280J-229D01*
G03X292700I1300J0D01*
G03X292680Y414529I-1300J0D01*
G02X293073Y415000I394J71D01*
G01X353899D01*
X353933Y414987D01*
G03X354400Y414900I467J1213D01*
G03X354867Y414987I0J1300D01*
G01X354901Y415000D01*
X365520D01*
G02X365803Y414317I0J-400D01*
G01X360000Y408514D01*
Y384697D01*
G02X359576Y384298I-400J0D01*
G03X359500Y384300I-76J-1298D01*
G03Y381700I0J-1300D01*
G03X359576Y381702I0J1300D01*
G02X360000Y381303I24J-399D01*
G01Y380400D01*
X354812D01*
X354788Y380573D01*
G03X353500Y381700I-1288J-173D01*
G03X353339Y381690I0J-1300D01*
G02X352892Y382043I-49J397D01*
G03X351600Y383200I-1292J-143D01*
G03X350300Y381900I0J-1300D01*
G03X350609Y381059I1300J0D01*
G02X350304Y380400I-305J-259D01*
G01X317886D01*
X314100Y376614D01*
Y365955D01*
G02X313676Y365555I-400J0D01*
G03X313600Y365558I-76J-1298D01*
G03Y362957I0J-1300D01*
G03X313676Y362960I0J1300D01*
G02X314100Y362560I24J-399D01*
G01Y362155D01*
G02X313676Y361755I-400J0D01*
G03X313600Y361758I-76J-1298D01*
G03Y359157I0J-1300D01*
G03X313676Y359160I0J1300D01*
G02X314100Y358760I24J-399D01*
G01Y358401D01*
X314087Y358367D01*
G03X314000Y357900I1213J-467D01*
G03X315300Y356600I1300J0D01*
G03X315546Y356623I0J1300D01*
G02X316016Y356294I76J-393D01*
G03X317300Y355200I1284J206D01*
G03X318238Y355600I0J1300D01*
G01X320490D01*
X320503Y355413D01*
G03X323097I1297J87D01*
G01X323110Y355600D01*
X326000D01*
Y355400D01*
G03X328600I1300J0D01*
G01Y355600D01*
X335414D01*
X338214Y358400D01*
X357686D01*
X365603Y350483D01*
G02X365320Y349800I-283J-283D01*
G01X318386D01*
X311623Y343037D01*
G02X310978Y343151I-283J283D01*
G03X309800Y343900I-1178J-551D01*
G03X308500Y342600I0J-1300D01*
G03X309249Y341422I1300J0D01*
G02X309363Y340777I-169J-362D01*
G01X283500Y314914D01*
Y288949D01*
G02X282935Y288585I-400J0D01*
G03X282400Y288700I-535J-1185D01*
G03Y286100I0J-1300D01*
G03X282935Y286215I0J1300D01*
G02X283500Y285851I165J-365D01*
G01Y283197D01*
G02X283124Y282798I-400J0D01*
G03Y280202I76J-1298D01*
G02X283500Y279803I-24J-399D01*
G01Y265638D01*
G03X283338Y265450I900J-938D01*
G02X282703Y265427I-327J231D01*
G03X281753Y265899I-1003J-827D01*
G02X281377Y266374I16J400D01*
G03X281400Y266619I-1277J245D01*
G03X278800I-1300J0D01*
G03X280047Y265320I1300J0D01*
G02X280423Y264845I-16J-400D01*
G03X280400Y264600I1277J-245D01*
G03X281700Y263300I1300J0D01*
G03X282762Y263850I0J1300D01*
G02X283397Y263873I327J-231D01*
G03X283500Y263762I1003J827D01*
G01Y244553D01*
G03Y242247I600J-1153D01*
G01Y241586D01*
X303203Y221883D01*
G02X302920Y221200I-283J-283D01*
G01X242500D01*
X241800Y221900D01*
Y236212D01*
G02X242247Y236609I400J0D01*
G03X242400Y236600I153J1291D01*
G03Y239200I0J1300D01*
G03X242247Y239191I0J-1300D01*
G02X241800Y239588I-47J397D01*
G01Y252500D01*
X239683Y254617D01*
G02X239966Y255300I283J283D01*
G01X251214D01*
X252800Y256886D01*
Y277751D01*
G02X253365Y278115I400J0D01*
G03X253900Y278000I535J1185D01*
G03Y280600I0J1300D01*
G03X253365Y280485I0J-1300D01*
G02X252800Y280849I-165J365D01*
G01Y342214D01*
X241548Y353466D01*
X241533Y353511D01*
G03X240300Y354400I-1233J-411D01*
G03X239362Y354000I0J-1300D01*
G01X227786D01*
X225100Y351314D01*
Y333895D01*
G03Y331705I700J-1095D01*
G01Y320652D01*
G02X224606Y320264I-400J0D01*
G03X224300Y320300I-306J-1264D01*
G03X223000Y319000I0J-1300D01*
G03X223465Y318004I1300J0D01*
G02X223458Y317385I-257J-307D01*
G03X222969Y316369I811J-1016D01*
G03X224269Y315069I1300J0D01*
G03X224599Y315111I0J1300D01*
G02X225100Y314725I101J-387D01*
G01Y307786D01*
X226679Y306207D01*
G02X226515Y305542I-283J-283D01*
G03X225600Y304300I385J-1242D01*
G03X226900Y303000I1300J0D01*
G03X228142Y303915I0J1300D01*
G02X228807Y304079I382J-119D01*
G01X232700Y300186D01*
Y282701D01*
G02X232300Y282301I-400J0D01*
G01X232299D01*
G03X230999Y281001I0J-1300D01*
G03X231083Y280541I1300J0D01*
G02X230709Y280000I-374J-141D01*
G01X184196D01*
G02X183891Y280659I0J400D01*
G03X184200Y281500I-991J841D01*
G03X181600I-1300J0D01*
G03X181909Y280659I1300J0D01*
G02X181604Y280000I-305J-259D01*
G01X166519D01*
G03X162751I-1884J-1689D01*
G01X145541D01*
G02X145277Y280701I0J400D01*
G03X145721Y281679I-856J978D01*
G03X143121I-1300J0D01*
G03X143565Y280701I1300J0D01*
G02X143301Y280000I-263J-301D01*
G01X140800D01*
X137500Y283300D01*
Y289509D01*
G02X138041Y289884I400J0D01*
G03X138500Y289800I459J1216D01*
G03Y292400I0J1300D01*
G03X138041Y292316I0J-1300D01*
G02X137500Y292691I-141J374D01*
G01Y300992D01*
G02X138135Y301315I400J0D01*
G03X138900Y301066I765J1051D01*
G03Y303667I0J1300D01*
G03X138135Y303418I0J-1300D01*
G02X137500Y303741I-235J323D01*
G01Y313800D01*
X143100Y319400D01*
Y327596D01*
G02X143782Y327879I400J0D01*
G03X144700Y327500I918J921D01*
G03X145523Y327794I0J1300D01*
G02X145777I127J-155D01*
G03X146600Y327500I823J1006D01*
G03Y330100I0J1300D01*
G03X145777Y329806I0J-1300D01*
G02X145523I-127J155D01*
G03X144700Y330100I-823J-1006D01*
G03X143782Y329721I0J-1300D01*
G02X143100Y330004I-282J283D01*
G01Y333005D01*
G02X143806Y333262I400J0D01*
G03X144800Y332800I994J838D01*
G03Y335400I0J1300D01*
G03X143806Y334938I0J-1300D01*
G02X143100Y335195I-306J258D01*
G01Y355209D01*
G02X143641Y355584I400J0D01*
G03X144100Y355500I459J1216D01*
G03Y358100I0J1300D01*
G03X143641Y358016I0J-1300D01*
G02X143100Y358391I-141J374D01*
G01Y400400D01*
G02X143688Y400753I400J0D01*
G03X144300Y400600I612J1147D01*
G03Y403200I0J1300D01*
G03X143688Y403047I0J-1300D01*
G02X143100Y403400I-188J353D01*
G01Y408124D01*
G02X143665Y408488I400J0D01*
G03X144006Y408388I535J1185D01*
G02X144335Y407900I-60J-396D01*
G03X144300Y407600I1265J-300D01*
G03X146900I1300J0D01*
G03X145794Y408885I-1300J0D01*
G02X145465Y409373I60J396D01*
G03X145500Y409673I-1265J300D01*
G03X144200Y410973I-1300J0D01*
G03X143665Y410858I0J-1300D01*
G02X143100Y411222I-165J365D01*
G01Y411673D01*
G02X143665Y412038I400J0D01*
G03X144200Y411922I535J1185D01*
G03Y414523I0J1300D01*
G03X143665Y414407I0J-1300D01*
G02X143100Y414772I-165J365D01*
G01Y423262D01*
G02X143514Y423662I400J0D01*
G03X143561Y423661I47J1299D01*
G03Y426261I0J1300D01*
G03X143514Y426260I0J-1300D01*
G02X143100Y426660I-14J400D01*
G01Y473496D01*
G02X143782Y473779I400J0D01*
G03X144700Y473400I918J921D01*
G03Y476000I0J1300D01*
G03X143782Y475621I0J-1300D01*
G02X143100Y475904I-282J283D01*
G01Y478409D01*
G02X143641Y478784I400J0D01*
G03X144100Y478700I459J1216D01*
G03Y481300I0J1300D01*
G03X143641Y481216I0J-1300D01*
G02X143100Y481591I-141J374D01*
G01Y538300D01*
X145600Y540800D01*
X177400D01*
G02X177753Y540212I0J-400D01*
G03X177600Y539600I1147J-612D01*
G03X180200I1300J0D01*
G03X180047Y540212I-1300J0D01*
G02X180400Y540800I353J188D01*
G01X191658D01*
G02X191997Y540188I0J-400D01*
G03X191800Y539500I1103J-688D01*
G03X194400I1300J0D01*
G03X194203Y540188I-1300J0D01*
G02X194542Y540800I339J212D01*
G01X222300D01*
G02X222700Y540400I0J-400D01*
G03X225300I1300J0D01*
G02X225700Y540800I400J0D01*
G01X225992D01*
X226024Y540640D01*
G03X228571I1273J262D01*
G01X228604Y540800D01*
X233196D01*
X233229Y540640D01*
G03X235776I1273J262D01*
G01X235808Y540800D01*
X237807D01*
G03X238500Y540600I693J1100D01*
G03X239149Y540773I0J1300D01*
G01X239195Y540800D01*
X239705D01*
X239751Y540773D01*
G03X240400Y540600I649J1127D01*
G03X241093Y540800I0J1300D01*
G01X257909D01*
G02X258284Y540259I0J-400D01*
G03X258200Y539800I1216J-459D01*
G03X258702Y538774I1300J0D01*
G02X258726Y538162I-246J-316D01*
G03X258300Y537200I874J-962D01*
G03X260900I1300J0D01*
G03X260398Y538226I-1300J0D01*
G02X260374Y538838I246J316D01*
G03X260800Y539800I-874J962D01*
G03X260716Y540259I-1300J0D01*
G02X261091Y540800I374J141D01*
G01X264227D01*
G02X264620Y540329I0J-400D01*
G03X264600Y540100I1280J-229D01*
G03X265221Y538991I1300J0D01*
G02Y538309I-209J-341D01*
G03X264600Y537200I679J-1109D01*
G03X267200I1300J0D01*
G03X266579Y538309I-1300J0D01*
G02Y538991I209J341D01*
G03X267200Y540100I-679J1109D01*
G03X267180Y540329I-1300J0D01*
G02X267573Y540800I394J71D01*
G01X273000D01*
X273678Y541478D01*
G02X274299Y541408I283J-283D01*
G03X275400Y540800I1101J692D01*
G03X276700Y542100I0J1300D01*
G03X276092Y543201I-1300J0D01*
G02X276022Y543822I213J339D01*
G01X276799Y544599D01*
X276833Y544614D01*
G03X277256Y544919I-533J1186D01*
G02X277844I294J-271D01*
G03X278800Y544500I956J881D01*
G03X280100Y545800I0J1300D01*
G03X279625Y546804I-1300J0D01*
G02X279596Y547396I254J309D01*
G01X280478Y548278D01*
G02X281099Y548208I283J-283D01*
G03X282200Y547600I1101J692D01*
G03X283271Y548163I0J1300D01*
G02X283929I329J-227D01*
G03X285000Y547600I1071J737D01*
G03X286148Y548290I0J1300D01*
G02X286807Y548361I353J-188D01*
G37*
G36*
G01X228200Y353000D02*
X238994D01*
X239026Y352840D01*
G03X240300Y351800I1274J260D01*
G03X241183Y352146I0J1300D01*
G01X241324Y352276D01*
X251800Y341800D01*
Y259049D01*
G02X251235Y258685I-400J0D01*
G03X250700Y258800I-535J-1185D01*
G03X249400Y257500I0J-1300D01*
G03X249553Y256888I1300J0D01*
G02X249200Y256300I-353J-188D01*
G01X240600D01*
G02X240247Y256888I0J400D01*
G03X240400Y257500I-1147J612D01*
G03X240377Y257746I-1300J0D01*
G02X240706Y258216I393J76D01*
G03X241800Y259500I-206J1284D01*
G03X239200I-1300J0D01*
G03X239223Y259254I1300J0D01*
G02X238894Y258784I-393J-76D01*
G03X237800Y257500I206J-1284D01*
G03X237800Y257474I1300J0D01*
G02X237117Y257183I-400J-8D01*
G01X233700Y260600D01*
Y300600D01*
X226100Y308200D01*
Y345109D01*
G02X226641Y345484I400J0D01*
G03X227100Y345400I459J1216D01*
G03Y348000I0J1300D01*
G03X226641Y347916I0J-1300D01*
G02X226100Y348291I-141J374D01*
G01Y350900D01*
X228200Y353000D01*
G37*
G36*
G01X287000Y573000D02*
Y568900D01*
X285400Y567300D01*
X270000D01*
X269100Y566400D01*
Y548700D01*
X267900Y547500D01*
X266200D01*
X264700Y549000D01*
Y559000D01*
X260700Y563000D01*
X237000D01*
X235000Y561000D01*
Y548700D01*
X234100Y547800D01*
X232100D01*
X230800Y549100D01*
Y575200D01*
X232600Y577000D01*
X512700D01*
X513400Y576300D01*
Y575000D01*
X512700Y574300D01*
X288300D01*
X287000Y573000D01*
G37*
G36*
G01X286900Y416200D02*
G03X284300I-1300J0D01*
G02X284100Y416000I-200J0D01*
G01X266800D01*
X242982Y439818D01*
G02X243038Y440430I283J283D01*
G03X243600Y441500I-738J1070D01*
G03X242300Y442800I-1300J0D01*
G03X241994Y442764I0J-1300D01*
G02X241500Y443152I-94J389D01*
G01Y495603D01*
G02X241876Y496002I400J0D01*
G03Y498598I-76J1298D01*
G02X241500Y498997I24J399D01*
G01Y507106D01*
X241647Y507147D01*
G03Y509653I-347J1253D01*
G01X241500Y509694D01*
Y515500D01*
X242914Y516914D01*
G03X243760Y516600I847J986D01*
G03X245060Y517900I0J1300D01*
G03X244747Y518747I-1300J0D01*
G01X246500Y520500D01*
X247505D01*
G03X249695I1095J700D01*
G01X250405D01*
G03X252595I1095J700D01*
G01X258294D01*
G03X258300Y520500I7J1300D01*
G03X258306Y520500I-1J1300D01*
G01X267100D01*
X268400Y519200D01*
Y504700D01*
X258800Y495100D01*
Y450500D01*
X274600Y434700D01*
X306787D01*
G03X308295I754J1059D01*
G01X315507D01*
G03X316893I693J1100D01*
G01X351827D01*
G03X353488I831J1000D01*
G01X355425D01*
G03X357087I831J1000D01*
G01X376851D01*
G02X377215Y434135I0J-400D01*
G03X377100Y433600I1185J-535D01*
G03X379700I1300J0D01*
G03X379585Y434135I-1300J0D01*
G02X379949Y434700I365J165D01*
G01X439162D01*
G03X441038I938J900D01*
G01X473300D01*
X474900Y436300D01*
X481700D01*
X482900Y435100D01*
Y418300D01*
X480600Y416000D01*
X425997D01*
G02X425598Y416424I0J400D01*
G03X425600Y416500I-1298J76D01*
G03X423000Y416500I-1300J0D01*
G03X423002Y416424I1300J0D01*
G02X422603Y416000I-399J-24D01*
G01X413475D01*
G03X413189Y416032I-287J-1268D01*
G01X413188D01*
G03X412902Y416000I0J-1300D01*
G01X411975D01*
G02X411651Y416635I0J400D01*
G03X411763Y416819I-1051J765D01*
G02X412372Y416952I358J-179D01*
G03X413189Y416664I816J1012D01*
G03Y419264I0J1300D01*
G03X412025Y418544I0J-1300D01*
G02X411416Y418412I-358J179D01*
G03X410600Y418700I-816J-1012D01*
G03X409300Y417400I0J-1300D01*
G03X409549Y416635I1300J0D01*
G02X409225Y416000I-323J-235D01*
G01X382973D01*
G02X382580Y416471I0J400D01*
G03X382600Y416700I-1280J229D01*
G03X380000Y416700I-1300J0D01*
G03X380020Y416471I1300J0D01*
G02X379627Y416000I-394J-71D01*
G01X355900D01*
G02X355700Y416200I0J200D01*
G03X353100I-1300J0D01*
G02X352900Y416000I-200J0D01*
G01X287100D01*
G02X286900Y416200I0J200D01*
G37*
G36*
G01X349000Y476700D02*
G03Y474100I0J-1300D01*
G02X349400Y473700I0J-400D01*
G01Y466800D01*
X331800Y449200D01*
X276538D01*
G03X274662I-938J-900D01*
G01X262700D01*
X260900Y451000D01*
Y474194D01*
X261060Y474226D01*
G03X262074Y475240I-260J1274D01*
G01X262106Y475400D01*
X267700D01*
X273600Y469500D01*
X294899D01*
X294933Y469487D01*
G03X295400Y469400I467J1213D01*
G03X295867Y469487I0J1300D01*
G01X295901Y469500D01*
X302507D01*
G03X303893I693J1100D01*
G01X311893D01*
X311916Y469494D01*
G03X314872Y469143I2956J12264D01*
G03X317828Y469494I0J12615D01*
G01X317851Y469500D01*
X321400D01*
X337000Y485100D01*
X338656D01*
X338709Y484980D01*
G03X341091I1191J520D01*
G01X341144Y485100D01*
X347800D01*
X349400Y483500D01*
Y477100D01*
G02X349000Y476700I-400J0D01*
G37*
G36*
G01X330825Y348800D02*
X367000D01*
X368300Y347500D01*
Y340800D01*
X368300Y335696D01*
X366604Y334000D01*
X359996D01*
G02X359691Y334659I0J400D01*
G03X360000Y335500I-991J841D01*
G03X357400I-1300J0D01*
G03X357709Y334659I1300J0D01*
G02X357404Y334000I-305J-259D01*
G01X353989D01*
G02X353634Y334583I0J400D01*
G03X353778Y335178I-1156J595D01*
G03X351177I-1300J0D01*
G03X351321Y334583I1300J0D01*
G02X350966Y334000I-356J-183D01*
G01X345672D01*
X340337Y328665D01*
G02X339759Y328678I-283J283D01*
G03X338800Y329100I-959J-878D01*
G03X337500Y327800I0J-1300D01*
G03X337922Y326841I1300J0D01*
G02X337935Y326263I-270J-295D01*
G01X335772Y324100D01*
Y321875D01*
G02X335232Y321500I-400J0D01*
G03X334778Y321582I-454J-1218D01*
G03X333478Y320282I0J-1300D01*
G03X333906Y319318I1300J0D01*
G02X333887Y318709I-268J-297D01*
G03X333400Y317694I813J-1015D01*
G03X333818Y316739I1300J0D01*
G02X333817Y316151I-271J-294D01*
G03X333398Y315194I880J-957D01*
G03X333803Y314251I1300J0D01*
G02X333795Y313662I-275J-290D01*
G03X333363Y312694I868J-968D01*
G03X333687Y311835I1300J0D01*
G02Y311306I-300J-264D01*
G03X333363Y310447I976J-859D01*
G03X334663Y309147I1300J0D01*
G03X335205Y309266I0J1300D01*
G02X335772Y308902I167J-364D01*
G01Y302305D01*
X335769Y302290D01*
G03X335755Y302094I1285J-196D01*
G03X335769Y301898I1300J0D01*
G01X335772Y301883D01*
Y299216D01*
X335636Y299170D01*
G03X335455Y299092I419J-1231D01*
G02X334925Y299245I-185J355D01*
G03X333803Y299889I-1122J-656D01*
G03X332697Y299273I0J-1300D01*
G02X332127Y299157I-340J210D01*
G03X331378Y299394I-749J-1063D01*
G03X330557Y299103I0J-1300D01*
G02X329999Y299156I-252J310D01*
G03X329003Y299620I-995J-836D01*
G03X328789Y299602I0J-1300D01*
G02X328342Y300115I-66J395D01*
G03X328400Y300500I-1242J385D01*
G03X327100Y299200I-1300J0D01*
G03X327314Y299218I0J1300D01*
G02X327761Y298705I66J-395D01*
G03X327703Y298320I1242J-385D01*
G03X328872Y297026I1300J0D01*
G02X329232Y296628I-40J-398D01*
G01Y293550D01*
X331702Y291080D01*
X332650D01*
X332681Y291069D01*
G03X333100Y291000I419J1231D01*
G03X333184Y291003I0J1300D01*
G02X333610Y290622I26J-399D01*
G03X334909Y289380I1299J58D01*
G03X336209Y290680I0J1300D01*
G02X336609Y291080I400J0D01*
G01X338792D01*
X339587Y290285D01*
Y290125D01*
X336724Y287262D01*
G02X336125Y287299I-283J283D01*
G03X335100Y287800I-1025J-799D01*
G03X333800Y286500I0J-1300D01*
G03X334746Y285249I1300J0D01*
G01X334892Y285208D01*
Y283510D01*
X335992Y282410D01*
X337402D01*
X340102Y285110D01*
X341792D01*
X342322Y284580D01*
Y279461D01*
G03X341748Y278383I726J-1078D01*
G03X342042Y277559I1300J0D01*
G02X342015Y277023I-310J-253D01*
G01X340992Y276000D01*
X330372D01*
X329939Y275568D01*
G03X329078Y275894I-862J-973D01*
G03X328214Y275565I0J-1300D01*
G02X327687Y275561I-266J299D01*
G03X326948Y275872I-848J-985D01*
G02X326582Y276286I34J399D01*
G03X326583Y276339I-1299J53D01*
G03X325283Y277639I-1300J0D01*
G03X324384Y277278I0J-1300D01*
G02X323817Y277293I-277J289D01*
G03X322872Y277700I-945J-893D01*
G03Y275100I0J-1300D01*
G03X323770Y275461I0J1300D01*
G02X324338Y275446I277J-289D01*
G03X325174Y275044I945J893D01*
G02X325540Y274629I-34J-399D01*
G03X325539Y274576I1299J-53D01*
G03X325894Y273683I1300J0D01*
G02X325904Y273145I-291J-275D01*
G03X325583Y272289I978J-856D01*
G03X328183I1300J0D01*
G03X327705Y273296I-1300J0D01*
G02X327699Y273601I126J155D01*
G03X327703Y273605I-859J975D01*
G02X328229Y273609I266J-299D01*
G03X328997Y273297I848J985D01*
G02X329372Y272897I-25J-399D01*
G01Y272110D01*
X329924Y271558D01*
X329849Y271426D01*
G03X329683Y270789I1133J-637D01*
G03X329918Y270042I1300J0D01*
G02X329861Y269517I-327J-230D01*
G03X329439Y268559I878J-959D01*
G03X330739Y267259I1300J0D01*
G03X331624Y267606I0J1300D01*
G02X332177Y267598I272J-293D01*
G03X333090Y267223I913J925D01*
G03X334390Y268523I0J1300D01*
G03X334094Y269348I-1300J0D01*
G02X334118Y269882I309J254D01*
G03X334243Y270030I-929J910D01*
G01X336094D01*
G03X337506I706J970D01*
G01X339704D01*
G03X339920Y269846I945J893D01*
G01X339936Y269835D01*
X340116Y269656D01*
X339971Y269511D01*
X339968Y269507D01*
G03X339542Y268545I874J-963D01*
G03X340842Y267245I1300J0D01*
G03X341689Y267559I0J1300D01*
G02X342233Y267539I261J-303D01*
G01X345136Y264636D01*
Y252364D01*
X351918Y245582D01*
G02X351651Y244899I-283J-283D01*
G03X350400Y243600I49J-1299D01*
G03X351700Y242300I1300J0D01*
G03X352999Y243551I0J1300D01*
G02X353682Y243818I400J-15D01*
G01X354322Y243178D01*
Y242986D01*
G02X353870Y242589I-400J0D01*
G03X353700Y242600I-170J-1289D01*
G03Y240000I0J-1300D01*
G03X353870Y240011I0J1300D01*
G02X354322Y239615I52J-397D01*
G01Y236400D01*
X356422Y234300D01*
X391700D01*
X397500Y240100D01*
X471100D01*
X473400Y237800D01*
Y222200D01*
X472400Y221200D01*
X378600D01*
X378300Y221200D01*
X305300Y221200D01*
X284782Y241718D01*
G02X284838Y242330I283J283D01*
G03X285400Y243400I-738J1070D01*
G03X284620Y244591I-1300J0D01*
G01X284500Y244644D01*
Y263394D01*
X284660Y263426D01*
G03X285532Y264061I-260J1274D01*
G02X286215Y264085I348J-197D01*
G03X287300Y263500I1085J715D01*
G03Y266100I0J1300D01*
G03X286168Y265439I0J-1300D01*
G02X285485Y265415I-348J197D01*
G03X284660Y265974I-1085J-715D01*
G01X284500Y266006D01*
Y278648D01*
G02X284994Y279036I400J0D01*
G03X285300Y279000I306J1264D01*
G03X286600Y280300I0J1300D01*
G03X286577Y280541I-1300J0D01*
G02X287024Y281012I393J74D01*
G03X287200Y281000I175J1288D01*
G03X285900Y282300I0J1300D01*
G03X285923Y282059I1300J0D01*
G02X285476Y281588I-393J-74D01*
G03X285300Y281600I-175J-1288D01*
G03X284994Y281564I0J-1300D01*
G02X284500Y281952I-94J389D01*
G01Y291800D01*
G02X285088Y292153I400J0D01*
G03X285700Y292000I612J1147D01*
G03Y294600I0J1300D01*
G03X285088Y294447I0J-1300D01*
G02X284500Y294800I-188J353D01*
G01Y306548D01*
G02X284994Y306936I400J0D01*
G03X285300Y306900I306J1264D01*
G03Y309500I0J1300D01*
G03X284994Y309464I0J-1300D01*
G02X284500Y309852I-94J389D01*
G01Y314500D01*
X318800Y348800D01*
X327575D01*
G02X327957Y348282I0J-400D01*
G03X327900Y347900I1243J-382D01*
G03X330500I1300J0D01*
G03X330443Y348282I-1300J0D01*
G02X330825Y348800I382J118D01*
G37*
G36*
G01X316584Y358106D02*
G03X315300Y359200I-1284J-206D01*
G02X315100Y359400I0J200D01*
G01Y376200D01*
X318300Y379400D01*
X345305D01*
G02X345562Y378694I0J-400D01*
G03X345100Y377700I838J-994D01*
G03X346400Y376400I1300J0D01*
G03X346479Y376402I0J1300D01*
G02X346902Y376026I24J-399D01*
G03X348200Y374800I1298J74D01*
G03X349500Y376100I0J1300D01*
G03X349409Y376577I-1300J0D01*
G02X349715Y377118I372J147D01*
G03X350800Y378400I-215J1282D01*
G03X350716Y378859I-1300J0D01*
G02X351091Y379400I374J141D01*
G01X352669D01*
G03X354331I831J1000D01*
G01X359900D01*
X363100Y376200D01*
X380200D01*
X386500Y369900D01*
Y367707D01*
G03X386500Y367700I1300J-7D01*
G03X386500Y367693I1300J1D01*
G01Y356031D01*
G03Y354369I1000J-831D01*
G01Y353245D01*
G02X386087Y352846I-400J0D01*
G03X386046Y352846I-41J-1299D01*
G03Y350246I0J-1300D01*
G03X386087Y350247I0J1300D01*
G02X386500Y349847I13J-400D01*
G01Y337300D01*
X390100Y333700D01*
X401500D01*
X404700Y330500D01*
X412500D01*
X414400Y332400D01*
X419500D01*
X420300Y331600D01*
Y317800D01*
X419100Y316600D01*
X417207D01*
G03X417200Y316600I-7J-1300D01*
G03X417193Y316600I1J-1300D01*
G01X401300D01*
X395100Y322800D01*
X372100D01*
X370700Y324200D01*
Y325925D01*
G02X371335Y326249I400J0D01*
G03X372100Y326000I765J1051D01*
G03X373400Y327300I0J1300D01*
G03X373110Y328118I-1300J0D01*
G02X373117Y328378I155J126D01*
G03X373452Y329248I-966J870D01*
G03X372152Y330549I-1300J0D01*
G03X371347Y330270I0J-1300D01*
G02X370700Y330584I-247J314D01*
G01Y346800D01*
X358100Y359400D01*
X337800D01*
X335000Y356600D01*
X327801D01*
X327767Y356613D01*
G03X327300Y356700I-467J-1213D01*
G03X326833Y356613I0J-1300D01*
G01X326799Y356600D01*
X322493D01*
G03X321107I-693J-1100D01*
G01X318606D01*
X318574Y356760D01*
G03X317300Y357800I-1274J-260D01*
G03X317054Y357777I0J-1300D01*
G02X316584Y358106I-76J393D01*
G37*
G36*
G01X341873Y288600D02*
X343512D01*
X346792Y285320D01*
Y284550D01*
G02X346382Y284150I-400J0D01*
G03X346350Y284150I-33J-1400D01*
G03X344950Y282750I0J-1400D01*
G03X345266Y281864I1400J0D01*
G02X345237Y281326I-310J-253D01*
G03X344850Y280400I913J-926D01*
G03X346150Y279100I1300J0D01*
G03X346335Y279113I0J1300D01*
G02X346792Y278717I57J-396D01*
G01Y276300D01*
X349357Y273735D01*
X349285Y273603D01*
G03X349125Y272978I1140J-625D01*
G03X350425Y271678I1300J0D01*
G03X351050Y271838I0J1300D01*
G01X351181Y271910D01*
X353343Y269749D01*
X353267Y269616D01*
G03X353098Y268974I1130J-642D01*
G03X354398Y267674I1300J0D01*
G03X355040Y267844I0J1300D01*
G01X355172Y267919D01*
X358223Y264869D01*
G02X358080Y264211I-283J-283D01*
G03X357573Y263867I456J-1217D01*
G02X356976Y263871I-296J269D01*
G03X355999Y264314I-977J-857D01*
G03Y261714I0J-1300D01*
G03X356962Y262141I0J1300D01*
G02X357559Y262137I296J-269D01*
G03X358537Y261694I977J857D01*
G03X359754Y262538I0J1300D01*
G02X360411Y262680I375J-140D01*
G01X370196Y252896D01*
X372496D01*
X372600Y253000D01*
X383933D01*
G03X385319I693J1100D01*
G01X453100D01*
X455400Y255300D01*
X458700D01*
X459600Y254400D01*
Y243500D01*
X457800Y241700D01*
X401552D01*
G02X401164Y242194I0J400D01*
G03X401200Y242500I-1264J306D01*
G03X398600I-1300J0D01*
G03X398636Y242194I1300J0D01*
G02X398248Y241700I-389J-94D01*
G01X396800D01*
X392600Y237500D01*
X392550D01*
X390400Y235350D01*
X365750D01*
X357450Y235350D01*
X356386Y236414D01*
Y236586D01*
X356372Y236600D01*
Y237491D01*
X356535Y237521D01*
G03Y240079I-235J1279D01*
G01X356372Y240109D01*
Y242928D01*
X347336Y251964D01*
Y264436D01*
X344026Y267745D01*
G03X344341Y268594I-985J848D01*
G03X343965Y269508I-1300J0D01*
G02X343947Y270051I284J281D01*
G03X344263Y270900I-984J849D01*
G03X342963Y272200I-1300J0D01*
G03X342087Y271861I0J-1300D01*
G02X341543Y271867I-269J296D01*
G03X340649Y272223I-894J-944D01*
G03X340133Y272116I0J-1300D01*
G01X340095Y272100D01*
X337281D01*
X337245Y272114D01*
G03X336355I-445J-1114D01*
G01X336319Y272100D01*
X331622D01*
X331062Y272660D01*
Y274870D01*
X331392Y275200D01*
X334265D01*
G02X334633Y274642I0J-400D01*
G03X334527Y274127I1194J-515D01*
G03X335827Y272827I1300J0D01*
G03X336760Y273222I0J1300D01*
G02X337288Y273263I287J-278D01*
G03X338072Y273000I784J1037D01*
G03X338958Y273349I0J1300D01*
G02X339475Y273372I273J-293D01*
G03X340272Y273100I796J1028D01*
G03X341188Y273478I0J1300D01*
G02X341721Y273505I282J-284D01*
G03X342537Y273217I816J1012D01*
G03X343837Y274517I0J1300D01*
G03X342794Y275792I-1300J0D01*
G02X342590Y276467I79J392D01*
G01X343215Y277092D01*
X343277Y277103D01*
G03X344348Y278383I-229J1280D01*
G03X343612Y279554I-1300J0D01*
G01Y285550D01*
X343062Y286100D01*
X339642D01*
X336972Y283430D01*
X336602D01*
X335982Y284050D01*
Y284940D01*
X338859Y287817D01*
G02X339477Y287753I283J-283D01*
G03X340566Y287163I1089J710D01*
G03X341865Y288408I0J1300D01*
G01X341873Y288600D01*
G37*
G36*
G01X330902Y296600D02*
X337940D01*
X338340Y296200D01*
X341212D01*
X341732Y295680D01*
X341655Y295547D01*
G03X341483Y294900I1127J-647D01*
G03X342201Y293737I1300J0D01*
G01X342312Y293682D01*
Y293240D01*
X341232Y292160D01*
X340223D01*
X339328Y293055D01*
G03X339252Y293122I-566J-566D01*
G01X339242Y293130D01*
X338992Y293380D01*
X337829D01*
G03X335936I-947J-891D01*
G01X335576D01*
G02X335406Y293685I0J200D01*
G03X335600Y294369I-1106J683D01*
G03X333000I-1300J0D01*
G03X333042Y294041I1300J0D01*
G02X332759Y293555I-387J-101D01*
G03X332376Y293380I341J-1255D01*
G01X330533D01*
X330032Y293881D01*
Y295730D01*
X330902Y296600D01*
G37*
G36*
G01X355800Y322300D02*
G02X355600Y322500I0J200D01*
G03X353000I-1300J0D01*
G03X354230Y321202I1300J0D01*
G01X354307Y321198D01*
X354502Y321002D01*
X354066Y320566D01*
X353966Y320580D01*
G03X353778Y320594I-189J-1286D01*
G03X352478Y319294I0J-1300D01*
G03X352491Y319105I1300J0D01*
G01X352506Y319006D01*
X352286Y318786D01*
Y313762D01*
X352158Y313713D01*
G03X351326Y312500I468J-1213D01*
G03X351767Y311524I1300J0D01*
G02Y310923I-264J-300D01*
G03X351326Y309946I858J-977D01*
G03X352158Y308733I1300J0D01*
G01X352286Y308684D01*
Y305848D01*
G02X351660Y305518I-400J0D01*
G03X350928Y305744I-733J-1074D01*
G03X349628Y304444I0J-1300D01*
G03X349819Y303765I1300J0D01*
G02X349716Y303234I-341J-209D01*
G03X349189Y302189I773J-1045D01*
G03X349483Y301366I1300J0D01*
G02X349469Y301098I-155J-127D01*
G01X348925Y300553D01*
G02X348248Y300766I-283J283D01*
G03X346968Y301841I-1280J-226D01*
G03X345668Y300541I0J-1300D01*
G03X346063Y299607I1300J0D01*
G02X346051Y299308I-139J-144D01*
G03X345943Y299210I821J-1008D01*
G02X345631Y299242I-143J140D01*
G03X344535Y299844I-1096J-698D01*
G03X343235Y298544I0J-1300D01*
G03X343573Y297669I1300J0D01*
G02X343277Y297000I-296J-269D01*
G01X338672D01*
X337270Y298401D01*
X337255Y298438D01*
G03X336772Y299023I-1200J-499D01*
G01Y300398D01*
G02X337144Y300797I400J0D01*
G03Y303391I-90J1297D01*
G02X336772Y303790I28J399D01*
G01Y323686D01*
X345636Y332550D01*
X367219D01*
X368442Y331327D01*
Y324142D01*
X366600Y322300D01*
X355800D01*
G37*
G36*
G01X357440Y320980D02*
X389825D01*
X389831Y320836D01*
G03X391130Y319590I1299J54D01*
G03X392096Y320020I0J1300D01*
G02X392549Y320010I223J-201D01*
G03X393550Y319540I1001J830D01*
G03X394334Y319803I0J1300D01*
G01X394438Y319882D01*
X398832Y315488D01*
G02X398575Y314979I-212J-212D01*
G03X398378Y314994I-197J-1285D01*
G03X399678Y313694I0J-1300D01*
G03X399663Y313891I-1300J0D01*
G02X400171Y314149I297J45D01*
G01X401520Y312800D01*
X407544D01*
X407562Y312671D01*
G03X410138I1288J179D01*
G01X410156Y312800D01*
X412624D01*
X412642Y312671D01*
G03X415218I1288J179D01*
G01X415236Y312800D01*
X415690D01*
Y312620D01*
X415678Y312593D01*
G03X415581Y312100I1203J-493D01*
G03X418181I1300J0D01*
G03X418140Y312425I-1300J0D01*
G02X418431Y312800I290J75D01*
G01X422313D01*
G02X422610Y312462I0J-300D01*
G03X422600Y312300I1290J-163D01*
G03X425200I1300J0D01*
G03X425190Y312462I-1300J0D01*
G02X425487Y312800I298J37D01*
G01X434296D01*
G02X434556Y312350I0J-300D01*
G03X434381Y311700I1126J-650D01*
G03X436981I1300J0D01*
G03X436807Y312350I-1300J0D01*
G02X437067Y312800I260J150D01*
G01X444921D01*
G02X445217Y312452I0J-300D01*
G03X445200Y312244I1283J-208D01*
G03X447800I1300J0D01*
G03X447783Y312452I-1300J0D01*
G02X448079Y312800I296J48D01*
G01X457000D01*
X468100Y301700D01*
X485400D01*
X486300Y300800D01*
Y287014D01*
G02X485805Y286786I-300J0D01*
G03X484957Y287100I-847J-986D01*
G03Y284500I0J-1300D01*
G03X485805Y284814I0J1300D01*
G02X486300Y284586I195J-228D01*
G01Y282500D01*
X484600Y280800D01*
X471970D01*
X471936Y280903D01*
G03X469464I-1236J-403D01*
G01X469430Y280800D01*
X455780D01*
X452051Y277071D01*
Y275603D01*
X451926Y275582D01*
G03Y273018I217J-1282D01*
G01X452051Y272997D01*
Y268891D01*
G03Y266709I706J-1091D01*
G01Y262023D01*
G02X451527Y261823I-300J0D01*
G03X450557Y262258I-970J-866D01*
G03Y259657I0J-1300D01*
G03X451527Y260091I0J1300D01*
G02X452051Y259892I224J-200D01*
G01Y257353D01*
X451681Y256983D01*
X451576Y257068D01*
G03X450757Y257358I-818J-1010D01*
G03X449457Y256057I0J-1300D01*
G03X449494Y255751I1300J0D01*
G02X449203Y255380I-292J-71D01*
G01X384854D01*
X384842Y255382D01*
G03X384626Y255400I-215J-1282D01*
G03X384411Y255382I0J-1300D01*
G01X384399Y255380D01*
X371990D01*
X371989Y255381D01*
X371891D01*
X362811Y264461D01*
G02X362828Y264901I212J212D01*
G03X362917Y264985I-845J988D01*
G02X363348I216J-209D01*
G03X364283Y264589I934J904D01*
G03X365294Y265073I0J1300D01*
G02X365800Y265011I233J-188D01*
G03X366979Y264259I1179J548D01*
G03Y266859I0J1300D01*
G03X365967Y266375I0J-1300D01*
G02X365461Y266437I-233J188D01*
G03X364283Y267189I-1179J-548D01*
G03X363348Y266793I0J-1300D01*
G02X362917I-216J209D01*
G03X361983Y267189I-934J-904D01*
G03X360995Y266734I0J-1300D01*
G02X360555Y266717I-228J195D01*
G01X355755Y271517D01*
X355831Y271620D01*
G03X356083Y272389I-1048J769D01*
G03X354783Y273689I-1300J0D01*
G03X354121Y273508I0J-1300D01*
G02X353717Y273603I-153J258D01*
G03X352628Y274194I-1090J-709D01*
G03X351769Y273870I0J-1300D01*
G02X351355Y273886I-198J225D01*
G03X350425Y274278I-931J-907D01*
G03X350281Y274270I0J-1300D01*
G01X350209Y274262D01*
X349166Y275306D01*
G02X349206Y275764I212J212D01*
G03X349356Y275886I-745J1065D01*
G02X349800Y275853I206J-218D01*
G03X350826Y275351I1026J798D01*
G03Y277951I0J1300D01*
G03X349931Y277594I0J-1300D01*
G02X349488Y277628I-206J218D01*
G03X348610Y278121I-1026J-798D01*
G01X348478Y278136D01*
Y278902D01*
G02X348816Y279200I300J0D01*
G03X348983Y279189I167J1289D01*
G03X350283Y280489I0J1300D01*
G03X349784Y281513I-1300J0D01*
G02X349727Y281926I185J236D01*
G03X349978Y282694I-1049J768D01*
G03X348678Y283994I-1300J0D01*
G03X348169Y283891I0J-1300D01*
G02X347752Y284167I-117J276D01*
G01Y285830D01*
X344752Y288830D01*
Y293768D01*
X349815Y298831D01*
X349908Y298792D01*
G03X350415Y298689I507J1197D01*
G03X351340Y299076I0J1300D01*
G02X351784Y299057I213J-211D01*
G03X352783Y298589I999J832D01*
G03X353965Y299349I0J1300D01*
G02X354359Y299499I273J-125D01*
G03X354883Y299389I524J1190D01*
G03Y301989I0J1300D01*
G03X353700Y301229I0J-1300D01*
G02X353306Y301079I-273J125D01*
G03X352877Y301186I-524J-1190D01*
G02X352687Y301697I22J299D01*
G01X353824Y302834D01*
X353915Y302797D01*
G03X354398Y302704I482J1207D01*
G03Y305304I0J1300D01*
G03X353936Y305220I0J-1300D01*
G02X353530Y305500I-106J280D01*
G01Y309012D01*
G03Y310880I-904J934D01*
G01Y311566D01*
G03X353926Y312500I-904J934D01*
G03X353923Y312585I-1300J0D01*
G02X354199Y312904I299J20D01*
G03X355400Y314200I-99J1296D01*
G03X354607Y315397I-1300J0D01*
G02X354549Y315917I117J276D01*
G03X355089Y316971I-760J1055D01*
G03X354735Y317863I-1300J0D01*
G02X354741Y318281I218J206D01*
G01X357440Y320980D01*
G37*
G36*
G01X423468Y414100D02*
X425800D01*
X427900Y412000D01*
Y376001D01*
X427887Y375967D01*
G03X427800Y375500I1213J-467D01*
G03X427887Y375033I1300J0D01*
G01X427900Y374999D01*
Y365000D01*
X430318Y362582D01*
G02X430262Y361970I-283J-283D01*
G03X429700Y360900I738J-1070D01*
G03X431000Y359600I1300J0D01*
G03X432095Y360200I0J1300D01*
G01X497262D01*
G03X497463Y360029I938J900D01*
G02Y359371I-227J-329D01*
G03X496900Y358300I737J-1071D01*
G03X499500I1300J0D01*
G03X498937Y359371I-1300J0D01*
G02Y360029I227J329D01*
G03X499138Y360200I-737J1071D01*
G01X515900D01*
X518400Y357700D01*
Y357387D01*
X518350Y357330D01*
G03X517103Y354050I3694J-3281D01*
G03X518300Y350826I4940J0D01*
G01Y348435D01*
G03Y339664I2275J-4385D01*
G01Y337840D01*
G03X516528Y334050I3168J-3790D01*
G03X518300Y330259I4940J0D01*
G01Y326553D01*
G03Y321546I4259J-2503D01*
G01Y317652D01*
G03Y310448I3381J-3602D01*
G01Y308378D01*
G03Y299721I2381J-4329D01*
G01Y298378D01*
G03Y289721I2381J-4329D01*
G01Y288618D01*
G03Y279482I1881J-4568D01*
G01Y278793D01*
G03Y269307I1381J-4743D01*
G01Y268618D01*
G03Y259482I1881J-4568D01*
G01Y258378D01*
G03X515741Y254050I2381J-4329D01*
G03X517181Y250563I4940J0D01*
G01X517322Y250422D01*
X512300Y245400D01*
X509895D01*
G02X509638Y246106I0J400D01*
G03X510100Y247100I-838J994D01*
G03X507500I-1300J0D01*
G03X507962Y246106I1300J0D01*
G02X507705Y245400I-258J-306D01*
G01X464788D01*
G02X464391Y245847I0J400D01*
G03X464400Y246000I-1291J153D01*
G03X463100Y247300I-1300J0D01*
G03X461825Y246254I0J-1300D01*
G02X461150Y246050I-392J78D01*
G01X460900Y246300D01*
Y254800D01*
X454400Y261300D01*
Y277700D01*
X456400Y279700D01*
X469675D01*
G03X471725I1025J800D01*
G01X485200D01*
X487400Y281900D01*
Y301700D01*
X486200Y302900D01*
X469500D01*
X458000Y314400D01*
X423600D01*
X421800Y316200D01*
Y332000D01*
X420300Y333500D01*
X413600D01*
X411600Y331500D01*
X405500D01*
X404965Y332035D01*
X405184Y332254D01*
X405291Y332230D01*
G03X405570Y332200I279J1270D01*
G03Y334800I0J1300D01*
G03X404277Y333642I0J-1300D01*
G02X403597Y333403I-398J44D01*
G01X402200Y334800D01*
X390700D01*
X387900Y337600D01*
Y353956D01*
X388020Y354009D01*
G03X388800Y355200I-520J1191D01*
G03X388534Y355988I-1300J0D01*
G02X388699Y356600I318J242D01*
G03X389500Y357800I-499J1200D01*
G03X388276Y359098I-1300J0D01*
G02X387900Y359497I24J399D01*
G01Y366394D01*
X388060Y366426D01*
G03Y368974I-260J1274D01*
G01X387900Y369006D01*
Y371500D01*
X381800Y377600D01*
X363200D01*
X361000Y379800D01*
Y408100D01*
X367000Y414100D01*
X394600D01*
G02X395000Y413700I0J-400D01*
G03X397600I1300J0D01*
G02X398000Y414100I400J0D01*
G01X399800D01*
G02X400200Y413700I0J-400D01*
G03X402800I1300J0D01*
G02X403200Y414100I400J0D01*
G01X404700D01*
G02X405100Y413700I0J-400D01*
G03X407700I1300J0D01*
G02X408100Y414100I400J0D01*
G01X409494D01*
X409550Y413993D01*
G03X410700Y413300I1150J607D01*
G03X411698Y413767I0J1300D01*
G02X412284Y413798I307J-256D01*
G03X413189Y413432I905J934D01*
G03X414325Y414100I0J1300D01*
G01X420123D01*
G02X420516Y413628I0J-400D01*
G03X420495Y413395I1279J-233D01*
G03X423095I1300J0D01*
G03X423074Y413628I-1300J0D01*
G02X423468Y414100I394J72D01*
G37*
G36*
G01X449200Y569200D02*
X523300D01*
X528500Y564000D01*
Y541000D01*
X527300Y539800D01*
X521600D01*
X520700Y538900D01*
Y537556D01*
X520643Y537498D01*
G03X519241Y534050I3538J-3448D01*
G03X520700Y530544I4940J0D01*
G01Y526375D01*
G03Y521725I4359J-2325D01*
G01Y518067D01*
G03X518635Y514050I2875J-4018D01*
G03X518639Y513831I4940J0D01*
G01X518643Y513743D01*
X513200Y508300D01*
X495028D01*
X495001Y508308D01*
G03X494642Y508358I-359J-1249D01*
G03X494283Y508308I0J-1300D01*
G01X494256Y508300D01*
X448800D01*
X443600Y513500D01*
Y563600D01*
X449200Y569200D01*
G37*
G36*
G01X523381Y249913D02*
G02X524000Y249578I219J-335D01*
G01Y248793D01*
G03Y247407I1100J-693D01*
G01Y241638D01*
G03Y239762I900J-938D01*
G01Y231825D01*
G03Y229775I800J-1025D01*
G01Y226200D01*
X521772Y223972D01*
G02X521094Y224318I-283J283D01*
G03X521150Y225011I-4294J692D01*
G03X512450I-4350J0D01*
G03X513773Y221887I4350J0D01*
G02X513495Y221200I-278J-287D01*
G01X510105D01*
G02X509827Y221887I0J400D01*
G03X511150Y225011I-3027J3123D01*
G03X502450I-4350J0D01*
G03X503773Y221887I4350J0D01*
G02X503495Y221200I-278J-287D01*
G01X474297D01*
G02X474156Y221541I0J200D01*
G01X474400Y221786D01*
Y238214D01*
X471514Y241100D01*
X459580D01*
G02X459297Y241783I0J400D01*
G01X460600Y243086D01*
Y244220D01*
G02X461283Y244503I400J0D01*
G01X461386Y244400D01*
X486012D01*
G02X486409Y243953I0J-400D01*
G03X486400Y243800I1291J-153D01*
G03X489000I1300J0D01*
G03X488991Y243953I-1300J0D01*
G02X489388Y244400I397J47D01*
G01X489575D01*
G02X489957Y243882I0J-400D01*
G03X489900Y243500I1243J-382D01*
G03X492500I1300J0D01*
G03X492443Y243882I-1300J0D01*
G02X492825Y244400I382J118D01*
G01X508627D01*
G02X509020Y243929I0J-400D01*
G03X509000Y243700I1280J-229D01*
G03X511600I1300J0D01*
G03X511580Y243929I-1300J0D01*
G02X511973Y244400I394J71D01*
G01X512714D01*
X518130Y249816D01*
X518263Y249742D01*
G03X520681Y249110I2418J4308D01*
G03X523381Y249913I0J4940D01*
G37*
%LPC*%
G75*
G36*
G01X185528Y283911D02*
G03X185648Y284151I-73J186D01*
G02X185600Y284500I1252J349D01*
G02X188200I1300J0D01*
G02X187372Y283289I-1300J0D01*
G03X187252Y283049I73J-186D01*
G02X187300Y282700I-1252J-349D01*
G02X184700I-1300J0D01*
G02X185528Y283911I1300J0D01*
G37*
G36*
G01X271179Y286904D02*
G03X271108Y287469I-314J247D01*
G02X270600Y288500I792J1031D01*
G02X273200I1300J0D01*
G02X272921Y287696I-1300J0D01*
G03X272992Y287131I314J-247D01*
G02X273500Y286100I-792J-1031D01*
G02X270900I-1300J0D01*
G02X271179Y286904I1300J0D01*
G37*
G36*
G01X206494Y292523D02*
G03Y292777I-155J127D01*
G02X206200Y293600I1006J823D01*
G02X208800I1300J0D01*
G02X208506Y292777I-1300J0D01*
G03Y292523I155J-127D01*
G02X208800Y291700I-1006J-823D01*
G02X206200I-1300J0D01*
G02X206494Y292523I1300J0D01*
G37*
G36*
G01X206333Y309331D02*
G03X206067I-133J-149D01*
G02X205200Y309000I-867J969D01*
G02Y311600I0J1300D01*
G02X206067Y311269I0J-1300D01*
G03X206333I133J149D01*
G02X207200Y311600I867J-969D01*
G02Y309000I0J-1300D01*
G02X206333Y309331I0J1300D01*
G37*
G36*
G01X167662Y330306D02*
G03X167121Y330282I-258J-306D01*
G02X166200Y329900I-921J918D01*
G02Y332500I0J1300D01*
G02X167038Y332194I0J-1300D01*
G03X167579Y332218I258J306D01*
G02X168500Y332600I921J-918D01*
G02Y330000I0J-1300D01*
G02X167662Y330306I0J1300D01*
G37*
G36*
G01X353450Y353020D02*
G03X353685Y353537I-138J375D01*
G02X353600Y354000I1215J463D01*
G02X356200I1300J0D01*
G02X355350Y352780I-1300J0D01*
G03X355115Y352263I138J-375D01*
G02X355200Y351800I-1215J-463D01*
G02X352600I-1300J0D01*
G02X353450Y353020I1300J0D01*
G37*
G36*
G01X357649Y352304D02*
G03X357478Y352845I-354J186D01*
G02X356775Y354000I597J1155D01*
G02X359375I1300J0D01*
G02X359226Y353396I-1300J0D01*
G03X359397Y352855I354J-186D01*
G02X360100Y351700I-597J-1155D01*
G02X357500I-1300J0D01*
G02X357649Y352304I1300J0D01*
G37*
G36*
G01X161940Y382234D02*
G03X162317Y382698I-18J400D01*
G02X162300Y382905I1283J207D01*
G02X164900I1300J0D01*
G02X163660Y381606I-1300J0D01*
G03X163283Y381143I18J-400D01*
G02X163300Y380936I-1283J-207D01*
G02X160700I-1300J0D01*
G02X161940Y382234I1300J0D01*
G37*
G36*
G01X473549Y384745D02*
G03X473008Y385003I-385J-109D01*
G02X472500Y384900I-508J1197D01*
G02Y387500I0J1300D01*
G02X473751Y386555I0J-1300D01*
G03X474292Y386297I385J109D01*
G02X474800Y386400I508J-1197D01*
G02Y383800I0J-1300D01*
G02X473549Y384745I0J1300D01*
G37*
G36*
G01X161942Y390579D02*
G03X161919Y391144I-295J271D01*
G02X161500Y392100I881J956D01*
G02X164100I1300J0D01*
G02X163758Y391221I-1300J0D01*
G03X163781Y390656I295J-271D01*
G02X164200Y389700I-881J-956D01*
G02X161600I-1300J0D01*
G02X161942Y390579I1300J0D01*
G37*
G36*
G01X162069Y396724D02*
G03X162139Y397324I-225J331D01*
G02X161800Y398200I961J876D01*
G02X164400I1300J0D01*
G02X163831Y397125I-1300J0D01*
G03X163761Y396525I225J-331D01*
G02X164100Y395650I-961J-876D01*
G02X161500I-1300J0D01*
G02X162069Y396724I1300J0D01*
G37*
G36*
G01X155342Y396779D02*
G03X155319Y397344I-295J271D01*
G02X154900Y398300I881J956D01*
G02X157500I1300J0D01*
G02X157158Y397421I-1300J0D01*
G03X157181Y396856I295J-271D01*
G02X157600Y395900I-881J-956D01*
G02X155000I-1300J0D01*
G02X155342Y396779I1300J0D01*
G37*
G36*
G01X147300Y413884D02*
G03X146894Y414279I-400J-5D01*
G02X146875Y414278I-19J1300D01*
G02Y416878I0J1300D01*
G02X148175Y415595I0J-1300D01*
G03X148581Y415200I400J5D01*
G02X148600Y415200I19J-1300D01*
G02Y412600I0J-1300D01*
G02X147300Y413884I0J1300D01*
G37*
G36*
G01X250169Y418993D02*
G03X250522Y419464I-40J398D01*
G02X250500Y419700I1278J236D01*
G02X253100I1300J0D01*
G02X251931Y418407I-1300J0D01*
G03X251578Y417936I40J-398D01*
G02X251600Y417700I-1278J-236D01*
G02X249000I-1300J0D01*
G02X250169Y418993I1300J0D01*
G37*
G36*
G01X146075Y420153D02*
G03X146104Y420758I-246J315D01*
G02X145700Y421700I896J942D01*
G02X148300I1300J0D01*
G02X147800Y420675I-1300J0D01*
G03X147771Y420070I246J-315D01*
G02X148175Y419128I-896J-942D01*
G02X145575I-1300J0D01*
G02X146075Y420153I1300J0D01*
G37*
G36*
G01X465823Y442506D02*
G03X466077I127J155D01*
G02X466900Y442800I823J-1006D01*
G02X467723Y442506I0J-1300D01*
G03X467977I127J155D01*
G02X468800Y442800I823J-1006D01*
G02X470100Y441500I0J-1300D01*
G02X469847Y440729I-1300J0D01*
G03X469860Y440476I161J-119D01*
G02X470200Y439600I-960J-876D01*
G02X468900Y438300I-1300J0D01*
G02X468077Y438594I0J1300D01*
G03X467823I-127J-155D01*
G02X467000Y438300I-823J1006D01*
G02X466177Y438594I0J1300D01*
G03X465923I-127J-155D01*
G02X465100Y438300I-823J1006D01*
G02X463800Y439600I0J1300D01*
G02X464053Y440371I1300J0D01*
G03X464040Y440624I-161J119D01*
G02X463700Y441500I960J876D01*
G02X465000Y442800I1300J0D01*
G02X465823Y442506I0J-1300D01*
G37*
G36*
G01X487469Y444467D02*
G03X487727Y444459I134J149D01*
G02X488537Y444742I810J-1017D01*
G02X489312Y444485I0J-1300D01*
G03X489561Y444493I119J161D01*
G02X490400Y444800I839J-993D01*
G02X491700Y443500I0J-1300D01*
G02X491440Y442720I-1300J0D01*
G03X491480Y442440I160J-120D01*
G02X492000Y441400I-780J-1040D01*
G02X490700Y440100I-1300J0D01*
G02X489746Y440517I0J1300D01*
G03X489466Y440530I-147J-136D01*
G02X488600Y440200I-866J970D01*
G02X487690Y440572I0J1300D01*
G03X487410I-140J-143D01*
G02X486500Y440200I-910J928D01*
G02X485200Y441500I0J1300D01*
G02X485577Y442415I1300J0D01*
G03X485590Y442682I-142J141D01*
G02X485300Y443500I1010J818D01*
G02X486600Y444800I1300J0D01*
G02X487469Y444467I0J-1300D01*
G37*
G36*
G01X411831Y450967D02*
G03Y451233I-149J133D01*
G02X411500Y452100I969J867D01*
G02X412800Y453400I1300J0D01*
G02X413667Y453069I0J-1300D01*
G03X413933I133J149D01*
G02X414800Y453400I867J-969D01*
G02X416100Y452100I0J-1300D01*
G02X415769Y451233I-1300J0D01*
G03Y450967I149J-133D01*
G02X416100Y450100I-969J-867D01*
G02X414800Y448800I-1300J0D01*
G02X413933Y449131I0J1300D01*
G03X413667I-133J-149D01*
G02X412800Y448800I-867J969D01*
G02X411500Y450100I0J1300D01*
G02X411831Y450967I1300J0D01*
G37*
G36*
G01X285494Y474823D02*
G03Y475077I-155J127D01*
G02X285200Y475900I1006J823D01*
G02X287800I1300J0D01*
G02X287506Y475077I-1300J0D01*
G03Y474823I155J-127D01*
G02X287800Y474000I-1006J-823D01*
G02X285200I-1300J0D01*
G02X285494Y474823I1300J0D01*
G37*
G36*
G01X151603Y476908D02*
G03X151345Y477449I-368J156D01*
G02X150400Y478700I355J1251D01*
G02X153000I1300J0D01*
G02X152897Y478192I-1300J0D01*
G03X153155Y477651I368J-156D01*
G02X154100Y476400I-355J-1251D01*
G02X151500I-1300J0D01*
G02X151603Y476908I1300J0D01*
G37*
G36*
G01X389023Y484806D02*
G03X389277I127J155D01*
G02X390100Y485100I823J-1006D01*
G02X390923Y484806I0J-1300D01*
G03X391177I127J155D01*
G02X392000Y485100I823J-1006D01*
G02X393300Y483800I0J-1300D01*
G02X393006Y482977I-1300J0D01*
G03Y482723I155J-127D01*
G02X393300Y481900I-1006J-823D01*
G02X393006Y481077I-1300J0D01*
G03Y480823I155J-127D01*
G02X393300Y480000I-1006J-823D01*
G02X393280Y479771I-1300J0D01*
G03X393538Y479324I394J-70D01*
G02X394400Y478100I-438J-1224D01*
G02X393100Y476800I-1300J0D01*
G02X392277Y477094I0J1300D01*
G03X392023I-127J-155D01*
G02X391200Y476800I-823J1006D01*
G02X390377Y477094I0J1300D01*
G03X390123I-127J-155D01*
G02X389300Y476800I-823J1006D01*
G02X388000Y478100I0J1300D01*
G02X388020Y478329I1300J0D01*
G03X387762Y478776I-394J70D01*
G02X386900Y480000I438J1224D01*
G02X387194Y480823I1300J0D01*
G03Y481077I-155J127D01*
G02X386900Y481900I1006J823D01*
G02X387194Y482723I1300J0D01*
G03Y482977I-155J127D01*
G02X386900Y483800I1006J823D01*
G02X388200Y485100I1300J0D01*
G02X389023Y484806I0J-1300D01*
G37*
G36*
G01X379023Y486406D02*
G03X379277I127J155D01*
G02X380100Y486700I823J-1006D01*
G02X380923Y486406I0J-1300D01*
G03X381177I127J155D01*
G02X382000Y486700I823J-1006D01*
G02X383300Y485400I0J-1300D01*
G02X383006Y484577I-1300J0D01*
G03Y484323I155J-127D01*
G02X383300Y483500I-1006J-823D01*
G02X383006Y482677I-1300J0D01*
G03Y482423I155J-127D01*
G02X383300Y481600I-1006J-823D01*
G02X382000Y480300I-1300J0D01*
G02X381837Y480310I0J1300D01*
G03X381390Y479863I-50J-397D01*
G02X381400Y479700I-1290J-163D01*
G02X378800I-1300J0D01*
G02X379094Y480523I1300J0D01*
G03Y480777I-155J127D01*
G02X378800Y481600I1006J823D01*
G02X378810Y481763I1300J0D01*
G03X378363Y482210I-397J50D01*
G02X378200Y482200I-163J1290D01*
G02X377377Y482494I0J1300D01*
G03X377123I-127J-155D01*
G02X376300Y482200I-823J1006D01*
G02X375000Y483500I0J1300D01*
G02X375294Y484323I1300J0D01*
G03Y484577I-155J127D01*
G02X375000Y485400I1006J823D01*
G02X376300Y486700I1300J0D01*
G02X377123Y486406I0J-1300D01*
G03X377377I127J155D01*
G02X378200Y486700I823J-1006D01*
G02X379023Y486406I0J-1300D01*
G37*
G36*
G01X184122Y487836D02*
G03X183769Y488307I-393J73D01*
G02X182600Y489600I131J1293D01*
G02X185200I1300J0D01*
G02X185178Y489364I-1300J0D01*
G03X185531Y488893I393J-73D01*
G02X186700Y487600I-131J-1293D01*
G02X184100I-1300J0D01*
G02X184122Y487836I1300J0D01*
G37*
G36*
G01X285494Y492123D02*
G03Y492377I-155J127D01*
G02X285200Y493200I1006J823D01*
G02X287800I1300J0D01*
G02X287506Y492377I-1300J0D01*
G03Y492123I155J-127D01*
G02X287800Y491300I-1006J-823D01*
G02X285200I-1300J0D01*
G02X285494Y492123I1300J0D01*
G37*
G36*
G01X472936Y496878D02*
G03X473407Y497231I73J393D01*
G02X474700Y498400I1293J-131D01*
G02Y495800I0J-1300D01*
G02X474464Y495822I0J1300D01*
G03X473993Y495469I-73J-393D01*
G02X472700Y494300I-1293J131D01*
G02Y496900I0J1300D01*
G02X472936Y496878I0J-1300D01*
G37*
G36*
G01X281119Y514156D02*
G03Y514744I-271J294D01*
G02X280700Y515700I881J956D01*
G02X283300I1300J0D01*
G02X282881Y514744I-1300J0D01*
G03Y514156I271J-294D01*
G02X283300Y513200I-881J-956D01*
G02X280700I-1300J0D01*
G02X281119Y514156I1300J0D01*
G37*
G36*
G01X276894Y524623D02*
G03Y524877I-155J127D01*
G02X276600Y525700I1006J823D01*
G02X279200I1300J0D01*
G02X278906Y524877I-1300J0D01*
G03Y524623I155J-127D01*
G02X279200Y523800I-1006J-823D01*
G02X276600I-1300J0D01*
G02X276894Y524623I1300J0D01*
G37*
G36*
G01X348144Y525519D02*
G03X347556I-294J-271D01*
G02X346600Y525100I-956J881D01*
G02Y527700I0J1300D01*
G02X347556Y527281I0J-1300D01*
G03X348144I294J271D01*
G02X349100Y527700I956J-881D01*
G02X350254Y526998I0J-1300D01*
G03X350843Y526857I355J184D01*
G02X351600Y527100I757J-1057D01*
G02Y524500I0J-1300D01*
G02X350446Y525202I0J1300D01*
G03X349857Y525343I-355J-184D01*
G02X349100Y525100I-757J1057D01*
G02X348144Y525519I0J1300D01*
G37*
G36*
G01X288037Y544281D02*
G03X287849Y544823I-358J179D01*
G02X287100Y546000I551J1177D01*
G02X289700I1300J0D01*
G02X289563Y545419I-1300J0D01*
G03X289751Y544877I358J-179D01*
G02X290500Y543700I-551J-1177D01*
G02X287900I-1300J0D01*
G02X288037Y544281I1300J0D01*
G37*
G36*
G01X261057Y237080D02*
G02X260900Y237700I1143J620D01*
G02X263500I1300J0D01*
G02X262348Y236408I-1300J0D01*
G03X262043Y235820I46J-397D01*
G02X262200Y235200I-1143J-620D01*
G02X259600I-1300J0D01*
G02X260752Y236492I1300J0D01*
G03X261057Y237080I-46J397D01*
G37*
G36*
G01X270239Y268101D02*
G02X270200Y268100I-39J1299D01*
G02X271500Y269400I0J1300D01*
G02X271384Y268864I-1300J0D01*
G03X271761Y268299I364J-165D01*
G02X271800Y268300I39J-1299D01*
G02X273100Y267000I0J-1300D01*
G02X271867Y265702I-1300J0D01*
G03X271491Y265255I21J-399D01*
G02X271500Y265100I-1291J-155D01*
G02X268900I-1300J0D01*
G02X270133Y266398I1300J0D01*
G03X270509Y266845I-21J399D01*
G02X270500Y267000I1291J155D01*
G02X270616Y267536I1300J0D01*
G03X270239Y268101I-364J165D01*
G37*
G36*
G01X182916Y289606D02*
G02X184200Y290700I1284J-206D01*
G02Y288100I0J-1300D01*
G02X183381Y288391I0J1300D01*
G03X182734Y288144I-252J-311D01*
G02X181450Y287050I-1284J206D01*
G02Y289650I0J1300D01*
G02X182269Y289359I0J-1300D01*
G03X182916Y289606I252J311D01*
G37*
G36*
G01X219444Y364122D02*
G02X218200Y363200I-1244J378D01*
G02Y365800I0J1300D01*
G02X218944Y365566I0J-1300D01*
G03X219556Y365778I229J328D01*
G02X220800Y366700I1244J-378D01*
G02Y364100I0J-1300D01*
G02X220056Y364334I0J1300D01*
G03X219444Y364122I-229J-328D01*
G37*
G36*
G01X440697Y365902D02*
G02X439600Y365300I-1097J698D01*
G02Y367900I0J1300D01*
G02X440644Y367374I0J-1300D01*
G03X441303Y367398I321J238D01*
G02X442400Y368000I1097J-698D01*
G02Y365400I0J-1300D01*
G02X441356Y365926I0J1300D01*
G03X440697Y365902I-321J-238D01*
G37*
G36*
G01X478322Y381296D02*
G02X477300Y380800I-1022J804D01*
G02Y383400I0J1300D01*
G02X478434Y382736I0J-1300D01*
G03X479097Y382685I349J196D01*
G02X480119Y383181I1022J-804D01*
G02Y380581I0J-1300D01*
G02X478985Y381245I0J1300D01*
G03X478322Y381296I-349J-196D01*
G37*
G36*
G01X346759Y384914D02*
G02X346700Y385300I1241J386D01*
G02X349300I1300J0D01*
G02X348094Y384003I-1300J0D01*
G03X347741Y383486I29J-399D01*
G02X347800Y383100I-1241J-386D01*
G02X345200I-1300J0D01*
G02X346406Y384397I1300J0D01*
G03X346759Y384914I-29J399D01*
G37*
G36*
G01X512214Y400207D02*
G02X512200Y400400I1286J193D01*
G02X513500Y399100I1300J0D01*
G02X513180Y399140I0J1300D01*
G03X512686Y398693I-99J-388D01*
G02X512700Y398500I-1286J-193D01*
G02X511400Y399800I-1300J0D01*
G02X511720Y399760I0J-1300D01*
G03X512214Y400207I99J388D01*
G37*
G36*
G01X157618Y402814D02*
G02X158900Y403900I1282J-214D01*
G02Y401300I0J-1300D01*
G02X158260Y401469I0J1300D01*
G03X157668Y401186I-197J-348D01*
G02X156386Y400100I-1282J214D01*
G02Y402700I0J1300D01*
G02X157026Y402531I0J-1300D01*
G03X157618Y402814I197J348D01*
G37*
G36*
G01X212103Y404114D02*
G02X212100Y404200I1297J86D01*
G02X213400Y402900I1300J0D01*
G02X213244Y402909I0J1300D01*
G03X212797Y402486I-48J-397D01*
G02X212800Y402400I-1297J-86D01*
G02X211500Y403700I-1300J0D01*
G02X211656Y403691I0J-1300D01*
G03X212103Y404114I48J397D01*
G37*
G36*
G01X164649Y405145D02*
G02X164600Y405500I1251J355D01*
G02X165900Y404200I1300J0D01*
G02X165545Y404250I0J1300D01*
G03X165050Y403755I-109J-385D01*
G02X165100Y403400I-1251J-355D01*
G02X163800Y404700I-1300J0D01*
G02X164155Y404650I0J-1300D01*
G03X164649Y405145I109J385D01*
G37*
G36*
G01X270598Y408115D02*
G02X270540Y408500I1242J385D01*
G02X273140I1300J0D01*
G02X273056Y408040I-1300J0D01*
G03X273447Y407499I374J-142D01*
G02X273500Y407500I53J-1299D01*
G02X274749Y406559I0J-1300D01*
G03X275255Y406289I384J111D01*
G02X275650Y406350I395J-1239D01*
G02X276950Y405050I0J-1300D01*
G02X276551Y404113I-1300J0D01*
G03X276610Y403489I277J-288D01*
G02X277200Y402400I-710J-1089D01*
G02X274600I-1300J0D01*
G02X274999Y403337I1300J0D01*
G03X274940Y403961I-277J288D01*
G02X274401Y404691I710J1089D01*
G03X273895Y404961I-384J-111D01*
G02X273500Y404900I-395J1239D01*
G02X272200Y406200I0J1300D01*
G02X272284Y406660I1300J0D01*
G03X271893Y407201I-374J142D01*
G02X271840Y407200I-53J1299D01*
G02X271751Y407203I0J1300D01*
G03X271342Y406685I-27J-399D01*
G02X271400Y406300I-1242J-385D01*
G02X268800I-1300J0D01*
G02X268844Y406637I1300J0D01*
G03X268454Y407140I-386J104D01*
G02X268440Y407140I-13J1300D01*
G02X269740Y408440I0J1300D01*
G02X269696Y408103I-1300J0D01*
G03X270086Y407600I386J-104D01*
G02X270100Y407600I13J-1300D01*
G02X270189Y407597I0J-1300D01*
G03X270598Y408115I27J399D01*
G37*
G36*
G01X277536Y407207D02*
G02X277400Y407200I-136J1293D01*
G02X278700Y408500I0J1300D01*
G02X278640Y408111I-1300J0D01*
G03X279064Y407593I382J-120D01*
G02X279200Y407600I136J-1293D01*
G02X280309Y406979I0J-1300D01*
G03X280991I341J209D01*
G02X282100Y407600I1109J-679D01*
G02X283400Y406300I0J-1300D01*
G02X282779Y405191I-1300J0D01*
G03Y404509I209J-341D01*
G02X283400Y403400I-679J-1109D01*
G02X280800I-1300J0D01*
G02X281421Y404509I1300J0D01*
G03Y405191I-209J341D01*
G02X280991Y405621I679J1109D01*
G03X280309I-341J-209D01*
G02X279200Y405000I-1109J679D01*
G02X277900Y406300I0J1300D01*
G02X277960Y406689I1300J0D01*
G03X277536Y407207I-382J120D01*
G37*
G36*
G01X160238Y416789D02*
G02X160200Y417100I1262J311D01*
G02X161500Y415800I1300J0D01*
G02X161386Y415805I0J1300D01*
G03X160962Y415311I-35J-398D01*
G02X161000Y415000I-1262J-311D01*
G02X159700Y416300I-1300J0D01*
G02X159814Y416295I0J-1300D01*
G03X160238Y416789I35J398D01*
G37*
G36*
G01X499901Y428961D02*
G02X499900Y429000I1299J39D01*
G02X501200Y427700I1300J0D01*
G02X500664Y427816I0J1300D01*
G03X500099Y427439I-165J-364D01*
G02X500100Y427400I-1299J-39D01*
G02X498800Y428700I-1300J0D01*
G02X499336Y428584I0J-1300D01*
G03X499901Y428961I165J364D01*
G37*
G36*
G01X330444Y438526D02*
G02X329400Y438000I-1044J774D01*
G02Y440600I0J1300D01*
G02X330497Y439998I0J-1300D01*
G03X331156Y439974I337J215D01*
G02X332200Y440500I1044J-774D01*
G02Y437900I0J-1300D01*
G02X331103Y438502I0J1300D01*
G03X330444Y438526I-337J-215D01*
G37*
G36*
G01X371208Y440751D02*
G02X371200Y440900I1291J149D01*
G02X373800I1300J0D01*
G02X373492Y440060I-1300J0D01*
G03X373610Y439448I305J-258D01*
G02X374300Y438300I-610J-1148D01*
G02X373000Y437000I-1300J0D01*
G02X371848Y437697I0J1300D01*
G03X371305Y437864I-354J-185D01*
G02X370690Y437710I-615J1146D01*
G02X369390Y439010I0J1300D01*
G02X369399Y439164I1300J0D01*
G03X368954Y439609I-397J48D01*
G02X368800Y439600I-154J1291D01*
G02X370100Y440900I0J1300D01*
G02X370091Y440746I-1300J0D01*
G03X370536Y440301I397J-48D01*
G02X370690Y440310I154J-1291D01*
G02X370783Y440307I0J-1300D01*
G03X371208Y440751I29J399D01*
G37*
G36*
G01X386332Y442310D02*
G02X385300Y441800I-1032J790D01*
G02Y444400I0J1300D01*
G02X386332Y443890I0J-1300D01*
G03X386968I318J243D01*
G02X388000Y444400I1032J-790D01*
G02Y441800I0J-1300D01*
G02X386968Y442310I0J1300D01*
G03X386332I-318J-243D01*
G37*
G36*
G01X459216Y450062D02*
G02X459100Y450600I1184J538D01*
G02X461700I1300J0D01*
G02X460603Y449316I-1300J0D01*
G03X460301Y448755I62J-395D01*
G02X460418Y448218I-1184J-538D01*
G02X457818I-1300J0D01*
G02X458915Y449502I1300J0D01*
G03X459216Y450062I-62J395D01*
G37*
G36*
G01X159799Y450915D02*
G02X159600Y450900I-199J1285D01*
G02X160900Y452200I0J1300D01*
G02X160778Y451649I-1300J0D01*
G03X161201Y451085I362J-169D01*
G02X161400Y451100I199J-1285D01*
G02X160100Y449800I0J-1300D01*
G02X160222Y450351I1300J0D01*
G03X159799Y450915I-362J169D01*
G37*
G36*
G01X174021Y451291D02*
G02X173400Y452400I679J1109D01*
G02X176000I1300J0D01*
G02X175379Y451291I-1300J0D01*
G03Y450609I209J-341D01*
G02X176000Y449500I-679J-1109D01*
G02X173400I-1300J0D01*
G02X174021Y450609I1300J0D01*
G03Y451291I-209J341D01*
G37*
G36*
G01X389957Y456999D02*
G02X389731Y457731I1074J732D01*
G02X392331I1300J0D01*
G02X391150Y456437I-1300J0D01*
G03X390856Y455813I37J-398D01*
G02X391081Y455081I-1074J-732D01*
G02X388481I-1300J0D01*
G02X389663Y456376I1300J0D01*
G03X389957Y456999I-37J398D01*
G37*
G36*
G01X222642Y457334D02*
G02X222540Y457840I1197J506D01*
G02X223840Y456540I1300J0D01*
G02X223630Y456557I0J1300D01*
G03X223197Y456006I-64J-395D01*
G02X223300Y455500I-1197J-506D01*
G02X222000Y456800I-1300J0D01*
G02X222210Y456783I0J-1300D01*
G03X222642Y457334I64J395D01*
G37*
G36*
G01X173807Y462488D02*
G02X173653Y463100I1147J612D01*
G02X176253I1300J0D01*
G02X174989Y461800I-1300J0D01*
G03X174647Y461212I11J-400D01*
G02X174800Y460600I-1147J-612D01*
G02X172200I-1300J0D01*
G02X173465Y461900I1300J0D01*
G03X173807Y462488I-11J400D01*
G37*
G36*
G01X453547Y468888D02*
G02X452400Y468200I-1147J612D01*
G02Y470800I0J1300D01*
G02X453547Y470112I0J-1300D01*
G03X454253I353J188D01*
G02X455400Y470800I1147J-612D01*
G02Y468200I0J-1300D01*
G02X454253Y468888I0J1300D01*
G03X453547I-353J-188D01*
G37*
G36*
G01X153205Y493182D02*
G02X153200Y493300I1295J118D01*
G02X154500Y494600I1300J0D01*
G02X155799Y493337I0J-1300D01*
G03X156364Y492984I400J12D01*
G02X156900Y493100I536J-1184D01*
G02Y490500I0J-1300D01*
G02X155601Y491763I0J1300D01*
G03X155036Y492116I-400J-12D01*
G02X154500Y492000I-536J1184D01*
G02X153959Y492118I0J1300D01*
G03X153395Y491718I-166J-364D01*
G02X153400Y491600I-1295J-118D01*
G02X152100Y492900I-1300J0D01*
G02X152641Y492782I0J-1300D01*
G03X153205Y493182I166J364D01*
G37*
G36*
G01X454407Y496264D02*
G02X454400Y496400I1293J136D01*
G02X457000I1300J0D01*
G02X456608Y495470I-1300J0D01*
G03X456655Y494858I279J-286D01*
G02X457200Y493800I-755J-1058D01*
G02X455900Y492500I-1300J0D01*
G02X454708Y493282I0J1300D01*
G03X454143Y493470I-367J-159D01*
G02X454061Y493427I-643J1130D01*
G03X453967Y492769I173J-361D01*
G02X454400Y491800I-867J-969D01*
G02X451800I-1300J0D01*
G02X452539Y492973I1300J0D01*
G03X452633Y493631I-173J361D01*
G02X452200Y494600I867J969D01*
G02X453500Y495900I1300J0D01*
G02X453889Y495840I0J-1300D01*
G03X454407Y496264I120J382D01*
G37*
G36*
G01X285212Y497988D02*
G02X285000Y498700I1088J712D01*
G02X287600I1300J0D01*
G02X286547Y497424I-1300J0D01*
G03X286288Y496812I76J-393D01*
G02X286500Y496100I-1088J-712D01*
G02X283900I-1300J0D01*
G02X284953Y497376I1300J0D01*
G03X285212Y497988I-76J393D01*
G37*
G36*
G01X406306Y499738D02*
G02X407300Y500200I994J-838D01*
G02X408447Y499512I0J-1300D01*
G03X409153I353J188D01*
G02X410300Y500200I1147J-612D01*
G02Y497600I0J-1300D01*
G02X409153Y498288I0J1300D01*
G03X408447I-353J-188D01*
G02X407300Y497600I-1147J612D01*
G02X406306Y498062I0J1300D01*
G03X405694I-306J-258D01*
G02X404700Y497600I-994J838D01*
G02Y500200I0J1300D01*
G02X405694Y499738I0J-1300D01*
G03X406306I306J258D01*
G37*
G36*
G01X273015Y504544D02*
G02X272810Y505245I1095J701D01*
G02X275410I1300J0D01*
G02X274815Y504153I-1300J0D01*
G03X274695Y503601I217J-336D01*
G02X274822Y503344I-1095J-701D01*
G03X275516Y503238I376J137D01*
G02X276550Y503750I1034J-788D01*
G02Y501150I0J-1300D01*
G02X275328Y502006I0J1300D01*
G03X274634Y502112I-376J-137D01*
G02X273600Y501600I-1034J788D01*
G02X272300Y502900I0J1300D01*
G02X272895Y503992I1300J0D01*
G03X273015Y504544I-217J336D01*
G37*
G36*
G01X414338Y506681D02*
G02X413700Y507800I662J1119D01*
G02X416300I1300J0D01*
G02X415892Y506854I-1300J0D01*
G03X415962Y506219I274J-291D01*
G02X416600Y505100I-662J-1119D01*
G02X414000I-1300J0D01*
G02X414408Y506046I1300J0D01*
G03X414338Y506681I-274J291D01*
G37*
G36*
G01X403437Y509027D02*
G02X403100Y509900I963J873D01*
G02X405700I1300J0D01*
G02X404751Y508648I-1300J0D01*
G03X404563Y507995I108J-385D01*
G02X404900Y507122I-963J-873D01*
G02X402300I-1300J0D01*
G02X403249Y508373I1300J0D01*
G03X403437Y509027I-108J385D01*
G37*
G36*
G01X278269Y511243D02*
G02X277300Y512500I331J1257D01*
G02X279900I1300J0D01*
G02X279619Y511693I-1300J0D01*
G03X279831Y511057I313J-248D01*
G02X280800Y509800I-331J-1257D01*
G02X278200I-1300J0D01*
G02X278481Y510607I1300J0D01*
G03X278269Y511243I-313J248D01*
G37*
G36*
G01X389756Y512409D02*
G02X389600Y512400I-156J1291D01*
G02X390900Y513700I0J1300D01*
G02X390897Y513614I-1300J0D01*
G03X391344Y513191I399J-26D01*
G02X391500Y513200I156J-1291D01*
G02X392800Y511900I0J-1300D01*
G02X392250Y510838I-1300J0D01*
G03X392227Y510203I231J-327D01*
G02X392700Y509200I-827J-1003D01*
G02X390100I-1300J0D01*
G02X390650Y510262I1300J0D01*
G03X390673Y510897I-231J327D01*
G02X390200Y511900I827J1003D01*
G02X390203Y511986I1300J0D01*
G03X389756Y512409I-399J26D01*
G37*
G36*
G01X406900Y515036D02*
G02X406891Y515191I1291J155D01*
G02X409491I1300J0D01*
G02X409488Y515111I-1300J0D01*
G03X409938Y514690I399J-25D01*
G02X410100Y514700I162J-1290D01*
G02X408800Y513400I0J-1300D01*
G02X408802Y513480I1300J0D01*
G03X408353Y513901I-399J25D01*
G02X408191Y513891I-162J1290D01*
G02X408036Y513900I0J1300D01*
G03X407591Y513455I-48J-397D01*
G02X407600Y513300I-1291J-155D01*
G02X406300Y514600I-1300J0D01*
G02X406455Y514591I0J-1300D01*
G03X406900Y515036I48J397D01*
G37*
G36*
G01X329712Y518332D02*
G02X328700Y519600I288J1268D01*
G02X331300I1300J0D01*
G02X331129Y518956I-1300J0D01*
G03X331388Y518368I347J-198D01*
G02X332400Y517100I-288J-1268D01*
G02X329800I-1300J0D01*
G02X329971Y517744I1300J0D01*
G03X329712Y518332I-347J198D01*
G37*
G36*
G01X409402Y521403D02*
G02X408800Y522500I698J1097D01*
G02X411400I1300J0D01*
G02X410874Y521456I-1300J0D01*
G03X410898Y520797I238J-321D01*
G02X411500Y519700I-698J-1097D01*
G02X408900I-1300J0D01*
G02X409426Y520744I1300J0D01*
G03X409402Y521403I-238J321D01*
G37*
G36*
G01X200154Y537686D02*
G02X200000Y538300I1146J614D01*
G02X201300Y537000I1300J0D01*
G02X201222Y537002I0J1300D01*
G03X200846Y536414I-24J-399D01*
G02X201000Y535800I-1146J-614D01*
G02X199700Y537100I-1300J0D01*
G02X199778Y537098I0J-1300D01*
G03X200154Y537686I24J399D01*
G37*
G36*
G01X404522Y544584D02*
G02X404321Y545279I1099J695D01*
G02X406921I1300J0D01*
G02X405862Y544002I-1300J0D01*
G03X405599Y543395I74J-393D01*
G02X405800Y542700I-1099J-695D01*
G02X403200I-1300J0D01*
G02X404258Y543977I1300J0D01*
G03X404522Y544584I-74J393D01*
G37*
G36*
G01X231440Y317176D02*
G03X231453Y317429I-148J135D01*
G02X231200Y318200I1047J771D01*
G02X233800I1300J0D01*
G02X233460Y317324I-1300J0D01*
G03X233447Y317071I148J-135D01*
G02X233700Y316300I-1047J-771D01*
G02X231100I-1300J0D01*
G02X231440Y317176I1300J0D01*
G37*
G36*
G01X241479Y345818D02*
G03Y346382I-283J282D01*
G02X241100Y347300I921J918D01*
G02X243700I1300J0D01*
G02X243321Y346382I-1300J0D01*
G03Y345818I283J-282D01*
G02X243700Y344900I-921J-918D01*
G02X241100I-1300J0D01*
G02X241479Y345818I1300J0D01*
G37*
G36*
G01X242523Y298800D02*
G02X242500Y298800I-23J1300D01*
G02X243800Y300100I0J1300D01*
G02X243777Y299854I-1300J0D01*
G03X244177Y299379I393J-76D01*
G02X244200Y299379I23J-1300D01*
G02X242900Y298079I0J-1300D01*
G02X242923Y298325I1300J0D01*
G03X242523Y298800I-393J76D01*
G37*
G36*
G01X248563Y503529D02*
G02X248000Y504600I737J1071D01*
G02X250600I1300J0D01*
G02X250037Y503529I-1300J0D01*
G03Y502871I227J-329D01*
G02X250600Y501800I-737J-1071D01*
G02X248000I-1300J0D01*
G02X248563Y502871I1300J0D01*
G03Y503529I-227J329D01*
G37*
G36*
G01X245067Y474857D02*
G02X244000Y474300I-1067J743D01*
G02Y476900I0J1300D01*
G02X245100Y476292I0J-1300D01*
G03X245767Y476277I339J213D01*
G02X246834Y476834I1067J-743D01*
G02Y474233I0J-1300D01*
G02X245733Y474841I0J1300D01*
G03X245067Y474857I-339J-213D01*
G37*
G36*
G01X342354Y428683D02*
G03X342942Y428685I293J272D01*
G02X343900Y429106I958J-879D01*
G02Y426506I0J-1300D01*
G02X342946Y426923I0J1300D01*
G03X342358Y426921I-293J-272D01*
G02X342190Y426768I-958J879D01*
G03Y426132I243J-318D01*
G02X342532Y425739I-790J-1032D01*
G03X343121Y425615I348J197D01*
G02X343900Y425875I779J-1040D01*
G02Y423275I0J-1300D01*
G02X342768Y423936I0J1300D01*
G03X342179Y424060I-348J-197D01*
G02X341400Y423800I-779J1040D01*
G02X340100Y425100I0J1300D01*
G02X340610Y426132I1300J0D01*
G03Y426768I-243J318D01*
G02X340100Y427800I790J1032D01*
G02X341400Y429100I1300J0D01*
G02X342354Y428683I0J-1300D01*
G37*
G36*
G01X258626Y505298D02*
G03X259002Y505721I-23J399D01*
G02X259000Y505800I1298J79D01*
G02X261600I1300J0D01*
G02X260374Y504502I-1300J0D01*
G03X259998Y504079I23J-399D01*
G02X260000Y504000I-1298J-79D01*
G02X258941Y502723I-1300J0D01*
G03X258635Y502205I74J-393D01*
G02X258700Y501800I-1235J-405D01*
G02X256100I-1300J0D01*
G02X257159Y503077I1300J0D01*
G03X257465Y503595I-74J393D01*
G02X257400Y504000I1235J405D01*
G02X258626Y505298I1300J0D01*
G37*
G36*
G01X452960Y427991D02*
G03X452772Y428462I-381J120D01*
G02X452100Y429600I628J1138D01*
G02X454700I1300J0D01*
G02X454640Y429209I-1300J0D01*
G03X454828Y428738I381J-120D01*
G02X455500Y427600I-628J-1138D01*
G02X452900I-1300J0D01*
G02X452960Y427991I1300J0D01*
G37*
G36*
G01X427606Y425662D02*
G03X426994I-306J-258D01*
G02X426000Y425200I-994J838D01*
G02Y427800I0J1300D01*
G02X426994Y427338I0J-1300D01*
G03X427606I306J258D01*
G02X428600Y427800I994J-838D01*
G02Y425200I0J-1300D01*
G02X427606Y425662I0J1300D01*
G37*
G36*
G01X431277Y421194D02*
G03X431023I-127J-155D01*
G02X430200Y420900I-823J1006D01*
G02Y423500I0J1300D01*
G02X431023Y423206I0J-1300D01*
G03X431277I127J155D01*
G02X432100Y423500I823J-1006D01*
G02Y420900I0J-1300D01*
G02X431277Y421194I0J1300D01*
G37*
G36*
G01X332643Y252857D02*
G03X332502Y253446I-325J233D01*
G02X331800Y254600I598J1154D01*
G02X334400I1300J0D01*
G02X334157Y253843I-1300J0D01*
G03X334298Y253254I325J-233D01*
G02X335000Y252100I-598J-1154D01*
G02X332400I-1300J0D01*
G02X332643Y252857I1300J0D01*
G37*
G36*
G01X314966Y260316D02*
G03X314941Y260833I-317J244D01*
G02X314591Y261721I950J888D01*
G02X317191I1300J0D01*
G02X316921Y260928I-1300J0D01*
G03X316945Y260411I317J-244D01*
G02X317296Y259523I-950J-888D01*
G02X316973Y258666I-1300J0D01*
G03X316992Y258118I301J-264D01*
G02X317378Y257194I-915J-924D01*
G02X316915Y256200I-1300J0D01*
G03Y255588I258J-306D01*
G02X317378Y254594I-838J-994D01*
G02X314778I-1300J0D01*
G02X315240Y255588I1300J0D01*
G03Y256200I-258J306D01*
G02X314778Y257194I838J994D01*
G02X315100Y258051I1300J0D01*
G03X315081Y258599I-301J264D01*
G02X314696Y259523I915J924D01*
G02X314966Y260316I1300J0D01*
G37*
G36*
G01X338029Y260933D02*
G03X337981Y261501I-304J260D01*
G02X337514Y262499I833J998D01*
G02X340114I1300J0D01*
G02X339801Y261654I-1300J0D01*
G03X339849Y261087I304J-260D01*
G02X340317Y260088I-833J-998D01*
G02X337717I-1300J0D01*
G02X338029Y260933I1300J0D01*
G37*
G36*
G01X319239Y261298D02*
G03X319219Y261815I-315J247D01*
G02X318878Y262694I958J879D01*
G02X321478I1300J0D01*
G02X321200Y261891I-1300J0D01*
G03X321220Y261374I315J-247D01*
G02X321562Y260495I-958J-879D01*
G02X318962I-1300J0D01*
G02X319239Y261298I1300J0D01*
G37*
G36*
G01X331720Y261374D02*
G03Y261915I-295J271D01*
G02X331378Y262794I957J879D01*
G02X333978I1300J0D01*
G02X333635Y261915I-1300J0D01*
G03Y261374I295J-271D01*
G02X333978Y260494I-957J-879D01*
G02X333515Y259500I-1300J0D01*
G03Y258888I258J-306D01*
G02X333978Y257894I-838J-994D01*
G02X331378I-1300J0D01*
G02X331840Y258888I1300J0D01*
G03Y259500I-258J306D01*
G02X331378Y260494I838J994D01*
G02X331720Y261374I1300J0D01*
G37*
G36*
G01X325084Y261433D02*
G03X325060Y261974I-306J258D01*
G02X324678Y262895I918J921D01*
G02X327278I1300J0D01*
G02X326972Y262057I-1300J0D01*
G03X326995Y261516I306J-258D01*
G02X327378Y260595I-918J-921D01*
G02X327358Y260369I-1300J0D01*
G03X327681Y259906I394J-70D01*
G02X328752Y258626I-229J-1280D01*
G02X328406Y257743I-1300J0D01*
G03X328409Y257196I293J-272D01*
G02X328767Y256300I-942J-895D01*
G02X326167I-1300J0D01*
G02X326513Y257183I1300J0D01*
G03X326509Y257731I-293J272D01*
G02X326152Y258626I942J896D01*
G02X326171Y258852I1300J0D01*
G03X325848Y259315I-394J70D01*
G02X324778Y260595I229J1280D01*
G02X325084Y261433I1300J0D01*
G37*
G36*
G01X321853Y273782D02*
G03X322367Y273850I217J336D01*
G02X323331Y274278I964J-872D01*
G02X324631Y272978I0J-1300D01*
G02X324295Y272107I-1300J0D01*
G03X324284Y271583I297J-268D01*
G02X324584Y270754I-1001J-830D01*
G02X324130Y269766I-1300J0D01*
G03X324048Y269255I260J-304D01*
G02X324237Y268581I-1112J-674D01*
G02X321637I-1300J0D01*
G02X322091Y269568I1300J0D01*
G03X322172Y270079I-260J304D01*
G02X321984Y270754I1112J674D01*
G02X322004Y270982I1300J0D01*
G03X321502Y271438I-394J70D01*
G02X321150Y271389I-352J1251D01*
G02X320387Y271636I0J1300D01*
G03X319856Y271581I-235J-324D01*
G02X318892Y271153I-964J872D01*
G02Y273753I0J1300D01*
G02X319654Y273506I0J-1300D01*
G03X320186Y273561I235J324D01*
G02X321150Y273989I964J-872D01*
G02X321853Y273782I0J-1300D01*
G37*
G36*
G01X319846Y283598D02*
G03X320380Y283562I287J278D01*
G02X321183Y283839I803J-1023D01*
G02X321997Y283552I0J-1300D01*
G03X322544Y283595I251J312D01*
G02X323507Y284021I962J-874D01*
G02X324807Y282721I0J-1300D01*
G02X324380Y281758I-1300J0D01*
G03X324393Y281451I134J-148D01*
G02X324448Y281407I-788J-1034D01*
G03X324750Y281458I130J152D01*
G02X325652Y282081I1121J-658D01*
G03X325984Y282479I-68J394D01*
G02X325984Y282492I1300J12D01*
G02X328584I1300J0D01*
G02X327504Y281210I-1300J0D01*
G03X327172Y280812I68J-394D01*
G02X327172Y280800I-1300J-12D01*
G02X325872Y279500I-1300J0D01*
G02X325165Y279709I0J1300D01*
G03X324632Y279619I-217J-336D01*
G02X323606Y279117I-1026J798D01*
G02X322718Y279467I0J1300D01*
G03X322148Y279443I-273J-292D01*
G02X321184Y279015I-964J872D01*
G02X320262Y279398I0J1300D01*
G03X319745Y279440I-284J-282D01*
G02X318985Y279195I-760J1055D01*
G02X317685Y280495I0J1300D01*
G02X317966Y281303I1300J0D01*
G03X317949Y281820I-313J249D01*
G02X317612Y282694I963J874D01*
G02X318912Y283994I1300J0D01*
G02X319846Y283598I0J-1300D01*
G37*
G36*
G01X304602Y287635D02*
G03X304078Y287701I-300J-264D01*
G02X303350Y287478I-728J1077D01*
G02Y290078I0J1300D01*
G02X304325Y289638I0J-1300D01*
G03X304849Y289571I300J264D01*
G02X305578Y289794I728J-1077D01*
G02X306525Y289384I0J-1300D01*
G03X307092Y289368I292J274D01*
G02X307988Y289725I895J-943D01*
G02X308909Y289342I0J-1300D01*
G03X309476I284J282D01*
G02X310398Y289725I921J-917D01*
G02X311350Y289310I0J-1300D01*
G03X311936I293J272D01*
G02X312888Y289725I952J-885D01*
G02Y287125I0J-1300D01*
G02X311936Y287540I0J1300D01*
G03X311350I-293J-272D01*
G02X310398Y287125I-952J885D01*
G02X309476Y287508I0J1300D01*
G03X308909I-284J-282D01*
G02X307988Y287125I-921J917D01*
G02X307040Y287535I0J1300D01*
G03X306473Y287551I-292J-274D01*
G02X305578Y287194I-895J943D01*
G02X304602Y287635I0J1300D01*
G37*
G36*
G01X321559Y301774D02*
G03X322058Y302179I100J387D01*
G02X322057Y302237I1299J58D01*
G02X324657I1300J0D01*
G02X324377Y301432I-1300J0D01*
G03X324407Y300903I314J-248D01*
G02X324783Y299989I-924J-914D01*
G02X323483Y298689I-1300J0D01*
G02X322406Y299261I0J1300D01*
G03X321877Y299385I-331J-224D01*
G02X321235Y299215I-642J1130D01*
G02X320408Y299511I0J1300D01*
G03X319883Y299497I-254J-309D01*
G02X319003Y299153I-881J956D01*
G02Y301753I0J1300D01*
G02X319829Y301457I0J-1300D01*
G03X320354Y301471I254J309D01*
G02X321235Y301815I881J-956D01*
G02X321559Y301774I0J-1300D01*
G37*
G36*
G01X329922Y302941D02*
G03X329875Y303458I-326J231D01*
G02X329483Y304389I908J931D01*
G02X330783Y305689I1300J0D01*
G02X331700Y305310I0J-1300D01*
G03X332265I282J283D01*
G02X333183Y305689I918J-921D01*
G02X334483Y304389I0J-1300D01*
G02X334123Y303492I-1300J0D01*
G03X334122Y302941I289J-276D01*
G02X334478Y302047I-944J-894D01*
G02X333178Y300747I-1300J0D01*
G02X332274Y301112I0J1300D01*
G03X331758Y301146I-278J-288D01*
G02X330983Y300889I-775J1044D01*
G02X329683Y302189I0J1300D01*
G02X329922Y302941I1300J0D01*
G37*
G36*
G01X309548Y306585D02*
G03X308995Y306573I-270J-295D01*
G02X308078Y306194I-918J921D01*
G02Y308794I0J1300D01*
G02X308956Y308452I0J-1300D01*
G03X309509Y308464I270J295D01*
G02X310427Y308843I918J-921D01*
G02Y306243I0J-1300D01*
G02X309548Y306585I0J1300D01*
G37*
G36*
G01X417623Y227145D02*
G02X416500Y226500I-1123J655D01*
G02Y229100I0J1300D01*
G02X417518Y228608I0J-1300D01*
G03X418177Y228655I313J249D01*
G02X419300Y229300I1123J-655D01*
G02Y226700I0J-1300D01*
G02X418282Y227192I0J1300D01*
G03X417623Y227145I-313J-249D01*
G37*
G36*
G01X335601Y280397D02*
G02X335583Y280615I1282J218D01*
G02X338183I1300J0D01*
G02X338106Y280176I-1300J0D01*
G03X338577Y279653I377J-135D01*
G02X338883Y279689I306J-1264D01*
G02X337583Y278389I0J-1300D01*
G02X337659Y278828I1300J0D01*
G03X337188Y279352I-377J135D01*
G02X336883Y279315I-306J1264D01*
G02X336555Y279357I0J1300D01*
G03X336060Y278903I-101J-387D01*
G02X336079Y278684I-1282J-218D01*
G02X334778Y279985I-1300J0D01*
G02X335106Y279943I0J-1300D01*
G03X335601Y280397I101J387D01*
G37*
G36*
G01X317915Y291920D02*
G02X317583Y292789I967J869D01*
G02X318883Y294089I1300J0D01*
G02X319820Y293690I0J-1300D01*
G03X320349Y293648I288J277D01*
G02X321132Y293910I783J-1038D01*
G02X322247Y293277I0J-1300D01*
G03X322737Y293110I343J205D01*
G02X323215Y293201I477J-1209D01*
G02X323666Y293120I0J-1300D01*
G03X324152Y293298I139J375D01*
G02X325283Y293955I1130J-643D01*
G02X326108Y293659I0J-1300D01*
G03X326626Y293667I254J309D01*
G02X327483Y293989I856J-978D01*
G02X328783Y292689I0J-1300D01*
G02X328474Y291848I-1300J0D01*
G03Y291330I305J-259D01*
G02X328783Y290489I-991J-841D01*
G02X327483Y289189I-1300J0D01*
G02X326664Y289479I0J1300D01*
G03X326146Y289467I-252J-311D01*
G02X325283Y289139I-864J972D01*
G02X323991Y290290I0J1300D01*
G03X323505Y290634I-397J-46D01*
G02X323384Y290612I-290J1267D01*
G03X323036Y290229I52J-397D01*
G02X321737Y288971I-1299J43D01*
G02X320586Y289666I0J1300D01*
G03X319921Y289731I-354J-186D01*
G02X318908Y289246I-1012J816D01*
G02X317608Y290546I0J1300D01*
G02X317921Y291393I1300J0D01*
G03X317915Y291920I-304J260D01*
G37*
G36*
G01X301643Y306664D02*
G02X300572Y306100I-1071J736D01*
G02Y308700I0J1300D01*
G02X301646Y308132I0J-1300D01*
G03X302306Y308131I331J225D01*
G02X303378Y308694I1071J-736D01*
G02Y306094I0J-1300D01*
G02X302303Y306662I0J1300D01*
G03X301643Y306664I-331J-225D01*
G37*
G36*
G01X311832Y311351D02*
G02X311300Y312400I768J1049D01*
G02X313900I1300J0D01*
G02X313492Y311454I-1300J0D01*
G03X313530Y310840I274J-291D01*
G02X314063Y309791I-768J-1049D01*
G02X311463I-1300J0D01*
G02X311871Y310737I1300J0D01*
G03X311832Y311351I-274J291D01*
G37*
G36*
G01X328326Y323338D02*
G02X327900Y324300I874J962D01*
G02X330500I1300J0D01*
G02X329998Y323274I-1300J0D01*
G03X329974Y322662I246J-316D01*
G02X330400Y321700I-874J-962D01*
G02X327800I-1300J0D01*
G02X328302Y322726I1300J0D01*
G03X328326Y323338I-246J316D01*
G37*
G36*
G01X330192Y369182D02*
G02X329700Y370200I808J1018D01*
G02X332300I1300J0D01*
G02X331655Y369077I-1300J0D01*
G03X331608Y368418I202J-345D01*
G02X332100Y367400I-808J-1018D01*
G02X329500I-1300J0D01*
G02X330145Y368523I1300J0D01*
G03X330192Y369182I-202J345D01*
G37*
G36*
G01X362438Y371789D02*
G02X362400Y372100I1262J311D01*
G02X363700Y370800I1300J0D01*
G02X363586Y370805I0J1300D01*
G03X363162Y370311I-35J-398D01*
G02X363200Y370000I-1262J-311D01*
G02X360600I-1300J0D01*
G02X360637Y370306I1300J0D01*
G03X360237Y370800I-389J94D01*
G02X360200Y370800I-37J1299D01*
G02X360086Y370805I0J1300D01*
G03X359662Y370311I-35J-398D01*
G02X359700Y370000I-1262J-311D01*
G02X357100I-1300J0D01*
G02X357138Y370311I1300J0D01*
G03X356714Y370805I-388J96D01*
G02X356600Y370800I-114J1295D01*
G02X356563Y370800I0J1300D01*
G03X356163Y370306I-11J-400D01*
G02X356200Y370000I-1263J-306D01*
G02X354900Y371300I-1300J0D01*
G02X354937Y371300I0J-1300D01*
G03X355337Y371794I11J400D01*
G02X355300Y372100I1263J306D01*
G02X357900I1300J0D01*
G02X357862Y371789I-1300J0D01*
G03X358286Y371295I388J-96D01*
G02X358400Y371300I114J-1295D01*
G02X358514Y371295I0J-1300D01*
G03X358938Y371789I35J398D01*
G02X358900Y372100I1262J311D01*
G02X361500I1300J0D01*
G02X361463Y371794I-1300J0D01*
G03X361863Y371300I389J-94D01*
G02X361900Y371300I37J-1299D01*
G02X362014Y371295I0J-1300D01*
G03X362438Y371789I35J398D01*
G37*
G36*
G01X334418Y371992D02*
G02X333400Y371500I-1018J808D01*
G02Y374100I0J1300D01*
G02X334523Y373455I0J-1300D01*
G03X335182Y373408I345J202D01*
G02X336200Y373900I1018J-808D01*
G02Y371300I0J-1300D01*
G02X335077Y371945I0J1300D01*
G03X334418Y371992I-345J-202D01*
G37*
G36*
G01X367209Y239542D02*
G03X367245Y240118I-259J305D01*
G02X366900Y241000I955J882D01*
G02X369500I1300J0D01*
G02X369041Y240008I-1300J0D01*
G03X369005Y239432I259J-305D01*
G02X369350Y238550I-955J-882D01*
G02X366750I-1300J0D01*
G02X367209Y239542I1300J0D01*
G37*
G36*
G01X345518Y272813D02*
G03X345356Y273023I-200J14D01*
G02X344300Y274300I244J1277D01*
G02X345600Y275600I1300J0D01*
G02X346900Y274304I0J-1300D01*
G03X347077Y274106I200J1D01*
G02X348315Y272715I-162J-1391D01*
G02X345515I-1400J0D01*
G02X345518Y272813I1400J0D01*
G37*
G36*
G01X386881Y243210D02*
G02X387700Y243500I819J-1010D01*
G02X388569Y243167I0J-1300D01*
G03X389181Y243261I267J298D01*
G02X390300Y243900I1119J-661D01*
G02Y241300I0J-1300D01*
G02X389431Y241633I0J1300D01*
G03X388819Y241539I-267J-298D01*
G02X387700Y240900I-1119J661D01*
G02X386607Y241496I0J1300D01*
G03X386019Y241590I-336J-217D01*
G02X385200Y241300I-819J1010D01*
G02Y243900I0J1300D01*
G02X386293Y243304I0J-1300D01*
G03X386881Y243210I336J217D01*
G37*
G36*
G01X350298Y261739D02*
G02X349879Y262695I881J956D01*
G02X352479I1300J0D01*
G02X352059Y261738I-1300J0D01*
G03X352059Y261150I271J-294D01*
G02X352478Y260194I-881J-956D01*
G02X351729Y259017I-1300J0D01*
G03X351657Y258336I170J-362D01*
G02X352172Y257300I-785J-1036D01*
G02X349572I-1300J0D01*
G02X350320Y258477I1300J0D01*
G03X350392Y259158I-170J362D01*
G02X349878Y260194I785J1036D01*
G02X350297Y261151I1300J0D01*
G03X350298Y261739I-271J294D01*
G37*
G36*
G01X339812Y302998D02*
G03X339771Y303515I-324J234D01*
G02X339390Y304434I919J920D01*
G02X340690Y305734I1300J0D01*
G02X341557Y305402I0J-1300D01*
G03X342090Y305401I267J298D01*
G02X342955Y305730I864J-971D01*
G02X344255Y304430I0J-1300D01*
G02X344013Y303676I-1300J0D01*
G03X344057Y303160I326J-232D01*
G02X344442Y302237I-916J-923D01*
G02X343142Y300937I-1300J0D01*
G02X342272Y301271I0J1300D01*
G03X341736I-268J-297D01*
G02X340867Y300937I-870J966D01*
G02X339567Y302237I0J1300D01*
G02X339812Y302998I1300J0D01*
G37*
G36*
G01X339530Y321609D02*
G02X339072Y322600I841J991D01*
G02X341672I1300J0D01*
G02X341289Y321679I-1300J0D01*
G03X341313Y321091I282J-283D01*
G02X341772Y320100I-841J-991D01*
G02X341237Y319049I-1300J0D01*
G03X341231Y318407I235J-323D01*
G02X341744Y317372I-787J-1035D01*
G02X341454Y316553I-1300J0D01*
G03X341509Y315994I311J-252D01*
G02X341978Y314994I-831J-1000D01*
G02X341668Y314152I-1300J0D01*
G03X341690Y313610I305J-259D01*
G02X342073Y312689I-918J-921D01*
G02X341764Y311848I-1300J0D01*
G03Y311330I305J-259D01*
G02X342073Y310489I-991J-841D01*
G02X339473I-1300J0D01*
G02X339781Y311330I1300J0D01*
G03Y311848I-305J259D01*
G02X339473Y312689I991J841D01*
G02X339782Y313531I1300J0D01*
G03X339760Y314073I-305J259D01*
G02X339378Y314994I918J921D01*
G02X339668Y315813I1300J0D01*
G03X339613Y316373I-311J252D01*
G02X339144Y317372I831J1000D01*
G02X339679Y318423I1300J0D01*
G03X339685Y319065I-235J323D01*
G02X339172Y320100I787J1035D01*
G02X339554Y321021I1300J0D01*
G03X339530Y321609I-282J283D01*
G37*
G36*
G01X399708Y266576D02*
G03X399228Y266557I-233J-189D01*
G02X398158Y265995I-1070J738D01*
G02Y268595I0J1300D01*
G02X399167Y268114I0J-1300D01*
G03X399647Y268133I233J189D01*
G02X400718Y268695I1070J-738D01*
G02Y266095I0J-1300D01*
G02X399708Y266576I0J1300D01*
G37*
G36*
G01X427361Y268176D02*
G03X427840I240J180D01*
G02X428880Y268695I1039J-781D01*
G02X429920Y268175I0J-1300D01*
G03X430400I240J180D01*
G02X431440Y268695I1040J-780D01*
G02Y266095I0J-1300D01*
G02X430400Y266615I0J1300D01*
G03X429920I-240J-180D01*
G02X428880Y266095I-1040J780D01*
G02X427840Y266614I0J1300D01*
G03X427361I-240J-180D01*
G02X426322Y266095I-1039J781D01*
G02Y268695I0J1300D01*
G02X427361Y268176I0J-1300D01*
G37*
G36*
G01X363213Y268908D02*
G03X362732Y268922I-246J-172D01*
G02X361712Y268428I-1020J806D01*
G02Y271028I0J1300D01*
G02X362776Y270474I0J-1300D01*
G03X363258Y270460I246J172D01*
G02X364278Y270954I1020J-806D01*
G02Y268354I0J-1300D01*
G02X363213Y268908I0J1300D01*
G37*
G36*
G01X399199Y271326D02*
G03X399678I240J180D01*
G02X400718Y271845I1039J-781D01*
G02X401758Y271325I0J-1300D01*
G03X402238I240J180D01*
G02X403278Y271845I1040J-780D01*
G02Y269245I0J-1300D01*
G02X402238Y269765I0J1300D01*
G03X401758I-240J-180D01*
G02X400718Y269245I-1040J780D01*
G02X399678Y269764I0J1300D01*
G03X399199I-240J-180D01*
G02X398160Y269245I-1039J781D01*
G02X397120Y269765I0J1300D01*
G03X396640I-240J-180D01*
G02X395600Y269245I-1040J780D01*
G02Y271845I0J1300D01*
G02X396640Y271325I0J-1300D01*
G03X397120I240J180D01*
G02X398160Y271845I1040J-780D01*
G02X399199Y271326I0J-1300D01*
G37*
G36*
G01X397122Y272915D02*
G03X396641I-240J-180D01*
G02X395601Y272394I-1041J779D01*
G02Y274994I0J1300D01*
G02X396641Y274473I0J-1300D01*
G03X397122I240J180D01*
G02X398163Y274994I1041J-779D01*
G02Y272394I0J-1300D01*
G02X397122Y272915I0J1300D01*
G37*
G36*
G01X409916Y272917D02*
G03X409435Y272917I-240J-179D01*
G02X408394Y272395I-1041J778D01*
G02Y274995I0J1300D01*
G02X409436Y274473I0J-1300D01*
G03X409916Y274472I240J179D01*
G02X410958Y274994I1041J-778D01*
G02Y272394I0J-1300D01*
G02X409916Y272917I0J1300D01*
G37*
G36*
G01X363270Y274051D02*
G03X362799I-236J-186D01*
G02X361778Y273555I-1021J804D01*
G02Y276155I0J1300D01*
G02X362799Y275659I0J-1300D01*
G03X363270I236J186D01*
G02X364292Y276155I1021J-804D01*
G02Y273555I0J-1300D01*
G02X363270Y274051I0J1300D01*
G37*
G36*
G01X404797Y276059D02*
G03X404319Y276058I-239J-182D01*
G02X403284Y275544I-1036J786D01*
G02Y278144I0J1300D01*
G02X404318Y277631I0J-1300D01*
G03X404796Y277632I239J182D01*
G02X405832Y278146I1036J-786D01*
G02Y275546I0J-1300D01*
G02X404797Y276059I0J1300D01*
G37*
G36*
G01X362333Y278001D02*
G03X361913Y278016I-218J-206D01*
G02X361036Y277675I-877J959D01*
G02Y280275I0J1300D01*
G02X361980Y279869I0J-1300D01*
G03X362400Y279853I218J206D01*
G02X363278Y280194I877J-959D01*
G02Y277594I0J-1300D01*
G02X362333Y278001I0J1300D01*
G37*
G36*
G01X412479Y279215D02*
G03X411998I-240J-180D01*
G02X410958Y278694I-1041J779D01*
G02Y281294I0J1300D01*
G02X411998Y280773I0J-1300D01*
G03X412479I240J180D01*
G02X413520Y281294I1041J-779D01*
G02Y278694I0J-1300D01*
G02X412479Y279215I0J1300D01*
G37*
G36*
G01X391532Y280777D02*
G03X392012I240J180D01*
G02X393052Y281296I1040J-781D01*
G02X394081Y280790I0J-1300D01*
G03X394556I238J183D01*
G02X395586Y281296I1029J-794D01*
G02X396634Y280765I0J-1300D01*
G03X397117Y280765I242J177D01*
G02X398165Y281294I1047J-770D01*
G02Y278694I0J-1300D01*
G02X397116Y279225I0J1300D01*
G03X396633Y279226I-242J-177D01*
G02X395586Y278696I-1047J770D01*
G02X394556Y279202I0J1300D01*
G03X394081I-238J-183D01*
G02X393052Y278696I-1029J794D01*
G02X392012Y279216I0J1300D01*
G03X391532I-240J-180D01*
G02X390493Y278696I-1040J781D01*
G02Y281296I0J1300D01*
G02X391532Y280777I0J-1300D01*
G37*
G36*
G01X362570Y290881D02*
G03X363024Y290867I233J189D01*
G02X363983Y291289I959J-878D01*
G02X364962Y290844I0J-1300D01*
G03X365430Y290864I226J197D01*
G02X366478Y291394I1048J-770D01*
G02Y288794I0J-1300D01*
G02X365498Y289239I0J1300D01*
G03X365030Y289220I-226J-197D01*
G02X363983Y288689I-1048J770D01*
G02X362972Y289172I0J1300D01*
G03X362517Y289186I-233J-189D01*
G02X361559Y288764I-959J878D01*
G02Y291364I0J1300D01*
G02X362570Y290881I0J-1300D01*
G37*
G36*
G01X392001Y291814D02*
G03X391521I-240J-180D01*
G02X390481Y291294I-1040J780D01*
G02Y293894I0J1300D01*
G02X391521Y293374I0J-1300D01*
G03X392001I240J180D01*
G02X393041Y293894I1040J-780D01*
G02Y291294I0J-1300D01*
G02X392001Y291814I0J1300D01*
G37*
G36*
G01X399204Y293380D02*
G03X399681Y293380I239J182D01*
G02X400717Y293894I1035J-786D01*
G02X401760Y293369I0J-1300D01*
G03X402242I241J179D01*
G02X403286Y293894I1044J-775D01*
G02Y291294I0J-1300D01*
G02X402242Y291819I0J1300D01*
G03X401760I-241J-179D01*
G02X400717Y291294I-1044J775D01*
G02X399682Y291806I0J1300D01*
G03X399205Y291806I-239J-182D01*
G02X398170Y291292I-1035J786D01*
G02Y293892I0J1300D01*
G02X399204Y293380I0J-1300D01*
G37*
G36*
G01X409438Y293370D02*
G03X409920Y293370I240J179D01*
G02X410963Y293894I1043J-776D01*
G02X412002Y293375I0J-1300D01*
G03X412482I240J180D01*
G02X413522Y293894I1040J-781D01*
G02Y291294I0J-1300D01*
G02X412482Y291814I0J1300D01*
G03X412002I-240J-180D01*
G02X410963Y291294I-1040J781D01*
G02X409921Y291816I0J1300D01*
G03X409440Y291816I-240J-179D01*
G02X408397Y291292I-1043J776D01*
G02Y293892I0J1300D01*
G02X409438Y293370I0J-1300D01*
G37*
G36*
G01X404799Y294958D02*
G03X404321I-239J-181D01*
G02X403286Y294444I-1036J786D01*
G02Y297044I0J1300D01*
G02X404321Y296530I0J-1300D01*
G03X404799I239J181D01*
G02X405835Y297044I1036J-786D01*
G02Y294444I0J-1300D01*
G02X404799Y294958I0J1300D01*
G37*
G36*
G01X397119Y298113D02*
G03X396640I-240J-180D01*
G02X395601Y297594I-1039J781D01*
G02Y300194I0J1300D01*
G02X396640Y299675I0J-1300D01*
G03X397119I240J180D01*
G02X398159Y300194I1039J-781D01*
G02X399198Y299674I0J-1300D01*
G03X399678Y299674I240J180D01*
G02X400718Y300193I1039J-781D01*
G02Y297593I0J-1300D01*
G02X399678Y298113I0J1300D01*
G03X399198Y298113I-240J-180D01*
G02X398159Y297594I-1039J781D01*
G02X397119Y298113I0J1300D01*
G37*
G36*
G01X362201Y299136D02*
G03X361732Y299114I-225J-198D01*
G02X360678Y298574I-1054J760D01*
G02Y301174I0J1300D01*
G02X361654Y300732I0J-1300D01*
G03X362123Y300754I225J198D01*
G02X363178Y301294I1054J-760D01*
G02X364226Y300763I0J-1300D01*
G03X364695Y300744I242J177D01*
G02X365679Y301194I984J-850D01*
G02Y298594I0J-1300D01*
G02X364630Y299125I0J1300D01*
G03X364161Y299144I-242J-177D01*
G02X363178Y298694I-984J850D01*
G02X362201Y299136I0J1300D01*
G37*
G36*
G01X456417Y299551D02*
G03X456398Y299963I-227J196D01*
G02X456000Y300900I902J937D01*
G02X457300Y302200I1300J0D01*
G02X458100Y301925I0J-1300D01*
G03X458297Y301935I92J118D01*
G02X459200Y302300I903J-935D01*
G02X460500Y301000I0J-1300D01*
G02X460178Y300143I-1300J0D01*
G03X460198Y299926I113J-99D01*
G02X460200Y299925I-797J-1027D01*
G03X460397Y299935I92J118D01*
G02X461300Y300300I903J-935D01*
G02Y297700I0J-1300D01*
G02X460500Y297975I0J1300D01*
G03X460303Y297965I-92J-118D01*
G02X459400Y297600I-903J935D01*
G02X458597Y297878I0J1300D01*
G03X458390Y297857I-93J-118D01*
G02X458341Y297803I-990J843D01*
G03Y297597I109J-103D01*
G02X458700Y296700I-941J-897D01*
G02X456100I-1300J0D01*
G02X456459Y297597I1300J0D01*
G03Y297803I-109J103D01*
G02X456100Y298700I941J897D01*
G02X456417Y299551I1300J0D01*
G37*
G36*
G01X404316Y302823D02*
G03X404796I240J180D01*
G02X405836Y303343I1040J-780D01*
G02X406875Y302824I0J-1300D01*
G03X407355I240J180D01*
G02X408395Y303343I1040J-781D01*
G02Y300743I0J-1300D01*
G02X407355Y301263I0J1300D01*
G03X406875I-240J-180D01*
G02X405836Y300743I-1040J781D01*
G02X404796Y301263I0J1300D01*
G03X404316I-240J-180D01*
G02X403276Y300743I-1040J780D01*
G02X402236Y301263I0J1300D01*
G03X401756I-240J-180D01*
G02X400717Y300743I-1040J781D01*
G02X399677Y301263I0J1300D01*
G03X399197I-240J-180D01*
G02X398158Y300743I-1040J781D01*
G02X397119Y301261I0J1300D01*
G03X396639I-240J-180D01*
G02X395601Y300743I-1039J782D01*
G02Y303343I0J1300D01*
G02X396639Y302825I0J-1300D01*
G03X397119I240J180D01*
G02X398158Y303343I1039J-782D01*
G02X399197Y302824I0J-1300D01*
G03X399677I240J180D01*
G02X400717Y303343I1040J-781D01*
G02X401756Y302824I0J-1300D01*
G03X402236I240J180D01*
G02X403276Y303343I1040J-781D01*
G02X404316Y302823I0J-1300D01*
G37*
G36*
G01X399678Y304413D02*
G03X399198I-240J-180D01*
G02X398159Y303893I-1040J781D01*
G02Y306493I0J1300D01*
G02X399198Y305974I0J-1300D01*
G03X399678I240J180D01*
G02X400718Y306493I1040J-781D01*
G02Y303893I0J-1300D01*
G02X399678Y304413I0J1300D01*
G37*
G36*
G01X357660Y311503D02*
G03X357679Y311954I-188J234D01*
G02X357278Y312894I898J940D01*
G02X359878I1300J0D01*
G02X359391Y311880I-1300J0D01*
G03X359371Y311429I188J-234D01*
G02X359764Y310637I-898J-940D01*
G03X360178Y310394I298J34D01*
G02X360678Y310494I500J-1200D01*
G02Y307894I0J-1300D01*
G02X359386Y309046I0J1300D01*
G03X358973Y309289I-298J-34D01*
G02X358473Y309189I-500J1200D01*
G02X357173Y310489I0J1300D01*
G02X357660Y311503I1300J0D01*
G37*
G36*
G01X367404Y312796D02*
G03X367666Y313190I-22J299D01*
G02X367600Y313600I1234J410D01*
G02X370200I1300J0D01*
G02X368996Y312304I-1300J0D01*
G03X368734Y311910I22J-299D01*
G02X368800Y311500I-1234J-410D01*
G02X366200I-1300J0D01*
G02X367404Y312796I1300J0D01*
G37*
G36*
G01X351570Y281729D02*
G02X350524Y283004I254J1275D01*
G02X353124I1300J0D01*
G02X352693Y282037I-1300J0D01*
G03X352835Y281520I201J-223D01*
G02X353383Y281268I-254J-1275D01*
G03X353794Y281308I185J236D01*
G02X353837Y281355I981J-853D01*
G03X353840Y281767I-217J208D01*
G02X353490Y282655I950J888D01*
G02X356090I1300J0D01*
G02X355728Y281755I-1300J0D01*
G03X355725Y281343I217J-208D01*
G02X356076Y280455I-950J-888D01*
G02X354776Y279155I-1300J0D01*
G02X353974Y279432I0J1300D01*
G03X353562Y279393I-185J-236D01*
G02X352581Y278945I-981J853D01*
G02X351281Y280245I0J1300D01*
G02X351711Y281212I1300J0D01*
G03X351570Y281729I-201J223D01*
G37*
G36*
G01X350788Y290989D02*
G02X350372Y290920I-417J1231D01*
G02X351672Y292220I0J1300D01*
G01Y292217D01*
G03X352068Y291932I300J-1D01*
G02X352485Y292001I417J-1231D01*
G02X351185Y290701I0J-1300D01*
G01Y290704D01*
G03X350788Y290989I-300J1D01*
G37*
G36*
G01X482295Y259912D02*
G03X481754Y260124I-371J-150D01*
G02X481200Y260000I-554J1176D01*
G02Y262600I0J1300D01*
G02X482405Y261788I0J-1300D01*
G03X482946Y261576I371J150D01*
G02X483500Y261700I554J-1176D01*
G02Y259100I0J-1300D01*
G02X482295Y259912I0J1300D01*
G37*
G36*
G01X486751Y340600D02*
G03X487115Y341165I0J400D01*
G02X487000Y341700I1185J535D01*
G02X489600I1300J0D01*
G02X489485Y341165I-1300J0D01*
G03X489849Y340600I365J-165D01*
G01X496214D01*
X499700Y337114D01*
Y327986D01*
X492400Y320686D01*
Y319713D01*
X492407Y319687D01*
G02X492842Y316404I-12180J-3284D01*
G02X490258Y308755I-12615J0D01*
G03X490394Y308156I318J-243D01*
G02X491100Y307000I-594J-1156D01*
G02X489800Y305700I-1300J0D01*
G02X488654Y306386I0J1300D01*
G03X488054Y306510I-353J-189D01*
G02X480227Y303789I-7827J9893D01*
G02X467612Y316404I0J12615D01*
G02X469077Y322304I12615J0D01*
G01X469100Y322348D01*
Y322886D01*
X467186Y324800D01*
X463406D01*
X463350Y324693D01*
G02X461050I-1150J607D01*
G01X460994Y324800D01*
X436899D01*
G03X436499Y324416I0J-400D01*
G02X433901I-1299J52D01*
G03X433501Y324800I-400J-16D01*
G01X433386D01*
X430300Y327886D01*
Y337714D01*
X433323Y340737D01*
X433311Y340835D01*
G02X433300Y341000I1289J165D01*
G02X434600Y342300I1300J0D01*
G02X435900Y341000I0J-1300D01*
G03X436300Y340600I400J0D01*
G01X462709D01*
G03X463084Y341141I0J400D01*
G02X463000Y341600I1216J459D01*
G02X465600I1300J0D01*
G02X465516Y341141I-1300J0D01*
G03X465891Y340600I374J-141D01*
G01X470630D01*
G03X471007Y341134I0J400D01*
G02X470932Y341568I1225J434D01*
G02X473532I1300J0D01*
G02X473457Y341134I-1300J0D01*
G03X473834Y340600I377J-134D01*
G01X481051D01*
G03X481415Y341165I0J400D01*
G02X481300Y341700I1185J535D01*
G02X483900I1300J0D01*
G02X483875Y341445I-1300J0D01*
G03X484345Y340975I392J-78D01*
G02X484600Y341000I255J-1275D01*
G02X485538Y340600I0J-1300D01*
G01X486751D01*
G37*
G36*
G01X441430Y353076D02*
G03X442018Y353241I224J331D01*
G02X443200Y354000I1182J-541D01*
G02Y351400I0J-1300D01*
G02X442470Y351624I0J1300D01*
G03X441882Y351459I-224J-331D01*
G02X440700Y350700I-1182J541D01*
G02Y353300I0J1300D01*
G02X441430Y353076I0J-1300D01*
G37*
G36*
G01X411137Y360273D02*
G03X411443Y360767I-81J392D01*
G02X411400Y361100I1257J333D01*
G02X414000I1300J0D01*
G02X412963Y359827I-1300J0D01*
G03X412657Y359333I81J-392D01*
G02X412700Y359000I-1257J-333D01*
G02X410100I-1300J0D01*
G02X411137Y360273I1300J0D01*
G37*
G36*
G01X390888Y403676D02*
G03X390284Y403747I-332J-223D01*
G02X389400Y403400I-884J953D01*
G02Y406000I0J1300D01*
G02X390480Y405424I0J-1300D01*
G03X391084Y405353I332J223D01*
G02X391968Y405700I884J-953D01*
G02Y403100I0J-1300D01*
G02X390888Y403676I0J1300D01*
G37*
G36*
G01X396899Y403905D02*
G03X396334Y403764I-216J-337D01*
G02X395200Y403100I-1134J636D01*
G02Y405700I0J1300D01*
G02X395901Y405495I0J-1300D01*
G03X396466Y405636I216J337D01*
G02X397600Y406300I1134J-636D01*
G02Y403700I0J-1300D01*
G02X396899Y403905I0J1300D01*
G37*
G36*
G01X490050Y273238D02*
G02X489500Y274300I750J1062D01*
G02X492100I1300J0D01*
G02X491627Y273297I-1300J0D01*
G03X491650Y272662I254J-309D01*
G02X492200Y271600I-750J-1062D01*
G02X489600I-1300J0D01*
G02X490073Y272603I1300J0D01*
G03X490050Y273238I-254J309D01*
G37*
G36*
G01X506358Y337401D02*
G02X506300Y337400I-58J1299D01*
G02X507600Y338700I0J1300D01*
G02X507542Y338316I-1300J0D01*
G03X507942Y337799I382J-118D01*
G02X508000Y337800I58J-1299D01*
G02Y335200I0J-1300D01*
G02X507902Y335204I0J1300D01*
G03X507479Y334733I-30J-399D01*
G02X507500Y334500I-1279J-233D01*
G02X506200Y335800I-1300J0D01*
G02X506298Y335796I0J-1300D01*
G03X506721Y336267I30J399D01*
G02X506700Y336500I1279J233D01*
G02X506758Y336884I1300J0D01*
G03X506358Y337401I-382J118D01*
G37*
G36*
G01X428461Y343168D02*
G02X427800Y344300I639J1132D01*
G02X430400I1300J0D01*
G02X429815Y343215I-1300J0D01*
G03X429839Y342532I220J-334D01*
G02X430500Y341400I-639J-1132D01*
G02X427900I-1300J0D01*
G02X428485Y342485I1300J0D01*
G03X428461Y343168I-220J334D01*
G37*
G36*
G01X509631Y347200D02*
G02X509000Y348315I669J1115D01*
G02X511600I1300J0D01*
G02X510969Y347200I-1300J0D01*
G03Y346515I206J-343D01*
G02X511600Y345400I-669J-1115D01*
G02X509000I-1300J0D01*
G02X509631Y346515I1300J0D01*
G03Y347200I-206J343D01*
G37*
G36*
G01X494399Y349461D02*
G02X493500Y349100I-899J939D01*
G02Y351700I0J1300D01*
G02X494589Y351110I0J-1300D01*
G03X495201Y351039I335J218D01*
G02X496100Y351400I899J-939D01*
G02Y348800I0J-1300D01*
G02X495011Y349390I0J1300D01*
G03X494399Y349461I-335J-218D01*
G37*
G36*
G01X494246Y355086D02*
G02X493100Y354400I-1146J614D01*
G02Y357000I0J1300D01*
G02X494019Y356620I0J-1300D01*
G03X494654Y356714I283J283D01*
G02X495800Y357400I1146J-614D01*
G02Y354800I0J-1300D01*
G02X494881Y355180I0J1300D01*
G03X494246Y355086I-283J-283D01*
G37*
G36*
G01X395841Y357893D02*
G03X396449Y357896I303J261D01*
G02X397443Y358358I993J-839D01*
G02X398743Y357057I0J-1300D01*
G02X398283Y356065I-1300J0D01*
G03X398273Y355464I258J-305D01*
G02X398509Y355179I-873J-964D01*
G03X399191I341J209D01*
G02X400300Y355800I1109J-679D01*
G02Y353200I0J-1300D01*
G02X399191Y353821I0J1300D01*
G03X398509I-341J-209D01*
G02X397400Y353200I-1109J679D01*
G02X396100Y354500I0J1300D01*
G02X396560Y355492I1300J0D01*
G03X396570Y356094I-258J305D01*
G02X396458Y356208I873J964D01*
G03X395850Y356205I-303J-261D01*
G02X394857Y355743I-993J839D01*
G02Y358343I0J1300D01*
G02X395841Y357893I0J-1300D01*
G37*
G36*
G01X486462Y239196D02*
G02X487700Y240100I1238J-396D01*
G02Y237500I0J-1300D01*
G02X486721Y237945I0J1300D01*
G03X486038Y237804I-301J-263D01*
G02X484800Y236900I-1238J396D01*
G02Y239500I0J1300D01*
G02X485779Y239055I0J-1300D01*
G03X486462Y239196I301J263D01*
G37*
G36*
G01X478663Y239849D02*
G02X477700Y241104I337J1256D01*
G02X480300I1300J0D01*
G02X479949Y240215I-1300J0D01*
G03X480137Y239556I292J-273D01*
G02X481100Y238300I-337J-1256D01*
G02X478500I-1300J0D01*
G02X478851Y239189I1300J0D01*
G03X478663Y239849I-292J273D01*
G37*
G54D28*
X276714Y228403D03*
X474200Y446800D03*
X500864Y247678D03*
G54D27*
X248800Y230400D03*
X256500D03*
X269900Y230500D03*
X282460Y231160D03*
X275000Y237600D03*
X270250Y235350D03*
X282300Y237700D03*
X243600Y244000D03*
X262281Y244881D03*
X276000Y243400D03*
X272500D03*
X280300D03*
X252200Y252200D03*
X263200Y251200D03*
X273200Y250300D03*
X276600D03*
X281600Y254500D03*
X269700Y273800D03*
X280000Y273700D03*
X264800Y279600D03*
X268300Y279900D03*
X272300Y279600D03*
X279700D03*
X281700Y276600D03*
X146900Y284100D03*
X146426Y290026D03*
X152600Y283000D03*
X162100Y290200D03*
X172700Y284500D03*
X219200Y285600D03*
X219300Y290400D03*
X228718Y285218D03*
X230000Y290900D03*
X264700Y288500D03*
X268200Y288400D03*
X278900Y288500D03*
X186652Y292048D03*
X192600Y294000D03*
X195100Y291600D03*
X198400D03*
X226700Y298600D03*
X225800Y295200D03*
Y291968D03*
X229500Y294400D03*
X275800Y297900D03*
X271600Y293700D03*
X280800Y293900D03*
X159100Y305300D03*
X207400Y299600D03*
X152400Y314700D03*
X157600Y315000D03*
X192000Y315500D03*
X220500Y308700D03*
X256300Y314800D03*
X257500Y307900D03*
X273300Y314800D03*
X272700Y310500D03*
X152500Y318800D03*
X170200Y317500D03*
X173900D03*
X179500Y322900D03*
X189700Y323600D03*
X197700Y317000D03*
X205300Y316800D03*
X216800Y316500D03*
X256300Y319900D03*
X196236Y328600D03*
X193900Y324400D03*
X202900Y329500D03*
X217000Y324000D03*
X269800Y327800D03*
X273200Y328000D03*
X152200Y336800D03*
X158900Y338400D03*
Y335200D03*
X178400Y336800D03*
X186727Y336226D03*
X198066Y334466D03*
X202900D03*
X218100Y339753D03*
X286900Y332200D03*
X145200Y341200D03*
X152300Y348300D03*
X159900Y347900D03*
X159700Y342900D03*
X170700Y344700D03*
X216100Y346200D03*
X222731Y346631D03*
X301000Y345400D03*
X303900Y340500D03*
X303200Y348300D03*
X146600Y351200D03*
X178100Y348900D03*
X188479Y348579D03*
X191119Y352319D03*
X223200Y354500D03*
X232700Y356100D03*
X309400Y356500D03*
X178500Y362300D03*
X211700Y357100D03*
X211500Y363900D03*
X231200Y362900D03*
X234600Y358659D03*
Y361891D03*
X305300Y360200D03*
X453400Y363800D03*
X472119Y364119D03*
X484100Y363800D03*
X152000Y369500D03*
X151900Y365400D03*
X172300Y365100D03*
Y370500D03*
X202300Y367600D03*
X211200Y367200D03*
X227343Y367043D03*
X223343D03*
X235019D03*
X238843D03*
X242643D03*
X248543D03*
X254543D03*
X259243D03*
X264043D03*
X269943D03*
X453400Y372900D03*
X471500Y369500D03*
X493600Y367700D03*
X508400Y370100D03*
Y366800D03*
X170500Y376300D03*
X173517Y379183D03*
X217800Y373900D03*
X215300Y378200D03*
X223343Y374457D03*
X227343Y374557D03*
X231119Y374419D03*
X235019Y374481D03*
X242643Y374457D03*
X238843Y374543D03*
X248584Y374457D03*
X259243D03*
X254518D03*
X264043D03*
X269985D03*
X273743D03*
X307800Y376200D03*
X311000Y376700D03*
X304400Y375700D03*
X439900Y374600D03*
X444600Y374700D03*
X450400Y375400D03*
X506600Y375500D03*
X169100Y384700D03*
X225400Y383900D03*
X229200Y384000D03*
X293900Y383440D03*
X290000Y385200D03*
X305000Y385300D03*
X308700Y383100D03*
X328400Y385300D03*
X335300Y385200D03*
X442268Y387132D03*
X446068Y387100D03*
X449768D03*
X472600Y381700D03*
X478000Y388974D03*
X495800Y387000D03*
X507200Y386700D03*
X173517Y391800D03*
X242600Y394010D03*
X261000Y391000D03*
X305000Y392100D03*
X304500Y396600D03*
X350100Y390000D03*
X354400Y397500D03*
X438468Y395168D03*
X434768D03*
X449768Y395132D03*
X464500Y397418D03*
X483919Y390900D03*
X495700Y393900D03*
X507000Y394000D03*
X261700Y400100D03*
X296700Y403800D03*
X305700Y402300D03*
X314500Y402400D03*
X338100Y399100D03*
X347200Y401343D03*
X354500Y403400D03*
X452600Y401300D03*
X453000Y405600D03*
X496300Y402200D03*
X162000Y408500D03*
X157300Y406500D03*
X230300Y412900D03*
X241300Y411100D03*
X282100Y410800D03*
X296700Y407100D03*
Y410700D03*
X354500Y412300D03*
X354300Y408767D03*
X439843Y409143D03*
X480200Y408600D03*
X478000Y411100D03*
X490100Y407000D03*
X513800Y409200D03*
X154500Y422000D03*
X208000Y419200D03*
X207400Y415900D03*
X221100Y419700D03*
X246272Y415900D03*
X496000Y420000D03*
X503400D03*
X511400Y420100D03*
X511600Y414900D03*
X151638Y429838D03*
X150561Y424961D03*
X159061Y425900D03*
X207900Y430200D03*
X209700Y424800D03*
X213700Y422400D03*
X233200Y426600D03*
X241900Y430200D03*
X246500Y428400D03*
X509300Y425000D03*
X151738Y436838D03*
X209050Y435250D03*
X220800Y437500D03*
X227400Y432000D03*
X234100Y434000D03*
X237700Y432200D03*
X388000Y438100D03*
X400475Y438225D03*
X414900Y438100D03*
X454682Y438182D03*
X486300Y433400D03*
X494900Y436000D03*
X187900Y444200D03*
X181600Y439300D03*
X329900Y443800D03*
X357950Y440900D03*
X365350Y440650D03*
X378760Y440260D03*
X400200Y443000D03*
X406380Y443780D03*
X415000Y442900D03*
X438762Y439000D03*
X460153Y441147D03*
X152300Y452500D03*
X147500Y452400D03*
X156000Y452200D03*
X171000Y452400D03*
X166561Y449200D03*
X186000Y451700D03*
X182200Y452500D03*
X191600Y450500D03*
X225600Y453800D03*
X225700Y450200D03*
X234500Y453600D03*
X365400Y448114D03*
X363540Y454040D03*
X384200Y451500D03*
X396700Y451700D03*
X400643Y451843D03*
X408800Y447400D03*
X447700Y447200D03*
X452400Y450000D03*
X481200Y448800D03*
X488537Y449000D03*
X484814Y448800D03*
X183901Y462901D03*
X199137Y458363D03*
X196500Y460500D03*
X221600Y460400D03*
X226399Y460401D03*
X234500Y459800D03*
X356403Y461597D03*
X357950Y457450D03*
X363900Y460900D03*
X376100Y462000D03*
X396960Y459740D03*
X409400Y460500D03*
X439400Y455800D03*
X453300Y457600D03*
X460500Y456900D03*
X475934Y459900D03*
X479700D03*
X482300Y462100D03*
X504814Y460514D03*
X145700Y468800D03*
X160000D03*
Y463700D03*
X163700Y466214D03*
X176200Y469400D03*
X172100Y469500D03*
X183857Y466543D03*
X369599Y467099D03*
X385400Y468500D03*
X393500D03*
X401200Y470300D03*
Y467200D03*
X407100Y468400D03*
X404700Y466200D03*
X423762Y470462D03*
X162200Y476600D03*
X167900Y477700D03*
X172100Y473600D03*
X176200Y473500D03*
Y477700D03*
X172100Y477800D03*
X185500Y479500D03*
X188701Y478101D03*
X209900Y471700D03*
X206707Y471593D03*
X220559Y474200D03*
X222800Y472200D03*
X227408Y476292D03*
X355000Y475300D03*
X358300Y475400D03*
X361425Y475500D03*
X365000Y473100D03*
X372600Y472500D03*
X368700Y475400D03*
X376300Y475500D03*
X380200Y472400D03*
X387800Y474300D03*
X401200Y474400D03*
X398900Y478000D03*
X402200Y477700D03*
X428800Y478300D03*
X489733Y472033D03*
X507700Y476400D03*
X153900Y481100D03*
X155660Y483800D03*
X157840Y485960D03*
X182400Y483800D03*
X206228Y483772D03*
X234800Y487700D03*
X236700Y482200D03*
X270683Y485900D03*
X279400Y481700D03*
X286600Y481300D03*
X298057Y481143D03*
X398100Y481800D03*
X418398Y483098D03*
X437600Y479700D03*
X446900Y487400D03*
X446800Y484400D03*
X499500Y484100D03*
X498200Y487300D03*
X507397Y480097D03*
X505100Y484300D03*
X503000Y487300D03*
X507700Y487100D03*
X151800Y488567D03*
X160200Y491800D03*
X169021Y489500D03*
X175800Y489000D03*
X172400D03*
X216241Y491977D03*
X219410Y488410D03*
X235019Y491419D03*
X238719Y491981D03*
X279000Y489300D03*
X298900Y489200D03*
X333400Y491100D03*
X336500Y489200D03*
X341000Y489800D03*
X399800Y490900D03*
X408000Y490200D03*
X403300Y488400D03*
X424000Y488600D03*
X437700Y488580D03*
X479100Y495372D03*
X487500Y495165D03*
X502528Y495372D03*
X507900Y490900D03*
X155600Y497400D03*
X163500Y501200D03*
X178400Y497363D03*
X192796Y498304D03*
X203932Y503268D03*
X205800Y497378D03*
X227400Y501551D03*
X227408Y497300D03*
X290500Y503900D03*
X312600Y502654D03*
X312888Y499012D03*
X320700Y498700D03*
X347400Y497400D03*
X353500Y501029D03*
X361700Y501100D03*
X381857Y501300D03*
X391300Y503700D03*
Y499700D03*
X422400Y504043D03*
X430593Y504093D03*
X439400Y496800D03*
X435300Y496700D03*
X468700Y501600D03*
X472457Y501643D03*
X481160D03*
X485400Y501000D03*
X492226Y501643D03*
X496100Y501500D03*
X500187Y501643D03*
X504000Y501700D03*
X510360Y498900D03*
X518400Y498300D03*
X157300Y509100D03*
X234700Y509800D03*
X278615Y505900D03*
X290550Y507650D03*
X288515Y512000D03*
X301600Y511261D03*
X342000Y509400D03*
X345500D03*
X344600Y504800D03*
X353800Y505700D03*
X368400Y508800D03*
X376100Y508700D03*
X372073Y506773D03*
X387100Y504500D03*
X395400Y512100D03*
X399100Y508400D03*
X422400Y507800D03*
X430443Y507843D03*
X439257Y507943D03*
X439200Y504200D03*
X153668Y516400D03*
X166300Y512500D03*
X163700Y516900D03*
X206900Y519800D03*
X226600Y517492D03*
X232700Y516400D03*
X240435Y519865D03*
X288400Y515000D03*
X289900Y518800D03*
X301600Y515000D03*
X296500D03*
X295200Y518700D03*
X299800Y518600D03*
X303500D03*
X310900Y518800D03*
X307200Y518900D03*
X313150Y514950D03*
X317700Y520200D03*
X314700Y518900D03*
X331901Y513101D03*
X400700Y520000D03*
X395500Y515800D03*
Y519600D03*
X402700Y514357D03*
X414600Y518700D03*
X414967Y515467D03*
X422579Y515479D03*
X157402Y524900D03*
X168400Y528100D03*
X174300Y523200D03*
X189400Y527300D03*
X193400Y521100D03*
X199000Y527100D03*
X240364Y528236D03*
X244077Y523985D03*
X255200Y523800D03*
X258700Y525700D03*
X278000Y520800D03*
X282000Y521000D03*
X286300D03*
X283500Y525900D03*
X287800Y525800D03*
X291700D03*
X322600Y526900D03*
X326299Y526800D03*
X339600Y522400D03*
X346700Y522500D03*
X408000Y525600D03*
X430700Y522100D03*
X146210Y535810D03*
X157400Y531300D03*
X178100Y528900D03*
X194100Y532400D03*
X207000Y529200D03*
X216000Y531800D03*
X218600Y533900D03*
X347400Y534700D03*
X351700Y534600D03*
X391500Y535300D03*
X402700Y536700D03*
X406700Y529600D03*
X402800Y533100D03*
X418100Y534100D03*
X437300Y529100D03*
X438100Y533634D03*
X245100Y537328D03*
X254800Y537200D03*
X272700Y537900D03*
X276000Y537800D03*
X278700Y542000D03*
X285000D03*
X281900D03*
X279200Y537800D03*
X301000Y544900D03*
X301700Y537800D03*
X297800Y538700D03*
X307600Y539200D03*
X307300Y544800D03*
X312700Y544400D03*
X347300Y539200D03*
X351600Y539100D03*
Y543500D03*
X347300Y543600D03*
X379200Y538300D03*
X383500Y538200D03*
Y542600D03*
X379200Y542700D03*
X282000Y545800D03*
X285200D03*
X306900Y551500D03*
X317300Y548600D03*
X312400Y550000D03*
X347400Y551000D03*
X351700Y550900D03*
X379300Y551600D03*
X383600Y551500D03*
X382700Y547400D03*
X391100Y547500D03*
X410000Y549300D03*
X417300Y549400D03*
X427100Y545400D03*
X434800Y548900D03*
X317000Y554200D03*
X322900Y558700D03*
X322800Y554400D03*
X351700Y555300D03*
X347400Y555400D03*
X383600Y555900D03*
X379300Y556000D03*
X391200Y555500D03*
X401881Y558400D03*
X414000Y553500D03*
X418000Y556400D03*
X427600Y553700D03*
X437200Y561100D03*
X436200Y553800D03*
X322900Y563200D03*
X340600Y562500D03*
X351400Y562600D03*
X347100Y562700D03*
X383800Y562600D03*
X379500Y562700D03*
X395500Y561900D03*
X414200Y561700D03*
X427300Y561600D03*
X247750Y258450D03*
X243300Y281700D03*
X246200Y279200D03*
X246700Y289100D03*
X247900Y296300D03*
X244000Y308400D03*
X241894Y314406D03*
X228131Y316531D03*
X235931Y316300D03*
X246800Y323100D03*
X230000Y331800D03*
X246800Y326800D03*
X245800Y330481D03*
X236800Y346700D03*
X233000D03*
X258100Y518200D03*
X253700Y512700D03*
X257900D03*
X251300Y517000D03*
X249200Y512100D03*
X252150Y508850D03*
X255300Y496900D03*
X243760Y502900D03*
X255600Y489600D03*
X249100Y495000D03*
X249183Y490017D03*
X247100Y486500D03*
X256700Y475900D03*
X246200Y464300D03*
X246240Y460640D03*
X244140Y450160D03*
X254903Y445002D03*
X426000Y431900D03*
X402400Y432700D03*
X381700Y432000D03*
X345522Y432054D03*
X348754D03*
X342500Y432200D03*
X324800Y432871D03*
X251791Y435700D03*
X480100Y426900D03*
X445700Y425400D03*
X351400Y430100D03*
X332100Y429300D03*
X313500Y422700D03*
X306500D03*
X472700Y418700D03*
X401500Y421100D03*
X406400D03*
X406300Y417800D03*
X401400D03*
X396300Y421100D03*
X396200Y417800D03*
X371600Y420800D03*
X376500Y418806D03*
X354481Y419981D03*
X341600Y418200D03*
X357900Y431000D03*
X354500D03*
X294891Y453400D03*
X319100Y451800D03*
X332000Y452200D03*
X267200Y462400D03*
X295200Y461600D03*
X307300Y459700D03*
X323668Y458568D03*
X332100Y459200D03*
X265100Y466600D03*
X322800Y465300D03*
X326000Y469900D03*
X334000Y465800D03*
X331900Y469800D03*
X341800Y476800D03*
X342600Y472600D03*
X327700Y225100D03*
X333300D03*
X330800Y227300D03*
X333200Y229300D03*
X341100Y231600D03*
X336900Y225700D03*
X348800Y229100D03*
X344900Y231600D03*
X351900Y226400D03*
X355100Y226200D03*
X358500D03*
X362200Y226600D03*
X429300Y228000D03*
X439500Y227900D03*
X447300Y227600D03*
Y230700D03*
X453600Y227600D03*
X450500D03*
X453600Y230700D03*
X450500D03*
X302308Y238200D03*
X314792Y238008D03*
X333000Y236700D03*
X341000Y237200D03*
X345125Y241747D03*
X345100Y237400D03*
X348900Y236000D03*
X351900Y238800D03*
X352900Y234100D03*
X287200Y243300D03*
X294400Y243700D03*
X302308Y244700D03*
X308447Y247147D03*
X314248Y242400D03*
X320000Y247700D03*
X323100Y243500D03*
X333000Y243400D03*
X327600Y242800D03*
X327500Y250000D03*
X340900Y242000D03*
X343100Y244400D03*
X301800Y252000D03*
X315500Y251300D03*
X327667Y253195D03*
X339172Y256300D03*
X291664Y262764D03*
X297200Y265700D03*
X304200Y258900D03*
X312872Y261700D03*
Y266100D03*
X291200Y270300D03*
X301800Y270600D03*
X326787Y268772D03*
X319710Y268778D03*
X291000Y281300D03*
X296200Y281311D03*
X319135Y276651D03*
X330720Y278728D03*
X325083Y286589D03*
X320914Y286352D03*
X330707Y286728D03*
X290200Y296200D03*
X296150Y293300D03*
X301800Y293100D03*
X323106Y296268D03*
X319383Y296232D03*
X312888Y300225D03*
X319420Y304206D03*
X294400Y308500D03*
X289800D03*
X297400Y307900D03*
X309700Y311300D03*
X312900Y315400D03*
X316742Y313900D03*
X323090Y309994D03*
X321767Y314194D03*
X328873Y309967D03*
X297850Y322850D03*
Y316950D03*
X305800Y316900D03*
X305600Y323600D03*
X318700Y322500D03*
X317200Y319400D03*
X326600Y317500D03*
X317500Y327600D03*
X325250Y329150D03*
X329250D03*
X338800Y331000D03*
X320500Y338400D03*
X365800Y338800D03*
X363200Y335800D03*
X323019Y341100D03*
X352600Y345600D03*
X378600Y329600D03*
X387400Y326900D03*
X387260Y329940D03*
X395124Y328576D03*
X372900Y335400D03*
X383300Y338500D03*
X379100Y336100D03*
X383200Y342800D03*
X372600Y355106D03*
X378428Y352072D03*
X322800Y359300D03*
X333300Y363000D03*
X368400Y358600D03*
X375900Y358000D03*
X372700Y364600D03*
X322900Y365000D03*
Y368800D03*
X336700Y368200D03*
X368900Y372400D03*
X375500Y370000D03*
X324300Y374200D03*
X375100Y241100D03*
X382700Y238300D03*
X386100Y237600D03*
X374700Y244700D03*
X374900Y247800D03*
X380336Y246600D03*
X396200Y245700D03*
X411020Y245500D03*
X423497D03*
X427147D03*
X457053D03*
X358500Y250600D03*
X356072Y252900D03*
X352972Y253700D03*
X366453Y253347D03*
X363700Y250100D03*
X391600Y251200D03*
X396100Y250200D03*
X355350Y259350D03*
X346967Y268689D03*
X350979Y268587D03*
X346979Y304206D03*
X352500Y325600D03*
X352750Y330650D03*
X362898Y325200D03*
X362800Y330400D03*
X377668Y260261D03*
X393519Y266000D03*
X396778Y258894D03*
X425600Y258900D03*
X438812Y265460D03*
X450400Y265557D03*
X366778Y271694D03*
X371678Y266594D03*
X369939Y269654D03*
X377478Y266478D03*
X379078Y273594D03*
X390481Y270545D03*
X387920Y273694D03*
X408398Y270545D03*
X403989Y267106D03*
X403273Y273696D03*
X410958Y267395D03*
X421204D03*
X421200Y273694D03*
X436560Y270545D03*
X444237Y273694D03*
X354478Y276494D03*
X379078Y279700D03*
X398162Y276844D03*
X405838Y279994D03*
X418638Y276846D03*
X428868D03*
X446475Y279075D03*
X452143Y282257D03*
X366978Y282994D03*
X361585Y285701D03*
X371678Y283194D03*
X368978Y285239D03*
X371700Y289900D03*
X381372Y289700D03*
X393034Y289444D03*
X400718D03*
X398160Y283144D03*
X393042D03*
X405846Y289444D03*
X403278Y283144D03*
X433996Y283154D03*
X426320Y289444D03*
X428879Y283144D03*
X439111Y289442D03*
X439115Y283144D03*
X444836Y289444D03*
X444233Y283144D03*
X456957Y283857D03*
X470700Y284300D03*
X470600Y288500D03*
X483000Y283300D03*
X354848Y292538D03*
X354600Y296585D03*
X384978Y298294D03*
X398158Y295744D03*
X408407Y298892D03*
X421200Y292594D03*
Y298894D03*
X433999Y292592D03*
X426315Y295742D03*
X428875Y292592D03*
X445066Y297308D03*
X368278Y301694D03*
X362369Y303718D03*
X372178Y300628D03*
X369978Y305894D03*
X390481Y302043D03*
X393041Y305193D03*
X405843Y305191D03*
X410961D03*
X413520Y302041D03*
X416099Y305094D03*
X421200Y305193D03*
X433999Y302041D03*
X426320Y305193D03*
X431440D03*
X439117D03*
X448700Y306700D03*
X444419Y305381D03*
X446675Y303375D03*
X367478Y308494D03*
X377478Y313794D03*
Y308194D03*
X426850Y308432D03*
X359800Y316000D03*
X369900Y317100D03*
X491957Y249257D03*
X467200Y257400D03*
X470400D03*
X468532Y252400D03*
X491250Y254550D03*
X494500Y251100D03*
X506800Y251700D03*
X461300Y266100D03*
X470400Y261000D03*
X467200D03*
X473500D03*
Y264700D03*
X467200D03*
X470400D03*
X482900Y264933D03*
X505000Y260900D03*
X506700Y264400D03*
X502600Y266400D03*
X508300Y258700D03*
X456399Y267500D03*
X470501Y269700D03*
X470500Y273300D03*
X497600Y267600D03*
X470600Y276800D03*
X496500Y279700D03*
X506850Y281450D03*
X506900Y277700D03*
X507200Y286500D03*
X506400Y291000D03*
X498400Y298250D03*
X491700Y297600D03*
X492400Y294000D03*
X497900Y294900D03*
X507450Y298250D03*
X507300Y306200D03*
Y302200D03*
Y314057D03*
X507500Y310300D03*
X508000Y331400D03*
X396950Y338550D03*
X395044Y344000D03*
X399600Y346615D03*
X411715D03*
X440500Y345300D03*
X471500Y345332D03*
X494800Y344600D03*
X500100Y345700D03*
X431100Y352600D03*
X439600Y356300D03*
X444600Y356537D03*
X472032Y352832D03*
X479400Y351100D03*
X482800Y351000D03*
X484032Y356200D03*
X498100Y354100D03*
X401300Y359300D03*
X405450Y359150D03*
X395700Y372240D03*
X394657Y367657D03*
X405450Y366750D03*
X379978Y381100D03*
X377500Y383400D03*
X392100D03*
X365400Y393100D03*
X382500Y397000D03*
X387550Y393150D03*
X397900Y393100D03*
X404600Y394000D03*
X402100Y391100D03*
X413516Y392194D03*
X421106D03*
X364481Y398681D03*
X388100Y398200D03*
X397900Y398100D03*
X403200Y397900D03*
X408500Y397800D03*
X425100Y401200D03*
X421600Y402800D03*
X377700Y409458D03*
X377400Y406000D03*
X498000Y524600D03*
X447300Y531100D03*
X499200Y533634D03*
X498400Y559400D03*
X495800Y562000D03*
X495900Y223300D03*
X499400Y226900D03*
X503800Y233400D03*
X517300Y231100D03*
X488200Y234800D03*
X483600Y241000D03*
X490300Y240500D03*
X484800Y234900D03*
X497300Y240600D03*
X508900Y237700D03*
X520000Y247100D03*
G54D32*
X470189Y555128D03*
G54D33*
X501685D03*
G54D26*
X154056Y288889D03*
G54D29*
X268021Y346704D03*
X464479Y481758D03*
G54D31*
X500508Y414139D03*
Y447604D03*
G54D30*
X186930Y399078D03*
%LPD*%
G75*
G36*
G01X491504Y339600D02*
X495800D01*
X498700Y336700D01*
Y332249D01*
G02X498135Y331885I-400J0D01*
G03X497600Y332000I-535J-1185D01*
G03X496953Y331828I0J-1300D01*
G02X496403Y331983I-199J347D01*
G03X495261Y332662I-1142J-622D01*
G03Y330062I0J-1300D01*
G03X495908Y330234I0J1300D01*
G02X496458Y330078I199J-347D01*
G03X497600Y329400I1142J622D01*
G03X498135Y329515I0J1300D01*
G02X498700Y329151I165J-365D01*
G01Y328400D01*
X491400Y321100D01*
Y315400D01*
X483600Y307600D01*
X474700D01*
X470100Y312200D01*
Y323300D01*
X467600Y325800D01*
X463406D01*
X463350Y325907D01*
G03X461050I-1150J-607D01*
G01X460994Y325800D01*
X433800D01*
X431300Y328300D01*
Y332672D01*
G02X431959Y332977I400J0D01*
G03X432800Y332668I841J991D01*
G03Y335268I0J1300D01*
G03X431959Y334959I0J-1300D01*
G02X431300Y335264I-259J305D01*
G01Y337300D01*
X433600Y339600D01*
X483294D01*
X483326Y339440D01*
G03X485874I1274J260D01*
G01X485906Y339600D01*
X489096D01*
G02X489379Y338918I0J-400D01*
G03X489000Y338000I921J-918D01*
G03X491600I1300J0D01*
G03X491221Y338918I-1300J0D01*
G02X491504Y339600I283J282D01*
G37*
%LPC*%
G75*
G54D27*
X434700Y328000D03*
X441132Y330268D03*
X448600Y330300D03*
X444968Y330332D03*
X452368Y330300D03*
X463900Y330200D03*
Y333968D03*
X464100Y337600D03*
X478200Y335700D03*
X487800D03*
X491800Y332100D03*
X493100Y336900D03*
%LPD*%
G75*
G54D10*
X137900Y222700D03*
X134600Y232900D03*
X138500Y236200D03*
X133200Y238500D03*
X134800Y236300D03*
X137800Y238600D03*
X138700Y244900D03*
X133300Y242000D03*
X138781Y250419D03*
X138400Y254200D03*
X138500Y264300D03*
X138600Y268600D03*
X138400Y271700D03*
Y279400D03*
Y275500D03*
X138857Y298543D03*
X138500Y291100D03*
X138300Y333800D03*
X138000Y347900D03*
X138800Y357400D03*
Y375300D03*
X138100Y377300D03*
X133300Y401000D03*
X133400Y403767D03*
X134200Y409800D03*
X133400Y407317D03*
X133600Y415400D03*
X133700Y424300D03*
X136600Y450100D03*
X134840Y452240D03*
X137500Y460900D03*
X138800Y469200D03*
X138100Y475900D03*
Y508900D03*
X138200Y513600D03*
X134600Y519900D03*
X138200Y526600D03*
X138300Y532800D03*
X138100Y546900D03*
X134600Y555700D03*
X138300Y563000D03*
X138400Y568900D03*
X146700Y222600D03*
X143500D03*
X140200D03*
X140400Y231800D03*
X140200Y226500D03*
X140100Y234300D03*
X146300Y237200D03*
Y255700D03*
Y264600D03*
X145800Y270800D03*
X144421Y281679D03*
X139000Y287200D03*
X146900Y284100D03*
X146426Y290026D03*
X138900Y302366D03*
X146600Y328800D03*
X144700D03*
X144800Y334100D03*
X145200Y341200D03*
X146600Y351200D03*
X144100Y356800D03*
X144400Y379300D03*
Y381200D03*
X144950Y392750D03*
X144300Y401900D03*
X145600Y407600D03*
X144200Y409673D03*
Y413222D03*
X147000Y421700D03*
X146875Y419128D03*
Y415578D03*
X143561Y424961D03*
X140900Y451600D03*
X141000Y460600D03*
X145700Y468800D03*
X144700Y474700D03*
X144100Y480000D03*
X143500Y499900D03*
X146400Y532000D03*
X146210Y535810D03*
X139600Y541300D03*
X146800Y567300D03*
X147100Y244000D03*
X152600Y283000D03*
X152400Y314700D03*
X152500Y318800D03*
X152779Y326521D03*
X152200Y336800D03*
X152300Y348300D03*
X152000Y369500D03*
X151900Y365400D03*
X148600Y413900D03*
X154500Y422000D03*
X151638Y429838D03*
X150561Y424961D03*
X151738Y436838D03*
X152300Y452500D03*
X147500Y452400D03*
X152800Y476400D03*
X151700Y478700D03*
X153900Y481100D03*
X152100Y491600D03*
X154500Y493300D03*
X151800Y488567D03*
X153668Y516400D03*
X153768Y553400D03*
X159200Y268000D03*
X160000Y275100D03*
X157600Y277900D03*
X162100Y290200D03*
X159100Y305300D03*
X157600Y315000D03*
X158900Y338400D03*
Y335200D03*
X159900Y347900D03*
X159700Y342900D03*
X162000Y380936D03*
X162900Y389700D03*
X156300Y395900D03*
X162800Y395650D03*
Y392100D03*
X163100Y398200D03*
X158900Y402600D03*
X156386Y401400D03*
X156200Y398300D03*
X162000Y408500D03*
X157300Y406500D03*
X159700Y415000D03*
X161500Y417100D03*
X159061Y425900D03*
X161400Y449800D03*
X159600Y452200D03*
X156000D03*
X160000Y468800D03*
Y463700D03*
X162200Y476600D03*
X155660Y483800D03*
X157840Y485960D03*
X160200Y491800D03*
X156900D03*
X155600Y497400D03*
X157300Y509100D03*
X157402Y524900D03*
X157400Y531300D03*
X157481Y538800D03*
X159400Y544300D03*
X159600Y562600D03*
X161700Y568700D03*
X156000Y570000D03*
X165500Y230500D03*
X165900Y236900D03*
X163800Y271800D03*
X170200Y317500D03*
X166200Y326600D03*
X168400D03*
X168500Y331300D03*
X166200Y331200D03*
X170700Y344700D03*
X170500Y376300D03*
X169100Y384700D03*
X163600Y382905D03*
X165900Y405500D03*
X163800Y403400D03*
X171000Y452400D03*
X166561Y449200D03*
X163700Y466214D03*
X167900Y477700D03*
X165379Y489600D03*
X169021Y489500D03*
X163500Y501200D03*
X166300Y512500D03*
X163700Y516900D03*
X168400Y528100D03*
X169200Y542800D03*
X164700Y547700D03*
X166100Y553100D03*
X171500Y566800D03*
X176000Y230500D03*
X176300Y236800D03*
X172700Y284500D03*
X173900Y317500D03*
X179500Y322900D03*
X178400Y336800D03*
X178100Y348900D03*
X178500Y362300D03*
X172300Y365100D03*
Y370500D03*
X173517Y379183D03*
Y391800D03*
X174700Y452400D03*
Y449500D03*
X174953Y463100D03*
X173500Y460600D03*
X176200Y469400D03*
X172100Y469500D03*
Y473600D03*
X176200Y473500D03*
Y477700D03*
X172100Y477800D03*
X175800Y489000D03*
X172400D03*
X178400Y497363D03*
X174300Y523200D03*
X178100Y528900D03*
X178900Y539600D03*
X174200Y552200D03*
X178600Y559600D03*
X185800Y230400D03*
X186100Y236600D03*
X186900Y264400D03*
X182900Y281500D03*
X186000Y282700D03*
X186900Y284500D03*
X184200Y289400D03*
X181450Y288350D03*
X182900Y296200D03*
X186652Y292048D03*
X186727Y336226D03*
X187900Y444200D03*
X181600Y439300D03*
X186000Y451700D03*
X182200Y452500D03*
X183901Y462901D03*
X183857Y466543D03*
X185500Y479500D03*
X182400Y483800D03*
X185400Y487600D03*
X183900Y489600D03*
X182000Y550900D03*
X187000Y555500D03*
X184100Y566800D03*
X196000Y230500D03*
X194900Y267700D03*
X192600Y294000D03*
X195100Y291600D03*
X192000Y315500D03*
X189700Y323600D03*
X192594Y328800D03*
X196236Y328600D03*
X193900Y324400D03*
X188479Y348579D03*
X191119Y352319D03*
X191600Y450500D03*
X192343Y473843D03*
X188701Y478101D03*
X189154Y498246D03*
X192796Y498304D03*
X189400Y527300D03*
X193400Y521100D03*
X194100Y532400D03*
X193100Y539500D03*
X196000Y551700D03*
X190100Y546500D03*
X189800Y559300D03*
X196000Y565900D03*
X196300Y236800D03*
X203700Y260100D03*
X198400Y291600D03*
X197700Y317000D03*
X202900Y329500D03*
X198100Y338266D03*
X198066Y334466D03*
X202900D03*
X202300Y367600D03*
X199137Y458363D03*
X196500Y460500D03*
X203932Y503268D03*
X199000Y527100D03*
X199700Y535800D03*
X201300Y538300D03*
X203400Y559400D03*
X206200Y230400D03*
X206500Y236600D03*
X206700Y266700D03*
X207500Y291700D03*
Y293600D03*
X207400Y299600D03*
X207200Y310300D03*
X205200D03*
X205300Y316800D03*
X211700Y357100D03*
X211500Y363900D03*
X211200Y367200D03*
X211500Y402400D03*
X208000Y419200D03*
X207400Y415900D03*
X207900Y430200D03*
X209700Y424800D03*
X209050Y435250D03*
X209900Y471700D03*
X206707Y471593D03*
X206228Y483772D03*
X209300Y489800D03*
X205800Y497378D03*
X206900Y519800D03*
X207000Y529200D03*
X205000Y550000D03*
X216000Y230500D03*
X216300Y236800D03*
X217900Y252000D03*
X216500Y267600D03*
X219200Y285600D03*
X219300Y290400D03*
X219581Y298000D03*
X220500Y308700D03*
X216800Y316500D03*
X217000Y324000D03*
X218100Y339753D03*
X216100Y346200D03*
X218200Y364500D03*
X220800Y365400D03*
X217800Y373900D03*
X215300Y378200D03*
X213400Y404200D03*
X213700Y422400D03*
X220800Y437500D03*
X214900Y433300D03*
X220559Y474200D03*
X216241Y491977D03*
X219410Y488410D03*
X216000Y531800D03*
X219900Y529200D03*
X218600Y533900D03*
X214600Y545100D03*
X213300Y549100D03*
X214300Y557100D03*
X218318Y556082D03*
X218300Y564900D03*
X223200Y230400D03*
X223500Y236700D03*
X226700Y278200D03*
X225800Y286100D03*
X228718Y285218D03*
X226700Y298600D03*
X225800Y295200D03*
Y291968D03*
X226900Y304300D03*
X228331Y321969D03*
X224300Y319000D03*
X228131Y316531D03*
X224269Y316369D03*
X225800Y332800D03*
X222731Y346631D03*
X227100Y346700D03*
X223200Y354500D03*
X227343Y367043D03*
X223343D03*
Y374457D03*
X227343Y374557D03*
X223400Y381600D03*
X225400Y383900D03*
X221100Y419700D03*
X227400Y432000D03*
X225600Y453800D03*
X225700Y450200D03*
X221600Y460400D03*
X226399Y460401D03*
X223840Y457840D03*
X222000Y455500D03*
X222800Y472200D03*
X227408Y476292D03*
X227400Y501551D03*
X227408Y497300D03*
X226600Y517492D03*
X228600Y545000D03*
X227298Y540902D03*
X224000Y540400D03*
X226700Y547800D03*
Y551900D03*
X224100Y556200D03*
Y564900D03*
X230200Y230500D03*
X236500Y237600D03*
X230500Y236800D03*
X236700Y244400D03*
X232299Y281001D03*
X230000Y290900D03*
X229500Y294400D03*
X231969Y308731D03*
X232400Y316300D03*
X232500Y318200D03*
X235931Y316300D03*
X230000Y331800D03*
X236205Y341505D03*
X236800Y346700D03*
X233000D03*
X232700Y356100D03*
X231200Y362900D03*
X234600Y358659D03*
Y361891D03*
X235019Y367043D03*
X231119Y374419D03*
X235019Y374481D03*
X229200Y384000D03*
X230300Y412900D03*
X233200Y426600D03*
X234100Y434000D03*
X234500Y453600D03*
Y459800D03*
X234800Y487700D03*
X236700Y482200D03*
X235019Y491419D03*
X236900Y497436D03*
X234700Y509800D03*
X232700Y516400D03*
X233160Y524100D03*
X235500Y544900D03*
X233600Y544500D03*
X231300Y544300D03*
X234502Y540902D03*
X232900Y574900D03*
X237400Y230500D03*
X242400Y237900D03*
X243600Y244000D03*
X239600Y244400D03*
X242200Y257700D03*
X239100Y257500D03*
X240500Y259500D03*
X243300Y278800D03*
Y281700D03*
X244200Y298079D03*
X242300Y302700D03*
X242500Y300100D03*
X243600Y312600D03*
X244000Y308400D03*
X241894Y314406D03*
X244500Y321600D03*
X242400Y344900D03*
Y347300D03*
X240300Y353100D03*
X238843Y367043D03*
X242643D03*
Y374457D03*
X238843Y374543D03*
X242600Y381800D03*
Y394010D03*
X241300Y411100D03*
X241900Y430200D03*
X242300Y434900D03*
X237700Y432200D03*
X242400Y437800D03*
X242300Y441500D03*
X244140Y450160D03*
X238900Y476600D03*
X244000Y475600D03*
X238719Y491981D03*
X243500Y487900D03*
X241800Y497300D03*
X243760Y502900D03*
X241300Y508400D03*
X240435Y519865D03*
X243760Y517900D03*
X240364Y528236D03*
X244077Y523985D03*
X245100Y537328D03*
X240500Y543800D03*
X240400Y541900D03*
X238500D03*
X237385Y545600D03*
X240500Y545700D03*
X240200Y575200D03*
X248800Y230400D03*
X248000Y238400D03*
X250000Y238300D03*
X249000Y236600D03*
X247000Y236700D03*
X252200Y252200D03*
X250700Y257500D03*
X247750Y258450D03*
X246200Y279200D03*
X246700Y289100D03*
X247900Y293700D03*
Y296300D03*
X246800Y323100D03*
Y326800D03*
X245800Y330481D03*
X248543Y367043D03*
X248584Y374457D03*
X251800Y419700D03*
X250300Y417700D03*
X246272Y415900D03*
X246500Y428400D03*
X245900Y433300D03*
X251791Y435700D03*
X246240Y460640D03*
X246200Y464300D03*
X246834Y475534D03*
X247100Y486500D03*
X249183Y490017D03*
X249100Y495000D03*
X249300Y501800D03*
X252150Y508850D03*
X249200Y512100D03*
X249300Y504600D03*
X251300Y517000D03*
X251500Y521200D03*
X248600D03*
X248257Y523700D03*
X251489D03*
X247030Y552170D03*
X250967Y552233D03*
X250200Y569200D03*
X249900Y564500D03*
X247600Y575300D03*
X256500Y230400D03*
X260900Y235200D03*
X253900Y279300D03*
X256300Y314800D03*
X257500Y307900D03*
X256300Y319900D03*
X254543Y367043D03*
X259243D03*
Y374457D03*
X254518D03*
X254475Y381800D03*
X261000Y391000D03*
X261700Y400100D03*
X254903Y445002D03*
X260800Y475500D03*
X256700Y475900D03*
X260800Y494700D03*
X255600Y489600D03*
X261000Y492000D03*
X255300Y496900D03*
X258700Y504000D03*
X257400Y501800D03*
X260300Y505800D03*
X257900Y512700D03*
X253700D03*
X258100Y518200D03*
X261800Y518100D03*
Y520100D03*
X258300Y521800D03*
X255200Y523800D03*
X258700Y525700D03*
X254800Y537200D03*
X259600D03*
X259500Y539800D03*
X259600Y542300D03*
X259500Y545300D03*
X255900Y575300D03*
X269900Y230500D03*
X262200Y237700D03*
X269781Y244881D03*
X262281D03*
X263200Y251200D03*
X269700Y273800D03*
X264800Y279600D03*
X268300Y279900D03*
X264700Y288500D03*
X268200Y288400D03*
X269800Y327800D03*
X264043Y367043D03*
X269943D03*
X264043Y374457D03*
X269985D03*
X268440Y408440D03*
X267200Y462400D03*
X267500Y470600D03*
X265600Y470500D03*
X263600D03*
X265100Y466600D03*
X267500Y472500D03*
X265600Y472400D03*
X263600D03*
X265500Y474300D03*
X263500D03*
X266300Y494700D03*
X268900Y491900D03*
X263500D03*
X266300Y492200D03*
X263600Y494700D03*
X268600Y494600D03*
X263500Y496900D03*
X268700D03*
X266300D03*
X269300Y503600D03*
X263700Y518100D03*
X265600D03*
X263700Y520100D03*
X265600D03*
X266000Y543200D03*
X265900Y540100D03*
X268800Y543200D03*
X265900Y537200D03*
X263600Y545500D03*
X265700Y575400D03*
X275000Y237600D03*
X270250Y235350D03*
X276000Y243400D03*
X272500D03*
X273200Y250300D03*
X276600D03*
X270200Y265100D03*
Y269400D03*
X271800Y267000D03*
X272300Y279600D03*
X272200Y286100D03*
X271900Y288500D03*
X275800Y297900D03*
X271600Y293700D03*
X273300Y314800D03*
X272700Y310500D03*
X273200Y328000D03*
X273743Y374457D03*
X273700Y381800D03*
X275900Y402400D03*
X275650Y405050D03*
X277400Y408500D03*
X273500Y406200D03*
X271840Y408500D03*
X270100Y406300D03*
X275600Y448300D03*
X278000Y471500D03*
Y473400D03*
Y475300D03*
X270683Y485900D03*
X270700Y494700D03*
Y496900D03*
X273600Y502900D03*
X276550Y502450D03*
X274110Y505245D03*
X277900Y525700D03*
Y523800D03*
X278000Y520800D03*
X271500Y543200D03*
X275400Y542100D03*
X272700Y537900D03*
X276000Y537800D03*
X273400Y552000D03*
X276200D03*
X273500Y548900D03*
X276300D03*
X273500Y545800D03*
X276300D03*
X276100Y555000D03*
X273300D03*
X275100Y575300D03*
X285150Y230497D03*
X282460Y231160D03*
X282300Y237700D03*
X280300Y243400D03*
X284100D03*
X281600Y254500D03*
X284400Y264700D03*
X281700Y264600D03*
X280000Y273700D03*
X280100Y266619D03*
X279700Y279600D03*
X283200Y281500D03*
X281700Y276600D03*
X285300Y280300D03*
X278900Y288500D03*
X282400Y287400D03*
X280800Y293900D03*
X285700Y293300D03*
X285300Y308200D03*
X282100Y403400D03*
Y406300D03*
Y410800D03*
X279200Y406300D03*
X285600Y416200D03*
X281600Y436900D03*
X286400Y471600D03*
X279400Y481700D03*
X279000Y489300D03*
X286300Y498700D03*
X285200Y496100D03*
X278615Y505900D03*
X279500Y509800D03*
X278600Y512500D03*
X282000Y515700D03*
Y513200D03*
Y521000D03*
X286300D03*
X283500Y525900D03*
X278700Y542000D03*
X285000D03*
X281900D03*
X279200Y537800D03*
X282100Y552000D03*
X284900D03*
X278900D03*
X282200Y548900D03*
X285000D03*
X279000D03*
X282000Y545800D03*
X285200D03*
X278800D03*
Y555000D03*
X284800D03*
X282000D03*
X279300Y560400D03*
X284200Y575600D03*
X287200Y243300D03*
X294400Y243700D03*
X287300Y264800D03*
X291664Y262764D03*
X291200Y270300D03*
X287200Y282300D03*
X291000Y281300D03*
X290200Y296200D03*
X294400Y308500D03*
X294300Y314400D03*
X289800Y308500D03*
X286900Y332200D03*
X293900Y383440D03*
X290000Y385200D03*
X291400Y414300D03*
X286500Y475900D03*
Y474000D03*
X286600Y481300D03*
X286500Y493200D03*
Y491300D03*
X290500Y503900D03*
X290550Y507650D03*
X288515Y512000D03*
X288400Y515000D03*
X289900Y518800D03*
X287800Y525800D03*
X291700D03*
X289200Y543700D03*
X287600Y552000D03*
X287800Y549200D03*
X288400Y546000D03*
X287500Y555000D03*
X287800Y560600D03*
X292300D03*
X293600Y575800D03*
X299100Y238200D03*
X302308D03*
X298887Y243687D03*
X302308Y244700D03*
X298700Y251700D03*
X301800Y252000D03*
X297200Y265700D03*
X296672Y270400D03*
X301800Y270600D03*
X296200Y281311D03*
X296150Y293300D03*
X301800Y293100D03*
X300572Y307400D03*
X301300Y314500D03*
X297400Y307900D03*
X299818Y318382D03*
X295882D03*
X297850Y322850D03*
Y316950D03*
X301000Y345400D03*
X296700Y403800D03*
Y407100D03*
Y410700D03*
X294891Y453400D03*
X295200Y461600D03*
X295400Y470700D03*
X301600Y478200D03*
X295400Y474500D03*
Y472600D03*
X298057Y481143D03*
X298900Y489200D03*
X301600Y511261D03*
Y515000D03*
X296500D03*
X295200Y518700D03*
X299800Y518600D03*
X301000Y544900D03*
X301700Y537800D03*
X297800Y538700D03*
X300800Y550200D03*
X296300Y560500D03*
X300800D03*
X300900Y555400D03*
Y565700D03*
X302800Y575800D03*
X309200Y238300D03*
X305600Y238100D03*
X305800Y249234D03*
X305571Y243529D03*
X308447Y247147D03*
X309600Y256400D03*
X304221Y255679D03*
X310150Y250700D03*
X304200Y258900D03*
X307988Y288425D03*
X310398D03*
X303350Y288778D03*
X305578Y288494D03*
X303378Y307394D03*
X309700Y311300D03*
X307250Y313150D03*
X308078Y307494D03*
X310427Y307543D03*
X307900Y318600D03*
X303632D03*
X305800Y316900D03*
X305600Y323600D03*
X309800Y342600D03*
X303900Y340500D03*
X303200Y348300D03*
X309400Y356500D03*
X305300Y360200D03*
X307800Y376200D03*
X311000Y376700D03*
X304400Y375700D03*
X305000Y385300D03*
X308700Y383100D03*
X305000Y392100D03*
X304500Y396600D03*
X305700Y402300D03*
X306500Y422700D03*
X307541Y435759D03*
X309500Y443300D03*
X307300Y459700D03*
X303200Y470600D03*
X303500Y518600D03*
X310900Y518800D03*
X307200Y518900D03*
X307600Y539200D03*
X307300Y544800D03*
X306900Y551500D03*
X306100Y556600D03*
X305900Y568000D03*
Y563400D03*
X311000Y575800D03*
X314792Y238008D03*
X318400Y244300D03*
X314248Y242400D03*
X312750Y250650D03*
X316078Y254594D03*
X315500Y251300D03*
X316078Y257194D03*
X315891Y261721D03*
X312872Y261700D03*
Y266100D03*
X315996Y259523D03*
X318892Y272453D03*
X318985Y280495D03*
X319135Y276651D03*
X318912Y282694D03*
X318908Y290546D03*
X312888Y288425D03*
X318883Y292789D03*
X319003Y300453D03*
X312888Y300225D03*
X312600Y312400D03*
X312763Y309791D03*
X312900Y315400D03*
X316742Y313900D03*
X318700Y322500D03*
X317200Y319400D03*
X317500Y327600D03*
X317300Y356500D03*
X315300Y357900D03*
X313600Y364257D03*
Y360457D03*
X316443Y366300D03*
X316700Y368400D03*
X314500Y402400D03*
X313500Y422700D03*
X316200Y435800D03*
X319100Y451800D03*
X312600Y502654D03*
X312888Y499012D03*
X313250Y511250D03*
X313150Y514950D03*
X317700Y520200D03*
X314700Y518900D03*
X312700Y544400D03*
X317300Y548600D03*
X312400Y550000D03*
X313100Y558700D03*
X317000Y554200D03*
X311200Y567900D03*
X316800Y568000D03*
Y563400D03*
X311200Y563300D03*
X318200Y575700D03*
X322800Y239600D03*
X322750Y236850D03*
X320000Y247700D03*
X323100Y243500D03*
X327452Y258626D03*
X326078Y260595D03*
X325978Y262895D03*
X320262Y260495D03*
X320178Y262694D03*
X326787Y268772D03*
X326883Y272289D03*
X319710Y268778D03*
X323284Y270754D03*
X321150Y272689D03*
X323331Y272978D03*
X322937Y268581D03*
X326839Y274576D03*
X327284Y282492D03*
X323606Y280417D03*
X322872Y276400D03*
X321184Y280315D03*
X325872Y280800D03*
X325283Y276339D03*
X323507Y282721D03*
X321183Y282539D03*
X325283Y290439D03*
X325083Y286589D03*
X321737Y290271D03*
X320914Y286352D03*
X323215Y291901D03*
X325283Y292655D03*
X323106Y296268D03*
X321132Y292610D03*
X319383Y296232D03*
X323357Y302237D03*
X323483Y299989D03*
X319420Y304206D03*
X321235Y300515D03*
X327100Y300500D03*
X323090Y309994D03*
X321767Y314194D03*
X326600Y317500D03*
X325250Y329150D03*
X320500Y338400D03*
X323019Y341100D03*
X327300Y355400D03*
X321800Y355500D03*
X322800Y359300D03*
X322900Y365000D03*
Y368800D03*
X324300Y374200D03*
X323512Y436512D03*
X324800Y432871D03*
X323668Y458568D03*
X322800Y465300D03*
X326000Y469900D03*
X320700Y498700D03*
X320400Y517400D03*
X322600Y526900D03*
X326299Y526800D03*
X322900Y558700D03*
X322800Y554400D03*
X322900Y563200D03*
Y567800D03*
X327300Y575800D03*
X327700Y225100D03*
X333300D03*
X330800Y227300D03*
X333200Y229300D03*
X333000Y236700D03*
X327800Y245000D03*
X333200Y246900D03*
X333000Y243400D03*
X327600Y242800D03*
X327500Y250000D03*
X333700Y252100D03*
X333100Y254600D03*
X327667Y253195D03*
X327467Y256300D03*
X332678Y257894D03*
Y260494D03*
Y262794D03*
X329078Y274594D03*
X333189Y270792D03*
X332118Y274594D03*
X330739Y268559D03*
X330983Y270789D03*
X333090Y268523D03*
X334778Y278684D03*
X335014Y282420D03*
X333078Y280694D03*
X330720Y278728D03*
X330707Y286728D03*
X332692Y288658D03*
X334909Y290680D03*
X335100Y286500D03*
X327483Y290489D03*
X330654Y294647D03*
X327483Y292689D03*
X333100Y292300D03*
X331378Y298094D03*
X329003Y298320D03*
X334300Y294369D03*
X333803Y298589D03*
X330783Y304389D03*
X330983Y302189D03*
X333183Y304389D03*
X333178Y302047D03*
X334698Y315194D03*
X334663Y310447D03*
Y312694D03*
X328873Y309967D03*
X334778Y320282D03*
X334700Y317694D03*
X329100Y321700D03*
X329200Y324300D03*
X329250Y329150D03*
X329200Y347900D03*
X333400Y357800D03*
X333300Y363000D03*
X333400Y372800D03*
X330800Y367400D03*
X331000Y370200D03*
X328400Y385300D03*
X335300Y385200D03*
X332100Y429300D03*
X329900Y443800D03*
X329400Y439300D03*
X332200Y439200D03*
X332000Y452200D03*
X332100Y459200D03*
X334000Y465800D03*
X331900Y469800D03*
X333400Y491100D03*
X331100Y517100D03*
X331901Y513101D03*
X330000Y519600D03*
X327900Y567400D03*
X341100Y231600D03*
X336900Y225700D03*
X341000Y237200D03*
X340900Y242000D03*
X343100Y244400D03*
X339172Y256300D03*
X338814Y262499D03*
X339017Y260088D03*
X343041Y268594D03*
X342537Y274517D03*
X342963Y270900D03*
X340272Y274400D03*
X340842Y268545D03*
X335827Y274127D03*
X338072Y274300D03*
X340649Y270923D03*
X338883Y278389D03*
X336883Y280615D03*
X340856Y280650D03*
X338663Y282816D03*
X343048Y278383D03*
X336884Y284357D03*
X340670Y284781D03*
X336952Y288570D03*
X338664Y290268D03*
X340566Y288463D03*
X339172Y294369D03*
X342783Y294900D03*
X336883Y292489D03*
X339670Y298128D03*
X336055Y297939D03*
X337055Y302094D03*
X343142Y302237D03*
X342955Y304430D03*
X340867Y302237D03*
X340690Y304434D03*
X340678Y314994D03*
X340773Y310489D03*
Y312689D03*
X340472Y320100D03*
X340444Y317372D03*
X340372Y322600D03*
X338800Y331000D03*
Y327800D03*
X336200Y372600D03*
X336700Y368200D03*
X336300Y378400D03*
X338100Y399100D03*
X341600Y418200D03*
X341400Y427800D03*
Y425100D03*
X342500Y432200D03*
X341800Y476800D03*
X342600Y472600D03*
X339900Y485500D03*
X336500Y489200D03*
X341000Y489800D03*
X342000Y509400D03*
X339600Y522400D03*
X340600Y562500D03*
X337300Y575700D03*
X348800Y229100D03*
X344900Y231600D03*
X351900Y226400D03*
X345125Y241747D03*
X345100Y237400D03*
X348900Y236000D03*
X351900Y238800D03*
X351700Y243600D03*
X350872Y257300D03*
X351178Y260194D03*
X351179Y262695D03*
X345600Y274300D03*
X350425Y272978D03*
X346967Y268689D03*
X350979Y268587D03*
X346150Y280400D03*
X348462Y276829D03*
X348983Y280489D03*
X350826Y276651D03*
X348678Y282694D03*
X348689Y286483D03*
X351824Y283004D03*
X346402Y291390D03*
X350372Y292220D03*
X346872Y298300D03*
X344535Y298544D03*
X350415Y299989D03*
X350928Y304444D03*
X346979Y304206D03*
X346968Y300541D03*
X350489Y302189D03*
X348200Y376100D03*
X349500Y378400D03*
X346400Y377700D03*
X348000Y385300D03*
X346500Y383100D03*
X351600Y381900D03*
X350100Y390000D03*
X347200Y401343D03*
X351400Y430100D03*
X343900Y424575D03*
Y427806D03*
X348754Y432054D03*
X345522D03*
X346100Y465900D03*
X349000Y475400D03*
X351200D03*
X345200Y478400D03*
X347100D03*
X345200Y480300D03*
X347100D03*
X345200Y484100D03*
Y482200D03*
X347100D03*
Y484100D03*
X349800Y485900D03*
X347400Y497400D03*
X345500Y509400D03*
X344600Y504800D03*
X346600Y526400D03*
X346700Y522500D03*
X349100Y526400D03*
X351600Y525800D03*
X347400Y534700D03*
X351700Y534600D03*
X347300Y539200D03*
X351600Y539100D03*
Y543500D03*
X347300Y543600D03*
X347400Y551000D03*
X351700Y550900D03*
Y555300D03*
X347400Y555400D03*
X347100Y567100D03*
X351150Y567250D03*
X351400Y562600D03*
X347100Y562700D03*
X346000Y576000D03*
X355100Y226200D03*
X358500D03*
X356300Y238800D03*
X353700Y241300D03*
X352900Y234100D03*
X357200Y256400D03*
X358500Y250600D03*
X356072Y252900D03*
X352972Y253700D03*
X355350Y259350D03*
X358537Y262994D03*
X355999Y263014D03*
X352628Y272894D03*
X354783Y272389D03*
X354398Y268974D03*
X352581Y280245D03*
X354478Y276494D03*
X354776Y280455D03*
X354790Y282655D03*
X352485Y290701D03*
X354848Y292538D03*
X354600Y296585D03*
X352783Y299889D03*
X354398Y304004D03*
X354883Y300689D03*
X352626Y312500D03*
Y309946D03*
X358578Y312894D03*
X354100Y314200D03*
X358473Y310489D03*
X354300Y322500D03*
X359800Y316000D03*
X353778Y319294D03*
X353789Y316971D03*
X352500Y325600D03*
X352750Y330650D03*
X358700Y335500D03*
X352478Y335178D03*
X352600Y345600D03*
X358800Y351700D03*
X353900Y351800D03*
X354900Y354000D03*
X358075D03*
X356600Y372100D03*
X354900Y370000D03*
X360200Y372100D03*
X358400Y370000D03*
X353500Y380400D03*
X359500Y383000D03*
X354500Y389700D03*
X354400Y397500D03*
X354500Y403400D03*
Y412300D03*
X354300Y408767D03*
X354400Y416200D03*
X354481Y419981D03*
X356256Y435700D03*
X352657D03*
X357900Y431000D03*
X354500D03*
X357950Y440900D03*
X356403Y461597D03*
X357950Y457450D03*
X355000Y475300D03*
X358300Y475400D03*
X353500Y501029D03*
X353800Y505700D03*
X353200Y575900D03*
X362200Y226600D03*
X363000Y238550D03*
X362832Y241210D03*
X368200Y241000D03*
X368050Y238550D03*
X363050Y254950D03*
X362700Y257600D03*
X366453Y253347D03*
X363700Y250100D03*
X364283Y265889D03*
X361983D03*
X366979Y265559D03*
X366778Y271694D03*
X364278Y269654D03*
X361712Y269728D03*
X363278Y278894D03*
X364292Y274855D03*
X361778D03*
X361036Y278975D03*
X366978Y282994D03*
X361559Y290064D03*
X363983Y289989D03*
X366478Y290094D03*
X361585Y285701D03*
X368278Y301694D03*
X360678Y299874D03*
X363178Y299994D03*
X365679Y299894D03*
X362369Y303718D03*
X360678Y309194D03*
X367478Y308494D03*
X367500Y311500D03*
X362898Y325200D03*
X367200Y328200D03*
X367000Y331100D03*
X362800Y330400D03*
X365800Y338800D03*
X363200Y335800D03*
X364000Y345200D03*
Y343300D03*
X366200Y345200D03*
Y343300D03*
X368400Y358600D03*
X361900Y370000D03*
X363700Y372100D03*
X365400Y393100D03*
X366200Y405200D03*
X364481Y398681D03*
X368200Y406100D03*
X361800Y412200D03*
X365350Y440650D03*
X365400Y448114D03*
X363540Y454040D03*
X363900Y460900D03*
X361425Y475500D03*
X365000Y473100D03*
X361700Y501100D03*
X368400Y508800D03*
X362300Y576000D03*
X368900Y236200D03*
X375100Y241100D03*
X374700Y244700D03*
X374900Y247800D03*
X373660Y258852D03*
X375400Y261194D03*
X376400Y273800D03*
X371678Y266594D03*
X369939Y269654D03*
X371678Y283194D03*
X368978Y285239D03*
X371700Y289900D03*
X372178Y300628D03*
X369978Y305894D03*
X373478Y310994D03*
X368900Y313600D03*
X373478Y316994D03*
X369900Y317100D03*
X372100Y327300D03*
X372152Y329248D03*
X372900Y335400D03*
X372600Y355106D03*
X375900Y358000D03*
X372700Y364600D03*
X368900Y372400D03*
X375500Y370000D03*
X371800Y380400D03*
X370200Y405100D03*
X372100D03*
X370200Y407000D03*
Y408800D03*
Y410600D03*
Y412400D03*
X372100Y407000D03*
Y410600D03*
Y412400D03*
Y408800D03*
X376500Y418806D03*
X371600Y420800D03*
X373000Y438300D03*
X370690Y439010D03*
X372500Y440900D03*
X368800D03*
X376100Y462000D03*
X369599Y467099D03*
X372600Y472500D03*
X368700Y475400D03*
X376300Y475500D03*
Y485400D03*
Y483500D03*
X376100Y508700D03*
X372073Y506773D03*
X372300Y575900D03*
X382700Y238300D03*
X380336Y246600D03*
X381194Y257494D03*
X384626Y254100D03*
X381400Y262579D03*
X377668Y260261D03*
X381600Y273700D03*
X377478Y266478D03*
X379078Y273594D03*
Y279700D03*
X381372Y289700D03*
X381478Y310994D03*
X377478Y313794D03*
Y308194D03*
X381478Y316994D03*
X378600Y329600D03*
X383300Y338500D03*
X379100Y336100D03*
X383200Y342800D03*
X378428Y352072D03*
X379978Y381100D03*
X377500Y383400D03*
X382500Y397000D03*
X377400Y406000D03*
X377700Y409458D03*
X381300Y416700D03*
X378400Y433600D03*
X381700Y432000D03*
X378760Y440260D03*
X384200Y451500D03*
X380200Y472400D03*
X382000Y481600D03*
Y483500D03*
Y485400D03*
X380100D03*
Y483500D03*
Y481600D03*
Y479700D03*
X378200Y483500D03*
Y485400D03*
X381857Y501300D03*
X379200Y538300D03*
X383500Y538200D03*
Y542600D03*
X379200Y542700D03*
X379300Y551600D03*
X383600Y551500D03*
X382700Y547400D03*
X383600Y555900D03*
X379300Y556000D03*
X383300Y567400D03*
X379400Y567445D03*
X383800Y562600D03*
X379500Y562700D03*
X380200Y576000D03*
X386100Y237600D03*
X387700Y242200D03*
X390300Y242600D03*
X385200D03*
X391600Y251200D03*
X390480Y273694D03*
X390481Y270545D03*
X387920Y273694D03*
X387924Y279994D03*
X390493Y279996D03*
X390482Y289444D03*
X390483Y283144D03*
X393034Y289444D03*
X387926Y292593D03*
X390481Y292594D03*
X384978Y298294D03*
X390481Y302043D03*
X389378Y313694D03*
X391130Y320890D03*
X387400Y326900D03*
X387260Y329940D03*
X389500Y351600D03*
X386046Y351546D03*
X387500Y355200D03*
X388200Y357800D03*
X387800Y367700D03*
X386510Y383490D03*
X392100Y383400D03*
X387550Y393150D03*
X389400Y404700D03*
X388100Y398200D03*
X391968Y404400D03*
X388000Y438100D03*
Y443100D03*
X385300D03*
X389781Y455081D03*
X391031Y457731D03*
X385400Y468500D03*
X389300Y478100D03*
X391200D03*
X387800Y474300D03*
X392000Y483800D03*
X390100D03*
Y481900D03*
X392000D03*
X388200D03*
Y483800D03*
Y480000D03*
X390100D03*
X392000D03*
X391300Y503700D03*
Y499700D03*
X387100Y504500D03*
X391500Y511900D03*
X391400Y509200D03*
X389600Y513700D03*
X391500Y535300D03*
X391100Y547500D03*
X391200Y555500D03*
X390600Y567400D03*
X387400Y575900D03*
X399900Y242500D03*
X396200Y245700D03*
X396100Y250200D03*
X393519Y266000D03*
X396778Y258894D03*
X400714Y273696D03*
X395599Y267395D03*
X395601Y273694D03*
X395600Y270545D03*
X398163Y273694D03*
X400718Y270545D03*
X398160D03*
X398158Y267295D03*
X400718Y267395D03*
X393052Y279996D03*
X398165Y279994D03*
X398162Y276844D03*
X395586Y279996D03*
X400724Y283144D03*
X400718Y289444D03*
X398160Y283144D03*
X393042D03*
X400722Y295743D03*
X395601Y298894D03*
X400717Y292594D03*
X400718Y298893D03*
X398170Y292592D03*
X393041Y292594D03*
X398159Y298894D03*
X398158Y295744D03*
X395600Y305193D03*
X400717Y302043D03*
X395601D03*
X398158D03*
X398159Y305193D03*
X393041D03*
X400718D03*
X398378Y313694D03*
X393550Y320840D03*
X395124Y328576D03*
X396950Y338550D03*
X395044Y344000D03*
X399600Y346615D03*
X397400Y354500D03*
X400300D03*
X397443Y357057D03*
X394857Y357043D03*
X395700Y372240D03*
X394657Y367657D03*
X397900Y393100D03*
X397600Y405000D03*
X397900Y398100D03*
X395200Y404400D03*
X396300Y413700D03*
X396200Y417800D03*
X396300Y421100D03*
X400475Y438225D03*
X400200Y443000D03*
X396700Y451700D03*
X400643Y451843D03*
X396960Y459740D03*
X393500Y468500D03*
X401200Y470300D03*
Y467200D03*
X393100Y478100D03*
X401200Y474400D03*
X398900Y478000D03*
X398100Y481800D03*
X399800Y490900D03*
X395400Y512100D03*
X399100Y508400D03*
X400700Y520000D03*
X395500Y515800D03*
Y519600D03*
X398041Y540741D03*
X395500Y561900D03*
X396500Y576000D03*
X409400Y259200D03*
X408378Y266794D03*
X408398Y270545D03*
X403278D03*
X408394Y273695D03*
X403989Y267106D03*
X403273Y273696D03*
X408398Y279994D03*
X403284Y276844D03*
X405832Y276846D03*
X405838Y279994D03*
X403278Y289444D03*
X405846D03*
X403278Y283144D03*
X408397Y292592D03*
X408407Y298892D03*
X405835Y295744D03*
X403286D03*
Y292594D03*
X408402Y305191D03*
X408395Y302043D03*
X405836D03*
X405843Y305191D03*
X403276Y302043D03*
X408850Y312850D03*
X409176Y332400D03*
X405570Y333500D03*
X401300Y359300D03*
X405450Y359150D03*
Y366750D03*
X404600Y394000D03*
X402100Y391100D03*
X403200Y397900D03*
X408500Y397800D03*
X406400Y413700D03*
X401500D03*
X401400Y417800D03*
X406300D03*
X406400Y421100D03*
X401500D03*
X402400Y432700D03*
X406380Y443780D03*
X408800Y447400D03*
X409400Y460500D03*
X407100Y468400D03*
X404700Y466200D03*
X402200Y477700D03*
X407800Y486500D03*
Y484600D03*
X407900Y482700D03*
X408000Y490200D03*
X403300Y488400D03*
X407300Y498900D03*
X404700D03*
X403600Y507122D03*
X404400Y509900D03*
X402700Y514357D03*
X408191Y515191D03*
X406300Y513300D03*
X408000Y525600D03*
X402700Y536700D03*
X406700Y529600D03*
X402800Y533100D03*
X404500Y542700D03*
X405621Y545279D03*
X401881Y558400D03*
X408400Y565100D03*
X406500Y575900D03*
X416500Y227800D03*
X411020Y245500D03*
X413518Y267395D03*
X413517Y273694D03*
X410958Y267395D03*
Y273694D03*
Y279994D03*
X413520D03*
X413522Y295744D03*
X410963Y292594D03*
X413522D03*
X413520Y305191D03*
X410961D03*
X413520Y302041D03*
X416099Y305094D03*
X416881Y312100D03*
X413930Y312850D03*
X417200Y315300D03*
X412400Y323500D03*
X414400Y323400D03*
X416400D03*
X411715Y346615D03*
X411497Y364797D03*
X412700Y361100D03*
X411400Y359000D03*
X413516Y392194D03*
X413189Y414732D03*
Y417964D03*
X410700Y414600D03*
X410600Y417400D03*
X414900Y438100D03*
X415000Y442900D03*
X412800Y452100D03*
Y450100D03*
X414800D03*
Y452100D03*
X409700Y486500D03*
X411600D03*
X413500D03*
Y484600D03*
X411600D03*
X409700D03*
X413600Y482700D03*
X411700D03*
X409800D03*
X410300Y498900D03*
X415300Y505100D03*
X415000Y507800D03*
X414600Y518700D03*
X414967Y515467D03*
X410100Y513400D03*
X410200Y519700D03*
X410100Y522500D03*
X410000Y549300D03*
X417300Y549400D03*
X414000Y553500D03*
X414200Y561700D03*
X415100Y575700D03*
X419300Y228000D03*
X423497Y245500D03*
X425600Y258900D03*
X423763Y267395D03*
X418640D03*
X421204D03*
X421200Y273694D03*
Y276844D03*
X418638Y276846D03*
X423759Y289444D03*
X421200Y295744D03*
Y292594D03*
Y298894D03*
X423760Y305193D03*
X418642D03*
X421200D03*
X423900Y312300D03*
X421106Y392194D03*
X425100Y401200D03*
X421600Y402800D03*
X421795Y413395D03*
X424300Y416500D03*
X423762Y470462D03*
X418398Y483098D03*
X424000Y488600D03*
X424043Y496443D03*
X422400Y504043D03*
Y507800D03*
X422579Y515479D03*
X418100Y534100D03*
X418000Y556400D03*
X422400Y575900D03*
X429300Y228000D03*
X427147Y245500D03*
X433294Y258907D03*
X431427Y273696D03*
X426322Y267395D03*
X431440D03*
X428880D03*
X428868Y276846D03*
X428877Y289444D03*
X426320Y283144D03*
X431438D03*
X433996Y283154D03*
X426320Y289444D03*
X428879Y283144D03*
X431200Y295900D03*
X433999Y292592D03*
X426315Y295742D03*
X428875Y292592D03*
X433999Y302041D03*
X426320Y305193D03*
X431440D03*
X426850Y308432D03*
X432800Y333968D03*
X429100Y344300D03*
X429200Y341400D03*
X431100Y352600D03*
X431000Y360900D03*
X429100Y375500D03*
X430200Y422200D03*
X432100D03*
X426000Y426500D03*
X428600D03*
X426000Y431900D03*
X428800Y478300D03*
X430593Y504093D03*
X430443Y507843D03*
X430700Y522100D03*
X427100Y545400D03*
X427600Y553700D03*
X427300Y561600D03*
X431500Y576000D03*
X439500Y227900D03*
X435178Y265460D03*
X438812D03*
X441678Y273694D03*
X436560Y270545D03*
X441674Y283144D03*
X441670Y289442D03*
X436552D03*
X436556Y283144D03*
X439111Y289442D03*
X439115Y283144D03*
X441670Y295742D03*
X436403Y305204D03*
X439117Y305193D03*
X435681Y311700D03*
X434700Y328000D03*
X434600Y330400D03*
X441132Y330268D03*
X435200Y324468D03*
X436100Y339000D03*
X440500Y345300D03*
X434600Y341000D03*
X439600Y356300D03*
X440700Y352000D03*
X434757Y362443D03*
X439600Y366600D03*
X439900Y374600D03*
X434768Y387168D03*
X438468Y387032D03*
Y395168D03*
X434768D03*
X439843Y409143D03*
X440100Y435600D03*
X438762Y439000D03*
X439400Y455800D03*
X437600Y479700D03*
X437700Y488580D03*
X439400Y496800D03*
X435300Y496700D03*
X439257Y507943D03*
X439200Y504200D03*
X441200Y529100D03*
X437300D03*
X438100Y533634D03*
X434800Y548900D03*
X437200Y561100D03*
X436200Y553800D03*
X441500Y575900D03*
X447300Y227600D03*
Y230700D03*
X450400Y265557D03*
X446316Y269516D03*
X444237Y273694D03*
Y276844D03*
X446475Y279075D03*
X450151Y289351D03*
X446443Y286743D03*
X444836Y289444D03*
X444233Y283144D03*
X450375Y298775D03*
X444229Y292592D03*
X445066Y297308D03*
X448700Y306700D03*
X444419Y305381D03*
X446675Y303375D03*
X446500Y312244D03*
X448600Y330300D03*
X444968Y330332D03*
X444600Y356537D03*
X443200Y352700D03*
X444700Y362500D03*
X442400Y366700D03*
X444600Y374700D03*
X450400Y375400D03*
X442268Y387132D03*
X446068Y387100D03*
X449768D03*
Y395132D03*
X445700Y425400D03*
X447700Y447200D03*
X446900Y487400D03*
X446800Y484400D03*
X447900Y504100D03*
X448700Y509900D03*
X443996Y514696D03*
X444500Y531000D03*
X447300Y531100D03*
X447800Y575500D03*
X453600Y227600D03*
X450500D03*
X453600Y230700D03*
X450500D03*
X457053Y245500D03*
X456400Y254100D03*
X458300Y254200D03*
X450757Y256057D03*
X458400Y261700D03*
Y259700D03*
X450557Y260957D03*
X456399Y267500D03*
X452757Y267800D03*
X452143Y274300D03*
X456100Y276200D03*
X458100D03*
X452143Y282257D03*
X456957Y283857D03*
X457400Y296700D03*
Y298700D03*
X457300Y300900D03*
X452368Y330300D03*
X453400Y363800D03*
Y372900D03*
X452600Y401300D03*
X453000Y405600D03*
X454200Y427600D03*
X453400Y429600D03*
X454682Y438182D03*
X452400Y450000D03*
X453300Y457600D03*
X455400Y469500D03*
X452400D03*
X453100Y491800D03*
X455900Y493800D03*
X453500Y494600D03*
X455700Y496400D03*
X455100Y575700D03*
X466600Y229400D03*
X466500Y227500D03*
X463100Y246000D03*
X461300Y266100D03*
X459400Y298900D03*
X461300Y299000D03*
X459200Y301000D03*
X462200Y325300D03*
X463900Y330200D03*
Y333968D03*
X464100Y337600D03*
X464300Y341600D03*
X459500Y362700D03*
X461700D03*
X464500Y397418D03*
X465000Y441500D03*
X465100Y439600D03*
X460153Y441147D03*
X459118Y448218D03*
X460400Y450600D03*
X460500Y456900D03*
X465200Y513700D03*
X464900Y537200D03*
Y542800D03*
Y548500D03*
X464200Y575800D03*
X468500Y229400D03*
Y227500D03*
X470400D03*
X472300Y229500D03*
X470400Y229400D03*
X472300Y227600D03*
X467200Y257400D03*
X470400D03*
X468532Y252400D03*
X470400Y261000D03*
X467200D03*
X473500D03*
Y264700D03*
X467200D03*
X470400D03*
X470501Y269700D03*
X470500Y273300D03*
X470600Y276800D03*
X470700Y280500D03*
Y284300D03*
X470600Y288500D03*
X471500Y345332D03*
X472232Y341568D03*
X472032Y352832D03*
X472119Y364119D03*
X471500Y369500D03*
X472500Y386200D03*
X474800Y385100D03*
X472600Y381700D03*
X472700Y418700D03*
X468800Y441500D03*
X466900D03*
X468900Y439600D03*
X467000D03*
X470064Y457836D03*
X472700Y495600D03*
X468700Y501600D03*
X472457Y501643D03*
X474700Y497100D03*
X469400Y510800D03*
X468700Y517500D03*
X474900Y537200D03*
Y542800D03*
Y548500D03*
X474800Y555200D03*
X474900Y562100D03*
X474200Y575700D03*
X479000Y241104D03*
X479800Y238300D03*
X481900Y246800D03*
X479900D03*
X482900Y264933D03*
X481200Y261300D03*
X483200Y276400D03*
X483000Y283300D03*
Y298900D03*
X481000D03*
X483100Y300800D03*
X481100D03*
X478200Y335700D03*
X482600Y341700D03*
X479400Y351100D03*
X482800Y351000D03*
X480400Y362500D03*
X479300Y364700D03*
X479800Y367500D03*
X477300Y382100D03*
X480119Y381881D03*
X478000Y388974D03*
X480200Y408600D03*
X478000Y411100D03*
X480100Y426900D03*
X476900Y433100D03*
X478800D03*
X480700D03*
X476800Y435000D03*
X478700D03*
X480600D03*
X481200Y448800D03*
X475934Y459900D03*
X479700D03*
X482300Y462100D03*
X479100Y495372D03*
X481160Y501643D03*
X488200Y234800D03*
X483600Y241000D03*
X490300Y240500D03*
X487700Y238800D03*
X484800Y234900D03*
Y238200D03*
X487700Y243800D03*
X491200Y243500D03*
X491250Y254550D03*
X483500Y260400D03*
X490900Y271600D03*
X490800Y274300D03*
X485200Y276400D03*
X484957Y285800D03*
X484900Y298900D03*
X484250Y297050D03*
X485000Y300800D03*
X489800Y307000D03*
X490300Y338000D03*
X484600Y339700D03*
X487800Y335700D03*
X488300Y341700D03*
X484032Y356200D03*
X484100Y363800D03*
X483919Y390900D03*
X490100Y407000D03*
X486300Y433400D03*
X486600Y443500D03*
X488600Y441500D03*
X490400Y443500D03*
X490700Y441400D03*
X486500Y441500D03*
X488537Y443442D03*
Y449000D03*
X484814Y448800D03*
X486091Y472391D03*
X489733Y472033D03*
X487500Y495165D03*
X485400Y501000D03*
X484900Y537200D03*
Y542800D03*
Y548500D03*
X484800Y555200D03*
X484900Y562100D03*
X483500Y575800D03*
X495900Y223300D03*
X499400Y226900D03*
X492797Y234097D03*
X497300Y240600D03*
X491957Y249257D03*
X494500Y251100D03*
X491600Y267500D03*
X497600Y267600D03*
X499300Y281300D03*
X496500Y279700D03*
X498400Y298250D03*
X491700Y297600D03*
X492400Y294000D03*
X497900Y294900D03*
X495261Y331362D03*
X497600Y330700D03*
X496963Y333054D03*
X491800Y332100D03*
X493100Y336900D03*
X494800Y344600D03*
X495800Y356100D03*
X498100Y354100D03*
X493100Y355700D03*
X496100Y350100D03*
X493500Y350400D03*
X493700Y361600D03*
X498200Y358300D03*
Y361100D03*
X493100Y364100D03*
X493600Y367700D03*
X495600Y365300D03*
X495800Y387000D03*
X495700Y393900D03*
X496300Y402200D03*
X496000Y420000D03*
X498800Y427400D03*
X494900Y436000D03*
X496843Y470057D03*
X499500Y484100D03*
X498200Y487300D03*
X492226Y501643D03*
X496100Y501500D03*
X495900Y509200D03*
X494642Y507058D03*
X498000Y524600D03*
X499200Y533634D03*
X494900Y537200D03*
X492100Y542800D03*
Y548400D03*
X492000Y555100D03*
X498400Y559400D03*
X492100Y562000D03*
X495800D03*
X493500Y575700D03*
X503800Y233400D03*
X506800Y251700D03*
X505000Y260900D03*
X506700Y264400D03*
X502600Y266400D03*
X506850Y281450D03*
X506900Y277700D03*
X507200Y286500D03*
X506400Y291000D03*
X507450Y298250D03*
X507300Y306200D03*
Y302200D03*
Y314057D03*
X507500Y310300D03*
X506200Y334500D03*
X506300Y338700D03*
X500100Y345700D03*
X506600Y375500D03*
X507200Y386700D03*
X507000Y394000D03*
X503400Y420000D03*
X501200Y429000D03*
X504814Y460514D03*
X507700Y476400D03*
X507397Y480097D03*
X505100Y484300D03*
X503000Y487300D03*
X507700Y487100D03*
X502528Y495372D03*
X500187Y501643D03*
X504000Y501700D03*
Y541400D03*
X501900Y549900D03*
X501000Y560600D03*
X504200Y564400D03*
X502000Y575700D03*
X514100Y239700D03*
X508900Y237700D03*
X508800Y247100D03*
X510300Y243700D03*
X508300Y258700D03*
X508000Y331400D03*
Y336500D03*
X510300Y348315D03*
Y345400D03*
Y362500D03*
X508400Y370100D03*
Y366800D03*
X510000Y374600D03*
X511400Y398500D03*
X513500Y400400D03*
X513800Y409200D03*
X511400Y420100D03*
X511600Y414900D03*
X509300Y425000D03*
X507900Y490900D03*
X510360Y498900D03*
X512000Y575600D03*
X517300Y231100D03*
X520000Y247100D03*
X516535Y495500D03*
X518600Y502500D03*
X518400Y498300D03*
X518750Y507000D03*
X519100Y551700D03*
X521700Y551500D03*
X519100Y554400D03*
X521700D03*
X524200Y554300D03*
X524800Y230800D03*
X524900Y240700D03*
X525100Y248100D03*
X525900Y330000D03*
X524300Y551400D03*
X526700D03*
Y554300D03*
X546100Y278400D03*
X546200Y274800D03*
Y282200D03*
X546400Y287000D03*
Y289900D03*
X545019Y294881D03*
X543000Y291900D03*
X546100Y302400D03*
X547209Y315309D03*
X547100Y307500D03*
G54D20*
X506800Y225011D03*
X516800D03*
G54D11*
X154056Y288889D03*
G54D12*
X164635Y278311D03*
X550981Y272381D03*
Y277381D03*
Y287381D03*
Y282381D03*
Y297381D03*
Y292381D03*
Y302381D03*
Y312381D03*
Y307381D03*
G54D21*
X520681Y254050D03*
X520181Y264050D03*
X519681Y274050D03*
X520181Y284050D03*
X520681Y294050D03*
Y304050D03*
X521681Y314050D03*
X522559Y324050D03*
X521468Y334050D03*
X520575Y344050D03*
X522043Y354050D03*
X520575Y364050D03*
X522059Y374050D03*
X521181Y384050D03*
X521681Y394050D03*
X523681Y404050D03*
X523181Y414050D03*
X522681Y424050D03*
X523181Y434050D03*
X523681Y444050D03*
Y454050D03*
X524681Y464050D03*
X525559Y474050D03*
X524468Y484050D03*
X523575Y494050D03*
X525043Y504050D03*
X523575Y514050D03*
X525059Y524050D03*
X524181Y534050D03*
X524681Y544050D03*
G54D22*
G01X132840Y219900D02*
X553960D01*
G03X559960Y225900I0J6000D01*
G01Y572200D01*
G03X553960Y578200I-6000J0D01*
G01X132840D01*
G03X126840Y572200I0J-6000D01*
G01Y225900D01*
G03X132840Y219900I6000J0D01*
G01X184008Y363645D02*
X189851D01*
G03X191851Y365645I0J2000D01*
G01Y432512D01*
G03X189851Y434512I-2000J0D01*
G01X184008D01*
G03X182008Y432512I0J-2000D01*
G01Y365645D01*
G03X184008Y363645I2000J0D01*
G01X503067Y415517D02*
X497949D01*
G01D02*
Y412761D01*
G01D02*
X503067D01*
G01X497949Y446226D02*
Y448982D01*
G01D02*
X503067D01*
G01Y446226D02*
X497949D01*
G01X503067Y412761D02*
Y415517D01*
G01Y448982D02*
Y446226D01*
G01X552020Y238700D02*
G03I-10750J0D01*
G01X551980Y559480D02*
G03I-10750J0D01*
G01X541499Y345846D02*
G03Y339677I0J-3085D01*
G01Y345846D02*
G03Y339677I0J-3085D01*
G01X536618Y382678D02*
Y417922D01*
G02X538618Y419922I2000J0D01*
G01X544460D01*
G02X546460Y417922I0J-2000D01*
G01Y406500D01*
G03X548460Y404500I2000J0D01*
G01X549460D01*
G02X551460Y402500I0J-2000D01*
G01Y396500D01*
G02X549460Y394500I-2000J0D01*
G01X548460D01*
G03X546460Y392500I0J-2000D01*
G01Y382678D01*
G02X544460Y380678I-2000J0D01*
G01X538618D01*
G02X536618Y382678I0J2000D01*
G01X541499Y456083D02*
G03Y449913I0J-3085D01*
G01Y339677D02*
G03Y345846I0J3085D01*
G01Y449913D02*
G03Y456083I0J3085D01*
G54D13*
X194117Y261632D03*
X213802D03*
G54D23*
G01X342422Y286870D02*
Y289450D01*
X340732Y291140D01*
X340112D01*
X338763Y292489D01*
X336883D01*
G54D14*
X233054Y551339D03*
Y567875D03*
X266912Y551339D03*
Y567875D03*
G54D24*
G01X325283Y290439D02*
Y290489D01*
X327483Y292689D01*
G54D15*
X238664Y553505D03*
X261302D03*
G54D25*
G01X497949Y415517D02*
X503067D01*
Y412761D01*
X497949D01*
Y415517D01*
G01D02*
X503067D01*
Y412761D01*
X497949D01*
Y415517D01*
G01Y448982D02*
X503067D01*
Y446226D01*
X497949D01*
Y448982D01*
G01D02*
X503067D01*
Y446226D01*
X497949D01*
Y448982D01*
G54D16*
X268021Y346704D03*
X314872Y481758D03*
X464479D03*
X480227Y316404D03*
G54D17*
X276714Y228403D03*
X336800Y271000D03*
X474200Y446800D03*
X500864Y247678D03*
G54D18*
G01X139000Y485500D02*
X131000D01*
G01Y501000D02*
X139000D01*
Y495000D01*
X346915Y272715D03*
X346350Y282750D03*
G54D19*
X470189Y555128D03*
X501685D03*
M02*
