G04 ================== begin FILE IDENTIFICATION RECORD ==================*
G04 Layout Name:  BeagleBadge_V1.0_260728.brd*
G04 Film Name:    outline*
G04 File Format:  Gerber RS274X*
G04 File Origin:  Cadence Allegro 17.4-S035*
G04 Origin Date:  Wed Aug 26 15:41:09 2026*
G04 *
G04 Layer:  BOARD GEOMETRY/OUTLINE*
G04 Layer:  BOARD GEOMETRY/DESIGN_OUTLINE*
G04 *
G04 Offset:    (0.0000 0.0000)*
G04 Mirror:    No*
G04 Mode:      Positive*
G04 Rotation:  0*
G04 FullContactRelief:  No*
G04 UndefLineWidth:     6.0000*
G04 ================== end FILE IDENTIFICATION RECORD ====================*
%FSLAX25Y25*MOIN*%
%IR0*IPPOS*OFA0.00000B0.00000*MIA0B0*SFA1.00000B1.00000*%
%ADD10C,.02*%
%ADD11C,.005*%
%ADD12C,.006*%
G75*
%LPD*%
G75*
G54D10*
G01X139000Y485500D02*
X131000D01*
G01Y501000D02*
X139000D01*
Y495000D01*
G54D11*
G01X132840Y219900D02*
X553960D01*
G03X559960Y225900I0J6000D01*
G01Y572200D01*
G03X553960Y578200I-6000J0D01*
G01X132840D01*
G03X126840Y572200I0J-6000D01*
G01Y225900D01*
G03X132840Y219900I6000J0D01*
G01X184008Y363645D02*
X189851D01*
G03X191851Y365645I0J2000D01*
G01Y432512D01*
G03X189851Y434512I-2000J0D01*
G01X184008D01*
G03X182008Y432512I0J-2000D01*
G01Y365645D01*
G03X184008Y363645I2000J0D01*
G01X503067Y415517D02*
X497949D01*
G01D02*
Y412761D01*
G01D02*
X503067D01*
G01X497949Y446226D02*
Y448982D01*
G01D02*
X503067D01*
G01Y446226D02*
X497949D01*
G01X503067Y412761D02*
Y415517D01*
G01Y448982D02*
Y446226D01*
G01X552020Y238700D02*
G03I-10750J0D01*
G01X551980Y559480D02*
G03I-10750J0D01*
G01X541499Y345846D02*
G03Y339677I0J-3085D01*
G01Y345846D02*
G03Y339677I0J-3085D01*
G01X536618Y382678D02*
Y417922D01*
G02X538618Y419922I2000J0D01*
G01X544460D01*
G02X546460Y417922I0J-2000D01*
G01Y406500D01*
G03X548460Y404500I2000J0D01*
G01X549460D01*
G02X551460Y402500I0J-2000D01*
G01Y396500D01*
G02X549460Y394500I-2000J0D01*
G01X548460D01*
G03X546460Y392500I0J-2000D01*
G01Y382678D01*
G02X544460Y380678I-2000J0D01*
G01X538618D01*
G02X536618Y382678I0J2000D01*
G01X541499Y456083D02*
G03Y449913I0J-3085D01*
G01Y339677D02*
G03Y345846I0J3085D01*
G01Y449913D02*
G03Y456083I0J3085D01*
G54D12*
G01X497949Y415517D02*
X503067D01*
Y412761D01*
X497949D01*
Y415517D01*
G01D02*
X503067D01*
Y412761D01*
X497949D01*
Y415517D01*
G01Y448982D02*
X503067D01*
Y446226D01*
X497949D01*
Y448982D01*
G01D02*
X503067D01*
Y446226D01*
X497949D01*
Y448982D01*
M02*
