G04 ================== begin FILE IDENTIFICATION RECORD ==================*
G04 Layout Name:  BeagleBadge_V1.0_260728.brd*
G04 Film Name:    TPST*
G04 File Format:  Gerber RS274X*
G04 File Origin:  Cadence Allegro 17.4-S035*
G04 Origin Date:  Wed Aug 26 15:41:08 2026*
G04 *
G04 Layer:  PIN/PASTEMASK_TOP*
G04 Layer:  PACKAGE GEOMETRY/PASTEMASK_TOP*
G04 Layer:  DRAWING FORMAT/TITLE_BLOCK*
G04 Layer:  DRAWING FORMAT/TB_TPST*
G04 Layer:  BOARD GEOMETRY/OUTLINE*
G04 *
G04 Offset:    (0.0000 0.0000)*
G04 Mirror:    No*
G04 Mode:      Positive*
G04 Rotation:  0*
G04 FullContactRelief:  No*
G04 UndefLineWidth:     6.0000*
G04 ================== end FILE IDENTIFICATION RECORD ====================*
%FSLAX25Y25*MOIN*%
%IR0*IPPOS*OFA0.00000B0.00000*MIA0B0*SFA1.00000B1.00000*%
%AMMACRO130*
4,1,44,-.027559,.023622,
-.027559,-.023622,
-.027439,-.024989,
-.027084,-.026315,
-.026504,-.027559,
-.025717,-.028683,
-.024746,-.029654,
-.023622,-.030441,
-.022378,-.031021,
-.021052,-.031376,
-.019685,-.031496,
-.019685,-.031496,
.019685,-.031496,
.021052,-.031376,
.022378,-.031021,
.023622,-.030441,
.024746,-.029654,
.025717,-.028683,
.026504,-.027559,
.027084,-.026315,
.027439,-.024989,
.027559,-.023622,
.027559,-.023622,
.027559,.023622,
.027439,.024989,
.027084,.026315,
.026504,.027559,
.025717,.028683,
.024746,.029654,
.023622,.030441,
.022378,.031021,
.021052,.031376,
.019685,.031496,
.019685,.031496,
-.019685,.031496,
-.021052,.031376,
-.022378,.031021,
-.023622,.030441,
-.024746,.029654,
-.025717,.028683,
-.026504,.027559,
-.027084,.026315,
-.027439,.024989,
-.027559,.023622,
-.027559,.023622,
0.0*
%
%ADD130MACRO130*%
%AMMACRO129*
4,1,44,.021654,.029528,
-.021654,.029528,
-.021995,.029498,
-.022327,.029409,
-.022638,.029264,
-.022919,.029067,
-.023161,.028824,
-.023358,.028543,
-.023503,.028232,
-.023592,.027901,
-.023622,.027559,
-.023622,.027559,
-.023622,-.027559,
-.023592,-.027901,
-.023503,-.028232,
-.023358,-.028543,
-.023162,-.028824,
-.022919,-.029067,
-.022638,-.029264,
-.022327,-.029409,
-.021995,-.029498,
-.021654,-.029528,
-.021654,-.029528,
.021654,-.029528,
.021995,-.029498,
.022327,-.029409,
.022638,-.029264,
.022919,-.029067,
.023161,-.028824,
.023358,-.028543,
.023503,-.028232,
.023592,-.027901,
.023622,-.027559,
.023622,-.027559,
.023622,.027559,
.023592,.027901,
.023503,.028232,
.023358,.028543,
.023162,.028824,
.022919,.029067,
.022638,.029264,
.022327,.029409,
.021995,.029498,
.021654,.029528,
.021654,.029528,
0.0*
%
%ADD129MACRO129*%
%AMMACRO126*
4,1,44,.021654,.029528,
-.021654,.029528,
-.023021,.029408,
-.024347,.029053,
-.025591,.028473,
-.026715,.027685,
-.027685,.026715,
-.028473,.025591,
-.029053,.024347,
-.029408,.023021,
-.029528,.021654,
-.029528,.021654,
-.029528,-.021654,
-.029408,-.023021,
-.029053,-.024347,
-.028473,-.025591,
-.027685,-.026715,
-.026715,-.027685,
-.025591,-.028473,
-.024347,-.029053,
-.023021,-.029408,
-.021654,-.029528,
-.021654,-.029528,
.021654,-.029528,
.023021,-.029408,
.024347,-.029053,
.025591,-.028473,
.026715,-.027685,
.027685,-.026715,
.028473,-.025591,
.029053,-.024347,
.029408,-.023021,
.029528,-.021654,
.029528,-.021654,
.029528,.021654,
.029408,.023021,
.029053,.024347,
.028473,.025591,
.027685,.026715,
.026715,.027685,
.025591,.028473,
.024347,.029053,
.023021,.029408,
.021654,.029528,
.021654,.029528,
0.0*
%
%ADD126MACRO126*%
%AMMACRO26*
4,1,40,-.05315,.045276,
-.05315,-.045276,
-.05303,-.046643,
-.052675,-.047969,
-.052095,-.049213,
-.051307,-.050337,
-.050337,-.051307,
-.049213,-.052095,
-.047969,-.052675,
-.046643,-.05303,
-.045276,-.05315,
.045276,-.05315,
.046643,-.05303,
.047969,-.052675,
.049213,-.052095,
.050337,-.051307,
.051307,-.050337,
.052095,-.049213,
.052675,-.047969,
.05303,-.046643,
.05315,-.045276,
.05315,.045276,
.05303,.046643,
.052675,.047969,
.052095,.049213,
.051307,.050337,
.050337,.051307,
.049213,.052095,
.047969,.052675,
.046643,.05303,
.045276,.05315,
-.045276,.05315,
-.046643,.05303,
-.047969,.052675,
-.049213,.052095,
-.050337,.051307,
-.051307,.050337,
-.052095,.049213,
-.052675,.047969,
-.05303,.046643,
-.05315,.045276,
0.0*
%
%ADD26MACRO26*%
%AMMACRO125*
4,1,6,.01181,-.01181,
-.01181,-.01181,
-.01181,.01181,
-.00197,.01181,
-.00197,-.00197,
.01181,-.00197,
.01181,-.01181,
0.0*
%
%ADD125MACRO125*%
%AMMACRO122*
4,1,44,-.01378,.027559,
-.01378,-.027559,
-.01372,-.028243,
-.013542,-.028906,
-.013252,-.029528,
-.012858,-.03009,
-.012373,-.030575,
-.011811,-.030969,
-.011189,-.031259,
-.010526,-.031436,
-.009843,-.031496,
-.009842,-.031496,
.009842,-.031496,
.010526,-.031436,
.011189,-.031259,
.011811,-.030969,
.012373,-.030575,
.012858,-.03009,
.013252,-.029528,
.013542,-.028906,
.01372,-.028243,
.01378,-.027559,
.01378,-.027559,
.01378,.027559,
.01372,.028243,
.013542,.028906,
.013252,.029528,
.012858,.03009,
.012373,.030575,
.011811,.030969,
.011189,.031259,
.010526,.031436,
.009843,.031496,
.009842,.031496,
-.009842,.031496,
-.010526,.031436,
-.011189,.031259,
-.011811,.030969,
-.012373,.030575,
-.012858,.03009,
-.013252,.029528,
-.013542,.028906,
-.01372,.028243,
-.01378,.027559,
-.01378,.027559,
0.0*
%
%ADD122MACRO122*%
%AMMACRO110*
4,1,44,.015748,-.002953,
.015748,.002953,
.015718,.003295,
.015629,.003626,
.015484,.003937,
.015288,.004218,
.015045,.004461,
.014764,.004657,
.014453,.004803,
.014121,.004891,
.01378,.004921,
.01378,.004921,
-.01378,.004921,
-.014121,.004891,
-.014453,.004803,
-.014764,.004658,
-.015045,.004461,
-.015287,.004218,
-.015484,.003937,
-.015629,.003626,
-.015718,.003295,
-.015748,.002953,
-.015748,.002953,
-.015748,-.002953,
-.015718,-.003295,
-.015629,-.003626,
-.015484,-.003937,
-.015288,-.004218,
-.015045,-.004461,
-.014764,-.004657,
-.014453,-.004803,
-.014121,-.004891,
-.01378,-.004921,
-.01378,-.004921,
.01378,-.004921,
.014121,-.004891,
.014453,-.004803,
.014764,-.004658,
.015045,-.004461,
.015287,-.004218,
.015484,-.003937,
.015629,-.003626,
.015718,-.003295,
.015748,-.002953,
.015748,-.002953,
0.0*
%
%ADD110MACRO110*%
%AMMACRO100*
4,1,44,-.002953,-.015748,
.002953,-.015748,
.003295,-.015718,
.003626,-.015629,
.003937,-.015484,
.004218,-.015288,
.004461,-.015045,
.004657,-.014764,
.004803,-.014453,
.004891,-.014121,
.004921,-.01378,
.004921,-.01378,
.004921,.01378,
.004891,.014121,
.004803,.014453,
.004658,.014764,
.004461,.015045,
.004218,.015287,
.003937,.015484,
.003626,.015629,
.003295,.015718,
.002953,.015748,
.002953,.015748,
-.002953,.015748,
-.003295,.015718,
-.003626,.015629,
-.003937,.015484,
-.004218,.015288,
-.004461,.015045,
-.004657,.014764,
-.004803,.014453,
-.004891,.014121,
-.004921,.01378,
-.004921,.01378,
-.004921,-.01378,
-.004891,-.014121,
-.004803,-.014453,
-.004658,-.014764,
-.004461,-.015045,
-.004218,-.015287,
-.003937,-.015484,
-.003626,-.015629,
-.003295,-.015718,
-.002953,-.015748,
-.002953,-.015748,
0.0*
%
%ADD100MACRO100*%
%ADD105R,.008X.024*%
%AMMACRO109*
4,1,44,.027559,.035433,
-.027559,.035433,
-.028926,.035313,
-.030252,.034958,
-.031496,.034378,
-.03262,.033591,
-.033591,.03262,
-.034378,.031496,
-.034958,.030252,
-.035313,.028926,
-.035433,.027559,
-.035433,.027559,
-.035433,-.027559,
-.035313,-.028926,
-.034958,-.030252,
-.034378,-.031496,
-.033591,-.03262,
-.03262,-.033591,
-.031496,-.034378,
-.030252,-.034958,
-.028926,-.035313,
-.027559,-.035433,
-.027559,-.035433,
.027559,-.035433,
.028926,-.035313,
.030252,-.034958,
.031496,-.034378,
.03262,-.033591,
.033591,-.03262,
.034378,-.031496,
.034958,-.030252,
.035313,-.028926,
.035433,-.027559,
.035433,-.027559,
.035433,.027559,
.035313,.028926,
.034958,.030252,
.034378,.031496,
.033591,.03262,
.03262,.033591,
.031496,.034378,
.030252,.034958,
.028926,.035313,
.027559,.035433,
.027559,.035433,
0.0*
%
%ADD109MACRO109*%
%ADD106R,.024X.008*%
%ADD81C,.01*%
%AMMACRO80*
4,1,40,.043307,.03248,
-.043307,.03248,
-.043649,.03245,
-.04398,.032362,
-.044291,.032217,
-.044572,.03202,
-.044815,.031777,
-.045012,.031496,
-.045157,.031185,
-.045246,.030854,
-.045276,.030512,
-.045276,-.030512,
-.045246,-.030854,
-.045157,-.031185,
-.045012,-.031496,
-.044815,-.031777,
-.044572,-.03202,
-.044291,-.032217,
-.04398,-.032362,
-.043649,-.03245,
-.043307,-.03248,
.043307,-.03248,
.043649,-.03245,
.04398,-.032362,
.044291,-.032217,
.044572,-.03202,
.044815,-.031777,
.045012,-.031496,
.045157,-.031185,
.045246,-.030854,
.045276,-.030512,
.045276,.030512,
.045246,.030854,
.045157,.031185,
.045012,.031496,
.044815,.031777,
.044572,.03202,
.044291,.032217,
.04398,.032362,
.043649,.03245,
.043307,.03248,
0.0*
%
%ADD80MACRO80*%
%AMMACRO54*
4,1,40,.031496,.03937,
-.031496,.03937,
-.032863,.03925,
-.034189,.038895,
-.035433,.038315,
-.036557,.037528,
-.037528,.036557,
-.038315,.035433,
-.038895,.034189,
-.03925,.032863,
-.03937,.031496,
-.03937,-.031496,
-.03925,-.032863,
-.038895,-.034189,
-.038315,-.035433,
-.037528,-.036557,
-.036557,-.037528,
-.035433,-.038315,
-.034189,-.038895,
-.032863,-.03925,
-.031496,-.03937,
.031496,-.03937,
.032863,-.03925,
.034189,-.038895,
.035433,-.038315,
.036557,-.037528,
.037528,-.036557,
.038315,-.035433,
.038895,-.034189,
.03925,-.032863,
.03937,-.031496,
.03937,.031496,
.03925,.032863,
.038895,.034189,
.038315,.035433,
.037528,.036557,
.036557,.037528,
.035433,.038315,
.034189,.038895,
.032863,.03925,
.031496,.03937,
0.0*
%
%ADD54MACRO54*%
%AMMACRO94*
4,1,40,.047244,.059055,
-.047244,.059055,
-.049295,.058876,
-.051284,.058343,
-.05315,.057473,
-.054836,.056292,
-.056292,.054836,
-.057473,.05315,
-.058343,.051284,
-.058876,.049295,
-.059055,.047244,
-.059055,-.047244,
-.058876,-.049295,
-.058343,-.051284,
-.057473,-.05315,
-.056292,-.054836,
-.054836,-.056292,
-.05315,-.057473,
-.051284,-.058343,
-.049295,-.058876,
-.047244,-.059055,
.047244,-.059055,
.049295,-.058876,
.051284,-.058343,
.05315,-.057473,
.054836,-.056292,
.056292,-.054836,
.057473,-.05315,
.058343,-.051284,
.058876,-.049295,
.059055,-.047244,
.059055,.047244,
.058876,.049295,
.058343,.051284,
.057473,.05315,
.056292,.054836,
.054836,.056292,
.05315,.057473,
.051284,.058343,
.049295,.058876,
.047244,.059055,
0.0*
%
%ADD94MACRO94*%
%AMMACRO87*
4,1,40,.0275,-.016063,
.0275,.016063,
.02744,.016747,
.027263,.01741,
.026973,.018031,
.026579,.018594,
.026094,.019079,
.025532,.019473,
.02491,.019763,
.024247,.01994,
.023563,.02,
-.023563,.02,
-.024247,.01994,
-.02491,.019763,
-.025531,.019473,
-.026094,.019079,
-.026579,.018594,
-.026973,.018032,
-.027263,.01741,
-.02744,.016747,
-.0275,.016063,
-.0275,-.016063,
-.02744,-.016747,
-.027263,-.01741,
-.026973,-.018031,
-.026579,-.018594,
-.026094,-.019079,
-.025532,-.019473,
-.02491,-.019763,
-.024247,-.01994,
-.023563,-.02,
.023563,-.02,
.024247,-.01994,
.02491,-.019763,
.025531,-.019473,
.026094,-.019079,
.026579,-.018594,
.026973,-.018032,
.027263,-.01741,
.02744,-.016747,
.0275,-.016063,
0.0*
%
%ADD87MACRO87*%
%AMMACRO60*
4,1,40,-.016063,-.0275,
.016063,-.0275,
.016747,-.02744,
.01741,-.027263,
.018031,-.026973,
.018594,-.026579,
.019079,-.026094,
.019473,-.025532,
.019763,-.02491,
.01994,-.024247,
.02,-.023563,
.02,.023563,
.01994,.024247,
.019763,.02491,
.019473,.025531,
.019079,.026094,
.018594,.026579,
.018032,.026973,
.01741,.027263,
.016747,.02744,
.016063,.0275,
-.016063,.0275,
-.016747,.02744,
-.01741,.027263,
-.018031,.026973,
-.018594,.026579,
-.019079,.026094,
-.019473,.025532,
-.019763,.02491,
-.01994,.024247,
-.02,.023563,
-.02,-.023563,
-.01994,-.024247,
-.019763,-.02491,
-.019473,-.025531,
-.019079,-.026094,
-.018594,-.026579,
-.018032,-.026973,
-.01741,-.027263,
-.016747,-.02744,
-.016063,-.0275,
0.0*
%
%ADD60MACRO60*%
%ADD128R,.008X.028*%
%AMMACRO127*
4,1,40,.005906,.014764,
-.005906,.014764,
-.006247,.014734,
-.006579,.014645,
-.00689,.0145,
-.007171,.014303,
-.007413,.014061,
-.00761,.01378,
-.007755,.013469,
-.007844,.013137,
-.007874,.012795,
-.007874,-.012795,
-.007844,-.013137,
-.007755,-.013469,
-.00761,-.01378,
-.007413,-.014061,
-.007171,-.014303,
-.00689,-.0145,
-.006579,-.014645,
-.006247,-.014734,
-.005906,-.014764,
.005906,-.014764,
.006247,-.014734,
.006579,-.014645,
.00689,-.0145,
.007171,-.014303,
.007413,-.014061,
.00761,-.01378,
.007755,-.013469,
.007844,-.013137,
.007874,-.012795,
.007874,.012795,
.007844,.013137,
.007755,.013469,
.00761,.01378,
.007413,.014061,
.007171,.014303,
.00689,.0145,
.006579,.014645,
.006247,.014734,
.005906,.014764,
0.0*
%
%ADD127MACRO127*%
%ADD99C,.013*%
%AMMACRO61*
4,1,40,-.013563,-.0175,
.013563,-.0175,
.014247,-.01744,
.01491,-.017263,
.015531,-.016973,
.016094,-.016579,
.016579,-.016094,
.016973,-.015532,
.017263,-.01491,
.01744,-.014247,
.0175,-.013563,
.0175,.013563,
.01744,.014247,
.017263,.01491,
.016973,.015532,
.016579,.016094,
.016094,.016579,
.015532,.016973,
.01491,.017263,
.014247,.01744,
.013563,.0175,
-.013563,.0175,
-.014247,.01744,
-.01491,.017263,
-.015532,.016973,
-.016094,.016579,
-.016579,.016094,
-.016973,.015532,
-.017263,.01491,
-.01744,.014247,
-.0175,.013563,
-.0175,-.013563,
-.01744,-.014247,
-.017263,-.01491,
-.016973,-.015531,
-.016579,-.016094,
-.016094,-.016579,
-.015532,-.016973,
-.01491,-.017263,
-.014247,-.01744,
-.013563,-.0175,
0.0*
%
%ADD61MACRO61*%
%AMMACRO23*
4,1,40,.0175,-.013563,
.0175,.013563,
.01744,.014247,
.017263,.01491,
.016973,.015532,
.016579,.016094,
.016094,.016579,
.015532,.016973,
.01491,.017263,
.014247,.01744,
.013563,.0175,
-.013563,.0175,
-.014247,.01744,
-.01491,.017263,
-.015532,.016973,
-.016094,.016579,
-.016579,.016094,
-.016973,.015532,
-.017263,.01491,
-.01744,.014247,
-.0175,.013563,
-.0175,-.013563,
-.01744,-.014247,
-.017263,-.01491,
-.016973,-.015531,
-.016579,-.016094,
-.016094,-.016579,
-.015532,-.016973,
-.01491,-.017263,
-.014247,-.01744,
-.013563,-.0175,
.013563,-.0175,
.014247,-.01744,
.01491,-.017263,
.015531,-.016973,
.016094,-.016579,
.016579,-.016094,
.016973,-.015532,
.017263,-.01491,
.01744,-.014247,
.0175,-.013563,
0.0*
%
%ADD23MACRO23*%
%ADD107R,.028X.008*%
%ADD48C,.014*%
%AMMACRO19*
4,1,40,-.009842,.007874,
-.009842,-.007874,
-.009813,-.008216,
-.009724,-.008547,
-.009579,-.008858,
-.009382,-.009139,
-.009139,-.009382,
-.008858,-.009579,
-.008547,-.009724,
-.008216,-.009813,
-.007874,-.009842,
.007874,-.009842,
.008216,-.009813,
.008547,-.009724,
.008858,-.009579,
.009139,-.009382,
.009382,-.009139,
.009579,-.008858,
.009724,-.008547,
.009813,-.008216,
.009842,-.007874,
.009842,.007874,
.009813,.008216,
.009724,.008547,
.009579,.008858,
.009382,.009139,
.009139,.009382,
.008858,.009579,
.008547,.009724,
.008216,.009813,
.007874,.009842,
-.007874,.009842,
-.008216,.009813,
-.008547,.009724,
-.008858,.009579,
-.009139,.009382,
-.009382,.009139,
-.009579,.008858,
-.009724,.008547,
-.009813,.008216,
-.009842,.007874,
0.0*
%
%ADD19MACRO19*%
%AMMACRO14*
4,1,40,.007874,.009842,
-.007874,.009842,
-.008216,.009813,
-.008547,.009724,
-.008858,.009579,
-.009139,.009382,
-.009382,.009139,
-.009579,.008858,
-.009724,.008547,
-.009813,.008216,
-.009842,.007874,
-.009842,-.007874,
-.009813,-.008216,
-.009724,-.008547,
-.009579,-.008858,
-.009382,-.009139,
-.009139,-.009382,
-.008858,-.009579,
-.008547,-.009724,
-.008216,-.009813,
-.007874,-.009842,
.007874,-.009842,
.008216,-.009813,
.008547,-.009724,
.008858,-.009579,
.009139,-.009382,
.009382,-.009139,
.009579,-.008858,
.009724,-.008547,
.009813,-.008216,
.009842,-.007874,
.009842,.007874,
.009813,.008216,
.009724,.008547,
.009579,.008858,
.009382,.009139,
.009139,.009382,
.008858,.009579,
.008547,.009724,
.008216,.009813,
.007874,.009842,
0.0*
%
%ADD14MACRO14*%
%AMMACRO44*
4,1,44,.026968,.035433,
-.026968,.035433,
-.028336,.035313,
-.029662,.034958,
-.030905,.034378,
-.03203,.033591,
-.033,.03262,
-.033788,.031496,
-.034368,.030252,
-.034723,.028926,
-.034842,.027559,
-.034842,.027559,
-.034842,-.027559,
-.034723,-.028926,
-.034368,-.030252,
-.033788,-.031496,
-.033,-.03262,
-.03203,-.033591,
-.030906,-.034378,
-.029662,-.034958,
-.028336,-.035313,
-.026969,-.035433,
-.026968,-.035433,
.026968,-.035433,
.028336,-.035313,
.029662,-.034958,
.030905,-.034378,
.03203,-.033591,
.033,-.03262,
.033788,-.031496,
.034368,-.030252,
.034723,-.028926,
.034842,-.027559,
.034842,-.027559,
.034842,.027559,
.034723,.028926,
.034368,.030252,
.033788,.031496,
.033,.03262,
.03203,.033591,
.030906,.034378,
.029662,.034958,
.028336,.035313,
.026969,.035433,
.026968,.035433,
0.0*
%
%ADD44MACRO44*%
%ADD121C,.011811*%
%AMMACRO68*
4,1,40,.0275,-.019626,
.0275,.019626,
.02738,.020993,
.027025,.022319,
.026445,.023563,
.025658,.024687,
.024687,.025658,
.023563,.026445,
.022319,.027025,
.020993,.02738,
.019626,.0275,
-.019626,.0275,
-.020993,.02738,
-.022319,.027025,
-.023563,.026445,
-.024687,.025658,
-.025658,.024687,
-.026445,.023563,
-.027025,.022319,
-.02738,.020993,
-.0275,.019626,
-.0275,-.019626,
-.02738,-.020993,
-.027025,-.022319,
-.026445,-.023563,
-.025658,-.024687,
-.024687,-.025658,
-.023563,-.026445,
-.022319,-.027025,
-.020993,-.02738,
-.019626,-.0275,
.019626,-.0275,
.020993,-.02738,
.022319,-.027025,
.023563,-.026445,
.024687,-.025658,
.025658,-.024687,
.026445,-.023563,
.027025,-.022319,
.02738,-.020993,
.0275,-.019626,
0.0*
%
%ADD68MACRO68*%
%AMMACRO93*
4,1,44,.02,-.008858,
.02,.008858,
.01997,.0092,
.019881,.009531,
.019736,.009842,
.019539,.010124,
.019297,.010366,
.019016,.010563,
.018705,.010708,
.018373,.010797,
.018032,.010827,
.018032,.010827,
-.018032,.010827,
-.018373,.010797,
-.018705,.010708,
-.019016,.010563,
-.019297,.010366,
-.019539,.010124,
-.019736,.009843,
-.019881,.009532,
-.01997,.0092,
-.02,.008858,
-.02,.008858,
-.02,-.008858,
-.01997,-.0092,
-.019881,-.009531,
-.019736,-.009842,
-.019539,-.010124,
-.019297,-.010366,
-.019016,-.010563,
-.018705,-.010708,
-.018373,-.010797,
-.018032,-.010827,
-.018032,-.010827,
.018032,-.010827,
.018373,-.010797,
.018705,-.010708,
.019016,-.010563,
.019297,-.010366,
.019539,-.010124,
.019736,-.009843,
.019881,-.009532,
.01997,-.0092,
.02,-.008858,
.02,-.008858,
0.0*
%
%ADD93MACRO93*%
%AMMACRO71*
4,1,5,.00433,-.00827,
.00433,.00827,
-.00433,.00827,
-.00433,-.00197,
.00197,-.00827,
.00433,-.00827,
0.0*
%
%ADD71MACRO71*%
%AMMACRO38*
4,1,44,-.008858,-.02,
.008858,-.02,
.0092,-.01997,
.009531,-.019881,
.009842,-.019736,
.010124,-.019539,
.010366,-.019297,
.010563,-.019016,
.010708,-.018705,
.010797,-.018373,
.010827,-.018032,
.010827,-.018032,
.010827,.018032,
.010797,.018373,
.010708,.018705,
.010563,.019016,
.010366,.019297,
.010124,.019539,
.009843,.019736,
.009532,.019881,
.0092,.01997,
.008858,.02,
.008858,.02,
-.008858,.02,
-.0092,.01997,
-.009531,.019881,
-.009842,.019736,
-.010124,.019539,
-.010366,.019297,
-.010563,.019016,
-.010708,.018705,
-.010797,.018373,
-.010827,.018032,
-.010827,.018032,
-.010827,-.018032,
-.010797,-.018373,
-.010708,-.018705,
-.010563,-.019016,
-.010366,-.019297,
-.010124,-.019539,
-.009843,-.019736,
-.009532,-.019881,
-.0092,-.01997,
-.008858,-.02,
-.008858,-.02,
0.0*
%
%ADD38MACRO38*%
%AMMACRO64*
4,1,40,.011811,-.003937,
.011811,.003937,
.011781,.004279,
.011692,.00461,
.011547,.004921,
.01135,.005202,
.011108,.005445,
.010827,.005642,
.010516,.005787,
.010184,.005876,
.009842,.005906,
-.009842,.005906,
-.010184,.005876,
-.010516,.005787,
-.010827,.005642,
-.011108,.005445,
-.01135,.005202,
-.011547,.004921,
-.011692,.00461,
-.011781,.004279,
-.011811,.003937,
-.011811,-.003937,
-.011781,-.004279,
-.011692,-.00461,
-.011547,-.004921,
-.01135,-.005202,
-.011108,-.005445,
-.010827,-.005642,
-.010516,-.005787,
-.010184,-.005876,
-.009842,-.005906,
.009842,-.005906,
.010184,-.005876,
.010516,-.005787,
.010827,-.005642,
.011108,-.005445,
.01135,-.005202,
.011547,-.004921,
.011692,-.00461,
.011781,-.004279,
.011811,-.003937,
0.0*
%
%ADD64MACRO64*%
%AMMACRO111*
4,1,40,-.003937,-.030512,
.003937,-.030512,
.005304,-.030392,
.00663,-.030037,
.007874,-.029457,
.008998,-.02867,
.009969,-.027699,
.010756,-.026575,
.011336,-.025331,
.011691,-.024005,
.011811,-.022638,
.011811,.022638,
.011691,.024005,
.011336,.025331,
.010756,.026575,
.009969,.027699,
.008998,.02867,
.007874,.029457,
.00663,.030037,
.005304,.030392,
.003937,.030512,
-.003937,.030512,
-.005304,.030392,
-.00663,.030037,
-.007874,.029457,
-.008998,.02867,
-.009969,.027699,
-.010756,.026575,
-.011336,.025331,
-.011691,.024005,
-.011811,.022638,
-.011811,-.022638,
-.011691,-.024005,
-.011336,-.025331,
-.010756,-.026575,
-.009969,-.027699,
-.008998,-.02867,
-.007874,-.029457,
-.00663,-.030037,
-.005304,-.030392,
-.003937,-.030512,
0.0*
%
%ADD111MACRO111*%
%AMMACRO35*
4,1,44,.011811,.059055,
-.011811,.059055,
-.013178,.058935,
-.014504,.05858,
-.015748,.058,
-.016872,.057213,
-.017843,.056242,
-.01863,.055118,
-.01921,.053874,
-.019565,.052548,
-.019685,.051181,
-.019685,.051181,
-.019685,-.051181,
-.019565,-.052548,
-.01921,-.053874,
-.01863,-.055118,
-.017843,-.056242,
-.016872,-.057213,
-.015748,-.058,
-.014504,-.05858,
-.013178,-.058935,
-.011811,-.059055,
-.011811,-.059055,
.011811,-.059055,
.013178,-.058935,
.014504,-.05858,
.015748,-.058,
.016872,-.057213,
.017843,-.056242,
.01863,-.055118,
.01921,-.053874,
.019565,-.052548,
.019685,-.051181,
.019685,-.051181,
.019685,.051181,
.019565,.052548,
.01921,.053874,
.01863,.055118,
.017843,.056242,
.016872,.057213,
.015748,.058,
.014504,.05858,
.013178,.058935,
.011811,.059055,
.011811,.059055,
0.0*
%
%ADD35MACRO35*%
%AMMACRO102*
4,1,44,.015748,-.003937,
.015748,.003937,
.015718,.004279,
.015629,.00461,
.015484,.004921,
.015288,.005202,
.015045,.005445,
.014764,.005642,
.014453,.005787,
.014121,.005876,
.01378,.005905,
.01378,.005906,
-.01378,.005906,
-.014121,.005876,
-.014453,.005787,
-.014764,.005642,
-.015045,.005445,
-.015287,.005202,
-.015484,.004921,
-.015629,.00461,
-.015718,.004279,
-.015748,.003937,
-.015748,.003937,
-.015748,-.003937,
-.015718,-.004279,
-.015629,-.00461,
-.015484,-.004921,
-.015288,-.005202,
-.015045,-.005445,
-.014764,-.005642,
-.014453,-.005787,
-.014121,-.005876,
-.01378,-.005905,
-.01378,-.005906,
.01378,-.005906,
.014121,-.005876,
.014453,-.005787,
.014764,-.005642,
.015045,-.005445,
.015287,-.005202,
.015484,-.004921,
.015629,-.00461,
.015718,-.004279,
.015748,-.003937,
.015748,-.003937,
0.0*
%
%ADD102MACRO102*%
%AMMACRO89*
4,1,44,-.003937,-.015748,
.003937,-.015748,
.004279,-.015718,
.00461,-.015629,
.004921,-.015484,
.005202,-.015288,
.005445,-.015045,
.005642,-.014764,
.005787,-.014453,
.005876,-.014121,
.005905,-.01378,
.005906,-.01378,
.005906,.01378,
.005876,.014121,
.005787,.014453,
.005642,.014764,
.005445,.015045,
.005202,.015287,
.004921,.015484,
.00461,.015629,
.004279,.015718,
.003937,.015748,
.003937,.015748,
-.003937,.015748,
-.004279,.015718,
-.00461,.015629,
-.004921,.015484,
-.005202,.015288,
-.005445,.015045,
-.005642,.014764,
-.005787,.014453,
-.005876,.014121,
-.005905,.01378,
-.005906,.01378,
-.005906,-.01378,
-.005876,-.014121,
-.005787,-.014453,
-.005642,-.014764,
-.005445,-.015045,
-.005202,-.015287,
-.004921,-.015484,
-.00461,-.015629,
-.004279,-.015718,
-.003937,-.015748,
-.003937,-.015748,
0.0*
%
%ADD89MACRO89*%
%AMMACRO72*
4,1,40,-.00625,.0035,
-.00625,-.0035,
-.00622,-.003847,
-.006129,-.004184,
-.005982,-.0045,
-.005782,-.004786,
-.005536,-.005032,
-.00525,-.005232,
-.004934,-.005379,
-.004597,-.00547,
-.00425,-.0055,
.00425,-.0055,
.004597,-.00547,
.004934,-.005379,
.00525,-.005232,
.005536,-.005032,
.005782,-.004786,
.005982,-.0045,
.006129,-.004184,
.00622,-.003847,
.00625,-.0035,
.00625,.0035,
.00622,.003847,
.006129,.004184,
.005982,.0045,
.005782,.004786,
.005536,.005032,
.00525,.005232,
.004934,.005379,
.004597,.00547,
.00425,.0055,
-.00425,.0055,
-.004597,.00547,
-.004934,.005379,
-.00525,.005232,
-.005536,.005032,
-.005782,.004786,
-.005982,.0045,
-.006129,.004184,
-.00622,.003847,
-.00625,.0035,
0.0*
%
%ADD72MACRO72*%
%AMMACRO84*
4,1,44,.029528,-.003937,
.029528,.003937,
.029498,.004279,
.029409,.00461,
.029264,.004921,
.029067,.005202,
.028824,.005445,
.028543,.005642,
.028232,.005787,
.027901,.005876,
.027559,.005905,
.027559,.005906,
-.027559,.005906,
-.027901,.005876,
-.028232,.005787,
-.028543,.005642,
-.028824,.005445,
-.029067,.005202,
-.029264,.004921,
-.029409,.00461,
-.029498,.004279,
-.029528,.003937,
-.029528,.003937,
-.029528,-.003937,
-.029498,-.004279,
-.029409,-.00461,
-.029264,-.004921,
-.029067,-.005202,
-.028824,-.005445,
-.028543,-.005642,
-.028232,-.005787,
-.027901,-.005876,
-.027559,-.005905,
-.027559,-.005906,
.027559,-.005906,
.027901,-.005876,
.028232,-.005787,
.028543,-.005642,
.028824,-.005445,
.029067,-.005202,
.029264,-.004921,
.029409,-.00461,
.029498,-.004279,
.029528,-.003937,
.029528,-.003937,
0.0*
%
%ADD84MACRO84*%
%AMMACRO45*
4,1,40,.0035,.00625,
-.0035,.00625,
-.003847,.00622,
-.004184,.006129,
-.0045,.005982,
-.004786,.005782,
-.005032,.005536,
-.005232,.00525,
-.005379,.004934,
-.00547,.004597,
-.0055,.00425,
-.0055,-.00425,
-.00547,-.004597,
-.005379,-.004934,
-.005232,-.00525,
-.005032,-.005536,
-.004786,-.005782,
-.0045,-.005982,
-.004184,-.006129,
-.003847,-.00622,
-.0035,-.00625,
.0035,-.00625,
.003847,-.00622,
.004184,-.006129,
.0045,-.005982,
.004786,-.005782,
.005032,-.005536,
.005232,-.00525,
.005379,-.004934,
.00547,-.004597,
.0055,-.00425,
.0055,.00425,
.00547,.004597,
.005379,.004934,
.005232,.00525,
.005032,.005536,
.004786,.005782,
.0045,.005982,
.004184,.006129,
.003847,.00622,
.0035,.00625,
0.0*
%
%ADD45MACRO45*%
%AMMACRO29*
4,1,40,.031496,.108268,
-.031496,.108268,
-.034914,.107969,
-.038229,.107081,
-.041339,.10563,
-.044149,.103662,
-.046576,.101236,
-.048544,.098425,
-.049994,.095315,
-.050882,.092001,
-.051181,.088583,
-.051181,-.088583,
-.050882,-.092001,
-.049994,-.095315,
-.048544,-.098425,
-.046576,-.101236,
-.044149,-.103662,
-.041339,-.10563,
-.038229,-.107081,
-.034914,-.107969,
-.031496,-.108268,
.031496,-.108268,
.034914,-.107969,
.038229,-.107081,
.041339,-.10563,
.044149,-.103662,
.046576,-.101236,
.048544,-.098425,
.049994,-.095315,
.050882,-.092001,
.051181,-.088583,
.051181,.088583,
.050882,.092001,
.049994,.095315,
.048544,.098425,
.046576,.101236,
.044149,.103662,
.041339,.10563,
.038229,.107081,
.034914,.107969,
.031496,.108268,
0.0*
%
%ADD29MACRO29*%
%AMMACRO117*
4,1,6,-.01181,-.01181,
.01181,-.01181,
.01181,.01181,
.00197,.01181,
.00197,-.00197,
-.01181,-.00197,
-.01181,-.01181,
0.0*
%
%ADD117MACRO117*%
%AMMACRO58*
4,1,40,-.059055,.031496,
-.059055,-.031496,
-.058935,-.032863,
-.05858,-.034189,
-.058,-.035433,
-.057213,-.036557,
-.056242,-.037528,
-.055118,-.038315,
-.053874,-.038895,
-.052548,-.03925,
-.051181,-.03937,
.051181,-.03937,
.052548,-.03925,
.053874,-.038895,
.055118,-.038315,
.056242,-.037528,
.057213,-.036557,
.058,-.035433,
.05858,-.034189,
.058935,-.032863,
.059055,-.031496,
.059055,.031496,
.058935,.032863,
.05858,.034189,
.058,.035433,
.057213,.036557,
.056242,.037528,
.055118,.038315,
.053874,.038895,
.052548,.03925,
.051181,.03937,
-.051181,.03937,
-.052548,.03925,
-.053874,.038895,
-.055118,.038315,
-.056242,.037528,
-.057213,.036557,
-.058,.035433,
-.05858,.034189,
-.058935,.032863,
-.059055,.031496,
0.0*
%
%ADD58MACRO58*%
%AMMACRO83*
4,1,44,-.009842,-.015748,
.009842,-.015748,
.01121,-.015628,
.012536,-.015273,
.01378,-.014693,
.014904,-.013906,
.015874,-.012935,
.016662,-.011811,
.017242,-.010567,
.017597,-.009241,
.017717,-.007874,
.017716,-.007874,
.017716,.007874,
.017597,.009241,
.017242,.010567,
.016662,.011811,
.015874,.012935,
.014904,.013906,
.01378,.014693,
.012536,.015273,
.01121,.015628,
.009843,.015748,
.009842,.015748,
-.009842,.015748,
-.01121,.015628,
-.012536,.015273,
-.01378,.014693,
-.014904,.013906,
-.015874,.012935,
-.016662,.011811,
-.017242,.010567,
-.017597,.009241,
-.017717,.007874,
-.017716,.007874,
-.017716,-.007874,
-.017597,-.009241,
-.017242,-.010567,
-.016662,-.011811,
-.015874,-.012935,
-.014904,-.013906,
-.01378,-.014693,
-.012536,-.015273,
-.01121,-.015628,
-.009843,-.015748,
-.009842,-.015748,
0.0*
%
%ADD83MACRO83*%
%AMMACRO92*
4,1,44,-.003937,-.01378,
.003937,-.01378,
.004279,-.01375,
.00461,-.013661,
.004921,-.013516,
.005202,-.013319,
.005445,-.013076,
.005642,-.012795,
.005787,-.012484,
.005876,-.012153,
.005905,-.011811,
.005906,-.011811,
.005906,.011811,
.005876,.012153,
.005787,.012484,
.005642,.012795,
.005445,.013076,
.005202,.013319,
.004921,.013516,
.00461,.013661,
.004279,.01375,
.003937,.01378,
.003937,.01378,
-.003937,.01378,
-.004279,.01375,
-.00461,.013661,
-.004921,.013516,
-.005202,.013319,
-.005445,.013076,
-.005642,.012795,
-.005787,.012484,
-.005876,.012153,
-.005905,.011811,
-.005906,.011811,
-.005906,-.011811,
-.005876,-.012153,
-.005787,-.012484,
-.005642,-.012795,
-.005445,-.013076,
-.005202,-.013319,
-.004921,-.013516,
-.00461,-.013661,
-.004279,-.01375,
-.003937,-.01378,
-.003937,-.01378,
0.0*
%
%ADD92MACRO92*%
%ADD88R,.027559X.027559*%
%AMMACRO12*
4,1,44,.037401,-.015748,
.037401,.015748,
.037282,.017115,
.036927,.018441,
.036347,.019685,
.035559,.020809,
.034589,.02178,
.033465,.022567,
.032221,.023147,
.030895,.023502,
.029528,.023622,
.029528,.023622,
-.029528,.023622,
-.030895,.023502,
-.032221,.023147,
-.033465,.022567,
-.034589,.02178,
-.035559,.020809,
-.036347,.019685,
-.036927,.018441,
-.037282,.017115,
-.037402,.015748,
-.037401,.015748,
-.037401,-.015748,
-.037282,-.017115,
-.036927,-.018441,
-.036347,-.019685,
-.035559,-.020809,
-.034589,-.02178,
-.033465,-.022567,
-.032221,-.023147,
-.030895,-.023502,
-.029528,-.023622,
-.029528,-.023622,
.029528,-.023622,
.030895,-.023502,
.032221,-.023147,
.033465,-.022567,
.034589,-.02178,
.035559,-.020809,
.036347,-.019685,
.036927,-.018441,
.037282,-.017115,
.037402,-.015748,
.037401,-.015748,
0.0*
%
%ADD12MACRO12*%
%ADD82R,.02X.012*%
%AMMACRO21*
4,1,44,.037401,-.007874,
.037401,.007874,
.037282,.009241,
.036927,.010567,
.036347,.011811,
.035559,.012935,
.034589,.013906,
.033465,.014693,
.032221,.015273,
.030895,.015628,
.029528,.015748,
.029528,.015748,
-.029528,.015748,
-.030895,.015628,
-.032221,.015273,
-.033465,.014693,
-.034589,.013906,
-.035559,.012935,
-.036347,.011811,
-.036927,.010567,
-.037282,.009241,
-.037402,.007874,
-.037401,.007874,
-.037401,-.007874,
-.037282,-.009241,
-.036927,-.010567,
-.036347,-.011811,
-.035559,-.012935,
-.034589,-.013906,
-.033465,-.014693,
-.032221,-.015273,
-.030895,-.015628,
-.029528,-.015748,
-.029528,-.015748,
.029528,-.015748,
.030895,-.015628,
.032221,-.015273,
.033465,-.014693,
.034589,-.013906,
.035559,-.012935,
.036347,-.011811,
.036927,-.010567,
.037282,-.009241,
.037402,-.007874,
.037401,-.007874,
0.0*
%
%ADD21MACRO21*%
%AMMACRO131*
4,1,42,-.029528,0.0,
-.029288,-.002735,
-.028578,-.005386,
-.027418,-.007874,
-.025843,-.010123,
-.023902,-.012064,
-.021654,-.013638,
-.019166,-.014798,
-.016514,-.015509,
-.01378,-.015748,
-.01378,-.015748,
.01378,-.015748,
.016514,-.015509,
.019166,-.014798,
.021654,-.013638,
.023902,-.012064,
.025843,-.010123,
.027418,-.007874,
.028578,-.005386,
.029288,-.002735,
.029528,0.0,
.029528,0.0,
.029288,.002735,
.028578,.005386,
.027418,.007874,
.025843,.010123,
.023902,.012064,
.021654,.013638,
.019166,.014798,
.016514,.015509,
.01378,.015748,
.01378,.015748,
-.01378,.015748,
-.016514,.015509,
-.019166,.014798,
-.021654,.013638,
-.023902,.012064,
-.025843,.010123,
-.027418,.007874,
-.028578,.005386,
-.029288,.002735,
-.029528,0.0,
-.029528,0.0,
0.0*
%
%ADD131MACRO131*%
%ADD76R,.012X.02*%
%AMMACRO63*
4,1,44,-.015748,-.031496,
.015748,-.031496,
.016432,-.031436,
.017095,-.031259,
.017717,-.030969,
.018279,-.030575,
.018764,-.03009,
.019158,-.029528,
.019448,-.028906,
.019625,-.028243,
.019685,-.027559,
.019685,-.027559,
.019685,.027559,
.019625,.028243,
.019448,.028906,
.019158,.029528,
.018764,.03009,
.018279,.030575,
.017717,.030969,
.017095,.031259,
.016432,.031436,
.015748,.031496,
.015748,.031496,
-.015748,.031496,
-.016432,.031436,
-.017095,.031259,
-.017717,.030969,
-.018279,.030575,
-.018764,.03009,
-.019158,.029528,
-.019448,.028906,
-.019625,.028243,
-.019685,.027559,
-.019685,.027559,
-.019685,-.027559,
-.019625,-.028243,
-.019448,-.028906,
-.019158,-.029528,
-.018764,-.03009,
-.018279,-.030575,
-.017717,-.030969,
-.017095,-.031259,
-.016432,-.031436,
-.015748,-.031496,
-.015748,-.031496,
0.0*
%
%ADD63MACRO63*%
%AMMACRO115*
4,1,44,-.027559,-.027559,
.027559,-.027559,
.028926,-.027439,
.030252,-.027084,
.031496,-.026504,
.03262,-.025717,
.033591,-.024746,
.034378,-.023622,
.034958,-.022378,
.035313,-.021052,
.035433,-.019685,
.035433,-.019685,
.035433,.019685,
.035313,.021052,
.034958,.022378,
.034378,.023622,
.033591,.024746,
.03262,.025717,
.031496,.026504,
.030252,.027084,
.028926,.027439,
.027559,.027559,
.027559,.027559,
-.027559,.027559,
-.028926,.027439,
-.030252,.027084,
-.031496,.026504,
-.03262,.025717,
-.033591,.024746,
-.034378,.023622,
-.034958,.022378,
-.035313,.021052,
-.035433,.019685,
-.035433,.019685,
-.035433,-.019685,
-.035313,-.021052,
-.034958,-.022378,
-.034378,-.023622,
-.033591,-.024746,
-.03262,-.025717,
-.031496,-.026504,
-.030252,-.027084,
-.028926,-.027439,
-.027559,-.027559,
-.027559,-.027559,
0.0*
%
%ADD115MACRO115*%
%ADD47R,.04X.03*%
%AMMACRO20*
4,1,44,.02559,-.007874,
.02559,.007874,
.025561,.008216,
.025472,.008547,
.025327,.008858,
.02513,.009139,
.024887,.009382,
.024606,.009579,
.024295,.009724,
.023964,.009813,
.023622,.009842,
.023622,.009842,
-.023622,.009842,
-.023964,.009813,
-.024295,.009724,
-.024606,.009579,
-.024887,.009382,
-.02513,.009139,
-.025327,.008858,
-.025472,.008547,
-.025561,.008216,
-.025591,.007874,
-.02559,.007874,
-.02559,-.007874,
-.025561,-.008216,
-.025472,-.008547,
-.025327,-.008858,
-.02513,-.009139,
-.024887,-.009382,
-.024606,-.009579,
-.024295,-.009724,
-.023964,-.009813,
-.023622,-.009842,
-.023622,-.009842,
.023622,-.009842,
.023964,-.009813,
.024295,-.009724,
.024606,-.009579,
.024887,-.009382,
.02513,-.009139,
.025327,-.008858,
.025472,-.008547,
.025561,-.008216,
.025591,-.007874,
.02559,-.007874,
0.0*
%
%ADD20MACRO20*%
%ADD123R,.03X.04*%
%AMMACRO41*
4,1,44,-.005906,-.023622,
.005906,-.023622,
.006247,-.023592,
.006579,-.023503,
.00689,-.023358,
.007171,-.023162,
.007413,-.022919,
.00761,-.022638,
.007755,-.022327,
.007844,-.021995,
.007874,-.021654,
.007874,-.021654,
.007874,.021654,
.007844,.021995,
.007755,.022327,
.00761,.022638,
.007413,.022919,
.007171,.023161,
.00689,.023358,
.006579,.023503,
.006247,.023592,
.005906,.023622,
.005906,.023622,
-.005906,.023622,
-.006247,.023592,
-.006579,.023503,
-.00689,.023358,
-.007171,.023162,
-.007413,.022919,
-.00761,.022638,
-.007755,.022327,
-.007844,.021995,
-.007874,.021654,
-.007874,.021654,
-.007874,-.021654,
-.007844,-.021995,
-.007755,-.022327,
-.00761,-.022638,
-.007413,-.022919,
-.007171,-.023161,
-.00689,-.023358,
-.006579,-.023503,
-.006247,-.023592,
-.005906,-.023622,
-.005906,-.023622,
0.0*
%
%ADD41MACRO41*%
%AMMACRO27*
4,1,44,-.011811,.002953,
-.011811,-.002953,
-.011781,-.003295,
-.011692,-.003626,
-.011547,-.003937,
-.01135,-.004218,
-.011108,-.004461,
-.010827,-.004657,
-.010516,-.004803,
-.010184,-.004891,
-.009843,-.004921,
-.009842,-.004921,
.009842,-.004921,
.010184,-.004891,
.010516,-.004803,
.010827,-.004658,
.011108,-.004461,
.01135,-.004218,
.011547,-.003937,
.011692,-.003626,
.011781,-.003295,
.011811,-.002953,
.011811,-.002953,
.011811,.002953,
.011781,.003295,
.011692,.003626,
.011547,.003937,
.01135,.004218,
.011108,.004461,
.010827,.004657,
.010516,.004803,
.010184,.004891,
.009843,.004921,
.009842,.004921,
-.009842,.004921,
-.010184,.004891,
-.010516,.004803,
-.010827,.004658,
-.011108,.004461,
-.01135,.004218,
-.011547,.003937,
-.011692,.003626,
-.011781,.003295,
-.011811,.002953,
-.011811,.002953,
0.0*
%
%ADD27MACRO27*%
%AMMACRO59*
4,1,44,.002953,.011811,
-.002953,.011811,
-.003295,.011781,
-.003626,.011692,
-.003937,.011547,
-.004218,.01135,
-.004461,.011108,
-.004657,.010827,
-.004803,.010516,
-.004891,.010184,
-.004921,.009843,
-.004921,.009842,
-.004921,-.009842,
-.004891,-.010184,
-.004803,-.010516,
-.004658,-.010827,
-.004461,-.011108,
-.004218,-.01135,
-.003937,-.011547,
-.003626,-.011692,
-.003295,-.011781,
-.002953,-.011811,
-.002953,-.011811,
.002953,-.011811,
.003295,-.011781,
.003626,-.011692,
.003937,-.011547,
.004218,-.01135,
.004461,-.011108,
.004657,-.010827,
.004803,-.010516,
.004891,-.010184,
.004921,-.009843,
.004921,-.009842,
.004921,.009842,
.004891,.010184,
.004803,.010516,
.004658,.010827,
.004461,.011108,
.004218,.01135,
.003937,.011547,
.003626,.011692,
.003295,.011781,
.002953,.011811,
.002953,.011811,
0.0*
%
%ADD59MACRO59*%
%AMMACRO116*
4,1,6,-.01181,.01181,
.01181,.01181,
.01181,-.01181,
.00197,-.01181,
.00197,.00197,
-.01181,.00197,
-.01181,.01181,
0.0*
%
%ADD116MACRO116*%
%AMMACRO66*
4,1,5,-.00433,-.00827,
-.00433,.00827,
.00433,.00827,
.00433,-.00197,
-.00197,-.00827,
-.00433,-.00827,
0.0*
%
%ADD66MACRO66*%
%AMMACRO55*
4,1,44,.01378,.072835,
-.01378,.072835,
-.015147,.072715,
-.016473,.07236,
-.017717,.07178,
-.018841,.070993,
-.019811,.070022,
-.020599,.068898,
-.021179,.067654,
-.021534,.066328,
-.021654,.064961,
-.021654,.064961,
-.021654,-.064961,
-.021534,-.066328,
-.021179,-.067654,
-.020599,-.068898,
-.019811,-.070022,
-.018841,-.070992,
-.017717,-.07178,
-.016473,-.07236,
-.015147,-.072715,
-.01378,-.072835,
-.01378,-.072835,
.01378,-.072835,
.015147,-.072715,
.016473,-.07236,
.017717,-.07178,
.018841,-.070993,
.019811,-.070022,
.020599,-.068898,
.021179,-.067654,
.021534,-.066328,
.021654,-.064961,
.021654,-.064961,
.021654,.064961,
.021534,.066328,
.021179,.067654,
.020599,.068898,
.019811,.070022,
.018841,.070992,
.017717,.07178,
.016473,.07236,
.015147,.072715,
.01378,.072835,
.01378,.072835,
0.0*
%
%ADD55MACRO55*%
%AMMACRO78*
4,1,44,-.015256,.002953,
-.015256,-.002953,
-.015226,-.003295,
-.015137,-.003626,
-.014992,-.003937,
-.014795,-.004218,
-.014553,-.004461,
-.014272,-.004657,
-.013961,-.004803,
-.013629,-.004891,
-.013287,-.004921,
-.013287,-.004921,
.013287,-.004921,
.013629,-.004891,
.013961,-.004803,
.014272,-.004658,
.014553,-.004461,
.014795,-.004218,
.014992,-.003937,
.015137,-.003626,
.015226,-.003295,
.015256,-.002953,
.015256,-.002953,
.015256,.002953,
.015226,.003295,
.015137,.003626,
.014992,.003937,
.014795,.004218,
.014553,.004461,
.014272,.004657,
.013961,.004803,
.013629,.004891,
.013287,.004921,
.013287,.004921,
-.013287,.004921,
-.013629,.004891,
-.013961,.004803,
-.014272,.004658,
-.014553,.004461,
-.014795,.004218,
-.014992,.003937,
-.015137,.003626,
-.015226,.003295,
-.015256,.002953,
-.015256,.002953,
0.0*
%
%ADD78MACRO78*%
%ADD32R,.024X.043*%
%ADD112R,.042X.052*%
%ADD31R,.043X.024*%
%ADD118R,.08X.045*%
%AMMACRO108*
4,1,40,-.015,.008563,
-.015,-.008563,
-.01494,-.009247,
-.014763,-.00991,
-.014473,-.010531,
-.014079,-.011094,
-.013594,-.011579,
-.013032,-.011973,
-.01241,-.012263,
-.011747,-.01244,
-.011063,-.0125,
.011063,-.0125,
.011747,-.01244,
.01241,-.012263,
.013031,-.011973,
.013594,-.011579,
.014079,-.011094,
.014473,-.010532,
.014763,-.00991,
.01494,-.009247,
.015,-.008563,
.015,.008563,
.01494,.009247,
.014763,.00991,
.014473,.010532,
.014079,.011094,
.013594,.011579,
.013032,.011973,
.01241,.012263,
.011747,.01244,
.011063,.0125,
-.011063,.0125,
-.011747,.01244,
-.01241,.012263,
-.013032,.011973,
-.013594,.011579,
-.014079,.011094,
-.014473,.010532,
-.014763,.00991,
-.01494,.009247,
-.015,.008563,
0.0*
%
%ADD108MACRO108*%
%AMMACRO77*
4,1,40,.011063,.03,
-.011063,.03,
-.011747,.02994,
-.01241,.029763,
-.013032,.029473,
-.013594,.029079,
-.014079,.028594,
-.014473,.028032,
-.014763,.02741,
-.01494,.026747,
-.015,.026063,
-.015,-.026063,
-.01494,-.026747,
-.014763,-.02741,
-.014473,-.028031,
-.014079,-.028594,
-.013594,-.029079,
-.013032,-.029473,
-.01241,-.029763,
-.011747,-.02994,
-.011063,-.03,
.011063,-.03,
.011747,-.02994,
.01241,-.029763,
.013031,-.029473,
.013594,-.029079,
.014079,-.028594,
.014473,-.028032,
.014763,-.02741,
.01494,-.026747,
.015,-.026063,
.015,.026063,
.01494,.026747,
.014763,.02741,
.014473,.028031,
.014079,.028594,
.013594,.029079,
.013032,.029473,
.01241,.029763,
.011747,.02994,
.011063,.03,
0.0*
%
%ADD77MACRO77*%
%AMMACRO56*
4,1,40,-.005906,-.014764,
.005906,-.014764,
.006247,-.014734,
.006579,-.014645,
.00689,-.0145,
.007171,-.014303,
.007413,-.014061,
.00761,-.01378,
.007755,-.013469,
.007844,-.013137,
.007874,-.012795,
.007874,.012795,
.007844,.013137,
.007755,.013469,
.00761,.01378,
.007413,.014061,
.007171,.014303,
.00689,.0145,
.006579,.014645,
.006247,.014734,
.005906,.014764,
-.005906,.014764,
-.006247,.014734,
-.006579,.014645,
-.00689,.0145,
-.007171,.014303,
-.007413,.014061,
-.00761,.01378,
-.007755,.013469,
-.007844,.013137,
-.007874,.012795,
-.007874,-.012795,
-.007844,-.013137,
-.007755,-.013469,
-.00761,-.01378,
-.007413,-.014061,
-.007171,-.014303,
-.00689,-.0145,
-.006579,-.014645,
-.006247,-.014734,
-.005906,-.014764,
0.0*
%
%ADD56MACRO56*%
%AMMACRO43*
4,1,40,.014764,-.005906,
.014764,.005906,
.014734,.006247,
.014645,.006579,
.0145,.00689,
.014303,.007171,
.014061,.007413,
.01378,.00761,
.013469,.007755,
.013137,.007844,
.012795,.007874,
-.012795,.007874,
-.013137,.007844,
-.013469,.007755,
-.01378,.00761,
-.014061,.007413,
-.014303,.007171,
-.0145,.00689,
-.014645,.006579,
-.014734,.006247,
-.014764,.005906,
-.014764,-.005906,
-.014734,-.006247,
-.014645,-.006579,
-.0145,-.00689,
-.014303,-.007171,
-.014061,-.007413,
-.01378,-.00761,
-.013469,-.007755,
-.013137,-.007844,
-.012795,-.007874,
.012795,-.007874,
.013137,-.007844,
.013469,-.007755,
.01378,-.00761,
.014061,-.007413,
.014303,-.007171,
.0145,-.00689,
.014645,-.006579,
.014734,-.006247,
.014764,-.005906,
0.0*
%
%ADD43MACRO43*%
%AMMACRO97*
4,1,44,-.015748,.002953,
-.015748,-.002953,
-.015718,-.003295,
-.015629,-.003626,
-.015484,-.003937,
-.015288,-.004218,
-.015045,-.004461,
-.014764,-.004657,
-.014453,-.004803,
-.014121,-.004891,
-.01378,-.004921,
-.01378,-.004921,
.01378,-.004921,
.014121,-.004891,
.014453,-.004803,
.014764,-.004658,
.015045,-.004461,
.015287,-.004218,
.015484,-.003937,
.015629,-.003626,
.015718,-.003295,
.015748,-.002953,
.015748,-.002953,
.015748,.002953,
.015718,.003295,
.015629,.003626,
.015484,.003937,
.015288,.004218,
.015045,.004461,
.014764,.004657,
.014453,.004803,
.014121,.004891,
.01378,.004921,
.01378,.004921,
-.01378,.004921,
-.014121,.004891,
-.014453,.004803,
-.014764,.004658,
-.015045,.004461,
-.015287,.004218,
-.015484,.003937,
-.015629,.003626,
-.015718,.003295,
-.015748,.002953,
-.015748,.002953,
0.0*
%
%ADD97MACRO97*%
%ADD30R,.045X.08*%
%AMMACRO15*
4,1,40,.008563,.015,
-.008563,.015,
-.009247,.01494,
-.00991,.014763,
-.010531,.014473,
-.011094,.014079,
-.011579,.013594,
-.011973,.013032,
-.012263,.01241,
-.01244,.011747,
-.0125,.011063,
-.0125,-.011063,
-.01244,-.011747,
-.012263,-.01241,
-.011973,-.013031,
-.011579,-.013594,
-.011094,-.014079,
-.010532,-.014473,
-.00991,-.014763,
-.009247,-.01494,
-.008563,-.015,
.008563,-.015,
.009247,-.01494,
.00991,-.014763,
.010531,-.014473,
.011094,-.014079,
.011579,-.013594,
.011973,-.013032,
.012263,-.01241,
.01244,-.011747,
.0125,-.011063,
.0125,.011063,
.01244,.011747,
.012263,.01241,
.011973,.013032,
.011579,.013594,
.011094,.014079,
.010532,.014473,
.00991,.014763,
.009247,.01494,
.008563,.015,
0.0*
%
%ADD15MACRO15*%
%AMMACRO101*
4,1,44,.002953,.015748,
-.002953,.015748,
-.003295,.015718,
-.003626,.015629,
-.003937,.015484,
-.004218,.015288,
-.004461,.015045,
-.004657,.014764,
-.004803,.014453,
-.004891,.014121,
-.004921,.01378,
-.004921,.01378,
-.004921,-.01378,
-.004891,-.014121,
-.004803,-.014453,
-.004658,-.014764,
-.004461,-.015045,
-.004218,-.015287,
-.003937,-.015484,
-.003626,-.015629,
-.003295,-.015718,
-.002953,-.015748,
-.002953,-.015748,
.002953,-.015748,
.003295,-.015718,
.003626,-.015629,
.003937,-.015484,
.004218,-.015288,
.004461,-.015045,
.004657,-.014764,
.004803,-.014453,
.004891,-.014121,
.004921,-.01378,
.004921,-.01378,
.004921,.01378,
.004891,.014121,
.004803,.014453,
.004658,.014764,
.004461,.015045,
.004218,.015287,
.003937,.015484,
.003626,.015629,
.003295,.015718,
.002953,.015748,
.002953,.015748,
0.0*
%
%ADD101MACRO101*%
%AMMACRO17*
4,1,40,-.007874,-.009842,
.007874,-.009842,
.008216,-.009813,
.008547,-.009724,
.008858,-.009579,
.009139,-.009382,
.009382,-.009139,
.009579,-.008858,
.009724,-.008547,
.009813,-.008216,
.009842,-.007874,
.009842,.007874,
.009813,.008216,
.009724,.008547,
.009579,.008858,
.009382,.009139,
.009139,.009382,
.008858,.009579,
.008547,.009724,
.008216,.009813,
.007874,.009842,
-.007874,.009842,
-.008216,.009813,
-.008547,.009724,
-.008858,.009579,
-.009139,.009382,
-.009382,.009139,
-.009579,.008858,
-.009724,.008547,
-.009813,.008216,
-.009842,.007874,
-.009842,-.007874,
-.009813,-.008216,
-.009724,-.008547,
-.009579,-.008858,
-.009382,-.009139,
-.009139,-.009382,
-.008858,-.009579,
-.008547,-.009724,
-.008216,-.009813,
-.007874,-.009842,
0.0*
%
%ADD17MACRO17*%
%AMMACRO16*
4,1,40,.009842,-.007874,
.009842,.007874,
.009813,.008216,
.009724,.008547,
.009579,.008858,
.009382,.009139,
.009139,.009382,
.008858,.009579,
.008547,.009724,
.008216,.009813,
.007874,.009842,
-.007874,.009842,
-.008216,.009813,
-.008547,.009724,
-.008858,.009579,
-.009139,.009382,
-.009382,.009139,
-.009579,.008858,
-.009724,.008547,
-.009813,.008216,
-.009842,.007874,
-.009842,-.007874,
-.009813,-.008216,
-.009724,-.008547,
-.009579,-.008858,
-.009382,-.009139,
-.009139,-.009382,
-.008858,-.009579,
-.008547,-.009724,
-.008216,-.009813,
-.007874,-.009842,
.007874,-.009842,
.008216,-.009813,
.008547,-.009724,
.008858,-.009579,
.009139,-.009382,
.009382,-.009139,
.009579,-.008858,
.009724,-.008547,
.009813,-.008216,
.009842,-.007874,
0.0*
%
%ADD16MACRO16*%
%ADD119R,.055X.064*%
%AMMACRO18*
4,1,44,.035433,-.026968,
.035433,.026968,
.035313,.028336,
.034958,.029662,
.034378,.030905,
.033591,.03203,
.03262,.033,
.031496,.033788,
.030252,.034368,
.028926,.034723,
.027559,.034842,
.027559,.034842,
-.027559,.034842,
-.028926,.034723,
-.030252,.034368,
-.031496,.033788,
-.03262,.033,
-.033591,.03203,
-.034378,.030906,
-.034958,.029662,
-.035313,.028336,
-.035433,.026969,
-.035433,.026968,
-.035433,-.026968,
-.035313,-.028336,
-.034958,-.029662,
-.034378,-.030905,
-.033591,-.03203,
-.03262,-.033,
-.031496,-.033788,
-.030252,-.034368,
-.028926,-.034723,
-.027559,-.034842,
-.027559,-.034842,
.027559,-.034842,
.028926,-.034723,
.030252,-.034368,
.031496,-.033788,
.03262,-.033,
.033591,-.03203,
.034378,-.030906,
.034958,-.029662,
.035313,-.028336,
.035433,-.026969,
.035433,-.026968,
0.0*
%
%ADD18MACRO18*%
%ADD69R,.064X.055*%
%AMMACRO57*
4,1,40,.016063,.0225,
-.016063,.0225,
-.016747,.02244,
-.01741,.022263,
-.018031,.021973,
-.018594,.021579,
-.019079,.021094,
-.019473,.020532,
-.019763,.01991,
-.01994,.019247,
-.02,.018563,
-.02,-.018563,
-.01994,-.019247,
-.019763,-.01991,
-.019473,-.020531,
-.019079,-.021094,
-.018594,-.021579,
-.018032,-.021973,
-.01741,-.022263,
-.016747,-.02244,
-.016063,-.0225,
.016063,-.0225,
.016747,-.02244,
.01741,-.022263,
.018031,-.021973,
.018594,-.021579,
.019079,-.021094,
.019473,-.020532,
.019763,-.01991,
.01994,-.019247,
.02,-.018563,
.02,.018563,
.01994,.019247,
.019763,.01991,
.019473,.020531,
.019079,.021094,
.018594,.021579,
.018032,.021973,
.01741,.022263,
.016747,.02244,
.016063,.0225,
0.0*
%
%ADD57MACRO57*%
%AMMACRO36*
4,1,40,-.0275,.016063,
-.0275,-.016063,
-.02744,-.016747,
-.027263,-.01741,
-.026973,-.018031,
-.026579,-.018594,
-.026094,-.019079,
-.025532,-.019473,
-.02491,-.019763,
-.024247,-.01994,
-.023563,-.02,
.023563,-.02,
.024247,-.01994,
.02491,-.019763,
.025531,-.019473,
.026094,-.019079,
.026579,-.018594,
.026973,-.018032,
.027263,-.01741,
.02744,-.016747,
.0275,-.016063,
.0275,.016063,
.02744,.016747,
.027263,.01741,
.026973,.018031,
.026579,.018594,
.026094,.019079,
.025532,.019473,
.02491,.019763,
.024247,.01994,
.023563,.02,
-.023563,.02,
-.024247,.01994,
-.02491,.019763,
-.025531,.019473,
-.026094,.019079,
-.026579,.018594,
-.026973,.018032,
-.027263,.01741,
-.02744,.016747,
-.0275,.016063,
0.0*
%
%ADD36MACRO36*%
%AMMACRO39*
4,1,40,.016063,.0275,
-.016063,.0275,
-.016747,.02744,
-.01741,.027263,
-.018031,.026973,
-.018594,.026579,
-.019079,.026094,
-.019473,.025532,
-.019763,.02491,
-.01994,.024247,
-.02,.023563,
-.02,-.023563,
-.01994,-.024247,
-.019763,-.02491,
-.019473,-.025531,
-.019079,-.026094,
-.018594,-.026579,
-.018032,-.026973,
-.01741,-.027263,
-.016747,-.02744,
-.016063,-.0275,
.016063,-.0275,
.016747,-.02744,
.01741,-.027263,
.018031,-.026973,
.018594,-.026579,
.019079,-.026094,
.019473,-.025532,
.019763,-.02491,
.01994,-.024247,
.02,-.023563,
.02,.023563,
.01994,.024247,
.019763,.02491,
.019473,.025531,
.019079,.026094,
.018594,.026579,
.018032,.026973,
.01741,.027263,
.016747,.02744,
.016063,.0275,
0.0*
%
%ADD39MACRO39*%
%AMMACRO13*
4,1,40,-.0175,.013563,
-.0175,-.013563,
-.01744,-.014247,
-.017263,-.01491,
-.016973,-.015531,
-.016579,-.016094,
-.016094,-.016579,
-.015532,-.016973,
-.01491,-.017263,
-.014247,-.01744,
-.013563,-.0175,
.013563,-.0175,
.014247,-.01744,
.01491,-.017263,
.015531,-.016973,
.016094,-.016579,
.016579,-.016094,
.016973,-.015532,
.017263,-.01491,
.01744,-.014247,
.0175,-.013563,
.0175,.013563,
.01744,.014247,
.017263,.01491,
.016973,.015532,
.016579,.016094,
.016094,.016579,
.015532,.016973,
.01491,.017263,
.014247,.01744,
.013563,.0175,
-.013563,.0175,
-.014247,.01744,
-.01491,.017263,
-.015532,.016973,
-.016094,.016579,
-.016579,.016094,
-.016973,.015532,
-.017263,.01491,
-.01744,.014247,
-.0175,.013563,
0.0*
%
%ADD13MACRO13*%
%AMMACRO62*
4,1,40,.013563,.0175,
-.013563,.0175,
-.014247,.01744,
-.01491,.017263,
-.015532,.016973,
-.016094,.016579,
-.016579,.016094,
-.016973,.015532,
-.017263,.01491,
-.01744,.014247,
-.0175,.013563,
-.0175,-.013563,
-.01744,-.014247,
-.017263,-.01491,
-.016973,-.015531,
-.016579,-.016094,
-.016094,-.016579,
-.015532,-.016973,
-.01491,-.017263,
-.014247,-.01744,
-.013563,-.0175,
.013563,-.0175,
.014247,-.01744,
.01491,-.017263,
.015531,-.016973,
.016094,-.016579,
.016579,-.016094,
.016973,-.015532,
.017263,-.01491,
.01744,-.014247,
.0175,-.013563,
.0175,.013563,
.01744,.014247,
.017263,.01491,
.016973,.015532,
.016579,.016094,
.016094,.016579,
.015532,.016973,
.01491,.017263,
.014247,.01744,
.013563,.0175,
0.0*
%
%ADD62MACRO62*%
%AMMACRO103*
4,1,44,.070866,-.059055,
.070866,.059055,
.070687,.061106,
.070154,.063095,
.069284,.064961,
.068103,.066647,
.066647,.068103,
.064961,.069284,
.063095,.070154,
.061106,.070687,
.059055,.070866,
.059055,.070866,
-.059055,.070866,
-.061106,.070687,
-.063095,.070154,
-.064961,.069284,
-.066647,.068103,
-.068103,.066647,
-.069284,.064961,
-.070154,.063095,
-.070687,.061106,
-.070866,.059055,
-.070866,.059055,
-.070866,-.059055,
-.070687,-.061106,
-.070154,-.063095,
-.069284,-.064961,
-.068103,-.066647,
-.066647,-.068103,
-.064961,-.069284,
-.063095,-.070154,
-.061106,-.070687,
-.059055,-.070866,
-.059055,-.070866,
.059055,-.070866,
.061106,-.070687,
.063095,-.070154,
.064961,-.069284,
.066647,-.068103,
.068103,-.066647,
.069284,-.064961,
.070154,-.063095,
.070687,-.061106,
.070866,-.059055,
.070866,-.059055,
0.0*
%
%ADD103MACRO103*%
%AMMACRO74*
4,1,40,-.0275,.019626,
-.0275,-.019626,
-.02738,-.020993,
-.027025,-.022319,
-.026445,-.023563,
-.025658,-.024687,
-.024687,-.025658,
-.023563,-.026445,
-.022319,-.027025,
-.020993,-.02738,
-.019626,-.0275,
.019626,-.0275,
.020993,-.02738,
.022319,-.027025,
.023563,-.026445,
.024687,-.025658,
.025658,-.024687,
.026445,-.023563,
.027025,-.022319,
.02738,-.020993,
.0275,-.019626,
.0275,.019626,
.02738,.020993,
.027025,.022319,
.026445,.023563,
.025658,.024687,
.024687,.025658,
.023563,.026445,
.022319,.027025,
.020993,.02738,
.019626,.0275,
-.019626,.0275,
-.020993,.02738,
-.022319,.027025,
-.023563,.026445,
-.024687,.025658,
-.025658,.024687,
-.026445,.023563,
-.027025,.022319,
-.02738,.020993,
-.0275,.019626,
0.0*
%
%ADD74MACRO74*%
%AMMACRO37*
4,1,40,-.01575,.015745,
-.01575,-.015745,
-.01569,-.016429,
-.015512,-.017093,
-.015222,-.017715,
-.014828,-.018278,
-.014343,-.018763,
-.01378,-.019157,
-.013158,-.019447,
-.012494,-.019625,
-.01181,-.019685,
.01181,-.019685,
.012494,-.019625,
.013158,-.019447,
.01378,-.019157,
.014343,-.018763,
.014828,-.018278,
.015222,-.017715,
.015512,-.017093,
.01569,-.016429,
.01575,-.015745,
.01575,.015745,
.01569,.016429,
.015512,.017093,
.015222,.017715,
.014828,.018278,
.014343,.018763,
.01378,.019157,
.013158,.019447,
.012494,.019625,
.01181,.019685,
-.01181,.019685,
-.012494,.019625,
-.013158,.019447,
-.01378,.019157,
-.014343,.018763,
-.014828,.018278,
-.015222,.017715,
-.015512,.017093,
-.01569,.016429,
-.01575,.015745,
0.0*
%
%ADD37MACRO37*%
%AMMACRO73*
4,1,40,.015745,.01575,
-.015745,.01575,
-.016429,.01569,
-.017093,.015512,
-.017715,.015222,
-.018278,.014828,
-.018763,.014343,
-.019157,.01378,
-.019447,.013158,
-.019625,.012494,
-.019685,.01181,
-.019685,-.01181,
-.019625,-.012494,
-.019447,-.013158,
-.019157,-.01378,
-.018763,-.014343,
-.018278,-.014828,
-.017715,-.015222,
-.017093,-.015512,
-.016429,-.01569,
-.015745,-.01575,
.015745,-.01575,
.016429,-.01569,
.017093,-.015512,
.017715,-.015222,
.018278,-.014828,
.018763,-.014343,
.019157,-.01378,
.019447,-.013158,
.019625,-.012494,
.019685,-.01181,
.019685,.01181,
.019625,.012494,
.019447,.013158,
.019157,.01378,
.018763,.014343,
.018278,.014828,
.017715,.015222,
.017093,.015512,
.016429,.01569,
.015745,.01575,
0.0*
%
%ADD73MACRO73*%
%AMMACRO67*
4,1,5,-.00433,.00827,
-.00433,-.00827,
.00433,-.00827,
.00433,.00197,
-.00197,.00827,
-.00433,.00827,
0.0*
%
%ADD67MACRO67*%
%ADD50R,.01378X.03346*%
%ADD91R,.03346X.01378*%
%AMMACRO120*
4,1,44,-.02,.009842,
-.02,-.009842,
-.01994,-.010526,
-.019763,-.011189,
-.019473,-.011811,
-.019079,-.012373,
-.018594,-.012858,
-.018032,-.013252,
-.01741,-.013542,
-.016747,-.01372,
-.016063,-.01378,
-.016063,-.01378,
.016063,-.01378,
.016747,-.01372,
.01741,-.013542,
.018031,-.013252,
.018594,-.012858,
.019079,-.012373,
.019473,-.011811,
.019763,-.011189,
.01994,-.010526,
.02,-.009843,
.02,-.009842,
.02,.009842,
.01994,.010526,
.019763,.011189,
.019473,.011811,
.019079,.012373,
.018594,.012858,
.018032,.013252,
.01741,.013542,
.016747,.01372,
.016063,.01378,
.016063,.01378,
-.016063,.01378,
-.016747,.01372,
-.01741,.013542,
-.018031,.013252,
-.018594,.012858,
-.019079,.012373,
-.019473,.011811,
-.019763,.011189,
-.01994,.010526,
-.02,.009843,
-.02,.009842,
0.0*
%
%ADD120MACRO120*%
%AMMACRO96*
4,1,40,-.011811,.003937,
-.011811,-.003937,
-.011781,-.004279,
-.011692,-.00461,
-.011547,-.004921,
-.01135,-.005202,
-.011108,-.005445,
-.010827,-.005642,
-.010516,-.005787,
-.010184,-.005876,
-.009842,-.005906,
.009842,-.005906,
.010184,-.005876,
.010516,-.005787,
.010827,-.005642,
.011108,-.005445,
.01135,-.005202,
.011547,-.004921,
.011692,-.00461,
.011781,-.004279,
.011811,-.003937,
.011811,.003937,
.011781,.004279,
.011692,.00461,
.011547,.004921,
.01135,.005202,
.011108,.005445,
.010827,.005642,
.010516,.005787,
.010184,.005876,
.009842,.005906,
-.009842,.005906,
-.010184,.005876,
-.010516,.005787,
-.010827,.005642,
-.011108,.005445,
-.01135,.005202,
-.011547,.004921,
-.011692,.00461,
-.011781,.004279,
-.011811,.003937,
0.0*
%
%ADD96MACRO96*%
%AMMACRO46*
4,1,44,.008858,.02,
-.008858,.02,
-.0092,.01997,
-.009531,.019881,
-.009842,.019736,
-.010124,.019539,
-.010366,.019297,
-.010563,.019016,
-.010708,.018705,
-.010797,.018373,
-.010827,.018032,
-.010827,.018032,
-.010827,-.018032,
-.010797,-.018373,
-.010708,-.018705,
-.010563,-.019016,
-.010366,-.019297,
-.010124,-.019539,
-.009843,-.019736,
-.009532,-.019881,
-.0092,-.01997,
-.008858,-.02,
-.008858,-.02,
.008858,-.02,
.0092,-.01997,
.009531,-.019881,
.009842,-.019736,
.010124,-.019539,
.010366,-.019297,
.010563,-.019016,
.010708,-.018705,
.010797,-.018373,
.010827,-.018032,
.010827,-.018032,
.010827,.018032,
.010797,.018373,
.010708,.018705,
.010563,.019016,
.010366,.019297,
.010124,.019539,
.009843,.019736,
.009532,.019881,
.0092,.01997,
.008858,.02,
.008858,.02,
0.0*
%
%ADD46MACRO46*%
%ADD85R,.035433X.03937*%
%AMMACRO22*
4,1,44,-.02559,.003937,
-.02559,-.003937,
-.025561,-.004279,
-.025472,-.00461,
-.025327,-.004921,
-.02513,-.005202,
-.024887,-.005445,
-.024606,-.005642,
-.024295,-.005787,
-.023964,-.005876,
-.023622,-.005905,
-.023622,-.005906,
.023622,-.005906,
.023964,-.005876,
.024295,-.005787,
.024606,-.005642,
.024887,-.005445,
.02513,-.005202,
.025327,-.004921,
.025472,-.00461,
.025561,-.004279,
.025591,-.003937,
.02559,-.003937,
.02559,.003937,
.025561,.004279,
.025472,.00461,
.025327,.004921,
.02513,.005202,
.024887,.005445,
.024606,.005642,
.024295,.005787,
.023964,.005876,
.023622,.005905,
.023622,.005906,
-.023622,.005906,
-.023964,.005876,
-.024295,.005787,
-.024606,.005642,
-.024887,.005445,
-.02513,.005202,
-.025327,.004921,
-.025472,.00461,
-.025561,.004279,
-.025591,.003937,
-.02559,.003937,
0.0*
%
%ADD22MACRO22*%
%AMMACRO42*
4,1,40,.00625,-.0035,
.00625,.0035,
.00622,.003847,
.006129,.004184,
.005982,.0045,
.005782,.004786,
.005536,.005032,
.00525,.005232,
.004934,.005379,
.004597,.00547,
.00425,.0055,
-.00425,.0055,
-.004597,.00547,
-.004934,.005379,
-.00525,.005232,
-.005536,.005032,
-.005782,.004786,
-.005982,.0045,
-.006129,.004184,
-.00622,.003847,
-.00625,.0035,
-.00625,-.0035,
-.00622,-.003847,
-.006129,-.004184,
-.005982,-.0045,
-.005782,-.004786,
-.005536,-.005032,
-.00525,-.005232,
-.004934,-.005379,
-.004597,-.00547,
-.00425,-.0055,
.00425,-.0055,
.004597,-.00547,
.004934,-.005379,
.00525,-.005232,
.005536,-.005032,
.005782,-.004786,
.005982,-.0045,
.006129,-.004184,
.00622,-.003847,
.00625,-.0035,
0.0*
%
%ADD42MACRO42*%
%AMMACRO40*
4,1,40,-.0035,-.00625,
.0035,-.00625,
.003847,-.00622,
.004184,-.006129,
.0045,-.005982,
.004786,-.005782,
.005032,-.005536,
.005232,-.00525,
.005379,-.004934,
.00547,-.004597,
.0055,-.00425,
.0055,.00425,
.00547,.004597,
.005379,.004934,
.005232,.00525,
.005032,.005536,
.004786,.005782,
.0045,.005982,
.004184,.006129,
.003847,.00622,
.0035,.00625,
-.0035,.00625,
-.003847,.00622,
-.004184,.006129,
-.0045,.005982,
-.004786,.005782,
-.005032,.005536,
-.005232,.00525,
-.005379,.004934,
-.00547,.004597,
-.0055,.00425,
-.0055,-.00425,
-.00547,-.004597,
-.005379,-.004934,
-.005232,-.00525,
-.005032,-.005536,
-.004786,-.005782,
-.0045,-.005982,
-.004184,-.006129,
-.003847,-.00622,
-.0035,-.00625,
0.0*
%
%ADD40MACRO40*%
%ADD51O,.047244X.086614*%
%AMMACRO124*
4,1,6,.01181,.01181,
-.01181,.01181,
-.01181,-.01181,
-.00197,-.01181,
-.00197,.00197,
.01181,.00197,
.01181,.01181,
0.0*
%
%ADD124MACRO124*%
%AMMACRO49*
4,1,44,.013031,.01378,
-.013031,.01378,
-.013373,.01375,
-.013705,.013661,
-.014016,.013516,
-.014297,.013319,
-.014539,.013076,
-.014736,.012795,
-.014881,.012484,
-.01497,.012153,
-.015,.011811,
-.015,.011811,
-.015,-.011811,
-.01497,-.012153,
-.014881,-.012484,
-.014736,-.012795,
-.014539,-.013076,
-.014297,-.013319,
-.014016,-.013516,
-.013705,-.013661,
-.013373,-.01375,
-.013032,-.01378,
-.013031,-.01378,
.013031,-.01378,
.013373,-.01375,
.013705,-.013661,
.014016,-.013516,
.014297,-.013319,
.014539,-.013076,
.014736,-.012795,
.014881,-.012484,
.01497,-.012153,
.015,-.011811,
.015,-.011811,
.015,.011811,
.01497,.012153,
.014881,.012484,
.014736,.012795,
.014539,.013076,
.014297,.013319,
.014016,.013516,
.013705,.013661,
.013373,.01375,
.013032,.01378,
.013031,.01378,
0.0*
%
%ADD49MACRO49*%
%AMMACRO53*
4,1,44,.003937,.023622,
-.003937,.023622,
-.005304,.023502,
-.00663,.023147,
-.007874,.022567,
-.008998,.02178,
-.009969,.020809,
-.010756,.019685,
-.011336,.018441,
-.011691,.017115,
-.011811,.015748,
-.011811,.015748,
-.011811,-.015748,
-.011691,-.017115,
-.011336,-.018441,
-.010756,-.019685,
-.009969,-.020809,
-.008998,-.02178,
-.007874,-.022567,
-.00663,-.023147,
-.005304,-.023502,
-.003937,-.023622,
-.003937,-.023622,
.003937,-.023622,
.005304,-.023502,
.00663,-.023147,
.007874,-.022567,
.008998,-.02178,
.009969,-.020809,
.010756,-.019685,
.011336,-.018441,
.011691,-.017115,
.011811,-.015748,
.011811,-.015748,
.011811,.015748,
.011691,.017115,
.011336,.018441,
.010756,.019685,
.009969,.020809,
.008998,.02178,
.007874,.022567,
.00663,.023147,
.005304,.023502,
.003937,.023622,
.003937,.023622,
0.0*
%
%ADD53MACRO53*%
%AMMACRO52*
4,1,44,.003937,.023622,
-.003937,.023622,
-.004279,.023592,
-.00461,.023503,
-.004921,.023358,
-.005202,.023162,
-.005445,.022919,
-.005642,.022638,
-.005787,.022327,
-.005876,.021995,
-.005905,.021654,
-.005906,.021654,
-.005906,-.021654,
-.005876,-.021995,
-.005787,-.022327,
-.005642,-.022638,
-.005445,-.022919,
-.005202,-.023161,
-.004921,-.023358,
-.00461,-.023503,
-.004279,-.023592,
-.003937,-.023622,
-.003937,-.023622,
.003937,-.023622,
.004279,-.023592,
.00461,-.023503,
.004921,-.023358,
.005202,-.023162,
.005445,-.022919,
.005642,-.022638,
.005787,-.022327,
.005876,-.021995,
.005905,-.021654,
.005906,-.021654,
.005906,.021654,
.005876,.021995,
.005787,.022327,
.005642,.022638,
.005445,.022919,
.005202,.023161,
.004921,.023358,
.00461,.023503,
.004279,.023592,
.003937,.023622,
.003937,.023622,
0.0*
%
%ADD52MACRO52*%
%AMMACRO86*
4,1,44,-.015748,.003937,
-.015748,-.003937,
-.015718,-.004279,
-.015629,-.00461,
-.015484,-.004921,
-.015288,-.005202,
-.015045,-.005445,
-.014764,-.005642,
-.014453,-.005787,
-.014121,-.005876,
-.01378,-.005905,
-.01378,-.005906,
.01378,-.005906,
.014121,-.005876,
.014453,-.005787,
.014764,-.005642,
.015045,-.005445,
.015287,-.005202,
.015484,-.004921,
.015629,-.00461,
.015718,-.004279,
.015748,-.003937,
.015748,-.003937,
.015748,.003937,
.015718,.004279,
.015629,.00461,
.015484,.004921,
.015288,.005202,
.015045,.005445,
.014764,.005642,
.014453,.005787,
.014121,.005876,
.01378,.005905,
.01378,.005906,
-.01378,.005906,
-.014121,.005876,
-.014453,.005787,
-.014764,.005642,
-.015045,.005445,
-.015287,.005202,
-.015484,.004921,
-.015629,.00461,
-.015718,.004279,
-.015748,.003937,
-.015748,.003937,
0.0*
%
%ADD86MACRO86*%
%ADD10R,.041339X.015748*%
%AMMACRO90*
4,1,44,.003937,.015748,
-.003937,.015748,
-.004279,.015718,
-.00461,.015629,
-.004921,.015484,
-.005202,.015288,
-.005445,.015045,
-.005642,.014764,
-.005787,.014453,
-.005876,.014121,
-.005905,.01378,
-.005906,.01378,
-.005906,-.01378,
-.005876,-.014121,
-.005787,-.014453,
-.005642,-.014764,
-.005445,-.015045,
-.005202,-.015287,
-.004921,-.015484,
-.00461,-.015629,
-.004279,-.015718,
-.003937,-.015748,
-.003937,-.015748,
.003937,-.015748,
.004279,-.015718,
.00461,-.015629,
.004921,-.015484,
.005202,-.015288,
.005445,-.015045,
.005642,-.014764,
.005787,-.014453,
.005876,-.014121,
.005905,-.01378,
.005906,-.01378,
.005906,.01378,
.005876,.014121,
.005787,.014453,
.005642,.014764,
.005445,.015045,
.005202,.015287,
.004921,.015484,
.00461,.015629,
.004279,.015718,
.003937,.015748,
.003937,.015748,
0.0*
%
%ADD90MACRO90*%
%ADD114C,.009449*%
%AMMACRO65*
21,1,.009842,.009842,0.0,0.0,45.*%
%ADD65MACRO65*%
%ADD33R,.04X.11*%
%AMMACRO98*
4,1,40,-.018701,.008858,
-.018701,-.008858,
-.018641,-.009542,
-.018463,-.010205,
-.018173,-.010827,
-.01778,-.011389,
-.017294,-.011874,
-.016732,-.012268,
-.01611,-.012558,
-.015447,-.012735,
-.014764,-.012795,
.014764,-.012795,
.015447,-.012735,
.01611,-.012558,
.016732,-.012268,
.017294,-.011874,
.01778,-.011389,
.018173,-.010827,
.018463,-.010205,
.018641,-.009542,
.018701,-.008858,
.018701,.008858,
.018641,.009542,
.018463,.010205,
.018173,.010827,
.01778,.011389,
.017294,.011874,
.016732,.012268,
.01611,.012558,
.015447,.012735,
.014764,.012795,
-.014764,.012795,
-.015447,.012735,
-.01611,.012558,
-.016732,.012268,
-.017294,.011874,
-.01778,.011389,
-.018173,.010827,
-.018463,.010205,
-.018641,.009542,
-.018701,.008858,
0.0*
%
%ADD98MACRO98*%
%ADD24R,.086614X.070866*%
%AMMACRO104*
4,1,44,.01378,.031496,
-.01378,.031496,
-.014463,.031436,
-.015126,.031259,
-.015748,.030969,
-.01631,.030575,
-.016795,.03009,
-.017189,.029528,
-.017479,.028906,
-.017657,.028243,
-.017717,.027559,
-.017716,.027559,
-.017716,-.027559,
-.017657,-.028243,
-.017479,-.028906,
-.017189,-.029528,
-.016795,-.03009,
-.01631,-.030575,
-.015748,-.030969,
-.015126,-.031259,
-.014463,-.031436,
-.01378,-.031496,
-.01378,-.031496,
.01378,-.031496,
.014463,-.031436,
.015126,-.031259,
.015748,-.030969,
.01631,-.030575,
.016795,-.03009,
.017189,-.029528,
.017479,-.028906,
.017657,-.028243,
.017717,-.027559,
.017716,-.027559,
.017716,.027559,
.017657,.028243,
.017479,.028906,
.017189,.029528,
.016795,.03009,
.01631,.030575,
.015748,.030969,
.015126,.031259,
.014463,.031436,
.01378,.031496,
.01378,.031496,
0.0*
%
%ADD104MACRO104*%
%AMMACRO11*
4,1,40,.003937,.009842,
-.003937,.009842,
-.004279,.009813,
-.00461,.009724,
-.004921,.009579,
-.005202,.009382,
-.005445,.009139,
-.005642,.008858,
-.005787,.008547,
-.005876,.008216,
-.005906,.007874,
-.005906,-.007874,
-.005876,-.008216,
-.005787,-.008547,
-.005642,-.008858,
-.005445,-.009139,
-.005202,-.009382,
-.004921,-.009579,
-.00461,-.009724,
-.004279,-.009813,
-.003937,-.009842,
.003937,-.009842,
.004279,-.009813,
.00461,-.009724,
.004921,-.009579,
.005202,-.009382,
.005445,-.009139,
.005642,-.008858,
.005787,-.008547,
.005876,-.008216,
.005906,-.007874,
.005906,.007874,
.005876,.008216,
.005787,.008547,
.005642,.008858,
.005445,.009139,
.005202,.009382,
.004921,.009579,
.00461,.009724,
.004279,.009813,
.003937,.009842,
0.0*
%
%ADD11MACRO11*%
%AMMACRO34*
4,1,44,.011811,-.002953,
.011811,.002953,
.011781,.003295,
.011692,.003626,
.011547,.003937,
.01135,.004218,
.011108,.004461,
.010827,.004657,
.010516,.004803,
.010184,.004891,
.009843,.004921,
.009842,.004921,
-.009842,.004921,
-.010184,.004891,
-.010516,.004803,
-.010827,.004658,
-.011108,.004461,
-.01135,.004218,
-.011547,.003937,
-.011692,.003626,
-.011781,.003295,
-.011811,.002953,
-.011811,.002953,
-.011811,-.002953,
-.011781,-.003295,
-.011692,-.003626,
-.011547,-.003937,
-.01135,-.004218,
-.011108,-.004461,
-.010827,-.004657,
-.010516,-.004803,
-.010184,-.004891,
-.009843,-.004921,
-.009842,-.004921,
.009842,-.004921,
.010184,-.004891,
.010516,-.004803,
.010827,-.004658,
.011108,-.004461,
.01135,-.004218,
.011547,-.003937,
.011692,-.003626,
.011781,-.003295,
.011811,-.002953,
.011811,-.002953,
0.0*
%
%ADD34MACRO34*%
%AMMACRO28*
4,1,44,-.002953,-.011811,
.002953,-.011811,
.003295,-.011781,
.003626,-.011692,
.003937,-.011547,
.004218,-.01135,
.004461,-.011108,
.004657,-.010827,
.004803,-.010516,
.004891,-.010184,
.004921,-.009843,
.004921,-.009842,
.004921,.009842,
.004891,.010184,
.004803,.010516,
.004658,.010827,
.004461,.011108,
.004218,.01135,
.003937,.011547,
.003626,.011692,
.003295,.011781,
.002953,.011811,
.002953,.011811,
-.002953,.011811,
-.003295,.011781,
-.003626,.011692,
-.003937,.011547,
-.004218,.01135,
-.004461,.011108,
-.004657,.010827,
-.004803,.010516,
-.004891,.010184,
-.004921,.009843,
-.004921,.009842,
-.004921,-.009842,
-.004891,-.010184,
-.004803,-.010516,
-.004658,-.010827,
-.004461,-.011108,
-.004218,-.01135,
-.003937,-.011547,
-.003626,-.011692,
-.003295,-.011781,
-.002953,-.011811,
-.002953,-.011811,
0.0*
%
%ADD28MACRO28*%
%ADD25R,.06X.12*%
%AMMACRO75*
4,1,44,-.031496,.009842,
-.031496,-.009842,
-.031466,-.010184,
-.031377,-.010516,
-.031232,-.010827,
-.031036,-.011108,
-.030793,-.01135,
-.030512,-.011547,
-.030201,-.011692,
-.029869,-.011781,
-.029528,-.011811,
-.029528,-.011811,
.029528,-.011811,
.029869,-.011781,
.030201,-.011692,
.030512,-.011547,
.030793,-.01135,
.031035,-.011108,
.031232,-.010827,
.031377,-.010516,
.031466,-.010184,
.031496,-.009843,
.031496,-.009842,
.031496,.009842,
.031466,.010184,
.031377,.010516,
.031232,.010827,
.031036,.011108,
.030793,.01135,
.030512,.011547,
.030201,.011692,
.029869,.011781,
.029528,.011811,
.029528,.011811,
-.029528,.011811,
-.029869,.011781,
-.030201,.011692,
-.030512,.011547,
-.030793,.01135,
-.031035,.011108,
-.031232,.010827,
-.031377,.010516,
-.031466,.010184,
-.031496,.009843,
-.031496,.009842,
0.0*
%
%ADD75MACRO75*%
%AMMACRO113*
4,1,44,-.027559,.035433,
-.027559,-.035433,
-.027439,-.0368,
-.027084,-.038126,
-.026504,-.03937,
-.025717,-.040494,
-.024746,-.041465,
-.023622,-.042252,
-.022378,-.042832,
-.021052,-.043187,
-.019685,-.043307,
-.019685,-.043307,
.019685,-.043307,
.021052,-.043187,
.022378,-.042832,
.023622,-.042252,
.024746,-.041465,
.025717,-.040494,
.026504,-.03937,
.027084,-.038126,
.027439,-.0368,
.027559,-.035433,
.027559,-.035433,
.027559,.035433,
.027439,.0368,
.027084,.038126,
.026504,.03937,
.025717,.040494,
.024746,.041465,
.023622,.042252,
.022378,.042832,
.021052,.043187,
.019685,.043307,
.019685,.043307,
-.019685,.043307,
-.021052,.043187,
-.022378,.042832,
-.023622,.042252,
-.024746,.041465,
-.025717,.040494,
-.026504,.03937,
-.027084,.038126,
-.027439,.0368,
-.027559,.035433,
-.027559,.035433,
0.0*
%
%ADD113MACRO113*%
%AMMACRO70*
4,1,5,.00433,.00827,
.00433,-.00827,
-.00433,-.00827,
-.00433,.00197,
.00197,.00827,
.00433,.00827,
0.0*
%
%ADD70MACRO70*%
%AMMACRO95*
4,1,44,.015748,.031496,
-.015748,.031496,
-.016432,.031436,
-.017095,.031259,
-.017717,.030969,
-.018279,.030575,
-.018764,.03009,
-.019158,.029528,
-.019448,.028906,
-.019625,.028243,
-.019685,.027559,
-.019685,.027559,
-.019685,-.027559,
-.019625,-.028243,
-.019448,-.028906,
-.019158,-.029528,
-.018764,-.03009,
-.018279,-.030575,
-.017717,-.030969,
-.017095,-.031259,
-.016432,-.031436,
-.015748,-.031496,
-.015748,-.031496,
.015748,-.031496,
.016432,-.031436,
.017095,-.031259,
.017717,-.030969,
.018279,-.030575,
.018764,-.03009,
.019158,-.029528,
.019448,-.028906,
.019625,-.028243,
.019685,-.027559,
.019685,-.027559,
.019685,.027559,
.019625,.028243,
.019448,.028906,
.019158,.029528,
.018764,.03009,
.018279,.030575,
.017717,.030969,
.017095,.031259,
.016432,.031436,
.015748,.031496,
.015748,.031496,
0.0*
%
%ADD95MACRO95*%
%AMMACRO79*
4,1,44,-.002953,-.015256,
.002953,-.015256,
.003295,-.015226,
.003626,-.015137,
.003937,-.014992,
.004218,-.014795,
.004461,-.014553,
.004657,-.014272,
.004803,-.013961,
.004891,-.013629,
.004921,-.013287,
.004921,-.013287,
.004921,.013287,
.004891,.013629,
.004803,.013961,
.004658,.014272,
.004461,.014553,
.004218,.014795,
.003937,.014992,
.003626,.015137,
.003295,.015226,
.002953,.015256,
.002953,.015256,
-.002953,.015256,
-.003295,.015226,
-.003626,.015137,
-.003937,.014992,
-.004218,.014795,
-.004461,.014553,
-.004657,.014272,
-.004803,.013961,
-.004891,.013629,
-.004921,.013287,
-.004921,.013287,
-.004921,-.013287,
-.004891,-.013629,
-.004803,-.013961,
-.004658,-.014272,
-.004461,-.014553,
-.004218,-.014795,
-.003937,-.014992,
-.003626,-.015137,
-.003295,-.015226,
-.002953,-.015256,
-.002953,-.015256,
0.0*
%
%ADD79MACRO79*%
%ADD132C,.02*%
%ADD133C,.005*%
%ADD134C,.006*%
%ADD135C,.009842*%
G75*
%LPD*%
G75*
G36*
G01X263461Y340004D02*
G03I-2040J0D01*
G37*
G36*
G01X260661Y346404D02*
G03I-2040J0D01*
G37*
G36*
G01X263261Y353204D02*
G03I-2040J0D01*
G37*
G36*
G01X270061Y337304D02*
G03I-2040J0D01*
G37*
G36*
G01X269961Y356104D02*
G03I-2040J0D01*
G37*
G36*
G01X276661Y340004D02*
G03I-2040J0D01*
G37*
G36*
G01X279461Y346504D02*
G03I-2040J0D01*
G37*
G36*
G01X276961Y353004D02*
G03I-2040J0D01*
G37*
G36*
G01X297358Y313024D02*
Y314008D01*
X298342D01*
Y313024D01*
X297358D01*
G37*
G36*
G01Y314992D02*
Y315976D01*
X298342D01*
Y314992D01*
X297358D01*
G37*
G36*
G01Y320992D02*
Y321976D01*
X298342D01*
Y320992D01*
X297358D01*
G37*
G36*
G01Y319024D02*
Y320008D01*
X298342D01*
Y319024D01*
X297358D01*
G37*
G36*
G01X301816Y236196D02*
Y237180D01*
X302800D01*
Y236196D01*
X301816D01*
G37*
G36*
G01Y234228D02*
Y235212D01*
X302800D01*
Y234228D01*
X301816D01*
G37*
G36*
G01Y247758D02*
Y248742D01*
X302800D01*
Y247758D01*
X301816D01*
G37*
G36*
G01Y242726D02*
Y243710D01*
X302800D01*
Y242726D01*
X301816D01*
G37*
G36*
G01Y240758D02*
Y241742D01*
X302800D01*
Y240758D01*
X301816D01*
G37*
G36*
G01Y249726D02*
Y250710D01*
X302800D01*
Y249726D01*
X301816D01*
G37*
G36*
G01X305108Y320992D02*
Y321976D01*
X306092D01*
Y320992D01*
X305108D01*
G37*
G36*
G01Y319024D02*
Y320008D01*
X306092D01*
Y319024D01*
X305108D01*
G37*
G36*
G01X310312Y475058D02*
G03I-2040J0D01*
G37*
G36*
G01X307512Y481458D02*
G03I-2040J0D01*
G37*
G36*
G01X310112Y488258D02*
G03I-2040J0D01*
G37*
G36*
G01X316912Y472358D02*
G03I-2040J0D01*
G37*
G36*
G01X316812Y491158D02*
G03I-2040J0D01*
G37*
G36*
G01X319404Y237516D02*
X318420D01*
Y238500D01*
X319404D01*
Y237516D01*
G37*
G36*
G01X321372D02*
X320388D01*
Y238500D01*
X321372D01*
Y237516D01*
G37*
G36*
G01X323512Y475058D02*
G03I-2040J0D01*
G37*
G36*
G01X326312Y481558D02*
G03I-2040J0D01*
G37*
G36*
G01X323812Y488058D02*
G03I-2040J0D01*
G37*
G36*
G01X376986Y256018D02*
Y257002D01*
X377970D01*
Y256018D01*
X376986D01*
G37*
G36*
G01Y263986D02*
Y264970D01*
X377970D01*
Y263986D01*
X376986D01*
G37*
G36*
G01Y262018D02*
Y263002D01*
X377970D01*
Y262018D01*
X376986D01*
G37*
G36*
G01Y257986D02*
Y258970D01*
X377970D01*
Y257986D01*
X376986D01*
G37*
G36*
G01X378586Y276886D02*
Y277870D01*
X379570D01*
Y276886D01*
X378586D01*
G37*
G36*
G01Y274918D02*
Y275902D01*
X379570D01*
Y274918D01*
X378586D01*
G37*
G36*
G01X376986Y311486D02*
Y312470D01*
X377970D01*
Y311486D01*
X376986D01*
G37*
G36*
G01Y309518D02*
Y310502D01*
X377970D01*
Y309518D01*
X376986D01*
G37*
G36*
G01Y317486D02*
Y318470D01*
X377970D01*
Y317486D01*
X376986D01*
G37*
G36*
G01Y315518D02*
Y316502D01*
X377970D01*
Y315518D01*
X376986D01*
G37*
G36*
G01X459919Y475058D02*
G03I-2040J0D01*
G37*
G36*
G01X457119Y481458D02*
G03I-2040J0D01*
G37*
G36*
G01X459719Y488258D02*
G03I-2040J0D01*
G37*
G36*
G01X466519Y472358D02*
G03I-2040J0D01*
G37*
G36*
G01X466419Y491158D02*
G03I-2040J0D01*
G37*
G36*
G01X475667Y309704D02*
G03I-2040J0D01*
G37*
G36*
G01X475467Y322904D02*
G03I-2040J0D01*
G37*
G36*
G01X472867Y316104D02*
G03I-2040J0D01*
G37*
G36*
G01X473119Y475058D02*
G03I-2040J0D01*
G37*
G36*
G01X475919Y481558D02*
G03I-2040J0D01*
G37*
G36*
G01X473419Y488058D02*
G03I-2040J0D01*
G37*
G36*
G01X482267Y307004D02*
G03I-2040J0D01*
G37*
G36*
G01X482167Y325804D02*
G03I-2040J0D01*
G37*
G36*
G01X488867Y309704D02*
G03I-2040J0D01*
G37*
G36*
G01X489167Y322704D02*
G03I-2040J0D01*
G37*
G36*
G01X491667Y316204D02*
G03I-2040J0D01*
G37*
G54D100*
X390632Y401387D03*
X398506D03*
X396538D03*
X394569D03*
X392601D03*
X406380D03*
X404412D03*
X402443D03*
X400475D03*
X412286D03*
X410317D03*
X408349D03*
G54D101*
X390632Y435246D03*
X392601D03*
X394569D03*
X396538D03*
X398506D03*
X400475D03*
X402443D03*
X404412D03*
X406380D03*
X408349D03*
X410317D03*
X412286D03*
G54D110*
X418388Y411427D03*
Y409458D03*
Y407490D03*
Y419301D03*
Y417332D03*
Y415364D03*
Y413395D03*
Y429143D03*
Y427175D03*
Y425206D03*
Y423238D03*
Y421269D03*
G54D120*
X470501Y260996D03*
G54D102*
X387694Y518215D03*
Y516246D03*
Y526089D03*
Y524120D03*
Y522152D03*
Y520183D03*
Y533963D03*
Y531994D03*
Y530026D03*
Y528057D03*
Y543806D03*
Y541837D03*
Y539868D03*
Y537900D03*
Y535932D03*
Y551680D03*
Y549711D03*
Y547743D03*
Y545774D03*
Y559554D03*
Y557585D03*
Y555617D03*
Y553648D03*
Y567428D03*
Y565459D03*
Y563491D03*
Y561522D03*
Y569396D03*
G54D111*
X423762Y445148D03*
Y466407D03*
X428762Y445148D03*
Y466407D03*
X438762Y445148D03*
X433762D03*
Y466407D03*
X438762D03*
G54D10*
X130289Y493182D03*
G54D103*
X401459Y418316D03*
G54D112*
X429255Y399954D03*
Y409010D03*
X436539Y399954D03*
Y409010D03*
G54D121*
X472177Y444797D03*
Y446765D03*
Y448734D03*
X476114Y444797D03*
X474146D03*
X476114Y446765D03*
X474146D03*
X476114Y448734D03*
X474146D03*
G54D130*
X513102Y516152D03*
G54D113*
X451291Y553554D03*
X513102D03*
G54D11*
X128715Y490426D03*
Y495938D03*
X131864Y490426D03*
Y495938D03*
G54D104*
X401180Y472157D03*
G54D20*
X146969Y515028D03*
Y518965D03*
Y522902D03*
Y526839D03*
X146928Y552328D03*
Y556265D03*
Y560202D03*
Y564139D03*
G54D131*
X555528Y274881D03*
Y279881D03*
Y284881D03*
Y289881D03*
Y294881D03*
Y304881D03*
Y299881D03*
Y309881D03*
G54D122*
X473339Y513790D03*
X482000D03*
X477669D03*
X490661D03*
X486331D03*
X494992D03*
X503654D03*
X499323D03*
X507984D03*
G54D132*
G01X139000Y485500D02*
X131000D01*
G01Y501000D02*
X139000D01*
Y495000D01*
G54D114*
X451532Y446291D03*
Y447866D03*
X453106Y446291D03*
Y447866D03*
G54D30*
X178329Y301400D03*
X187329D03*
X358975Y488206D03*
X367975D03*
G54D123*
X481500Y227300D03*
X488000D03*
G54D21*
X152454Y234150D03*
Y254150D03*
Y274150D03*
Y294150D03*
X165446Y244150D03*
Y264150D03*
Y284150D03*
Y304150D03*
X242494Y234150D03*
Y254150D03*
Y274150D03*
Y294150D03*
X255486Y244150D03*
Y264150D03*
Y284150D03*
Y304150D03*
G54D12*
X131418Y509319D03*
Y532548D03*
X131377Y546619D03*
Y569848D03*
G54D105*
X406616Y501610D03*
Y511059D03*
X408191Y501610D03*
X409765D03*
X411340D03*
Y511059D03*
X409765D03*
X408191D03*
X491802Y346807D03*
X493377D03*
X494951D03*
X496526D03*
X494951Y353107D03*
X493377D03*
X491802D03*
G54D133*
G01X132840Y219900D02*
X553960D01*
G03X559960Y225900I0J6000D01*
G01Y572200D01*
G03X553960Y578200I-6000J0D01*
G01X132840D01*
G03X126840Y572200I0J-6000D01*
G01Y225900D01*
G03X132840Y219900I6000J0D01*
G01X184008Y363645D02*
X189851D01*
G03X191851Y365645I0J2000D01*
G01Y432512D01*
G03X189851Y434512I-2000J0D01*
G01X184008D01*
G03X182008Y432512I0J-2000D01*
G01Y365645D01*
G03X184008Y363645I2000J0D01*
G01X503067Y415517D02*
X497949D01*
G01D02*
Y412761D01*
G01D02*
X503067D01*
G01X497949Y446226D02*
Y448982D01*
G01D02*
X503067D01*
G01Y446226D02*
X497949D01*
G01X503067Y412761D02*
Y415517D01*
G01Y448982D02*
Y446226D01*
G01X552020Y238700D02*
G03I-10750J0D01*
G01X551980Y559480D02*
G03I-10750J0D01*
G01X541499Y345846D02*
G03Y339677I0J-3085D01*
G01Y345846D02*
G03Y339677I0J-3085D01*
G01X536618Y382678D02*
Y417922D01*
G02X538618Y419922I2000J0D01*
G01X544460D01*
G02X546460Y417922I0J-2000D01*
G01Y406500D01*
G03X548460Y404500I2000J0D01*
G01X549460D01*
G02X551460Y402500I0J-2000D01*
G01Y396500D01*
G02X549460Y394500I-2000J0D01*
G01X548460D01*
G03X546460Y392500I0J-2000D01*
G01Y382678D01*
G02X544460Y380678I-2000J0D01*
G01X538618D01*
G02X536618Y382678I0J2000D01*
G01X541499Y456083D02*
G03Y449913I0J-3085D01*
G01Y339677D02*
G03Y345846I0J3085D01*
G01Y449913D02*
G03Y456083I0J3085D01*
G54D124*
X476997Y254500D03*
G54D40*
X199419Y366200D03*
X201425D03*
X251420Y477957D03*
X253426D03*
X275228Y256366D03*
X277234D03*
X282284Y293276D03*
X284290D03*
X292547Y270300D03*
Y267750D03*
X292669Y281150D03*
X286686Y300557D03*
X288692D03*
X291247Y308050D03*
X293253D03*
X291293Y310581D03*
X293299D03*
X294553Y270300D03*
Y267750D03*
X294675Y281150D03*
X299161Y326000D03*
X301167D03*
X309787Y316581D03*
X303769Y338650D03*
X305775D03*
X311793Y316581D03*
X357997Y238700D03*
Y241300D03*
X354947Y255150D03*
X356953D03*
X354947Y257900D03*
X356953D03*
X360003Y238700D03*
Y241300D03*
X363047Y334300D03*
X365053D03*
X363047Y331700D03*
X365053D03*
X370264Y443197D03*
X372270D03*
X380719Y279600D03*
X382725D03*
X377919Y416700D03*
X379925D03*
X377911Y419300D03*
X379917D03*
X378311Y429300D03*
X380317D03*
X378319Y432000D03*
X380325D03*
X398519Y262500D03*
X393519D03*
X395525D03*
X398519Y259900D03*
X392019Y310200D03*
X394025D03*
X396619D03*
X398625D03*
X400525Y262500D03*
Y259900D03*
X405719Y310200D03*
X407725D03*
X402652Y483257D03*
X404658D03*
X411419Y262500D03*
X413425D03*
X410319Y310200D03*
X412325D03*
X410319Y312850D03*
X412325D03*
X411319Y460900D03*
X413325D03*
G54D22*
X152530Y378968D03*
Y380936D03*
Y382905D03*
Y384873D03*
Y386842D03*
Y388810D03*
Y390779D03*
Y392747D03*
Y394716D03*
Y396684D03*
Y398653D03*
Y400621D03*
Y402590D03*
Y404558D03*
Y406527D03*
Y408495D03*
Y410464D03*
Y412432D03*
Y414401D03*
Y416369D03*
Y418338D03*
Y420306D03*
G54D13*
X137560Y231790D03*
Y225790D03*
X143260Y231790D03*
Y225790D03*
X246057Y445012D03*
Y439012D03*
X294891Y444602D03*
Y450602D03*
X358550Y326677D03*
Y332677D03*
X417600Y452800D03*
Y458800D03*
G54D31*
X178727Y311803D03*
Y319284D03*
X188963Y311803D03*
Y319284D03*
Y315544D03*
X194859Y348579D03*
Y352319D03*
Y356059D03*
X199008Y476292D03*
Y483772D03*
X205095Y356059D03*
Y348579D03*
X209245Y476292D03*
Y483772D03*
Y480032D03*
X220559Y476292D03*
Y480032D03*
Y483772D03*
X230795Y476292D03*
Y483772D03*
X358505Y394941D03*
Y402421D03*
X368741Y394941D03*
Y402421D03*
Y398681D03*
X430970Y484617D03*
Y492097D03*
X441207Y484617D03*
Y492097D03*
Y488357D03*
X500570Y472617D03*
Y480097D03*
X510807Y476357D03*
Y472617D03*
Y480097D03*
G54D115*
X454835Y515758D03*
G54D106*
X405828Y508696D03*
Y507122D03*
Y505548D03*
Y503973D03*
X412128Y505548D03*
Y507122D03*
Y508696D03*
X489440Y352319D03*
Y350744D03*
Y349170D03*
Y347595D03*
X498888D03*
Y349170D03*
Y350744D03*
Y352319D03*
G54D134*
G01X497949Y415517D02*
X503067D01*
Y412761D01*
X497949D01*
Y415517D01*
G01D02*
X503067D01*
Y412761D01*
X497949D01*
Y415517D01*
G01Y448982D02*
X503067D01*
Y446226D01*
X497949D01*
Y448982D01*
G01D02*
X503067D01*
Y446226D01*
X497949D01*
Y448982D01*
G54D50*
X232132Y504351D03*
X234691Y513013D03*
X232132D03*
X237250Y504351D03*
Y513013D03*
X300850Y447719D03*
Y456381D03*
X303409Y447719D03*
X305968D03*
Y456381D03*
X331941Y476469D03*
X334500Y485131D03*
X331941D03*
X337059Y476469D03*
Y485131D03*
G54D32*
X178260Y329917D03*
Y340153D03*
X185740Y329917D03*
X182000Y340153D03*
X185740D03*
X316460Y448343D03*
X312720D03*
Y458579D03*
X320200Y448343D03*
Y458579D03*
X372657Y448250D03*
Y458486D03*
X380137Y448250D03*
X376397D03*
X380137Y458486D03*
X401695Y336379D03*
Y346615D03*
X405436D03*
X409176Y336379D03*
Y346615D03*
X448587Y408853D03*
Y419090D03*
X456067Y408853D03*
X452327D03*
X456067Y419090D03*
X476379Y368236D03*
Y378472D03*
X480119D03*
X483859Y368236D03*
Y378472D03*
G54D116*
X464005Y254500D03*
G54D41*
X201303Y440859D03*
X198744D03*
X196185D03*
X196578Y463891D03*
X199137D03*
X201697D03*
X211539Y440859D03*
X208980D03*
X206421D03*
X203862D03*
X204256Y463891D03*
X206815D03*
X209374D03*
X214098Y440859D03*
X211933Y463891D03*
X214492D03*
X226005Y440859D03*
X223446D03*
X220887D03*
X221281Y463891D03*
X223840D03*
X226399D03*
X236241Y440859D03*
X233682D03*
X231123D03*
X228564D03*
X228958Y463891D03*
X231517D03*
X234076D03*
X238800Y440859D03*
X236635Y463891D03*
X239194D03*
G54D14*
X135491Y359734D03*
X144321Y236600D03*
X140679D03*
X144321Y244000D03*
X140679D03*
X144321Y250419D03*
X140679D03*
X144321Y254100D03*
X140679D03*
X144321Y264600D03*
X140679D03*
X144321Y268519D03*
X140679D03*
X144321Y272300D03*
X140679D03*
X144321Y276000D03*
X140679D03*
X144421Y279713D03*
X140779D03*
X144421Y287143D03*
X140779D03*
X144421Y290900D03*
X140779D03*
X144421Y298543D03*
X140779D03*
X139133Y359734D03*
X143999Y359834D03*
X145607Y388519D03*
X141965D03*
X145633Y384850D03*
X141992D03*
X145859Y484843D03*
X145779Y499900D03*
X146264Y541500D03*
X152779Y316866D03*
Y324443D03*
X147640Y359834D03*
X149500Y484843D03*
X149421Y499900D03*
X153760Y526800D03*
X149906Y541500D03*
X154149Y566493D03*
X154048Y562743D03*
X156421Y316866D03*
Y324443D03*
X157402Y526800D03*
X157790Y566493D03*
X157690Y562743D03*
X169021Y493693D03*
X165379D03*
X169021Y497493D03*
X165379D03*
X176532Y497337D03*
X172890D03*
X186710Y294000D03*
X183751Y493614D03*
X180109D03*
X183751Y501114D03*
X180109D03*
X190352Y294000D03*
X192594Y330750D03*
X192007Y483719D03*
X188365D03*
X192796Y500919D03*
X189154D03*
X196236Y330750D03*
X203065Y469619D03*
X206707D03*
X210300Y469550D03*
X215758Y355043D03*
X212116D03*
X213941Y469550D03*
X216241Y489943D03*
X212599D03*
X217832Y517832D03*
X214190D03*
X217802Y521600D03*
X214160D03*
X217759Y525419D03*
X214117D03*
X225076Y289019D03*
Y283319D03*
X228718Y289019D03*
Y283319D03*
X235932Y289043D03*
X232290D03*
X235941Y283357D03*
X232299D03*
X233160Y522100D03*
X233164Y526019D03*
X243760Y501000D03*
Y504700D03*
X243756Y515800D03*
X236802Y522100D03*
X244077Y522043D03*
X240435D03*
X236806Y526019D03*
X244006D03*
X240364D03*
X252262Y334219D03*
X248621D03*
X252270Y337919D03*
X248629D03*
X247402Y501000D03*
Y504700D03*
X247398Y515800D03*
X276729Y234000D03*
X276806Y237700D03*
X274465Y262819D03*
Y266619D03*
X274265Y279519D03*
X274465Y275819D03*
X274565Y288200D03*
X274465Y284500D03*
X273014Y471243D03*
X269372D03*
X275508Y507843D03*
X271866D03*
X280371Y234000D03*
X280448Y237700D03*
X278107Y262819D03*
Y266619D03*
X277907Y279519D03*
X278107Y275819D03*
X278207Y288200D03*
X278107Y284500D03*
X282232Y497232D03*
X278590D03*
X282232Y500932D03*
X278590D03*
X291664Y264619D03*
X291602Y501100D03*
X287960D03*
X291602Y497400D03*
X287960D03*
X295306Y264619D03*
X301690Y461550D03*
X307541Y437934D03*
X303899D03*
X305331Y461550D03*
X314248Y240100D03*
X310606D03*
X318307Y338650D03*
X314665D03*
X326590Y452032D03*
X324560Y467800D03*
X326302Y517400D03*
X322660D03*
X326299Y524900D03*
X322657D03*
X331460Y365443D03*
X327818D03*
X330232Y452032D03*
X328202Y467800D03*
X341819Y386334D03*
X345461D03*
X348357Y390234D03*
X344715D03*
X348989Y401343D03*
X348969Y397643D03*
X348960Y463500D03*
X352631Y401343D03*
X352611Y397643D03*
X356256Y433843D03*
X352614D03*
X356299Y437500D03*
X352657D03*
X352602Y463500D03*
X364882Y388419D03*
X361240D03*
X367372Y412519D03*
X363730D03*
X363406Y440650D03*
X359764D03*
X363518Y448114D03*
X359876D03*
X372925Y244634D03*
X369284D03*
X372929Y248434D03*
X369288D03*
X375670Y289848D03*
X372871Y331100D03*
X369229D03*
X374736Y359543D03*
X375678Y500718D03*
X372037D03*
X372737Y496803D03*
X375715Y504375D03*
X372073D03*
X380333Y240134D03*
X376692D03*
X380337Y236334D03*
X376695D03*
X379312Y289848D03*
X382331Y282943D03*
X378689D03*
X382435Y349543D03*
X378793D03*
X378378Y359543D03*
X382156Y375700D03*
X382402Y442803D03*
X378760D03*
X376378Y496803D03*
X388299Y248393D03*
X384657D03*
X388298Y244600D03*
X384656D03*
X388268Y252319D03*
X384626D03*
X392056Y313700D03*
X391460Y334200D03*
X391460Y337943D03*
X385798Y375700D03*
X395698Y313700D03*
X395102Y334200D03*
X395102Y337943D03*
X397592Y483637D03*
X393950D03*
X397618Y479943D03*
X393976D03*
X397045Y521887D03*
X398041Y544003D03*
X407249Y259293D03*
X403607D03*
X407806Y391100D03*
X404164D03*
X400687Y521887D03*
X401682Y544003D03*
X414689Y237759D03*
X411047D03*
X414662Y241359D03*
X411020D03*
X416857Y507800D03*
X416906Y504043D03*
X422802Y315500D03*
X419160D03*
X424959Y507843D03*
X420499Y507800D03*
X420548Y504043D03*
X428600Y507843D03*
X437404Y507943D03*
X433762D03*
X440184Y532634D03*
X448704Y399343D03*
X448121Y426233D03*
X445908Y507943D03*
X442266D03*
X443826Y532634D03*
X452346Y399343D03*
X451763Y426233D03*
X455847Y429943D03*
X466090Y345332D03*
Y352832D03*
Y349032D03*
Y360332D03*
Y356532D03*
X459488Y429943D03*
X463190Y451632D03*
X463168Y455434D03*
X469732Y345332D03*
Y352832D03*
Y349032D03*
Y360332D03*
Y356532D03*
X469768Y364119D03*
X466126D03*
X466832Y451632D03*
X466810Y455434D03*
X472502Y499000D03*
X468860D03*
X480522Y345700D03*
Y349400D03*
Y353400D03*
X481190Y446919D03*
X481172Y450634D03*
X481202Y491600D03*
X477560D03*
X489910Y256943D03*
X486268D03*
X489910Y262443D03*
X486268D03*
X489860Y276500D03*
X484164Y345700D03*
Y349400D03*
Y353400D03*
X484832Y446919D03*
X484814Y450634D03*
X489733Y474943D03*
X486091D03*
X493502Y276500D03*
X498287Y335850D03*
X498283Y340550D03*
X494629D03*
X490987D03*
X506900Y241419D03*
X503259D03*
X504851Y281450D03*
X501209D03*
X504635Y298250D03*
X500994D03*
X501929Y335850D03*
X501925Y340550D03*
X503313Y379250D03*
X499671D03*
X506013Y407150D03*
X502371D03*
X503960Y465600D03*
X507602D03*
G54D107*
X411931Y503973D03*
G54D23*
X161343Y317738D03*
Y323738D03*
X166943Y317738D03*
Y323738D03*
X251791Y439002D03*
Y445002D03*
X369250Y335850D03*
Y341850D03*
X393600Y566600D03*
Y572600D03*
X514100Y500200D03*
Y506200D03*
X521900Y558200D03*
Y564200D03*
G54D125*
X476997Y267492D03*
G54D135*
G01X470501Y258996D02*
Y256496D01*
G01Y265496D02*
Y262996D01*
G54D24*
X164921Y370897D03*
X164920Y428377D03*
G54D33*
X173868Y511419D03*
X181742D03*
X189616D03*
X197490D03*
G54D51*
X233054Y551339D03*
Y567875D03*
X266912Y551339D03*
Y567875D03*
G54D42*
X207150Y323911D03*
Y325917D03*
X310150Y247147D03*
Y249153D03*
X326350Y243147D03*
Y245153D03*
X330550Y243147D03*
Y245153D03*
X340800Y238519D03*
Y240525D03*
X346600Y238519D03*
Y240525D03*
X343700Y238569D03*
Y240575D03*
X380100Y407411D03*
Y409417D03*
X391600Y243119D03*
Y245125D03*
X387900Y394311D03*
Y396317D03*
X390500Y394311D03*
Y396317D03*
X397900Y394311D03*
Y396317D03*
X403200Y394311D03*
Y396317D03*
X405900Y394311D03*
Y396317D03*
X400500Y394311D03*
Y396317D03*
X408500Y394311D03*
Y396317D03*
X423400Y427819D03*
Y429825D03*
X426000Y427819D03*
Y429825D03*
X438800Y435419D03*
Y437425D03*
X448400Y274171D03*
Y276177D03*
Y284737D03*
Y286743D03*
G54D15*
X134833Y363447D03*
X137333Y370447D03*
X139951Y363447D03*
X143698D03*
X146198Y370447D03*
X148816Y363447D03*
X424265Y511739D03*
X433000D03*
X429383D03*
X426765Y518739D03*
X441735Y511839D03*
X438118Y511739D03*
X435500Y518739D03*
X446853Y511839D03*
X444235Y518839D03*
G54D108*
X413361Y525026D03*
X420361Y527644D03*
Y522526D03*
G54D117*
X464005Y267492D03*
G54D60*
X256625Y508900D03*
X256959Y529310D03*
X263625Y508900D03*
X263959Y529310D03*
X456725Y228300D03*
Y235900D03*
X463725Y228300D03*
Y235900D03*
X474325Y295300D03*
X481325D03*
G54D126*
X490862Y423194D03*
Y435399D03*
G54D70*
X277659Y226868D03*
X501809Y246143D03*
G54D25*
X164419Y540553D03*
X206939D03*
G54D34*
X179481Y468773D03*
Y476648D03*
Y474679D03*
Y472710D03*
Y470742D03*
Y478616D03*
X354500Y445271D03*
Y453145D03*
Y451176D03*
Y449208D03*
Y447239D03*
Y455113D03*
G54D52*
X243093Y548977D03*
X245062D03*
X247030D03*
X248999D03*
X250967D03*
X252936D03*
X254904D03*
X256873D03*
G54D16*
X137100Y454309D03*
Y457950D03*
X145719Y374018D03*
Y377660D03*
X141919Y374039D03*
Y377681D03*
X138234Y388464D03*
Y392105D03*
X140900Y454309D03*
Y457950D03*
X144700Y454309D03*
Y457950D03*
X152279Y454309D03*
Y457950D03*
X148400Y454309D03*
Y457950D03*
X153643Y503706D03*
Y507348D03*
X153632Y518168D03*
Y521810D03*
X153800Y540598D03*
Y544240D03*
X153832Y555268D03*
Y558910D03*
X154150Y570079D03*
Y573721D03*
X159801Y454309D03*
Y457950D03*
X156072Y454309D03*
Y457950D03*
X157300Y518198D03*
Y521840D03*
X157400Y533380D03*
Y537022D03*
X157500Y555298D03*
Y558940D03*
X167200Y454309D03*
Y457950D03*
X163500Y454309D03*
Y457950D03*
X175400Y283279D03*
Y286921D03*
X171000Y454309D03*
Y457950D03*
X178400Y454309D03*
Y457950D03*
X174700Y454309D03*
Y457950D03*
X182900Y290679D03*
Y294321D03*
X179200Y290579D03*
Y294221D03*
X182107Y454309D03*
Y457950D03*
X185887Y454309D03*
Y457950D03*
X185900Y462901D03*
Y466543D03*
X197455Y497463D03*
Y501104D03*
X203893Y323236D03*
Y326878D03*
X203932Y497368D03*
Y501010D03*
X207634Y497378D03*
Y501020D03*
X216800Y310748D03*
Y314390D03*
X219643Y369068D03*
Y376198D03*
Y379840D03*
Y372710D03*
X224269Y310794D03*
Y314436D03*
X227069Y348884D03*
Y352526D03*
X223343Y369068D03*
X227343D03*
X223400Y376198D03*
Y379840D03*
X223343Y372710D03*
X227300Y376198D03*
Y379840D03*
X227343Y372710D03*
X225443Y501551D03*
Y505193D03*
X231969Y310792D03*
Y314433D03*
X234769Y348880D03*
Y352522D03*
X230769Y348876D03*
Y352518D03*
X231119Y369068D03*
X235019D03*
X231119Y376198D03*
Y379840D03*
Y372710D03*
X235019Y376198D03*
Y379840D03*
Y372710D03*
Y493794D03*
X231219D03*
X235019Y497436D03*
X231219D03*
X242643Y369068D03*
X238843D03*
X238825Y376198D03*
Y379840D03*
X242600Y376198D03*
Y379840D03*
X242643Y372710D03*
X238843D03*
X243119Y478401D03*
X238900D03*
X243119Y482043D03*
X238900D03*
X238719Y493794D03*
Y497436D03*
X248543Y369068D03*
X248541Y376198D03*
Y379840D03*
X248543Y372710D03*
X246834Y478401D03*
Y482043D03*
X247343Y490017D03*
Y493659D03*
X259243Y369068D03*
X254543D03*
X259200Y376198D03*
Y379840D03*
X254475Y376198D03*
Y379840D03*
X259243Y372710D03*
X254543D03*
X258300Y478198D03*
Y481840D03*
X266232Y293868D03*
Y297510D03*
X264043Y369068D03*
X264000Y376198D03*
Y379840D03*
X264043Y372710D03*
X262000Y478202D03*
Y481844D03*
X272484Y233879D03*
Y237520D03*
X269943Y369068D03*
X273743D03*
X273700Y376198D03*
Y379840D03*
X269943Y376198D03*
Y379840D03*
Y372710D03*
X273743D03*
X279400Y483598D03*
Y487240D03*
X317443Y247352D03*
X312750Y246329D03*
X317443Y250994D03*
X312750Y249971D03*
X316443Y360692D03*
Y364334D03*
X320143Y360686D03*
Y364328D03*
X334243Y374614D03*
Y378255D03*
X327350Y432871D03*
Y436512D03*
Y440206D03*
Y443848D03*
X333843Y521525D03*
Y525167D03*
X338143Y374618D03*
Y378259D03*
X342600Y463398D03*
Y467040D03*
X352478Y337366D03*
X357728D03*
X352478Y341008D03*
X357728D03*
X357519Y385096D03*
Y388738D03*
X356403Y463457D03*
Y467099D03*
X364100Y337429D03*
Y341071D03*
X374600Y338602D03*
Y342244D03*
X374643Y345904D03*
Y349545D03*
X369840Y376428D03*
Y380070D03*
X374700Y400694D03*
Y404336D03*
X371000Y415164D03*
Y418806D03*
X375303Y439237D03*
Y442879D03*
X378400Y363379D03*
Y367021D03*
X378443Y370688D03*
Y374330D03*
X382400Y435579D03*
Y439221D03*
X382237Y475081D03*
Y478723D03*
X381857Y503166D03*
Y506808D03*
X385300Y326298D03*
Y329940D03*
X385743Y445658D03*
Y449300D03*
X387303Y455041D03*
Y458683D03*
X389500Y495798D03*
Y499440D03*
X397443Y361260D03*
X397500Y368598D03*
Y372240D03*
X397443Y364902D03*
X396960Y454090D03*
X393200D03*
X396960Y457731D03*
X393200D03*
X401300Y361260D03*
X405450Y361178D03*
X401300Y364902D03*
X401343Y368598D03*
Y372240D03*
X405450Y364820D03*
X400643Y446065D03*
X405100Y445998D03*
Y454090D03*
X400643Y449707D03*
X405100Y449640D03*
Y457731D03*
X409250Y361155D03*
Y364797D03*
X415400Y392194D03*
Y395836D03*
X411700Y392194D03*
Y395836D03*
X408843Y454090D03*
Y457731D03*
X409042Y467396D03*
Y471038D03*
X416843Y511825D03*
Y515467D03*
X420200Y483098D03*
Y486740D03*
X424043Y490416D03*
Y494058D03*
X427147Y237972D03*
Y241614D03*
X430300Y433960D03*
Y437602D03*
X428305Y523910D03*
Y527552D03*
X431950Y523910D03*
Y527552D03*
X437432Y324468D03*
Y328110D03*
X441132Y324668D03*
Y328310D03*
X435600Y523910D03*
Y527552D03*
X439600Y523910D03*
Y527552D03*
X448600Y308602D03*
Y312244D03*
X442100Y405501D03*
Y409143D03*
X443543Y523910D03*
Y527552D03*
X456356Y398478D03*
Y402119D03*
X452334Y438182D03*
Y441824D03*
X453300Y451882D03*
Y455524D03*
X472219Y454194D03*
Y457836D03*
X480887Y241104D03*
Y244746D03*
X480219Y385332D03*
Y388974D03*
X479634Y454194D03*
X475934Y454186D03*
X479634Y457836D03*
X475934Y457828D03*
X484032Y357868D03*
Y361510D03*
X483919Y385332D03*
Y388974D03*
X489600Y495165D03*
Y498807D03*
X492797Y227297D03*
Y230939D03*
X498550Y403479D03*
Y407121D03*
X506719Y253445D03*
Y257087D03*
X498934Y253347D03*
Y256989D03*
X501050Y357922D03*
Y361564D03*
X513240Y234244D03*
Y237886D03*
Y241716D03*
Y245358D03*
X510240Y368932D03*
Y372574D03*
X513803Y392551D03*
Y396193D03*
X509750Y403483D03*
Y407125D03*
X516919Y234273D03*
Y237915D03*
X516940Y241720D03*
Y245362D03*
G54D43*
X215667Y295457D03*
Y292111D03*
X222950Y295457D03*
Y292111D03*
X313823Y436444D03*
Y439003D03*
Y441562D03*
X321107Y436444D03*
Y441562D03*
G54D118*
X465100Y278179D03*
Y287179D03*
X472487Y235934D03*
Y244934D03*
X476800Y278179D03*
Y287179D03*
G54D61*
X257404Y515657D03*
X263404D03*
X331300Y382800D03*
Y403500D03*
Y409100D03*
Y414700D03*
Y420343D03*
Y426000D03*
X337300Y382800D03*
Y403500D03*
Y409100D03*
Y414700D03*
Y420343D03*
Y426000D03*
X429388Y532657D03*
X435388D03*
X451610Y508550D03*
X457610D03*
G54D127*
X495868Y282036D03*
X493309D03*
X490750D03*
Y289319D03*
X495868D03*
X505768Y286123D03*
X503209D03*
X500650D03*
Y293407D03*
X505768D03*
G54D109*
X412551Y541529D03*
Y569482D03*
X440504Y541529D03*
Y569482D03*
G54D53*
X237385Y548977D03*
X240534D03*
X259432D03*
X262778D03*
G54D62*
X264683Y431800D03*
X268196Y475443D03*
X268200Y481100D03*
X272683Y437343D03*
X270683Y431800D03*
X277430Y463843D03*
X271430D03*
X274196Y475443D03*
X274200Y481100D03*
X278683Y437343D03*
X436879Y425300D03*
X442879D03*
G54D119*
X467578Y437319D03*
X478678D03*
G54D17*
X140679Y240266D03*
X144321D03*
X140779Y283457D03*
X144421D03*
X140779Y294757D03*
X144421D03*
X140679Y302366D03*
X144321D03*
X145850Y492257D03*
X145859Y488567D03*
X145850Y496057D03*
X145879Y503600D03*
X146210Y537757D03*
X152779Y320657D03*
X149491Y492257D03*
X149500Y488567D03*
X149491Y496057D03*
X149521Y503600D03*
X149852Y537757D03*
X156421Y320657D03*
X165379Y501150D03*
X169021D03*
X175771Y324816D03*
X178048Y346800D03*
X172949Y493586D03*
X176591D03*
X172849Y501086D03*
X176491D03*
X186652Y290200D03*
X186626Y286457D03*
X179413Y324816D03*
X181690Y346800D03*
X180109Y497363D03*
X183751D03*
X190294Y290200D03*
X190268Y286457D03*
X192625Y338266D03*
X192602Y334466D03*
X188701Y476081D03*
X192343D03*
X196267Y338266D03*
X196243Y334466D03*
X198258Y362900D03*
X201900D03*
X210902Y435250D03*
X212094Y349181D03*
X215736D03*
X214544Y435250D03*
X214098Y529200D03*
X217740D03*
X224598Y490100D03*
X228240D03*
X232320Y294166D03*
X235962D03*
X235698Y435250D03*
X239340D03*
X243783Y497367D03*
X243798Y508400D03*
X243779Y512100D03*
X248644Y323081D03*
X252286D03*
X248642Y326781D03*
X252283D03*
X248644Y330481D03*
X252286D03*
X250602Y481700D03*
X247425Y497367D03*
X247440Y508400D03*
X247421Y512100D03*
X253902Y432197D03*
X257544D03*
X254244Y481700D03*
X258337Y523624D03*
X258379Y519900D03*
X264309Y229850D03*
X267951D03*
X264259Y237500D03*
X267901D03*
X264259Y233600D03*
X267901D03*
X264259Y244881D03*
X267901D03*
X264259Y241181D03*
X267901D03*
X264259Y248557D03*
X267901D03*
X261979Y523624D03*
X262021Y519900D03*
X288868Y242368D03*
X292510D03*
X300579Y253750D03*
X301724Y465560D03*
X296098Y511300D03*
X299740D03*
X304221Y253750D03*
X307610Y360257D03*
X307618Y364057D03*
X303832Y441681D03*
X307474D03*
X305366Y465560D03*
X307361Y511250D03*
Y514950D03*
X311252Y360257D03*
X311260Y364057D03*
X311002Y511250D03*
Y514950D03*
X323868Y347868D03*
X324598Y464100D03*
X322683Y521157D03*
X326325D03*
X327510Y347868D03*
X327814Y361757D03*
X331456D03*
X327806Y358057D03*
X331448D03*
X332479Y398900D03*
X326753Y447550D03*
X330395D03*
X328240Y464100D03*
X336121Y398900D03*
X348923Y393966D03*
X348977Y405100D03*
Y408800D03*
Y412500D03*
Y416200D03*
Y419957D03*
X348974Y467203D03*
X349594Y496997D03*
X352565Y393966D03*
X352619Y405100D03*
Y408800D03*
Y412500D03*
X356479D03*
X356479Y408767D03*
X352619Y416200D03*
Y419957D03*
X356532Y416181D03*
Y419981D03*
X352615Y467203D03*
X353236Y496997D03*
X363698Y408800D03*
X367340D03*
X360121Y412500D03*
X360121Y408767D03*
X360174Y416181D03*
Y419981D03*
X359913Y444457D03*
X363555D03*
X359898Y451800D03*
X363540D03*
X374547Y355106D03*
X376694Y248400D03*
X380336D03*
X376694Y244700D03*
X380336D03*
X381977Y334557D03*
X378189Y355106D03*
X391482Y330457D03*
X385619Y334557D03*
X391402Y341657D03*
X386046Y349554D03*
X389688D03*
X389437Y375637D03*
X387259Y462197D03*
X390901D03*
X387933Y468375D03*
X391575D03*
X387918Y472183D03*
X391560D03*
X394879Y248700D03*
X398521D03*
X394880Y244000D03*
X398522D03*
X395124Y330457D03*
X395044Y341657D03*
X393079Y375637D03*
X397061Y510657D03*
Y514357D03*
Y518057D03*
Y525613D03*
Y533057D03*
Y529357D03*
Y536713D03*
X405570Y329357D03*
X401902Y480000D03*
X405544D03*
X400703Y510657D03*
X404461Y518100D03*
X408103D03*
X400703Y514357D03*
Y518057D03*
X404437Y521857D03*
X408079D03*
X400703Y525613D03*
Y533057D03*
Y529357D03*
Y536713D03*
X409211Y329357D03*
X424966Y504093D03*
X427502Y259000D03*
X431144D03*
X428608Y504093D03*
X433698Y504200D03*
X437340D03*
X442298Y504100D03*
X445940D03*
X457053Y247357D03*
X452757Y256057D03*
X456399D03*
X452757Y265557D03*
X456399D03*
X452757Y260957D03*
X456399D03*
X455764Y426117D03*
X460695Y247357D03*
X466032Y368181D03*
X459406Y426117D03*
X463164Y444157D03*
Y447900D03*
X466168Y330168D03*
X469810D03*
X466168Y333968D03*
X469810D03*
X466168Y337768D03*
X469810D03*
X466168Y341568D03*
X469810D03*
X469674Y368181D03*
X466806Y444157D03*
Y447900D03*
X486268Y249257D03*
X489910D03*
X486268Y253257D03*
X489910D03*
X486268Y269857D03*
X489910D03*
X486268Y266100D03*
X489910D03*
X484871Y503357D03*
X488513D03*
X484888Y507057D03*
X488530D03*
X498893Y260900D03*
X493201Y467700D03*
X496843D03*
X503294Y237681D03*
X506936D03*
X502535Y260900D03*
X498913Y264560D03*
X502554D03*
X500922Y314057D03*
X504564D03*
X510442Y488276D03*
X514083D03*
X510442Y491863D03*
X514083D03*
X509142Y495457D03*
X512783D03*
G54D35*
X190180Y275805D03*
X200022D03*
X207896D03*
X217739D03*
G54D71*
X277659Y229939D03*
X501809Y249214D03*
G54D44*
X219581Y302500D03*
X235660D03*
G54D128*
X496526Y352910D03*
G54D80*
X310140Y370651D03*
Y427501D03*
G54D26*
X172001Y473695D03*
X347020Y450192D03*
G54D90*
X346946Y572743D03*
X348915D03*
X350883D03*
X352852D03*
X354820D03*
X356789D03*
X358757D03*
X360726D03*
X362694D03*
X364663D03*
X366631D03*
X368600D03*
X370568D03*
X372537D03*
X374506D03*
X376474D03*
X378443D03*
X380411D03*
X382380D03*
X384348D03*
G54D36*
X196350Y287575D03*
Y294575D03*
X201450Y310775D03*
Y317775D03*
G54D18*
X143793Y308269D03*
Y324348D03*
G54D27*
X164520Y468773D03*
Y470742D03*
Y472710D03*
Y474679D03*
Y476648D03*
Y478616D03*
X257297Y491521D03*
Y497427D03*
X274226Y491521D03*
Y497427D03*
X339539Y445271D03*
Y447239D03*
Y449208D03*
Y451176D03*
Y453145D03*
Y455113D03*
X397243Y469204D03*
Y471173D03*
Y473141D03*
Y475110D03*
X405117Y469204D03*
Y475110D03*
Y473141D03*
Y471173D03*
X464005Y257059D03*
Y259028D03*
Y260996D03*
Y262965D03*
Y264933D03*
X476997D03*
Y262965D03*
Y260996D03*
Y259028D03*
Y257059D03*
G54D63*
X266015Y539043D03*
G54D45*
X219410Y490066D03*
X221416D03*
X279281Y293300D03*
X277275D03*
X288631Y307950D03*
X286625D03*
X299653Y293250D03*
X297647D03*
X308354Y335893D03*
X306348D03*
X308375Y338650D03*
X312003Y253800D03*
X309997D03*
X310381Y338650D03*
X322103Y244450D03*
X320097D03*
X324681Y330550D03*
X322675D03*
X329257Y325896D03*
X327251D03*
X329231Y330550D03*
X327225D03*
X340253Y325900D03*
X338247D03*
X366653Y238550D03*
X364647D03*
X366653Y241200D03*
X364647D03*
X366453Y254950D03*
X364447D03*
X366453Y257600D03*
X364447D03*
X370553Y315200D03*
X368547D03*
X370753Y327850D03*
X368747D03*
X377902Y252643D03*
X375896D03*
X377581Y279600D03*
X375575D03*
X406775Y262500D03*
X403181Y310200D03*
X401175D03*
X408781Y262500D03*
X414875Y310200D03*
X421066Y262500D03*
X419060D03*
X423975D03*
X416881Y310200D03*
X422975Y402800D03*
X423183Y413300D03*
X425981Y262500D03*
X431481D03*
X429475D03*
X424981Y402800D03*
X425189Y413300D03*
X437981Y262500D03*
X435975D03*
X440369Y309837D03*
X438363D03*
X435681Y309900D03*
X433675D03*
X449175Y402500D03*
X449075Y429500D03*
X451181Y402500D03*
X451081Y429500D03*
X463785Y247434D03*
X465791D03*
X504814Y462343D03*
X506820D03*
G54D72*
X285050Y298003D03*
Y295997D03*
X282476Y298003D03*
Y295997D03*
X279850Y297981D03*
Y295975D03*
X277250Y297981D03*
Y295975D03*
X300581Y310819D03*
Y308813D03*
X307250Y316603D03*
Y314597D03*
X304350Y316603D03*
Y314597D03*
X313307Y325944D03*
Y323938D03*
X317600Y325903D03*
Y323897D03*
X322657Y327982D03*
Y325976D03*
X323366Y363336D03*
Y361330D03*
X331700Y254581D03*
Y252575D03*
X327250Y327903D03*
Y325897D03*
X340800Y235931D03*
Y233925D03*
X340750Y245431D03*
Y243425D03*
X342057Y506618D03*
Y504612D03*
X350200Y231375D03*
X343700Y235981D03*
Y233975D03*
X350200Y233381D03*
X352550Y329081D03*
Y327075D03*
X364244Y287111D03*
Y285105D03*
X362700Y329103D03*
Y327097D03*
X370307Y289206D03*
Y287200D03*
X382900Y296181D03*
Y294175D03*
X391657Y247700D03*
Y249706D03*
X388000Y441581D03*
Y439575D03*
X390600Y441581D03*
Y439575D03*
X400600Y441581D03*
Y439575D03*
X412300Y441581D03*
Y439575D03*
X414900Y441581D03*
Y439575D03*
X419500Y312181D03*
Y310175D03*
X422200Y312181D03*
Y310175D03*
X423400Y425181D03*
Y423175D03*
X428600Y425181D03*
Y423175D03*
X426000Y425181D03*
Y423175D03*
X448400Y271522D03*
Y269516D03*
Y281081D03*
Y279075D03*
Y289351D03*
Y291357D03*
Y295981D03*
Y293975D03*
Y305381D03*
Y303375D03*
Y300781D03*
Y298775D03*
X490866Y296185D03*
Y294179D03*
G54D54*
X244078Y566891D03*
X255889D03*
G54D81*
X317192Y264841D03*
X315224D03*
X317192Y266809D03*
X315224D03*
X317192Y268778D03*
X315224D03*
X317192Y270747D03*
X315224D03*
X317192Y272715D03*
X315224D03*
X317192Y274684D03*
X315224D03*
X317192Y276652D03*
X315224D03*
X317192Y278621D03*
X315224D03*
X317192Y280589D03*
X315224D03*
X317192Y282558D03*
X315224D03*
X317192Y284526D03*
X315224D03*
X317192Y286495D03*
X315224D03*
X317192Y288463D03*
X315224D03*
X317192Y290432D03*
X315224D03*
X317192Y292400D03*
X315224D03*
X317192Y294369D03*
X315224D03*
X317192Y296337D03*
X315224D03*
X317192Y298306D03*
X315224D03*
X317192Y300274D03*
X315224D03*
X317192Y302243D03*
X315224D03*
X317192Y304211D03*
X315224D03*
X317192Y306180D03*
X315224D03*
X317192Y308148D03*
X315224D03*
X325066Y264841D03*
X323098D03*
X321129D03*
X319161D03*
X325066Y266809D03*
X323098D03*
X321129D03*
X319161D03*
X325066Y268778D03*
X321129D03*
X325066Y270747D03*
X321129D03*
X319161D03*
X325066Y272715D03*
Y274684D03*
X323098D03*
X321129D03*
X319161D03*
X321129Y276652D03*
X325066Y278621D03*
X323098D03*
X321129D03*
X319161D03*
X325066Y284526D03*
X323098D03*
X321129D03*
X319161D03*
X323098Y286495D03*
X319161D03*
X325066Y288463D03*
X323098D03*
X321129D03*
X319161D03*
X325066Y294369D03*
X323098D03*
X321129D03*
X319161D03*
X321129Y296337D03*
X325066Y298306D03*
X323098D03*
X321129D03*
X319161D03*
X325066Y300274D03*
Y302243D03*
X321129D03*
X319161D03*
X325066Y304211D03*
X321129D03*
X325066Y306180D03*
X321129D03*
X319161D03*
X323098D03*
X325066Y308148D03*
X323098D03*
X321129D03*
X319161D03*
X332940Y264841D03*
X330972D03*
X329003D03*
X327035D03*
X332940Y266809D03*
X330972D03*
X329003D03*
X327035D03*
X329003Y268778D03*
Y270747D03*
X327035D03*
X332940Y272715D03*
X330972D03*
X329003D03*
X332940Y276652D03*
X330972D03*
X329003D03*
X327035D03*
X332940Y278621D03*
X329003D03*
X327035D03*
X330972Y280589D03*
X329003D03*
X332940Y282558D03*
X330972D03*
X329003D03*
X330972Y284526D03*
X329003D03*
X327035D03*
X332940Y286495D03*
X329003D03*
X327035D03*
X330972Y288463D03*
X329003D03*
X327035D03*
X332940Y290432D03*
X330972D03*
X329003D03*
X330972Y292400D03*
X329003D03*
X332940Y294369D03*
X329003D03*
X327035D03*
X332940Y296337D03*
X330972D03*
X329003D03*
X327035D03*
X332940Y300274D03*
X330972D03*
X329003D03*
Y302243D03*
X327035D03*
X329003Y304211D03*
X332940Y306180D03*
X330972D03*
X329003D03*
X327035D03*
X332940Y308148D03*
X330972D03*
X329003D03*
X327035D03*
X340814Y264841D03*
X338846D03*
X336877D03*
X334909D03*
X340814Y266809D03*
X338846D03*
X336877D03*
X334909D03*
X338846Y268778D03*
X336877D03*
X334909D03*
X338846Y270747D03*
X334909D03*
X340814Y272715D03*
X338846D03*
X336877D03*
X334909D03*
X340814Y276652D03*
X338846D03*
X336877D03*
X334909D03*
X340814Y278621D03*
X336877D03*
X338846Y280589D03*
X334909D03*
X340814Y282558D03*
X336877D03*
X338846Y284526D03*
X334909D03*
X340814Y286495D03*
X336877D03*
X338846Y288463D03*
X334909D03*
X340814Y290432D03*
X336877D03*
X338846Y292400D03*
X334909D03*
X340814Y294369D03*
X336877D03*
X340814Y296337D03*
X338846D03*
X336877D03*
X334909D03*
X340814Y300274D03*
X338846D03*
X336877D03*
X334909D03*
X338846Y302243D03*
X334909D03*
X338846Y304211D03*
X336877D03*
X334909D03*
X340814Y306180D03*
X338846D03*
X336877D03*
X334909D03*
X340814Y308148D03*
X338846D03*
X336877D03*
X334909D03*
X350657Y264841D03*
X348688D03*
X346720D03*
X344751D03*
X342783D03*
X350657Y266809D03*
X348688D03*
X346720D03*
X344751D03*
X342783D03*
X348688Y268778D03*
X344751D03*
X348688Y270747D03*
X346720D03*
X344751D03*
X348688Y272715D03*
X344751D03*
X342783D03*
X350657Y274684D03*
X348688D03*
X346720Y276652D03*
X344751D03*
X342783D03*
X350657Y278621D03*
X348688D03*
X346720D03*
X344751D03*
Y280589D03*
X342783D03*
X344751Y282558D03*
X342783D03*
X350657Y284526D03*
X348688D03*
X346720D03*
X344751D03*
X342783D03*
X350657Y286495D03*
X346720D03*
X344751D03*
X350657Y288463D03*
X348688D03*
X346720D03*
X344751D03*
X342783D03*
X344751Y290432D03*
X342783D03*
X344751Y292400D03*
X342783D03*
X350657Y294369D03*
X348688D03*
X346720D03*
X344751D03*
X346720Y296337D03*
X344751D03*
X342783D03*
X350657Y298306D03*
X348688D03*
Y300274D03*
X344751D03*
X342783D03*
X348688Y302243D03*
X346720D03*
X344751D03*
X348688Y304211D03*
X344751D03*
X350657Y306180D03*
X348688D03*
X344751D03*
X342783D03*
X346720D03*
X350657Y308148D03*
X348688D03*
X346720D03*
X344751D03*
X342783D03*
X358531Y264841D03*
X356562D03*
X354594D03*
X352625D03*
X358531Y266809D03*
X356562D03*
X354594D03*
X352625D03*
X358531Y268778D03*
X356562D03*
X352625D03*
X358531Y270747D03*
X356562D03*
X354594D03*
X352625D03*
X358531Y272715D03*
X356562D03*
X358531Y274684D03*
X356562D03*
X354594D03*
X352625D03*
X358531Y276652D03*
X356562D03*
X352625D03*
X358531Y278621D03*
X356562D03*
X354594D03*
X352625D03*
X358531Y280589D03*
X356562D03*
X358531Y282558D03*
X356562D03*
X358531Y284526D03*
X356562D03*
X354594D03*
X352625D03*
X358531Y286495D03*
X356562D03*
X354594D03*
X358531Y288463D03*
X356562D03*
X354594D03*
X352625D03*
X358531Y290432D03*
X356562D03*
X358531Y292400D03*
X356562D03*
X358531Y294369D03*
X356562D03*
X354594D03*
X352625D03*
X358531Y296337D03*
X356562D03*
X352625D03*
X358531Y298306D03*
X356562D03*
X354594D03*
X352625D03*
X358531Y300274D03*
X356562D03*
X358531Y302243D03*
X356562D03*
X354594D03*
X352625D03*
X358531Y304211D03*
X356562D03*
X352625D03*
X358531Y306180D03*
X356562D03*
X354594D03*
X352625D03*
X358531Y308148D03*
X356562D03*
X354594D03*
X352625D03*
X431270Y346695D03*
X429302D03*
X427333D03*
X425365D03*
X431270Y348663D03*
X429302D03*
X427333D03*
X425365D03*
X431270Y350632D03*
X429302D03*
X427333D03*
X425365D03*
X429302Y352600D03*
X427333D03*
X425365D03*
X429302Y354569D03*
X427333D03*
X425365D03*
X429302Y356537D03*
X427333D03*
X425365D03*
X429302Y358506D03*
X427333D03*
X425365D03*
X429302Y360474D03*
X427333D03*
X425365D03*
X429302Y362443D03*
X427333D03*
X425365D03*
X429302Y364411D03*
X427333D03*
X425365D03*
X429302Y366380D03*
X427333D03*
X425365D03*
X431270Y368348D03*
X429302D03*
X427333D03*
X425365D03*
X431270Y370317D03*
X429302D03*
X427333D03*
X425365D03*
X431270Y372285D03*
X429302D03*
X427333D03*
X425365D03*
X439144Y346695D03*
X437176D03*
X435207D03*
X433239D03*
X439144Y348663D03*
X437176D03*
X435207D03*
X433239D03*
X439144Y350632D03*
X437176D03*
X435207D03*
X433239D03*
X439144Y354569D03*
X437176D03*
X435207D03*
X433239D03*
Y356537D03*
Y358506D03*
Y360474D03*
Y362443D03*
X439144Y364411D03*
X437176D03*
X435207D03*
X433239D03*
X439144Y368348D03*
X437176D03*
X435207D03*
X433239D03*
X439144Y370317D03*
X437176D03*
X435207D03*
X433239D03*
X439144Y372285D03*
X437176D03*
X435207D03*
X433239D03*
X448987Y346695D03*
X447018D03*
X445050D03*
X443081D03*
X441113D03*
X448987Y348663D03*
X447018D03*
X445050D03*
X443081D03*
X441113D03*
X448987Y350632D03*
X447018D03*
X445050D03*
X443081D03*
X441113D03*
X448987Y352600D03*
X447018D03*
X445050D03*
X448987Y354569D03*
X447018D03*
X443081D03*
X441113D03*
X448987Y356537D03*
X447018D03*
X443081D03*
X448987Y358506D03*
X447018D03*
X443081D03*
X448987Y360474D03*
X447018D03*
X443081D03*
X448987Y362443D03*
X447018D03*
X443081D03*
X448987Y364411D03*
X447018D03*
X443081D03*
X441113D03*
X448987Y366380D03*
X447018D03*
X448987Y368348D03*
X447018D03*
X445050D03*
X443081D03*
X441113D03*
X448987Y370317D03*
X447018D03*
X445050D03*
X443081D03*
X441113D03*
X448987Y372285D03*
X447018D03*
X445050D03*
X443081D03*
X441113D03*
X450955Y346695D03*
Y348663D03*
Y350632D03*
Y352600D03*
Y354569D03*
Y356537D03*
Y358506D03*
Y360474D03*
Y362443D03*
Y364411D03*
Y366380D03*
Y368348D03*
Y370317D03*
Y372285D03*
G54D129*
X514878Y418667D03*
Y430872D03*
Y443076D03*
G54D28*
X169048Y466214D03*
X167079D03*
Y481175D03*
X169048D03*
X176922Y466214D03*
X174953D03*
X172985D03*
X171016D03*
Y481175D03*
X172985D03*
X174953D03*
X176922D03*
X342098Y442712D03*
Y457672D03*
X349972Y442712D03*
X348004D03*
X346035D03*
X344067D03*
Y457672D03*
X346035D03*
X348004D03*
X349972D03*
X351941Y442712D03*
Y457672D03*
G54D46*
X216543Y495277D03*
X212803D03*
Y504277D03*
X216543D03*
X220284Y495277D03*
Y504277D03*
X398141Y549400D03*
Y558400D03*
X405621Y549400D03*
X401881D03*
Y558400D03*
X405621D03*
X489843Y480581D03*
X486103D03*
Y489581D03*
X489843D03*
X493584Y480581D03*
Y489581D03*
G54D91*
X357024Y377907D03*
Y375348D03*
Y380466D03*
X365686Y375348D03*
Y380466D03*
X383509Y354484D03*
Y359602D03*
X392171Y354484D03*
Y357043D03*
Y359602D03*
X497109Y370507D03*
Y367948D03*
Y373066D03*
X505771Y367948D03*
Y373066D03*
G54D73*
X286676Y465600D03*
X296124D03*
X386510Y380643D03*
X395958D03*
X413045Y532700D03*
X422493D03*
G54D37*
X194663Y300406D03*
Y309854D03*
X337168Y461575D03*
Y471023D03*
G54D55*
X250432Y457974D03*
X262244D03*
G54D82*
X319896Y236040D03*
Y239976D03*
G54D64*
X262078Y536484D03*
Y539043D03*
Y541602D03*
X269952D03*
Y539043D03*
Y536484D03*
G54D19*
X138266Y384844D03*
Y381203D03*
X153700Y500091D03*
Y496449D03*
X153668Y510990D03*
Y514632D03*
X153757Y533336D03*
Y536978D03*
X153768Y551632D03*
Y547990D03*
X157300Y511049D03*
Y514691D03*
X157481Y544220D03*
Y540578D03*
X157457Y551574D03*
Y547932D03*
X157807Y573752D03*
Y570111D03*
X175400Y294221D03*
Y290579D03*
X172018Y313890D03*
X172100Y321210D03*
X172018Y317532D03*
X172100Y324852D03*
X182900Y287021D03*
Y283379D03*
X179200Y286921D03*
Y283279D03*
X200150Y326898D03*
Y323256D03*
X207250Y312357D03*
Y315999D03*
X213507Y305330D03*
Y301688D03*
X220500Y314452D03*
Y310810D03*
X228131Y314406D03*
Y310764D03*
X222731Y352404D03*
Y348763D03*
X235931Y314412D03*
Y310771D03*
X232695Y540902D03*
Y537260D03*
X228995Y540902D03*
Y537260D03*
X239831Y314406D03*
Y310764D03*
X238821Y474831D03*
Y471189D03*
X243600Y493606D03*
Y489964D03*
X243142Y540927D03*
Y537286D03*
X252752Y540966D03*
Y537324D03*
X247152Y540970D03*
Y537328D03*
X256795Y540906D03*
Y537264D03*
X273950Y297571D03*
Y293929D03*
X281431Y229294D03*
Y225652D03*
X283100Y483660D03*
Y487302D03*
X288200Y297021D03*
Y293379D03*
X291900Y297021D03*
Y293379D03*
X286900Y483660D03*
X290600D03*
X286900Y487302D03*
X290600D03*
X299960Y270295D03*
Y266654D03*
X299600Y441621D03*
Y437979D03*
X294300Y483660D03*
X298057Y483678D03*
X294300Y487302D03*
X298057Y487320D03*
X299800Y524502D03*
Y520860D03*
X296100Y524502D03*
Y520860D03*
X303500Y511261D03*
Y514902D03*
X307200Y524502D03*
Y520860D03*
X303500Y524502D03*
Y520860D03*
X310557Y502654D03*
Y499012D03*
X314700Y524502D03*
Y520860D03*
X310900Y524502D03*
Y520860D03*
X326681Y459368D03*
Y455726D03*
X332460Y329999D03*
Y326358D03*
X330600Y378321D03*
Y374679D03*
X331100Y436521D03*
Y432879D03*
X330381Y459368D03*
Y455726D03*
X331900Y467602D03*
Y463960D03*
X333857Y516743D03*
Y513101D03*
X330000Y525167D03*
Y521525D03*
X341866Y379023D03*
Y382665D03*
X341900Y482521D03*
Y478879D03*
X337600Y516802D03*
Y513160D03*
X337557Y525167D03*
Y521525D03*
X346950Y231856D03*
Y235498D03*
X348900Y437602D03*
Y433960D03*
X345200Y437602D03*
Y433960D03*
X347497Y501052D03*
X351197Y501029D03*
X347497Y504694D03*
X351197Y504670D03*
X367700Y467099D03*
Y463457D03*
X360157Y467099D03*
Y463457D03*
X363900Y467099D03*
Y463457D03*
X370950Y240771D03*
Y237129D03*
X374800Y411621D03*
Y407979D03*
X374700Y418806D03*
Y415164D03*
X372657Y467659D03*
Y464017D03*
X381605Y329923D03*
Y326281D03*
X381857Y499440D03*
Y495798D03*
X389297Y445725D03*
Y449367D03*
X389487Y503166D03*
X385500D03*
X385557Y499440D03*
Y495798D03*
X389487Y506808D03*
X385500D03*
X396857Y446086D03*
X393200Y446060D03*
X396857Y449727D03*
X393200Y449702D03*
X396857Y503166D03*
X393157D03*
X396857Y506808D03*
X393157D03*
X393597Y549748D03*
Y553390D03*
X398141Y567455D03*
Y563813D03*
X401557Y329466D03*
Y325824D03*
X405450Y353472D03*
Y357114D03*
Y372126D03*
Y368484D03*
X400657Y454090D03*
Y457731D03*
X400557Y503166D03*
Y506808D03*
X401757Y567455D03*
Y563813D03*
X405397Y567455D03*
Y563813D03*
X409250Y353476D03*
Y357118D03*
Y372149D03*
Y368507D03*
X412557Y454000D03*
Y457642D03*
X423497Y237972D03*
X419897D03*
X423497Y241614D03*
X419897D03*
X419100Y395836D03*
Y392194D03*
X424457Y409666D03*
Y406024D03*
X424000Y486802D03*
Y483160D03*
X420540Y515479D03*
Y511837D03*
X424467Y527552D03*
Y523910D03*
X430757Y237972D03*
Y241614D03*
X430500Y313902D03*
Y310260D03*
X426557Y313936D03*
Y310294D03*
X431900Y427898D03*
Y424256D03*
X428800Y476307D03*
Y472665D03*
X434357Y237972D03*
X437997D03*
X434357Y241614D03*
X437997D03*
X434768Y393132D03*
Y389490D03*
X438468Y393132D03*
Y389490D03*
X434000Y437602D03*
Y433960D03*
X433700Y476307D03*
Y472665D03*
X438800Y476307D03*
Y472665D03*
X448668Y328332D03*
Y324690D03*
X444968Y328332D03*
Y324690D03*
X446068Y393132D03*
Y389490D03*
X442268Y393132D03*
Y389490D03*
X442100Y401899D03*
Y398257D03*
X452143Y279802D03*
Y276160D03*
X456957Y281954D03*
Y278312D03*
X456168Y328332D03*
Y324690D03*
X452368Y328332D03*
Y324690D03*
X449768Y393132D03*
Y389490D03*
X453468Y393132D03*
Y389490D03*
X457066Y444576D03*
X457057Y451882D03*
X457066Y448218D03*
X457057Y455524D03*
X460000Y402117D03*
Y398475D03*
X464900Y503417D03*
Y507058D03*
X468700Y503417D03*
X472457D03*
X468700Y507058D03*
X472457D03*
X477100Y499013D03*
Y495372D03*
X481200Y499013D03*
Y495372D03*
X481160Y503417D03*
X477057D03*
X481160Y507058D03*
X477057D03*
X484957Y281954D03*
Y278312D03*
X488060Y361491D03*
Y357850D03*
X488537Y443442D03*
Y447083D03*
X485557Y495165D03*
Y498807D03*
X494043Y257002D03*
Y253360D03*
X495866Y298284D03*
Y294643D03*
X491860Y361560D03*
Y357918D03*
X495560Y361564D03*
Y357922D03*
X490960Y368910D03*
Y372552D03*
X493500Y475102D03*
Y471460D03*
X493600Y495165D03*
X492226Y503417D03*
X493600Y498807D03*
X492226Y507058D03*
X499500Y237860D03*
Y241502D03*
X506866Y246104D03*
X502781Y257006D03*
Y253364D03*
X506866Y249745D03*
X500200Y491002D03*
Y487360D03*
X505000Y491002D03*
Y487360D03*
X504978Y499013D03*
Y495372D03*
X500186Y499013D03*
Y495372D03*
X505000Y503417D03*
X500187D03*
X505000Y507058D03*
X500187D03*
G54D65*
X276714Y228403D03*
X500864Y247678D03*
G54D74*
X287800Y443730D03*
Y456730D03*
G54D56*
X251604Y526139D03*
X248257D03*
X251604Y533423D03*
X248257D03*
G54D47*
X218318Y537972D03*
Y544472D03*
Y560929D03*
Y567429D03*
X224100Y537928D03*
Y544428D03*
Y560929D03*
Y567429D03*
G54D92*
X357488Y472543D03*
Y478448D03*
X361425Y472543D03*
X359457D03*
Y478448D03*
X361425D03*
G54D83*
X323019Y333711D03*
Y338436D03*
X328925Y333711D03*
Y338436D03*
G54D29*
X176203Y265569D03*
X231715D03*
G54D38*
X203666Y287660D03*
Y296660D03*
X211147Y287660D03*
X207407D03*
Y296660D03*
X211147D03*
G54D75*
X293252Y538786D03*
Y543786D03*
Y548786D03*
Y553786D03*
X334196Y533943D03*
Y543943D03*
Y538943D03*
Y548943D03*
Y558943D03*
Y553943D03*
Y568943D03*
Y563943D03*
G54D39*
X201125Y303500D03*
X208125D03*
X277440Y516143D03*
X270440D03*
X277740Y529331D03*
X270740D03*
X460675Y295300D03*
X467675D03*
G54D57*
X257539Y438012D03*
X261039Y446012D03*
X264539Y438012D03*
G54D66*
X275769Y229939D03*
X499919Y249214D03*
G54D84*
X322345Y376438D03*
Y378406D03*
Y380375D03*
Y382343D03*
Y384312D03*
Y386280D03*
Y388249D03*
Y390217D03*
Y392186D03*
Y394154D03*
Y396123D03*
Y398091D03*
Y400060D03*
Y402028D03*
Y403997D03*
Y405965D03*
Y407934D03*
Y409902D03*
Y411871D03*
Y413840D03*
Y415808D03*
Y417777D03*
Y419745D03*
Y421714D03*
G54D93*
X358200Y496960D03*
Y500700D03*
Y504440D03*
X367200Y500700D03*
Y496960D03*
Y504440D03*
G54D48*
X220457Y327942D03*
X224394Y324005D03*
Y327942D03*
X220457Y331879D03*
Y335816D03*
X224394Y331879D03*
Y335816D03*
X220457Y339753D03*
X224394D03*
X228331Y324005D03*
Y327942D03*
X232268Y324005D03*
Y327942D03*
X236205Y324005D03*
Y327942D03*
X228331Y331879D03*
Y335816D03*
X232268Y331879D03*
Y335816D03*
X236205Y331879D03*
Y335816D03*
X228331Y339753D03*
X232268D03*
X236205D03*
G54D49*
X222814Y517492D03*
X222829Y521583D03*
X222823Y526106D03*
X229113Y517492D03*
X229128Y521583D03*
X229122Y526106D03*
G54D85*
X332909Y502387D03*
Y508785D03*
X337732Y502387D03*
Y508785D03*
G54D67*
X275769Y226868D03*
X499919Y246143D03*
G54D76*
X300340Y235704D03*
Y249234D03*
Y242234D03*
X295882Y314500D03*
X299818D03*
X295882Y320500D03*
X299818D03*
X304276Y235704D03*
Y249234D03*
Y242234D03*
X303632Y320500D03*
X307568D03*
X375510Y257494D03*
Y263494D03*
Y310994D03*
Y316994D03*
X379446Y257494D03*
Y263494D03*
X377110Y276394D03*
X381046D03*
X379446Y310994D03*
Y316994D03*
G54D58*
X265761Y494474D03*
G54D94*
X359151Y523333D03*
Y536325D03*
Y549317D03*
Y562309D03*
X372143Y523333D03*
Y536325D03*
Y549317D03*
Y562309D03*
G54D95*
X383480Y341657D03*
X387680Y367657D03*
G54D86*
X343600Y516246D03*
Y518215D03*
Y520183D03*
Y522152D03*
Y524120D03*
Y526089D03*
Y528057D03*
Y530026D03*
Y531994D03*
Y533963D03*
Y535932D03*
Y537900D03*
Y539868D03*
Y541837D03*
Y543806D03*
Y545774D03*
Y547743D03*
Y549711D03*
Y551680D03*
Y553648D03*
Y555617D03*
Y557585D03*
Y559554D03*
Y561522D03*
Y563491D03*
Y565459D03*
Y567428D03*
Y569396D03*
G54D77*
X301172Y330816D03*
X313172D03*
G54D59*
X258872Y487978D03*
Y500970D03*
X268714Y487978D03*
X266746D03*
X264777D03*
X262809D03*
X260840D03*
X268714Y500970D03*
X266746D03*
X264777D03*
X262809D03*
X260840D03*
X272651Y487978D03*
X270683D03*
X272651Y500970D03*
X270683D03*
X472469Y254500D03*
X470501D03*
X468532D03*
X466564D03*
Y267492D03*
X468532D03*
X470501D03*
X472469D03*
X474438Y254500D03*
Y267492D03*
G54D68*
X271457Y443898D03*
Y456898D03*
X279657Y443904D03*
Y456904D03*
G54D96*
X379543Y339098D03*
Y341657D03*
Y344216D03*
X383743Y365098D03*
Y367657D03*
Y370216D03*
X387417Y339098D03*
Y344216D03*
Y341657D03*
X391617Y370216D03*
Y367657D03*
Y365098D03*
G54D69*
X274949Y558961D03*
Y570061D03*
X283639Y558961D03*
Y570061D03*
G54D78*
X296300Y499142D03*
Y501111D03*
Y503079D03*
X304666Y501111D03*
Y499142D03*
Y503079D03*
G54D87*
X350900Y472425D03*
Y479425D03*
X368853Y472481D03*
Y479481D03*
X376520Y472513D03*
Y479513D03*
G54D79*
X301467Y495943D03*
X299499D03*
X297530D03*
Y506278D03*
X299499D03*
X301467D03*
X303436Y495943D03*
Y506278D03*
G54D97*
X384530Y407490D03*
Y409458D03*
Y411427D03*
Y413395D03*
Y415364D03*
Y417332D03*
Y419301D03*
Y421269D03*
Y423238D03*
Y425206D03*
Y427175D03*
Y429143D03*
G54D88*
X343994Y513294D03*
Y572349D03*
X387301Y513294D03*
Y572349D03*
G54D98*
X389103Y223362D03*
Y231844D03*
X405047Y223362D03*
Y231844D03*
X421890Y223648D03*
Y232130D03*
X437834Y223648D03*
Y232130D03*
G54D89*
X350883Y512900D03*
X348915D03*
X346946D03*
X358757D03*
X356789D03*
X354820D03*
X352852D03*
X366631D03*
X364663D03*
X362694D03*
X360726D03*
X374506D03*
X372537D03*
X370568D03*
X368600D03*
X382380D03*
X380411D03*
X378443D03*
X376474D03*
X384348D03*
G54D99*
X391767Y272121D03*
Y268971D03*
X389208Y272121D03*
Y268971D03*
X391767Y281570D03*
Y278420D03*
Y275270D03*
X389208Y281570D03*
Y278420D03*
Y275270D03*
X391767Y297318D03*
Y294168D03*
Y291018D03*
X389208Y297318D03*
Y294168D03*
Y291018D03*
X391767Y303617D03*
Y300467D03*
X389208Y303617D03*
Y300467D03*
X399444Y272121D03*
Y268971D03*
X396885Y272121D03*
Y268971D03*
X394326Y272121D03*
Y268971D03*
X399444Y281570D03*
Y278420D03*
Y275270D03*
X396885Y281570D03*
Y278420D03*
Y275270D03*
X394326Y281570D03*
Y278420D03*
Y275270D03*
X399444Y297318D03*
Y294168D03*
Y291018D03*
X396885Y297318D03*
Y294168D03*
Y291018D03*
X394326Y297318D03*
Y294168D03*
Y291018D03*
X399444Y303617D03*
Y300467D03*
X396885Y303617D03*
Y300467D03*
X394326Y303617D03*
Y300467D03*
X407121Y272121D03*
Y268971D03*
X404562Y272121D03*
Y268971D03*
X402003Y272121D03*
Y268971D03*
X407121Y281570D03*
Y278420D03*
Y275270D03*
X404562Y281570D03*
Y278420D03*
Y275270D03*
X402003Y281570D03*
Y278420D03*
Y275270D03*
X407121Y297318D03*
Y294168D03*
Y291018D03*
X404562Y297318D03*
Y294168D03*
Y291018D03*
X402003Y297318D03*
Y294168D03*
Y291018D03*
X407121Y303617D03*
Y300467D03*
X404562Y303617D03*
Y300467D03*
X402003Y303617D03*
Y300467D03*
X412239Y272121D03*
Y268971D03*
X409680Y272121D03*
Y268971D03*
X412239Y281570D03*
Y278420D03*
Y275270D03*
X409680Y281570D03*
Y278420D03*
Y275270D03*
X412239Y297318D03*
Y294168D03*
Y291018D03*
X409680Y297318D03*
Y294168D03*
Y291018D03*
X412239Y303617D03*
Y300467D03*
X409680Y303617D03*
Y300467D03*
X422475Y272121D03*
Y268971D03*
X419916Y272121D03*
Y268971D03*
X422475Y281570D03*
Y278420D03*
Y275270D03*
X419916Y281570D03*
Y278420D03*
Y275270D03*
X422475Y297318D03*
Y294168D03*
Y291018D03*
X419916Y297318D03*
Y294168D03*
Y291018D03*
X422475Y303617D03*
Y300467D03*
X419916Y303617D03*
Y300467D03*
X432711Y272121D03*
Y268971D03*
X430152Y272121D03*
Y268971D03*
X427593Y272121D03*
Y268971D03*
X425034Y272121D03*
Y268971D03*
X432711Y281570D03*
Y278420D03*
Y275270D03*
X430152Y281570D03*
Y278420D03*
Y275270D03*
X427593Y281570D03*
Y278420D03*
Y275270D03*
X425034Y281570D03*
Y278420D03*
Y275270D03*
X432711Y297318D03*
Y294168D03*
Y291018D03*
X430152Y297318D03*
Y294168D03*
Y291018D03*
X427593Y297318D03*
Y294168D03*
Y291018D03*
X425034Y297318D03*
Y294168D03*
Y291018D03*
X432711Y303617D03*
Y300467D03*
X430152Y303617D03*
Y300467D03*
X427593Y303617D03*
Y300467D03*
X425034Y303617D03*
Y300467D03*
X440389Y272121D03*
Y268971D03*
X437830Y272121D03*
Y268971D03*
X435270Y272121D03*
Y268971D03*
X440389Y281570D03*
Y278420D03*
Y275270D03*
X437830Y281570D03*
Y278420D03*
Y275270D03*
X435270Y281570D03*
Y278420D03*
Y275270D03*
X440389Y297318D03*
Y294168D03*
Y291018D03*
X437830Y297318D03*
Y294168D03*
Y291018D03*
X435270Y297318D03*
Y294168D03*
Y291018D03*
X440389Y303617D03*
Y300467D03*
X437830Y303617D03*
Y300467D03*
X435270Y303617D03*
Y300467D03*
X442948Y272121D03*
Y268971D03*
Y281570D03*
Y278420D03*
Y275270D03*
Y297318D03*
Y294168D03*
Y291018D03*
Y303617D03*
Y300467D03*
M02*
